<?xml version="1.0" encoding="UTF-8"?>
<svg id="_レイヤー_2" data-name="レイヤー 2" xmlns="http://www.w3.org/2000/svg" width="332.8" height="406.31" xmlns:xlink="http://www.w3.org/1999/xlink" viewBox="0 0 332.8 406.31">
  <defs>
    <style>
      .cls-1 {
        fill: #68d3f2;
      }

      .cls-2 {
        fill: url(#_名称未設定グラデーション_5);
      }

      .cls-3 {
        fill: #f2f2f2;
      }

      .cls-4 {
        fill: #f28d63;
      }
    </style>
    <linearGradient id="_名称未設定グラデーション_5" data-name="名称未設定グラデーション 5" x1="10.7" y1="387.36" x2="10.7" y2="20.21" gradientUnits="userSpaceOnUse">
      <stop offset="0" stop-color="#96ddf2"/>
      <stop offset=".99" stop-color="#f2a788"/>
    </linearGradient>
  </defs>
  <g id="_レイヤー_1-2" data-name="レイヤー 1">
    <g>
      <path class="cls-2" d="M10.78,387.32l10.6-11.35c.06-.07.01-.18-.08-.18h-5.72V31.77h5.72c.09,0,.14-.11.08-.18l-10.6-11.35s-.11-.04-.15,0L.03,31.59c-.06.07-.02.18.08.18h5.72v344.03H.11c-.09,0-.14.11-.08.18l10.6,11.35s.11.04.15,0Z"/>
      <path class="cls-4" d="M9.79.88c0-.31-.02-.6-.08-.88h1.75c-.04.3-.08.57-.08.88v.18h4.26c.63,0,1.05-.03,1.5-.09v1.47c-.48-.06-.84-.08-1.5-.08H5.72c-.66,0-1,.01-1.48.08V.98c.45.06.88.09,1.56.09h3.99v-.18ZM4.64,7.96c0-.5-.02-.86-.06-1.3.45.04.9.06,1.5.06h9.31c.69,0,1.02-.01,1.42-.06-.04.43-.06.79-.06,1.29v3.67c0,.71-.08.99-.34,1.23-.29.25-.72.34-1.74.34-.3,0-.38,0-.83-.03q-.22,0-.46-.02c-.03-.64-.11-.97-.3-1.44.73.09,1.41.13,1.8.13.27,0,.34-.06.34-.3v-3.58H6.17v3.83c0,.73.02,1.09.08,1.59h-1.7c.06-.32.09-.9.09-1.59v-3.83ZM6.43,3.93c0-.45-.01-.71-.04-1.03.39.03.75.04,1.41.04h5.97c.62,0,.9-.02,1.29-.04-.03.36-.04.58-.04,1.05v1.23c0,.54.01.72.04,1.05-.38-.03-.71-.04-1.37-.04h-5.94c-.6,0-.96.02-1.37.04.03-.29.04-.58.04-1.05v-1.25ZM13.78,10.62c0,.42.02.7.04.97-.25-.03-.82-.04-1.2-.04h-3.63v.72h-1.49c.04-.27.06-.6.06-1.17v-1.67c0-.41-.02-.69-.05-.94.36.03.65.04,1.17.04h3.96c.54,0,.68,0,1.17-.04-.03.28-.04.49-.04.93v1.2ZM7.93,4.98h5.57v-.87h-5.57v.87ZM8.99,10.41h3.4v-.78h-3.4v.78Z"/>
      <path class="cls-1" d="M14.35,399.62c-.54,1.47-.97,2.25-1.83,3.19,1.7.71,2.58,1.12,4.41,2.12l-1.19,1.33c-1.62-1.04-2.8-1.67-4.42-2.37-1.57,1.17-3.27,1.83-6.24,2.42-.22-.6-.43-1.02-.79-1.54,2.44-.3,3.97-.74,5.38-1.54-1.29-.5-1.62-.6-3.85-1.18.85-1.07,1.2-1.56,1.71-2.42h-1.63c-.72,0-1.14.01-1.57.08v-1.62c.43.06.73.07,1.57.07h2.48c.45-.85.72-1.47.85-2.02l1.74.25q-.15.3-.3.62c-.11.21-.29.6-.56,1.15h5.47c.84,0,1.16-.01,1.58-.07v1.62c-.45-.06-.88-.08-1.58-.08h-1.23ZM9.76,394.15c0-.45-.01-.75-.08-1.1h1.75c-.04.3-.06.65-.06,1.08v.25h3.88c.72,0,1.16-.01,1.65-.06-.04.36-.06.69-.06,1.09v1.07c0,.43.01.72.06,1.06h-1.56v-1.72H6.04v1.72h-1.59c.04-.33.08-.64.08-1.06v-1.07c0-.33-.03-.72-.08-1.09.5.04.93.06,1.65.06h3.66v-.24ZM9.32,399.62c-.44.72-.58.97-1.11,1.71,1.41.4,1.71.51,2.79.9.83-.78,1.26-1.46,1.68-2.61h-3.36Z"/>
      <rect class="cls-3" x="29.55" y="19.07" width="119.19" height="68.4"/>
      <rect class="cls-3" x="154.05" y="19.07" width="178.75" height="68.4"/>
      <g>
        <path d="M51.06,48.36l-2.28.38-.04-1.58,4.12-.6-.02,1.02v9.88h-1.78v-9.1Z"/>
        <path d="M55.08,52.23c0-3.55,1.63-5.67,4.18-5.67s3.97,1.89,3.97,5.37-1.58,5.64-4.15,5.64-4-1.91-4-5.34ZM61.36,52.11c0-2.83-.72-3.96-2.23-3.96-1.38,0-2.19,1.3-2.19,3.92s.79,3.93,2.27,3.93c1.36,0,2.16-1.28,2.16-3.88Z"/>
        <path d="M65.7,57.48c-.78-.05-1.35-.42-1.35-1.05s.51-1.11,1.17-1.11c.94,0,1.6.76,1.6,1.88s-.81,2.42-1.79,3.15h-1.39c.96-.79,1.86-1.98,1.75-2.86Z"/>
        <path d="M68.22,52.23c0-3.55,1.63-5.67,4.18-5.67s3.97,1.89,3.97,5.37-1.58,5.64-4.15,5.64-4-1.91-4-5.34ZM74.5,52.11c0-2.83-.72-3.96-2.23-3.96-1.38,0-2.19,1.3-2.19,3.92s.79,3.93,2.27,3.93c1.36,0,2.16-1.28,2.16-3.88Z"/>
        <path d="M77.37,52.23c0-3.55,1.63-5.67,4.18-5.67s3.97,1.89,3.97,5.37-1.58,5.64-4.15,5.64-4-1.91-4-5.34ZM83.65,52.11c0-2.83-.72-3.96-2.23-3.96-1.38,0-2.19,1.3-2.19,3.92s.79,3.93,2.27,3.93c1.36,0,2.16-1.28,2.16-3.88Z"/>
        <path d="M86.52,52.23c0-3.55,1.63-5.67,4.18-5.67s3.97,1.89,3.97,5.37-1.58,5.64-4.15,5.64-4-1.91-4-5.34ZM92.8,52.11c0-2.83-.72-3.96-2.23-3.96-1.38,0-2.19,1.3-2.19,3.92s.79,3.93,2.27,3.93c1.36,0,2.16-1.28,2.16-3.88Z"/>
        <path d="M100.51,46.21h11.25v10.44c0,1.11-.4,1.48-1.56,1.48-.67,0-1.54-.04-2.4-.12l-.3-1.53c.74.1,1.61.18,2.17.18.47,0,.59-.13.59-.54v-3.38h-8.25v5.52h-1.5v-12.06ZM105.36,51.45v-3.92h-3.34v3.92h3.34ZM110.26,51.45v-3.92h-3.44v3.92h3.44Z"/>
        <path d="M120.3,52.09c-.54,0-1,.42-1.2,1.86h-1.42c.22-2.42,1.42-3.34,2.62-3.34,1.89,0,2.1,1.98,3.13,1.98.51,0,1.06-.31,1.21-1.86h1.44c-.22,2.22-1.26,3.34-2.61,3.34-1.88,0-2.12-1.98-3.18-1.98Z"/>
      </g>
      <g>
        <path d="M168.56,41.09c-.35.62-.73,1.15-1.12,1.62l-.62-1.34c1.29-1.68,2.3-3.84,2.84-6.08l1.37.29c-.32,1.11-.64,2-1.12,3.04v8.87h-1.36v-6.4ZM170.88,45.73h3.28v-3.82h-3.61v-1.26h3.61v-2.79c-1.01.14-2.09.27-2.84.32l-.5-1.2c2.42-.2,4.86-.63,6.75-1.16l.94,1.19c-.97.27-2.04.5-2.96.63v3.01h3.71v1.26h-3.71v3.82h3.4v1.26h-8.07v-1.26Z"/>
        <path d="M180.82,46.16c2.9-.88,4.48-2.48,4.99-5.01h-4.2v-1.23h4.31v-2.49h-4.86v-1.23h11.26v1.23h-4.94v2.49h4.4v1.23h-4.1c.84,2.06,2.51,3.66,4.96,4.69l-.95,1.32c-2.12-.94-4.05-2.91-4.87-4.93-.52,2.39-2.35,4.27-5.04,5.18l-.94-1.25Z"/>
        <path d="M194.17,45.94h5.27v-1.12h-4.1v-1.11h4.1v-.99h-2.91v-3.28h7.31v3.28h-3v.99h4.17v1.11h-4.17v1.12h5.34v1.15h-12v-1.15ZM194.51,37.47h2.38c-.31-.63-.59-1.06-1.02-1.54l1.23-.52c.42.46.74.95,1.13,1.64l-.95.42h2.16v-2.33h1.4v2.33h1.02c.38-.63.7-1.26,1.09-2.16l1.34.53c-.42.73-.73,1.22-1.04,1.62h2.59v3h-1.34v-1.89h-8.66v1.89h-1.34v-3ZM202.55,41.71v-1.26h-4.73v1.26h4.73Z"/>
        <path d="M212.55,38.6c0-.62.46-1.13,1.13-1.13s1.13.52,1.13,1.13-.46,1.13-1.13,1.13-1.13-.52-1.13-1.13ZM212.55,44.05c0-.62.46-1.15,1.13-1.15s1.13.53,1.13,1.15-.46,1.12-1.13,1.12-1.13-.5-1.13-1.12Z"/>
        <path d="M223.37,41.98c-.64.07-1.61.14-2.12.17l-.29-1.25,1.28-.04c.31-.35.5-.6.76-.92-.55-.77-1.16-1.5-1.82-2.13l.79-.94.49.53c.49-.66.95-1.43,1.39-2.3l1.13.59c-.5.85-1.11,1.64-1.82,2.48l.6.8c.53-.71,1.06-1.5,1.57-2.31l1.13.67c-.87,1.22-1.74,2.27-2.87,3.49.48-.01,1.3-.08,1.75-.13-.14-.42-.24-.64-.45-1.06l1.01-.38c.43.8.84,1.75,1.12,2.69l-1.09.58c-.08-.34-.14-.53-.22-.83-.38.07-.83.14-1.08.15v5.66h-1.25v-5.52ZM221.04,46.04c.35-.92.57-2.03.67-3.29l1.16.17c-.11,1.54-.32,2.72-.64,3.68l-1.19-.56ZM224.98,42.97l1.05-.36c.41.84.7,1.72.94,2.76l-1.23.55c-.17-1.08-.43-2.12-.76-2.94ZM228.91,47.24l-.24-1.43c.55.1,1.15.17,1.67.17.6,0,.77-.14.9-.71.24-1.11.36-3.05.45-6.56h-3.17c-.34.83-.69,1.51-1.15,2.19l-.94-.97c.78-1.32,1.36-2.93,1.64-4.61l1.34.29c-.14.67-.29,1.23-.49,1.82h4.09c-.04,4.52-.21,7.31-.53,8.68-.21.91-.66,1.21-1.83,1.21-.56,0-1.22-.04-1.74-.08ZM227.78,40.97l1.06-.62c.6.74,1.15,1.69,1.61,2.82l-1.19.69c-.36-1.07-.88-2.07-1.48-2.89Z"/>
        <path d="M239.8,38.07l-2.13.35-.04-1.47,3.85-.56v.95s-.01,9.23-.01,9.23h-1.67v-8.5Z"/>
        <path d="M243.71,45.41c3.25-2.49,4.78-4.13,4.78-5.79,0-1.23-.76-1.77-1.85-1.77-.97,0-1.84.39-2.56,1.02l-.07-1.56c.74-.55,1.82-.94,3.03-.94,1.96,0,3.18,1.09,3.18,2.97s-1.36,3.61-4.1,5.8h4.2v1.41h-6.6v-1.16Z"/>
        <path d="M252.85,46.58c-.73-.04-1.26-.39-1.26-.98s.48-1.04,1.09-1.04c.88,0,1.5.71,1.5,1.75s-.76,2.25-1.67,2.94h-1.3c.9-.74,1.74-1.85,1.64-2.67Z"/>
        <path d="M255.14,43.85c0-1.01.67-2.03,2.1-2.56-1.04-.48-1.65-1.22-1.65-2.28,0-1.42,1.15-2.62,3.35-2.62,2.04,0,3.25,1.05,3.25,2.56,0,1.01-.64,1.85-1.83,2.31,1.46.57,2.14,1.34,2.14,2.54,0,1.55-1.29,2.87-3.74,2.87-2.28,0-3.61-1.22-3.61-2.82ZM259,45.32c1.23,0,1.81-.81,1.81-1.51,0-.84-.5-1.32-2.14-1.85-1.25.25-1.83.97-1.83,1.75,0,1.08.97,1.61,2.17,1.61ZM259.01,40.74c1.05-.36,1.57-.91,1.57-1.67,0-.83-.67-1.39-1.7-1.39s-1.65.55-1.65,1.28c0,.8.53,1.3,1.78,1.78Z"/>
        <path d="M263.5,42.41c0-3.6,2.14-5.67,5.56-6.07l.62,1.4c-2.49.15-4.08,1.26-4.44,3.52.71-.85,1.71-1.11,2.56-1.11,1.78,0,2.96,1.18,2.96,3.04,0,2.02-1.44,3.47-3.49,3.47-2.37,0-3.77-1.51-3.77-4.26ZM265.2,42.76c.04,1.64.74,2.58,2.14,2.58,1.02,0,1.75-.81,1.75-1.96,0-1.27-.69-1.91-1.88-1.91-.76,0-1.67.45-2.02,1.29Z"/>
        <path d="M271.64,41.68c0-3.32,1.53-5.29,3.91-5.29s3.71,1.77,3.71,5.01-1.47,5.27-3.88,5.27-3.74-1.78-3.74-4.99ZM277.5,41.57c0-2.65-.67-3.7-2.09-3.7-1.29,0-2.04,1.22-2.04,3.66s.74,3.67,2.11,3.67c1.28,0,2.02-1.19,2.02-3.63Z"/>
        <path d="M284.7,36.06h10.51v9.75c0,1.04-.38,1.39-1.46,1.39-.63,0-1.44-.04-2.24-.11l-.28-1.43c.69.1,1.5.17,2.03.17.43,0,.55-.13.55-.5v-3.15h-7.7v5.16h-1.4v-11.26ZM289.22,40.95v-3.66h-3.12v3.66h3.12ZM293.8,40.95v-3.66h-3.21v3.66h3.21Z"/>
        <path d="M167.65,65.2c1.39-.17,3.14-.42,4.99-.73l-.39-2.12c-1.39.22-2.69.42-3.98.6l-.25-1.33c1.09-.13,2.51-.32,3.98-.56l-.5-2.68,1.39-.21.5,2.66c1.29-.22,2.55-.48,3.6-.7l.27,1.33c-1.26.24-2.46.45-3.63.64.14.71.27,1.42.41,2.12,1.57-.27,3.15-.59,4.62-.91l.29,1.34c-1.61.31-3.18.6-4.68.87.27,1.37.52,2.75.78,4.12l-1.39.22c-.27-1.37-.52-2.73-.77-4.1-1.75.29-3.42.56-4.99.8l-.25-1.37Z"/>
        <path d="M181.08,63.29l11.18-.07.03,1.4-11.18.07-.03-1.4Z"/>
        <path d="M194.29,66.53c1.65,0,3.33,0,5.06-.01v-4.82c-1.44.01-2.76.03-4.03.03v-1.37c2.75.01,5.79-.01,9.58-.07l.03,1.37-4.12.04v4.82l5.25-.04v1.39c-3.85,0-7.69.01-11.74.06l-.03-1.39Z"/>
        <path d="M208.99,60.86l.84-1.2c1.22.63,2.03,1.13,3.28,2.13l-.9,1.23c-1.11-.95-2.14-1.64-3.22-2.16ZM209.55,67.8c3.7-.92,6.57-3.07,8.47-7.05l1.08,1.37c-2.13,3.85-4.71,6.01-8.78,7.12l-.77-1.44Z"/>
        <path d="M221.67,68.32c3.81-1.71,5.88-4.64,7.09-7.24-2.04.04-3.92.08-5.6.08l-.03-1.37c1.78.01,3.82,0,6.61-.07l.95.8c-.6,1.37-1.29,2.65-2.09,3.82,1.55,1.3,2.8,2.48,3.98,4.03l-1.13,1.01c-1.21-1.62-2.35-2.89-3.63-4.01-1.29,1.6-2.89,2.94-4.96,4.01l-1.19-1.06Z"/>
        <path d="M239.54,61.28c0-.62.46-1.13,1.13-1.13s1.13.52,1.13,1.13-.46,1.13-1.13,1.13-1.13-.52-1.13-1.13ZM239.54,66.73c0-.62.46-1.15,1.13-1.15s1.13.53,1.13,1.15-.46,1.12-1.13,1.12-1.13-.5-1.13-1.12Z"/>
        <path d="M250.36,64.65c-.64.07-1.61.14-2.12.17l-.29-1.25,1.28-.04c.31-.35.5-.6.76-.92-.55-.77-1.16-1.5-1.82-2.13l.79-.94.49.53c.49-.66.95-1.43,1.39-2.3l1.13.59c-.5.85-1.11,1.64-1.82,2.48l.6.8c.53-.71,1.06-1.5,1.57-2.31l1.13.67c-.87,1.22-1.74,2.27-2.87,3.49.48-.01,1.3-.08,1.75-.13-.14-.42-.24-.64-.45-1.06l1.01-.38c.43.8.84,1.75,1.12,2.69l-1.09.57c-.08-.34-.14-.53-.22-.83-.38.07-.83.14-1.08.15v5.66h-1.25v-5.52ZM248.03,68.71c.35-.92.57-2.03.67-3.29l1.16.17c-.11,1.54-.32,2.72-.64,3.68l-1.19-.56ZM251.97,65.65l1.05-.36c.41.84.7,1.72.94,2.76l-1.23.55c-.17-1.08-.43-2.12-.76-2.94ZM255.9,69.92l-.24-1.43c.55.1,1.15.17,1.67.17.6,0,.77-.14.9-.71.24-1.11.36-3.05.45-6.56h-3.17c-.34.83-.69,1.51-1.15,2.19l-.94-.97c.78-1.32,1.36-2.93,1.64-4.61l1.34.29c-.14.67-.29,1.23-.49,1.82h4.09c-.04,4.52-.21,7.31-.53,8.68-.21.91-.66,1.21-1.83,1.21-.56,0-1.22-.04-1.74-.08ZM254.77,63.64l1.06-.62c.6.74,1.15,1.69,1.61,2.82l-1.19.69c-.36-1.07-.88-2.07-1.48-2.89Z"/>
        <path d="M265.01,68.98l.1-1.46c.85.32,1.64.46,2.28.46,1.65,0,2.28-.81,2.28-1.88,0-1.57-1.43-2.17-4.29-1.67l.22-5.28h5.58v1.4h-4.08l-.13,2.45c3.03-.21,4.41.95,4.41,2.94s-1.33,3.39-4.06,3.39c-.71,0-1.53-.08-2.33-.36Z"/>
        <path d="M272.59,68.98l.1-1.46c.85.32,1.64.46,2.28.46,1.65,0,2.28-.81,2.28-1.88,0-1.57-1.43-2.17-4.29-1.67l.22-5.28h5.58v1.4h-4.08l-.13,2.45c3.03-.21,4.41.95,4.41,2.94s-1.33,3.39-4.06,3.39c-.71,0-1.53-.08-2.33-.36Z"/>
        <path d="M281.41,69.26c-.73-.04-1.26-.39-1.26-.98s.48-1.04,1.09-1.04c.88,0,1.5.71,1.5,1.75s-.76,2.25-1.67,2.94h-1.3c.9-.74,1.74-1.85,1.64-2.67Z"/>
        <path d="M285.67,60.75l-2.13.35-.04-1.47,3.85-.56v.95s-.01,9.23-.01,9.23h-1.67v-8.5Z"/>
        <path d="M290.43,68c2.49-.17,4.08-1.28,4.43-3.54-.7.87-1.69,1.12-2.55,1.12-1.79,0-2.96-1.16-2.96-3.03,0-2.03,1.44-3.49,3.49-3.49,2.37,0,3.75,1.51,3.75,4.26,0,3.6-2.13,5.69-5.55,6.07l-.62-1.39ZM292.89,64.26c.76,0,1.67-.46,2.02-1.32-.07-1.61-.76-2.55-2.14-2.55-1.02,0-1.75.83-1.75,1.97,0,1.28.69,1.89,1.88,1.89Z"/>
        <path d="M297.68,64.36c0-3.32,1.53-5.29,3.91-5.29s3.71,1.77,3.71,5.01-1.47,5.27-3.88,5.27-3.74-1.78-3.74-4.99ZM303.55,64.25c0-2.65-.67-3.7-2.09-3.7-1.29,0-2.04,1.22-2.04,3.66s.74,3.67,2.11,3.67c1.28,0,2.02-1.19,2.02-3.63Z"/>
        <path d="M310.74,58.74h10.51v9.75c0,1.04-.38,1.39-1.46,1.39-.63,0-1.44-.04-2.24-.11l-.28-1.43c.69.1,1.5.17,2.03.17.43,0,.55-.13.55-.5v-3.15h-7.7v5.16h-1.4v-11.26ZM315.26,63.63v-3.66h-3.12v3.66h3.12ZM319.84,63.63v-3.66h-3.21v3.66h3.21Z"/>
      </g>
      <rect class="cls-3" x="29.55" y="93.43" width="119.19" height="68.4"/>
      <rect class="cls-3" x="154.05" y="93.43" width="178.75" height="68.4"/>
      <g>
        <path d="M169.96,114.74c-1.02.01-1.95.01-2.77.01v-1.37c.79.01,1.72.01,2.77,0,0-1.02,0-2.06-.01-3.1h1.42c-.01,1.04-.01,2.06-.01,3.1,1.08-.01,2.25-.01,3.5-.04-.01-1.09-.03-2.21-.06-3.26h1.42c-.01,1.06-.01,2.16-.01,3.25.97-.01,1.96-.04,2.98-.06v1.39s-2.98.04-2.98.04v.17c0,3.89-1.2,5.51-3.75,6.77l-1.27-.84c2.65-1.29,3.68-2.45,3.68-6.08-1.27.01-2.44.01-3.5.03,0,1.01,0,2.02.01,3.03h-1.42c.01-1.01.01-2.02.01-3.03Z"/>
        <path d="M182,112.54l.84-1.2c1.22.63,2.03,1.13,3.28,2.13l-.9,1.23c-1.11-.95-2.14-1.64-3.22-2.16ZM182.56,119.49c3.7-.92,6.57-3.07,8.47-7.05l1.08,1.37c-2.13,3.85-4.71,6.01-8.78,7.12l-.77-1.44Z"/>
        <path d="M196.64,110.43h1.44v6.7h-1.44v-6.7ZM198.39,120.62c2.68-1.22,3.82-2.7,3.82-5.88v-4.52h1.44v4.5c0,3.61-1.2,5.5-3.95,6.92l-1.32-1.01Z"/>
        <path d="M208.08,118.44c2.03-.87,4.05-2.28,5.53-4.3-1.81.01-3.53.01-5.15.01l-.03-1.34c2.02.03,4.05.03,6.09,0l-.04-2.87h1.42c.01.98.01,1.93.03,2.86,1.16-.03,2.33-.06,3.5-.1l.04,1.34c-1.22.03-2.4.04-3.53.07.01,1.48.04,2.98.07,4.59.01.69.01.85.01,1.06,0,.98-.39,1.44-1.47,1.44-.48,0-1.26-.03-2.04-.14l-.18-1.5c.76.17,1.36.21,1.72.21s.56-.15.56-.49v-1.18s-.06-3.08-.06-3.08c-1.43,1.96-3.32,3.57-5.43,4.57l-1.04-1.16Z"/>
        <path d="M226.04,112.96c0-.62.46-1.13,1.13-1.13s1.13.52,1.13,1.13-.46,1.13-1.13,1.13-1.13-.52-1.13-1.13ZM226.04,118.41c0-.62.46-1.15,1.13-1.15s1.13.53,1.13,1.15-.46,1.12-1.13,1.12-1.13-.5-1.13-1.12Z"/>
        <path d="M236.86,116.34c-.64.07-1.61.14-2.12.17l-.29-1.25,1.28-.04c.31-.35.5-.6.76-.92-.55-.77-1.16-1.5-1.82-2.13l.79-.94.49.53c.49-.66.95-1.43,1.39-2.3l1.13.59c-.5.85-1.11,1.64-1.82,2.48l.6.8c.53-.71,1.06-1.5,1.57-2.31l1.13.67c-.87,1.22-1.74,2.27-2.87,3.49.48-.01,1.3-.08,1.75-.13-.14-.42-.24-.64-.45-1.06l1.01-.38c.43.8.84,1.75,1.12,2.69l-1.09.58c-.08-.34-.14-.53-.22-.83-.38.07-.83.14-1.08.15v5.66h-1.25v-5.52ZM234.54,120.4c.35-.92.57-2.03.67-3.29l1.16.17c-.11,1.54-.32,2.72-.64,3.68l-1.19-.56ZM238.47,117.33l1.05-.36c.41.84.7,1.72.94,2.76l-1.23.55c-.17-1.08-.43-2.12-.76-2.94ZM242.41,121.6l-.24-1.43c.55.1,1.15.17,1.67.17.6,0,.77-.14.9-.71.24-1.11.36-3.05.45-6.56h-3.17c-.34.83-.69,1.51-1.15,2.19l-.94-.97c.78-1.32,1.36-2.93,1.64-4.61l1.34.29c-.14.67-.29,1.23-.49,1.82h4.09c-.04,4.52-.21,7.31-.53,8.68-.21.91-.66,1.21-1.83,1.21-.56,0-1.22-.04-1.74-.08ZM241.28,115.33l1.06-.62c.6.74,1.15,1.69,1.61,2.82l-1.19.69c-.36-1.07-.88-2.07-1.48-2.89Z"/>
        <path d="M251.52,116.77c0-3.6,2.14-5.67,5.56-6.07l.62,1.4c-2.49.15-4.08,1.26-4.44,3.52.71-.85,1.71-1.11,2.56-1.11,1.78,0,2.96,1.18,2.96,3.04,0,2.02-1.44,3.47-3.49,3.47-2.37,0-3.77-1.51-3.77-4.26ZM253.21,117.12c.04,1.64.74,2.58,2.14,2.58,1.02,0,1.75-.81,1.75-1.96,0-1.27-.69-1.91-1.88-1.91-.76,0-1.67.45-2.02,1.29Z"/>
        <path d="M261.03,120.95c-.73-.04-1.26-.39-1.26-.98s.48-1.04,1.09-1.04c.88,0,1.5.71,1.5,1.75s-.76,2.25-1.67,2.94h-1.3c.9-.74,1.74-1.85,1.64-2.67Z"/>
        <path d="M263.53,119.77c3.25-2.49,4.78-4.13,4.78-5.79,0-1.23-.76-1.77-1.85-1.77-.97,0-1.83.39-2.56,1.02l-.07-1.56c.74-.55,1.82-.94,3.03-.94,1.96,0,3.18,1.09,3.18,2.97s-1.36,3.61-4.1,5.8h4.2v1.41h-6.6v-1.16Z"/>
        <path d="M275.78,118.62h-4.8v-1.08l4.69-6.77h1.75v6.5h1.61v1.34h-1.6v2.31h-1.65v-2.31ZM275.81,117.28l.04-4.55-3.1,4.55h3.05Z"/>
        <path d="M280.72,119.69c2.49-.17,4.08-1.28,4.43-3.54-.7.87-1.69,1.12-2.55,1.12-1.79,0-2.96-1.16-2.96-3.03,0-2.03,1.44-3.49,3.49-3.49,2.37,0,3.75,1.51,3.75,4.26,0,3.6-2.13,5.69-5.55,6.07l-.62-1.39ZM283.19,115.95c.76,0,1.67-.46,2.02-1.32-.07-1.61-.76-2.55-2.14-2.55-1.02,0-1.75.83-1.75,1.98,0,1.27.69,1.89,1.88,1.89Z"/>
        <path d="M292.5,110.43h10.51v9.75c0,1.04-.38,1.39-1.46,1.39-.63,0-1.44-.04-2.24-.11l-.28-1.43c.69.1,1.5.17,2.03.17.43,0,.55-.13.55-.5v-3.15h-7.7v5.16h-1.4v-11.26ZM297.02,115.31v-3.66h-3.12v3.66h3.12ZM301.6,115.31v-3.66h-3.21v3.66h3.21Z"/>
        <path d="M169.17,143.22c1.37-.92,2.21-1.77,2.76-2.86.38-.76.6-1.74.6-2.73,0-.29-.01-.6-.07-1.2h1.46c.04.66.04.95.04,1.29,0,.2-.01.41-.03.62,1.54-.76,2.48-1.77,3.05-2.9-2.96.06-6.72.14-8.98.14l-.03-1.39c3.42,0,6.95-.04,9.96-.1l.83.87c-.84,1.83-1.98,3.45-4.06,4.48l-.81-.69c-.1.76-.28,1.5-.53,2.04-.66,1.46-1.61,2.47-2.86,3.31l-1.33-.88Z"/>
        <path d="M185.9,137.08c-.43-.45-.59-.56-.77-.56-.17,0-.31.13-.57.5-.92,1.32-1.47,2.03-2.75,3.64l-1.15-.99c1.33-1.5,2.09-2.44,3.21-3.91.41-.53.78-.74,1.2-.74.46,0,.77.18,1.44.85,1.79,1.79,3.78,3.67,6.21,5.88l-1.01,1.22c-2.56-2.58-3.98-4.01-5.81-5.9ZM187.95,135.3l.69-.71c.6.5,1.12,1.06,1.71,1.79l-.71.77c-.56-.73-1.05-1.29-1.68-1.85ZM189.28,134.32l.67-.73c.67.56,1.16,1.05,1.74,1.78l-.73.76c-.5-.69-1.08-1.29-1.68-1.81Z"/>
        <path d="M194.83,139.04c3.82-1.57,6.92-3.95,8.73-6.54l1.26.73c-.85,1.23-1.96,2.38-3.24,3.45,0,2.44.01,4.88.04,7.31h-1.46c.03-2.09.03-4.17.01-6.25-1.3.92-2.75,1.75-4.26,2.45l-1.09-1.15Z"/>
        <path d="M207.38,143.06c2.41-1.7,3.35-4.41,3.05-9.05h1.43c.25,5.43-.83,8.04-3.08,9.8l-1.4-.76ZM213.99,142.82c.06-3.18.06-6.16,0-9.23h1.43c-.03,2.72-.03,5.42,0,8.11,1.33-.67,2.88-2.14,3.99-4.41l.69,1.4c-1.26,2.37-3.17,3.98-5.1,4.85l-1.01-.71Z"/>
        <path d="M226.04,135.64c0-.62.46-1.13,1.13-1.13s1.13.52,1.13,1.13-.46,1.13-1.13,1.13-1.13-.52-1.13-1.13ZM226.04,141.09c0-.62.46-1.15,1.13-1.15s1.13.53,1.13,1.15-.46,1.12-1.13,1.12-1.13-.5-1.13-1.12Z"/>
        <path d="M236.86,139.01c-.64.07-1.61.14-2.12.17l-.29-1.25,1.28-.04c.31-.35.5-.6.76-.92-.55-.77-1.16-1.5-1.82-2.13l.79-.94.49.53c.49-.66.95-1.43,1.39-2.3l1.13.59c-.5.85-1.11,1.64-1.82,2.48l.6.8c.53-.71,1.06-1.5,1.57-2.31l1.13.67c-.87,1.22-1.74,2.27-2.87,3.49.48-.01,1.3-.08,1.75-.13-.14-.42-.24-.64-.45-1.06l1.01-.38c.43.8.84,1.75,1.12,2.69l-1.09.57c-.08-.34-.14-.53-.22-.83-.38.07-.83.14-1.08.15v5.66h-1.25v-5.52ZM234.54,143.08c.35-.92.57-2.03.67-3.29l1.16.17c-.11,1.54-.32,2.72-.64,3.68l-1.19-.56ZM238.47,140.01l1.05-.36c.41.84.7,1.72.94,2.76l-1.23.55c-.17-1.08-.43-2.12-.76-2.94ZM242.41,144.28l-.24-1.43c.55.1,1.15.17,1.67.17.6,0,.77-.14.9-.71.24-1.11.36-3.05.45-6.56h-3.17c-.34.83-.69,1.51-1.15,2.19l-.94-.97c.78-1.32,1.36-2.93,1.64-4.61l1.34.29c-.14.67-.29,1.23-.49,1.82h4.09c-.04,4.52-.21,7.31-.53,8.68-.21.91-.66,1.21-1.83,1.21-.56,0-1.22-.04-1.74-.08ZM241.28,138.01l1.06-.62c.6.74,1.15,1.69,1.61,2.82l-1.19.69c-.36-1.07-.88-2.07-1.48-2.89Z"/>
        <path d="M253.3,135.11l-2.13.35-.04-1.47,3.85-.56v.95s-.01,9.23-.01,9.23h-1.67v-8.5Z"/>
        <path d="M257.05,138.72c0-3.32,1.53-5.29,3.91-5.29s3.71,1.77,3.71,5.01-1.47,5.27-3.88,5.27-3.74-1.78-3.74-4.99ZM262.92,138.61c0-2.65-.67-3.7-2.09-3.7-1.29,0-2.05,1.22-2.05,3.66s.74,3.67,2.12,3.67c1.28,0,2.02-1.19,2.02-3.63Z"/>
        <path d="M266.96,143.62c-.73-.04-1.26-.39-1.26-.98s.48-1.04,1.09-1.04c.88,0,1.5.71,1.5,1.75s-.76,2.25-1.67,2.94h-1.3c.9-.74,1.74-1.85,1.64-2.67Z"/>
        <path d="M273.92,134.95h-4.71v-1.43h6.61v1.04c-1.98,3.08-3.15,5.8-4.13,9.05h-1.79c.97-3,2.42-6.05,4.02-8.66Z"/>
        <path d="M281.05,134.95h-4.71v-1.43h6.61v1.04c-1.98,3.08-3.15,5.8-4.13,9.05h-1.79c.97-3,2.42-6.05,4.02-8.66Z"/>
        <path d="M283.56,138.72c0-3.32,1.53-5.29,3.91-5.29s3.71,1.77,3.71,5.01-1.47,5.27-3.88,5.27-3.74-1.78-3.74-4.99ZM289.43,138.61c0-2.65-.67-3.7-2.09-3.7-1.29,0-2.05,1.22-2.05,3.66s.74,3.67,2.12,3.67c1.28,0,2.02-1.19,2.02-3.63Z"/>
        <path d="M296.63,133.1h10.51v9.75c0,1.04-.38,1.39-1.46,1.39-.63,0-1.44-.04-2.24-.11l-.28-1.43c.69.1,1.5.17,2.03.17.43,0,.55-.13.55-.5v-3.15h-7.7v5.16h-1.4v-11.26ZM301.15,137.99v-3.66h-3.12v3.66h3.12ZM305.73,137.99v-3.66h-3.21v3.66h3.21Z"/>
      </g>
      <rect class="cls-3" x="29.55" y="167.8" width="119.19" height="68.4"/>
      <rect class="cls-3" x="154.05" y="167.8" width="178.75" height="68.4"/>
      <g>
        <path d="M171.19,184.3h1.46v3.61c1.74.74,3.71,1.88,5.2,3.05l-.94,1.21c-1.34-1.12-2.93-2.13-4.26-2.77v6.46h-1.46v-11.56Z"/>
        <path d="M182.01,192.87c2.68,0,5.43-.03,7.56-.06v-2.27c-2.23.03-5.04.06-6.98.06l-.04-1.33c1.91,0,4.75-.03,7.02-.06v-2.07c-2.86.04-5.58.1-7.59.11l-.04-1.34c1.99,0,4.93-.04,9.09-.11-.01,1.37-.03,2.76-.03,4.16,0,1.7.01,3.4.03,5.06h-1.47v-.84c-2.35.01-5.06.04-7.51.07l-.04-1.37Z"/>
        <path d="M196.39,195.01c1.89-.85,3.39-2.06,4.51-3.5-.8-.59-1.6-1.09-2.51-1.62l.64-1.09c.99.56,1.81,1.04,2.62,1.6.56-.94.98-1.95,1.25-2.98-1.34.04-2.72.07-3.77.08-.77,1.39-1.71,2.58-2.82,3.57l-1.32-.78c2.03-1.79,3.29-3.91,3.94-6l1.44.39c-.18.52-.38,1.01-.59,1.48,1.09-.01,2.34-.06,3.95-.11l.85.71c-.42,1.74-1.01,3.22-1.78,4.5.42.34.85.71,1.33,1.16l-.94,1.13c-.42-.42-.81-.79-1.19-1.12-1.12,1.46-2.56,2.61-4.33,3.56l-1.3-.98Z"/>
        <path d="M212.55,187.32c0-.62.46-1.13,1.13-1.13s1.13.52,1.13,1.13-.46,1.13-1.13,1.13-1.13-.52-1.13-1.13ZM212.55,192.77c0-.62.46-1.15,1.13-1.15s1.13.53,1.13,1.15-.46,1.12-1.13,1.12-1.13-.5-1.13-1.12Z"/>
        <path d="M223.37,190.7c-.64.07-1.61.14-2.12.17l-.29-1.25,1.28-.04c.31-.35.5-.6.76-.92-.55-.77-1.16-1.5-1.82-2.13l.79-.94.49.53c.49-.66.95-1.43,1.39-2.3l1.13.59c-.5.85-1.11,1.64-1.82,2.48l.6.8c.53-.71,1.06-1.5,1.57-2.31l1.13.67c-.87,1.22-1.74,2.27-2.87,3.49.48-.01,1.3-.08,1.75-.13-.14-.42-.24-.64-.45-1.06l1.01-.38c.43.8.84,1.75,1.12,2.69l-1.09.58c-.08-.34-.14-.53-.22-.83-.38.07-.83.14-1.08.15v5.66h-1.25v-5.52ZM221.04,194.76c.35-.92.57-2.03.67-3.29l1.16.17c-.11,1.54-.32,2.72-.64,3.68l-1.19-.56ZM224.98,191.69l1.05-.36c.41.84.7,1.72.94,2.76l-1.23.55c-.17-1.08-.43-2.12-.76-2.94ZM228.91,195.97l-.24-1.43c.55.1,1.15.17,1.67.17.6,0,.77-.14.9-.71.24-1.11.36-3.05.45-6.56h-3.17c-.34.83-.69,1.51-1.15,2.19l-.94-.97c.78-1.32,1.36-2.93,1.64-4.61l1.34.29c-.14.67-.29,1.23-.49,1.82h4.09c-.04,4.52-.21,7.31-.53,8.68-.21.91-.66,1.21-1.83,1.21-.56,0-1.22-.04-1.74-.08ZM227.78,189.69l1.06-.62c.6.74,1.15,1.69,1.61,2.82l-1.19.69c-.36-1.07-.88-2.07-1.48-2.89Z"/>
        <path d="M238.05,194.13c3.25-2.49,4.78-4.13,4.78-5.79,0-1.23-.76-1.77-1.85-1.77-.97,0-1.83.39-2.56,1.02l-.07-1.56c.74-.55,1.82-.94,3.03-.94,1.96,0,3.18,1.09,3.18,2.97s-1.36,3.61-4.1,5.8h4.2v1.41h-6.6v-1.16Z"/>
        <path d="M247.19,195.31c-.73-.04-1.26-.39-1.26-.98s.48-1.04,1.09-1.04c.88,0,1.5.71,1.5,1.75s-.76,2.25-1.67,2.94h-1.3c.9-.74,1.74-1.85,1.64-2.67Z"/>
        <path d="M249.67,195.03l.1-1.46c.85.32,1.64.46,2.28.46,1.65,0,2.28-.81,2.28-1.88,0-1.57-1.43-2.17-4.29-1.67l.22-5.28h5.58v1.4h-4.08l-.13,2.45c3.03-.21,4.41.95,4.41,2.94s-1.33,3.39-4.06,3.39c-.71,0-1.53-.08-2.33-.36Z"/>
        <path d="M259.02,186.79l-2.13.35-.04-1.47,3.85-.56v.95s-.01,9.23-.01,9.23h-1.67v-8.5Z"/>
        <path d="M262.77,190.41c0-3.32,1.53-5.29,3.91-5.29s3.71,1.77,3.71,5.01-1.47,5.27-3.88,5.27-3.74-1.78-3.74-4.99ZM268.64,190.29c0-2.65-.67-3.7-2.09-3.7-1.29,0-2.04,1.22-2.04,3.66s.74,3.67,2.11,3.67c1.28,0,2.02-1.19,2.02-3.63Z"/>
        <path d="M275.84,184.79h10.51v9.75c0,1.04-.38,1.39-1.46,1.39-.63,0-1.44-.04-2.24-.11l-.28-1.43c.69.1,1.5.17,2.03.17.43,0,.55-.13.55-.5v-3.15h-7.7v5.16h-1.4v-11.26ZM280.36,189.68v-3.66h-3.12v3.66h3.12ZM284.94,189.68v-3.66h-3.21v3.66h3.21Z"/>
        <path d="M167.04,210.94c1.21-.49,2.38-1.15,3.5-1.95l.45,1.01c-.91.69-2.21,1.48-3.32,2.03l-.63-1.09ZM167.21,217.96c1.57-.34,2.9-.76,3.98-1.27h-2.28v-5.08h2.25l-.5-.71c2.2-.39,3.17-1.15,3.25-2.55h-.94c-.36.56-.74,1.01-1.15,1.36l-.92-.77c.77-.67,1.37-1.58,1.65-2.54l1.29.22c-.13.31-.22.53-.32.74h4.71l.66.52c-.39.67-.9,1.37-1.43,1.93l-1.15-.46c.36-.32.71-.71.9-1.01h-2.02c.31,1.26,1.62,2.13,3.99,2.61l-.7,1.06c-.21-.07-.67-.21-.91-.29v4.97h-2.48c1.22.28,2.38.63,3.95,1.2l-1.08,1.09c-1.32-.63-2.7-1.16-4.09-1.57l.87-.73h-3.39l.97.74c-1.06.6-2.69,1.26-4.2,1.68l-.9-1.15ZM167.7,207.62l.81-.87c.69.29,1.46.74,2.16,1.29l-.85.98c-.6-.5-1.29-.97-2.12-1.4ZM176.23,213.03v-.62h-6v.62h6ZM176.23,214.41v-.62h-6v.62h6ZM176.23,215.83v-.63h-6v.63h6ZM177.24,211.6c-1.16-.42-2.09-1.08-2.56-1.83-.43.85-1.13,1.39-2.39,1.83h4.96Z"/>
        <path d="M180.85,217.09h5.22v-2.79h-3.68v-1.2h3.68v-2.41h-2.73c-.48.98-.9,1.64-1.47,2.35l-1.07-.95c1.05-1.32,1.75-2.83,2.17-4.69l1.39.36c-.2.76-.32,1.15-.55,1.71h2.26v-2.79h1.44v2.79h4.44v1.22h-4.44v2.41h3.89v1.2h-3.89v2.79h5.2v1.26h-11.86v-1.26Z"/>
        <path d="M194.17,217.34h5.27v-1.12h-4.1v-1.11h4.1v-.99h-2.91v-3.28h7.31v3.28h-3v.99h4.17v1.11h-4.17v1.12h5.34v1.15h-12v-1.15ZM194.51,208.87h2.38c-.31-.63-.59-1.06-1.02-1.54l1.23-.52c.42.46.74.95,1.13,1.64l-.95.42h2.16v-2.33h1.4v2.33h1.02c.38-.63.7-1.26,1.09-2.16l1.34.53c-.42.73-.73,1.22-1.04,1.62h2.59v3h-1.34v-1.89h-8.66v1.89h-1.34v-3ZM202.55,213.11v-1.26h-4.73v1.26h4.73Z"/>
        <path d="M212.55,210c0-.62.46-1.13,1.13-1.13s1.13.52,1.13,1.13-.46,1.13-1.13,1.13-1.13-.52-1.13-1.13ZM212.55,215.45c0-.62.46-1.15,1.13-1.15s1.13.53,1.13,1.15-.46,1.12-1.13,1.12-1.13-.5-1.13-1.12Z"/>
        <path d="M223.37,213.38c-.64.07-1.61.14-2.12.17l-.29-1.25,1.28-.04c.31-.35.5-.6.76-.92-.55-.77-1.16-1.5-1.82-2.13l.79-.94.49.53c.49-.66.95-1.43,1.39-2.3l1.13.59c-.5.85-1.11,1.64-1.82,2.48l.6.8c.53-.71,1.06-1.5,1.57-2.31l1.13.67c-.87,1.22-1.74,2.27-2.87,3.49.48-.01,1.3-.08,1.75-.13-.14-.42-.24-.64-.45-1.06l1.01-.38c.43.8.84,1.75,1.12,2.69l-1.09.57c-.08-.34-.14-.53-.22-.83-.38.07-.83.14-1.08.15v5.66h-1.25v-5.52ZM221.04,217.44c.35-.92.57-2.03.67-3.29l1.16.17c-.11,1.54-.32,2.72-.64,3.68l-1.19-.56ZM224.98,214.37l1.05-.36c.41.84.7,1.72.94,2.76l-1.23.55c-.17-1.08-.43-2.12-.76-2.94ZM228.91,218.64l-.24-1.43c.55.1,1.15.17,1.67.17.6,0,.77-.14.9-.71.24-1.11.36-3.05.45-6.56h-3.17c-.34.83-.69,1.51-1.15,2.19l-.94-.97c.78-1.32,1.36-2.93,1.64-4.61l1.34.29c-.14.67-.29,1.23-.49,1.82h4.09c-.04,4.52-.21,7.31-.53,8.68-.21.91-.66,1.21-1.83,1.21-.56,0-1.22-.04-1.74-.08ZM227.78,212.37l1.06-.62c.6.74,1.15,1.69,1.61,2.82l-1.19.69c-.36-1.07-.88-2.07-1.48-2.89Z"/>
        <path d="M238.05,216.81c3.25-2.49,4.78-4.13,4.78-5.79,0-1.23-.76-1.77-1.85-1.77-.97,0-1.83.39-2.56,1.02l-.07-1.56c.74-.55,1.82-.94,3.03-.94,1.96,0,3.18,1.09,3.18,2.97s-1.36,3.61-4.1,5.8h4.2v1.41h-6.6v-1.16Z"/>
        <path d="M247.19,217.99c-.73-.04-1.26-.39-1.26-.98s.48-1.04,1.09-1.04c.88,0,1.5.71,1.5,1.75s-.76,2.25-1.67,2.94h-1.3c.9-.74,1.74-1.85,1.64-2.67Z"/>
        <path d="M249.7,217.61l.11-1.5c.83.31,1.71.55,2.55.55,1.57,0,2.14-.71,2.14-1.62,0-1.05-.74-1.58-2.44-1.58-.35,0-.73,0-1.11.03v-1.33c.77-.01,1.2-.03,1.6-.13,1.12-.31,1.61-.77,1.61-1.58,0-.77-.62-1.27-1.76-1.27-.76,0-1.62.32-2.37.87l-.08-1.47c.81-.52,1.91-.77,2.87-.77,1.92,0,3.07.91,3.07,2.37,0,1.11-.67,1.98-1.82,2.37,1.36.22,2.16,1.13,2.16,2.41,0,1.72-1.36,3.14-3.95,3.14-.85,0-1.83-.17-2.58-.46Z"/>
        <path d="M258.32,216.72c2.49-.17,4.08-1.28,4.43-3.54-.7.87-1.69,1.12-2.55,1.12-1.79,0-2.96-1.16-2.96-3.03,0-2.03,1.44-3.49,3.49-3.49,2.37,0,3.75,1.51,3.75,4.26,0,3.6-2.13,5.69-5.55,6.07l-.62-1.39ZM260.79,212.98c.76,0,1.67-.46,2.02-1.32-.07-1.61-.76-2.55-2.14-2.55-1.02,0-1.75.83-1.75,1.97,0,1.28.69,1.89,1.88,1.89Z"/>
        <path d="M265.7,217.71l.1-1.46c.85.32,1.64.46,2.28.46,1.65,0,2.28-.81,2.28-1.88,0-1.57-1.43-2.17-4.29-1.67l.22-5.28h5.58v1.4h-4.08l-.13,2.45c3.03-.21,4.41.95,4.41,2.94s-1.33,3.39-4.06,3.39c-.71,0-1.53-.08-2.33-.36Z"/>
        <path d="M277.67,207.46h10.51v9.75c0,1.04-.38,1.39-1.46,1.39-.63,0-1.44-.04-2.24-.11l-.28-1.43c.69.1,1.5.17,2.03.17.43,0,.55-.13.55-.5v-3.15h-7.7v5.16h-1.4v-11.26ZM282.19,212.35v-3.66h-3.12v3.66h3.12ZM286.77,212.35v-3.66h-3.21v3.66h3.21Z"/>
      </g>
      <g>
        <path d="M53.82,120.24h-5.15v-1.16l5.03-7.24h1.88v6.96h1.72v1.44h-1.71v2.47h-1.77v-2.47ZM53.85,118.8l.04-4.87-3.31,4.87h3.27Z"/>
        <path d="M59.5,122.73c-.78-.05-1.35-.42-1.35-1.05s.51-1.11,1.17-1.11c.94,0,1.6.76,1.6,1.88s-.81,2.42-1.79,3.15h-1.39c.96-.79,1.86-1.98,1.75-2.86Z"/>
        <path d="M62.02,117.48c0-3.55,1.63-5.67,4.18-5.67s3.97,1.89,3.97,5.37-1.58,5.64-4.15,5.64-4-1.91-4-5.34ZM68.31,117.36c0-2.83-.72-3.96-2.23-3.96-1.38,0-2.19,1.3-2.19,3.92s.79,3.93,2.27,3.93c1.36,0,2.16-1.28,2.16-3.88Z"/>
        <path d="M71.17,117.48c0-3.55,1.63-5.67,4.18-5.67s3.97,1.89,3.97,5.37-1.58,5.64-4.15,5.64-4-1.91-4-5.34ZM77.46,117.36c0-2.83-.72-3.96-2.23-3.96-1.38,0-2.19,1.3-2.19,3.92s.79,3.93,2.27,3.93c1.36,0,2.16-1.28,2.16-3.88Z"/>
        <path d="M80.32,117.48c0-3.55,1.63-5.67,4.18-5.67s3.97,1.89,3.97,5.37-1.58,5.64-4.15,5.64-4-1.91-4-5.34ZM86.61,117.36c0-2.83-.72-3.96-2.23-3.96-1.38,0-2.19,1.3-2.19,3.92s.79,3.93,2.27,3.93c1.36,0,2.16-1.28,2.16-3.88Z"/>
        <path d="M94.32,111.46h11.25v10.44c0,1.11-.4,1.48-1.56,1.48-.67,0-1.54-.04-2.4-.12l-.3-1.53c.74.1,1.61.18,2.18.18.46,0,.58-.13.58-.54v-3.38h-8.25v5.52h-1.5v-12.06ZM99.16,116.7v-3.92h-3.34v3.92h3.34ZM104.07,116.7v-3.92h-3.44v3.92h3.44Z"/>
      </g>
      <g>
        <path d="M60.22,138.94c-.54,0-1,.42-1.2,1.86h-1.42c.22-2.42,1.42-3.34,2.62-3.34,1.89,0,2.1,1.98,3.13,1.98.51,0,1.06-.31,1.21-1.86h1.44c-.22,2.22-1.26,3.34-2.61,3.34-1.88,0-2.12-1.98-3.18-1.98Z"/>
        <path d="M72.34,135.21l-2.28.38-.04-1.58,4.12-.6-.02,1.02v9.88h-1.78v-9.1Z"/>
        <path d="M76.36,139.08c0-3.55,1.63-5.67,4.18-5.67s3.97,1.89,3.97,5.37-1.58,5.64-4.15,5.64-4-1.91-4-5.34ZM82.64,138.96c0-2.83-.72-3.96-2.23-3.96-1.38,0-2.19,1.3-2.19,3.92s.79,3.93,2.27,3.93c1.36,0,2.16-1.28,2.16-3.88Z"/>
        <path d="M86.98,144.33c-.78-.05-1.35-.42-1.35-1.05s.51-1.11,1.17-1.11c.94,0,1.6.76,1.6,1.88s-.81,2.42-1.79,3.15h-1.39c.96-.79,1.86-1.98,1.75-2.86Z"/>
        <path d="M89.5,139.08c0-3.55,1.63-5.67,4.18-5.67s3.97,1.89,3.97,5.37-1.58,5.64-4.15,5.64-4-1.91-4-5.34ZM95.78,138.96c0-2.83-.72-3.96-2.23-3.96-1.38,0-2.19,1.3-2.19,3.92s.79,3.93,2.27,3.93c1.36,0,2.16-1.28,2.16-3.88Z"/>
        <path d="M98.65,139.08c0-3.55,1.63-5.67,4.18-5.67s3.97,1.89,3.97,5.37-1.58,5.64-4.15,5.64-4-1.91-4-5.34ZM104.93,138.96c0-2.83-.72-3.96-2.23-3.96-1.38,0-2.19,1.3-2.19,3.92s.79,3.93,2.27,3.93c1.36,0,2.16-1.28,2.16-3.88Z"/>
        <path d="M107.8,139.08c0-3.55,1.63-5.67,4.18-5.67s3.97,1.89,3.97,5.37-1.58,5.64-4.15,5.64-4-1.91-4-5.34ZM114.08,138.96c0-2.83-.72-3.96-2.23-3.96-1.38,0-2.19,1.3-2.19,3.92s.79,3.93,2.27,3.93c1.36,0,2.16-1.28,2.16-3.88Z"/>
        <path d="M121.79,133.06h11.25v10.44c0,1.11-.4,1.48-1.56,1.48-.67,0-1.54-.04-2.4-.12l-.3-1.53c.74.1,1.61.18,2.17.18.47,0,.59-.13.59-.54v-3.38h-8.25v5.52h-1.5v-12.06ZM126.64,138.3v-3.92h-3.34v3.92h3.34ZM131.54,138.3v-3.92h-3.44v3.92h3.44Z"/>
      </g>
      <g>
        <path d="M49.18,194.81c3.48-2.67,5.11-4.42,5.11-6.19,0-1.32-.81-1.89-1.98-1.89-1.04,0-1.96.42-2.75,1.09l-.08-1.67c.79-.58,1.95-1,3.24-1,2.1,0,3.4,1.17,3.4,3.18s-1.45,3.87-4.39,6.21h4.5v1.51h-7.06v-1.25Z"/>
        <path d="M58.98,196.07c-.78-.05-1.35-.42-1.35-1.05s.51-1.11,1.17-1.11c.94,0,1.6.76,1.6,1.88s-.81,2.42-1.79,3.15h-1.39c.96-.79,1.86-1.98,1.75-2.86Z"/>
        <path d="M61.5,190.82c0-3.55,1.63-5.67,4.18-5.67s3.97,1.89,3.97,5.37-1.58,5.64-4.15,5.64-4-1.91-4-5.34ZM67.78,190.7c0-2.83-.72-3.96-2.23-3.96-1.38,0-2.19,1.3-2.19,3.92s.79,3.93,2.27,3.93c1.36,0,2.16-1.28,2.16-3.88Z"/>
        <path d="M70.65,190.82c0-3.55,1.63-5.67,4.18-5.67s3.97,1.89,3.97,5.37-1.58,5.64-4.15,5.64-4-1.91-4-5.34ZM76.93,190.7c0-2.83-.72-3.96-2.23-3.96-1.38,0-2.19,1.3-2.19,3.92s.79,3.93,2.27,3.93c1.36,0,2.16-1.28,2.16-3.88Z"/>
        <path d="M79.8,190.82c0-3.55,1.63-5.67,4.18-5.67s3.97,1.89,3.97,5.37-1.58,5.64-4.15,5.64-4-1.91-4-5.34ZM86.08,190.7c0-2.83-.72-3.96-2.23-3.96-1.38,0-2.19,1.3-2.19,3.92s.79,3.93,2.27,3.93c1.36,0,2.16-1.28,2.16-3.88Z"/>
        <path d="M93.79,184.81h11.25v10.44c0,1.11-.4,1.48-1.56,1.48-.67,0-1.54-.04-2.4-.12l-.3-1.53c.74.1,1.61.18,2.18.18.46,0,.58-.13.58-.54v-3.38h-8.25v5.52h-1.5v-12.06ZM98.64,190.04v-3.92h-3.34v3.92h3.34ZM103.54,190.04v-3.92h-3.44v3.92h3.44Z"/>
      </g>
      <g>
        <path d="M66.41,212.29c-.54,0-1,.42-1.2,1.86h-1.42c.22-2.42,1.42-3.34,2.62-3.34,1.89,0,2.1,1.98,3.13,1.98.51,0,1.06-.31,1.21-1.86h1.44c-.22,2.22-1.26,3.34-2.61,3.34-1.88,0-2.12-1.98-3.18-1.98Z"/>
        <path d="M81.29,215.18h-5.15v-1.16l5.03-7.24h1.88v6.96h1.72v1.44h-1.71v2.47h-1.77v-2.47ZM81.32,213.74l.04-4.87-3.31,4.87h3.27Z"/>
        <path d="M86.98,217.67c-.78-.05-1.35-.42-1.35-1.05s.51-1.11,1.17-1.11c.94,0,1.6.76,1.6,1.88s-.81,2.42-1.79,3.15h-1.39c.96-.79,1.86-1.98,1.75-2.86Z"/>
        <path d="M89.5,212.42c0-3.55,1.63-5.67,4.18-5.67s3.97,1.89,3.97,5.37-1.58,5.64-4.15,5.64-4-1.91-4-5.34ZM95.78,212.3c0-2.83-.72-3.96-2.23-3.96-1.38,0-2.19,1.3-2.19,3.92s.79,3.93,2.27,3.93c1.36,0,2.16-1.28,2.16-3.88Z"/>
        <path d="M98.65,212.42c0-3.55,1.63-5.67,4.18-5.67s3.97,1.89,3.97,5.37-1.58,5.64-4.15,5.64-4-1.91-4-5.34ZM104.93,212.3c0-2.83-.72-3.96-2.23-3.96-1.38,0-2.19,1.3-2.19,3.92s.79,3.93,2.27,3.93c1.36,0,2.16-1.28,2.16-3.88Z"/>
        <path d="M107.8,212.42c0-3.55,1.63-5.67,4.18-5.67s3.97,1.89,3.97,5.37-1.58,5.64-4.15,5.64-4-1.91-4-5.34ZM114.08,212.3c0-2.83-.72-3.96-2.23-3.96-1.38,0-2.19,1.3-2.19,3.92s.79,3.93,2.27,3.93c1.36,0,2.16-1.28,2.16-3.88Z"/>
        <path d="M121.79,206.41h11.25v10.44c0,1.11-.4,1.48-1.56,1.48-.67,0-1.54-.04-2.4-.12l-.3-1.53c.74.1,1.61.18,2.18.18.46,0,.58-.13.58-.54v-3.38h-8.25v5.52h-1.5v-12.06ZM126.64,211.64v-3.92h-3.34v3.92h3.34ZM131.54,211.64v-3.92h-3.44v3.92h3.44Z"/>
      </g>
      <rect class="cls-3" x="29.55" y="242.16" width="119.19" height="68.4"/>
      <rect class="cls-3" x="154.05" y="242.16" width="178.75" height="68.4"/>
      <g>
        <path d="M167.31,267.74c1.12-1.29,1.92-2.76,2.38-4.15l1.27.58c-.45,1.4-1.25,3.1-2.33,4.26l-1.33-.69ZM170.6,269.87l-.18-1.54c.73.17,1.39.25,1.75.25.29,0,.43-.14.43-.45,0-1.86-.03-3.73-.07-5.58-1.55.01-3.1.03-4.76.03l-.03-1.37c1.64.03,3.19.04,4.76.01-.03-.83-.04-1.65-.06-2.49h1.41l.04,2.48c1.49-.03,3.03-.07,4.69-.14l.04,1.37c-1.68.04-3.21.07-4.72.08.03,2.02.07,4.02.1,6.04.01.92-.48,1.44-1.55,1.44-.6,0-1.18-.04-1.86-.14ZM175.15,264.26l1.12-.8c1.02,1.23,1.85,2.51,2.62,4.1l-1.26.8c-.73-1.57-1.53-2.9-2.48-4.1Z"/>
        <path d="M182,261.26l.84-1.2c1.22.63,2.03,1.13,3.28,2.13l-.9,1.23c-1.11-.95-2.14-1.64-3.22-2.16ZM182.56,268.21c3.7-.92,6.57-3.07,8.47-7.05l1.08,1.37c-2.13,3.85-4.71,6.01-8.78,7.12l-.77-1.44Z"/>
        <path d="M196.18,269.52c1.89-.85,3.39-2.06,4.51-3.5-.8-.59-1.6-1.09-2.51-1.62l.64-1.09c.99.56,1.81,1.04,2.62,1.6.56-.94.98-1.95,1.25-2.98-1.34.04-2.72.07-3.77.08-.77,1.39-1.71,2.58-2.82,3.57l-1.32-.78c2.03-1.79,3.29-3.91,3.94-6l1.44.39c-.18.52-.38,1.01-.59,1.49,1.09-.01,2.34-.06,3.95-.11l.85.71c-.42,1.74-1.01,3.22-1.78,4.5.42.34.85.71,1.33,1.16l-.94,1.13c-.42-.42-.81-.78-1.19-1.12-1.12,1.46-2.56,2.61-4.33,3.56l-1.3-.98ZM202.82,259.12l.73-.64c.57.52.92.91,1.44,1.7l-.77.69c-.5-.78-.78-1.09-1.4-1.74ZM204.4,258.51l.74-.64c.56.59.95,1.02,1.41,1.74l-.81.67c-.42-.69-.85-1.25-1.34-1.76Z"/>
        <path d="M212.55,261.69c0-.62.46-1.13,1.13-1.13s1.13.52,1.13,1.13-.46,1.13-1.13,1.13-1.13-.52-1.13-1.13ZM212.55,267.13c0-.62.46-1.15,1.13-1.15s1.13.53,1.13,1.15-.46,1.12-1.13,1.12-1.13-.5-1.13-1.12Z"/>
        <path d="M223.37,265.06c-.64.07-1.61.14-2.12.17l-.29-1.25,1.28-.04c.31-.35.5-.6.76-.92-.55-.77-1.16-1.5-1.82-2.13l.79-.94.49.53c.49-.66.95-1.43,1.39-2.3l1.13.59c-.5.85-1.11,1.64-1.82,2.48l.6.8c.53-.71,1.06-1.5,1.57-2.31l1.13.67c-.87,1.22-1.74,2.27-2.87,3.49.48-.01,1.3-.08,1.75-.13-.14-.42-.24-.64-.45-1.06l1.01-.38c.43.8.84,1.75,1.12,2.69l-1.09.58c-.08-.34-.14-.53-.22-.83-.38.07-.83.14-1.08.15v5.66h-1.25v-5.52ZM221.04,269.12c.35-.92.57-2.03.67-3.29l1.16.17c-.11,1.54-.32,2.72-.64,3.68l-1.19-.56ZM224.98,266.06l1.05-.36c.41.84.7,1.72.94,2.76l-1.23.55c-.17-1.08-.43-2.12-.76-2.94ZM228.91,270.33l-.24-1.43c.55.1,1.15.17,1.67.17.6,0,.77-.14.9-.71.24-1.11.36-3.05.45-6.56h-3.17c-.34.83-.69,1.51-1.15,2.19l-.94-.97c.78-1.32,1.36-2.93,1.64-4.61l1.34.29c-.14.67-.29,1.23-.49,1.82h4.09c-.04,4.52-.21,7.31-.53,8.68-.21.91-.66,1.21-1.83,1.21-.56,0-1.22-.04-1.74-.08ZM227.78,264.05l1.06-.62c.6.74,1.15,1.69,1.61,2.82l-1.19.69c-.36-1.07-.88-2.07-1.48-2.89Z"/>
        <path d="M239.8,261.15l-2.13.35-.04-1.47,3.85-.56v.95s-.01,9.23-.01,9.23h-1.67v-8.5Z"/>
        <path d="M244.93,269.67c-.73-.04-1.26-.39-1.26-.98s.48-1.04,1.09-1.04c.88,0,1.5.71,1.5,1.75s-.76,2.25-1.67,2.94h-1.3c.9-.74,1.74-1.85,1.64-2.67Z"/>
        <path d="M251.76,267.34h-4.8v-1.08l4.69-6.77h1.75v6.5h1.61v1.34h-1.6v2.31h-1.65v-2.31ZM251.79,266l.04-4.55-3.1,4.55h3.05Z"/>
        <path d="M255.63,266.94c0-1.01.67-2.03,2.1-2.56-1.04-.48-1.65-1.22-1.65-2.28,0-1.42,1.15-2.62,3.35-2.62,2.04,0,3.25,1.05,3.25,2.56,0,1.01-.64,1.85-1.83,2.31,1.46.57,2.14,1.34,2.14,2.54,0,1.55-1.29,2.87-3.74,2.87-2.28,0-3.61-1.22-3.61-2.82ZM259.49,268.41c1.23,0,1.81-.81,1.81-1.51,0-.84-.5-1.32-2.14-1.85-1.25.25-1.83.97-1.83,1.75,0,1.08.97,1.61,2.17,1.61ZM259.5,263.83c1.05-.36,1.57-.91,1.57-1.67,0-.83-.67-1.39-1.7-1.39s-1.65.55-1.65,1.28c0,.8.53,1.3,1.78,1.78Z"/>
        <path d="M263.99,269.39l.1-1.46c.85.32,1.64.46,2.28.46,1.65,0,2.28-.81,2.28-1.88,0-1.57-1.43-2.17-4.29-1.67l.22-5.28h5.58v1.4h-4.08l-.13,2.45c3.03-.21,4.41.95,4.41,2.94s-1.33,3.39-4.06,3.39c-.71,0-1.53-.08-2.33-.36Z"/>
        <path d="M275.96,259.15h10.51v9.75c0,1.04-.38,1.39-1.46,1.39-.63,0-1.44-.04-2.24-.11l-.28-1.43c.69.1,1.5.17,2.03.17.43,0,.55-.13.55-.5v-3.15h-7.7v5.16h-1.4v-11.26ZM280.49,264.04v-3.66h-3.12v3.66h3.12ZM285.07,264.04v-3.66h-3.21v3.66h3.21Z"/>
        <path d="M170.38,290.69h11.68v1.39h-11.68v-1.39ZM171.16,282.37h10.11v1.36h-10.11v-1.36ZM171.85,286.37h8.74v1.34h-8.74v-1.34Z"/>
        <path d="M191.24,282.96h-3.15v.8h-1.33v-.8h-3.15v-1.02h3.15v-1.04h1.33v1.04h3.15v-1.04h1.33v1.04h3.25v1.02h-3.25v.83h-1.33v-.83ZM183.82,288.44c1.81-.21,2.84-.74,3.26-1.64h-3.33v-.98h5.25v-.64h-4.23v-.97h4.23v-.76h1.34v.76h4.31v.97h-4.31v.64h5.35v.98h-3.8v.43c0,.32.13.35,1.26.35.32,0,.53-.01.74-.04.39-.04.5-.17.53-.7l1.23.34c-.07.69-.17.95-.42,1.11-.29.2-1.04.29-2.35.29-1.96,0-2.28-.13-2.28-.85v-.92h-2.17c-.45,1.36-1.72,2.23-3.81,2.67l-.81-1.04ZM183.75,292.3c1.75-.08,3.52-.38,4.89-.83-.52-.28-1.13-.7-1.5-1.02-.73.42-1.4.71-2.07.94l-.83-.94c1.78-.45,3.45-1.48,4.37-2.7l1.25.34c-.2.25-.42.52-.74.84h3.91l.67.56c-.59.7-1.4,1.39-2.26,1.89,1.12.29,2.84.53,4.44.62l-.76,1.23c-1.86-.18-3.66-.6-5.08-1.13-1.53.66-3.64,1.18-5.6,1.36l-.69-1.15ZM191.67,289.91h-3.53c.55.42,1.21.77,1.86,1.04.7-.32,1.29-.67,1.67-1.04Z"/>
        <path d="M200.88,288.33v-6.05h1.68v5.95c0,1.95.78,2.73,2.41,2.73s2.31-.85,2.31-2.72v-5.97h1.71v5.91c0,2.86-1.33,4.24-4.08,4.24s-4.03-1.15-4.03-4.1Z"/>
        <path d="M210.85,282.27h6.01v1.39h-4.31v3.08h4.08v1.39h-4.08v4.2h-1.7v-10.06Z"/>
        <path d="M217.13,292.21l.06-1.5c.41.1.74.17,1.22.17,1.28,0,1.68-.58,1.68-2.38v-6.22h1.68v6.22c0,2.34-.63,3.88-3.24,3.88-.58,0-1-.06-1.4-.17Z"/>
        <path d="M228.37,284.36c0-.62.46-1.13,1.13-1.13s1.13.52,1.13,1.13-.46,1.13-1.13,1.13-1.13-.52-1.13-1.13ZM228.37,289.81c0-.62.46-1.15,1.13-1.15s1.13.53,1.13,1.15-.46,1.12-1.13,1.12-1.13-.5-1.13-1.12Z"/>
        <path d="M239.19,287.74c-.64.07-1.61.14-2.12.17l-.29-1.25,1.28-.04c.31-.35.5-.6.76-.92-.55-.77-1.16-1.5-1.82-2.13l.79-.94.49.53c.49-.66.95-1.43,1.39-2.3l1.13.59c-.5.85-1.11,1.64-1.82,2.48l.6.8c.53-.71,1.06-1.5,1.57-2.31l1.13.67c-.87,1.22-1.74,2.27-2.87,3.49.48-.01,1.3-.08,1.75-.13-.14-.42-.24-.64-.45-1.06l1.01-.38c.43.8.84,1.75,1.12,2.69l-1.09.57c-.08-.34-.14-.53-.22-.83-.38.07-.83.14-1.08.15v5.66h-1.25v-5.52ZM236.86,291.8c.35-.92.57-2.03.67-3.29l1.16.17c-.11,1.54-.32,2.72-.64,3.68l-1.19-.56ZM240.8,288.73l1.05-.36c.41.84.7,1.72.94,2.76l-1.23.55c-.17-1.08-.43-2.12-.76-2.94ZM244.73,293l-.24-1.43c.55.1,1.15.17,1.67.17.6,0,.77-.14.9-.71.24-1.11.36-3.05.45-6.56h-3.17c-.34.83-.69,1.51-1.15,2.19l-.94-.97c.78-1.32,1.36-2.93,1.64-4.61l1.34.29c-.14.67-.29,1.23-.49,1.82h4.09c-.04,4.52-.21,7.31-.53,8.68-.21.91-.66,1.21-1.83,1.21-.56,0-1.22-.04-1.74-.08ZM243.6,286.73l1.06-.62c.6.74,1.15,1.69,1.61,2.82l-1.19.69c-.36-1.07-.88-2.07-1.48-2.89Z"/>
        <path d="M255.62,283.83l-2.13.35-.04-1.47,3.85-.56v.95s-.01,9.23-.01,9.23h-1.67v-8.5Z"/>
        <path d="M260.75,292.35c-.73-.04-1.26-.39-1.26-.98s.48-1.04,1.09-1.04c.88,0,1.5.71,1.5,1.75s-.76,2.25-1.67,2.94h-1.3c.9-.74,1.74-1.85,1.64-2.67Z"/>
        <path d="M264.11,291.09c2.49-.17,4.08-1.28,4.43-3.54-.7.87-1.69,1.12-2.55,1.12-1.79,0-2.96-1.16-2.96-3.03,0-2.03,1.44-3.49,3.49-3.49,2.37,0,3.75,1.51,3.75,4.26,0,3.6-2.13,5.69-5.55,6.07l-.62-1.39ZM266.57,287.35c.76,0,1.67-.46,2.02-1.32-.07-1.61-.76-2.55-2.14-2.55-1.02,0-1.75.83-1.75,1.97,0,1.28.69,1.89,1.88,1.89Z"/>
        <path d="M275.96,283.68h-4.71v-1.43h6.61v1.04c-1.98,3.08-3.15,5.8-4.13,9.05h-1.79c.97-3,2.42-6.05,4.02-8.66Z"/>
        <path d="M278.64,291.17c3.25-2.49,4.78-4.13,4.78-5.79,0-1.23-.76-1.77-1.85-1.77-.97,0-1.84.39-2.56,1.02l-.07-1.56c.74-.55,1.82-.94,3.03-.94,1.96,0,3.18,1.09,3.18,2.97s-1.36,3.61-4.1,5.8h4.2v1.41h-6.6v-1.16Z"/>
        <path d="M290.93,281.83h10.51v9.75c0,1.04-.38,1.39-1.46,1.39-.63,0-1.44-.04-2.24-.11l-.28-1.43c.69.1,1.5.17,2.03.17.43,0,.55-.13.55-.5v-3.15h-7.7v5.16h-1.4v-11.26ZM295.45,286.71v-3.66h-3.12v3.66h3.12ZM300.03,286.71v-3.66h-3.21v3.66h3.21Z"/>
      </g>
      <g>
        <path d="M51.06,261.31l-2.28.38-.04-1.58,4.12-.6-.02,1.02v9.88h-1.78v-9.1Z"/>
        <path d="M56.55,270.43c-.78-.05-1.35-.42-1.35-1.05s.51-1.11,1.17-1.11c.94,0,1.6.76,1.6,1.88s-.81,2.42-1.79,3.15h-1.39c.96-.79,1.86-1.98,1.75-2.86Z"/>
        <path d="M59.07,265.18c0-3.55,1.63-5.67,4.18-5.67s3.97,1.89,3.97,5.37-1.58,5.64-4.15,5.64-4-1.91-4-5.34ZM65.35,265.06c0-2.83-.72-3.96-2.23-3.96-1.38,0-2.19,1.3-2.19,3.92s.79,3.93,2.27,3.93c1.36,0,2.16-1.28,2.16-3.88Z"/>
        <path d="M68.22,265.18c0-3.55,1.63-5.67,4.18-5.67s3.97,1.89,3.97,5.37-1.58,5.64-4.15,5.64-4-1.91-4-5.34ZM74.5,265.06c0-2.83-.72-3.96-2.23-3.96-1.38,0-2.19,1.3-2.19,3.92s.79,3.93,2.27,3.93c1.36,0,2.16-1.28,2.16-3.88Z"/>
        <path d="M77.37,265.18c0-3.55,1.63-5.67,4.18-5.67s3.97,1.89,3.97,5.37-1.58,5.64-4.15,5.64-4-1.91-4-5.34ZM83.65,265.06c0-2.83-.72-3.96-2.23-3.96-1.38,0-2.19,1.3-2.19,3.92s.79,3.93,2.27,3.93c1.36,0,2.16-1.28,2.16-3.88Z"/>
        <path d="M91.36,259.17h11.25v10.44c0,1.11-.4,1.48-1.56,1.48-.67,0-1.54-.04-2.4-.12l-.3-1.53c.74.1,1.61.18,2.18.18.46,0,.58-.13.58-.54v-3.38h-8.25v5.52h-1.5v-12.06ZM96.21,264.4v-3.92h-3.34v3.92h3.34ZM101.11,264.4v-3.92h-3.44v3.92h3.44Z"/>
      </g>
      <g>
        <path d="M66.41,286.65c-.54,0-1,.42-1.2,1.86h-1.42c.22-2.42,1.42-3.34,2.62-3.34,1.89,0,2.1,1.98,3.13,1.98.51,0,1.06-.31,1.21-1.86h1.44c-.22,2.22-1.26,3.34-2.61,3.34-1.88,0-2.12-1.98-3.18-1.98Z"/>
        <path d="M76.66,290.77c3.48-2.67,5.11-4.42,5.11-6.19,0-1.32-.81-1.89-1.98-1.89-1.04,0-1.96.42-2.75,1.09l-.08-1.67c.79-.58,1.95-1,3.24-1,2.1,0,3.4,1.17,3.4,3.18s-1.45,3.87-4.39,6.21h4.5v1.51h-7.06v-1.25Z"/>
        <path d="M86.45,292.03c-.78-.05-1.35-.42-1.35-1.05s.51-1.11,1.17-1.11c.94,0,1.6.76,1.6,1.88s-.81,2.42-1.79,3.15h-1.39c.96-.79,1.86-1.98,1.75-2.86Z"/>
        <path d="M88.97,286.78c0-3.55,1.63-5.67,4.18-5.67s3.97,1.89,3.97,5.37-1.58,5.64-4.15,5.64-4-1.91-4-5.34ZM95.26,286.66c0-2.83-.72-3.96-2.23-3.96-1.38,0-2.19,1.3-2.19,3.92s.79,3.93,2.27,3.93c1.36,0,2.16-1.28,2.16-3.88Z"/>
        <path d="M98.12,286.78c0-3.55,1.63-5.67,4.18-5.67s3.97,1.89,3.97,5.37-1.58,5.64-4.15,5.64-4-1.91-4-5.34ZM104.41,286.66c0-2.83-.72-3.96-2.23-3.96-1.38,0-2.19,1.3-2.19,3.92s.79,3.93,2.27,3.93c1.36,0,2.16-1.28,2.16-3.88Z"/>
        <path d="M107.27,286.78c0-3.55,1.63-5.67,4.18-5.67s3.97,1.89,3.97,5.37-1.58,5.64-4.15,5.64-4-1.91-4-5.34ZM113.56,286.66c0-2.83-.72-3.96-2.23-3.96-1.38,0-2.19,1.3-2.19,3.92s.79,3.93,2.27,3.93c1.36,0,2.16-1.28,2.16-3.88Z"/>
        <path d="M121.27,280.77h11.25v10.44c0,1.11-.4,1.48-1.56,1.48-.67,0-1.54-.04-2.4-.12l-.3-1.53c.74.1,1.61.18,2.18.18.46,0,.58-.13.58-.54v-3.38h-8.25v5.52h-1.5v-12.06ZM126.11,286v-3.92h-3.34v3.92h3.34ZM131.02,286v-3.92h-3.44v3.92h3.44Z"/>
      </g>
      <rect class="cls-3" x="29.55" y="316.52" width="119.19" height="68.4"/>
      <rect class="cls-3" x="154.05" y="316.52" width="178.75" height="68.4"/>
      <g>
        <path d="M172.45,340.98c2.55,0,4.68-.04,5.69-.13.15-.01.25-.01.31-.01.08,0,.13.01.17.03.1.06.13.29.13,1.06,0,.71-.03.78-.27.78t-.24-.01c-.74-.07-1.6-.08-3.4-.08-3.87,0-5.7.04-6.56.17-.14.03-.2.03-.25.03-.32,0-.38-.25-.49-1.93,1.13.07,2.51.1,4.92.1ZM172.88,334.96c1.88,0,2.96-.04,3.75-.14.08-.01.1-.01.15-.01.15,0,.21.04.24.24.01.11.03.6.03.99,0,.48-.04.59-.22.59-.06,0-.13,0-.24-.01-.28-.01-2.33-.03-3.95-.03-1.08,0-1.81.01-2.58.07-.18.01-.41.03-.43.03-.17,0-.27-.07-.32-.21-.07-.2-.14-1.02-.14-1.68.85.13,1.75.17,3.71.17Z"/>
        <path d="M184.19,339.76c-.22-.52-.69-1.4-.87-1.67-.28-.41-.32-.48-.32-.56,0-.11.15-.25.53-.46.43-.25.49-.28.57-.27.13.01.31.22.64.76.46.7.88,1.5.88,1.67,0,.1-.1.2-.38.36-.32.2-.77.41-.85.41s-.14-.06-.21-.24ZM191.81,337.38c0,.06-.03.11-.08.18-.14.18-.22.32-.41.71-1.01,2.24-1.67,3.28-2.79,4.41-.83.83-2.13,1.79-2.42,1.79-.08,0-.15-.03-.24-.11-.25-.27-.64-.56-1.09-.81,2.12-1.12,3.29-2.25,4.27-4.08.55-1.04.91-2.13.97-2.94,1.16.32,1.79.63,1.79.84ZM188.21,338.61c0,.08-.64.48-1.04.63-.08.03-.14.04-.14.06-.04.01-.07.03-.08.03-.07,0-.14-.07-.18-.21-.2-.59-.59-1.4-1.02-2.12t-.04-.14c0-.1.11-.18.53-.41.52-.28.55-.29.63-.29.07,0,.1.03.2.13.2.27.8,1.33.91,1.64.08.24.14.41.18.46.04.04.06.08.06.1v.08s0,.04,0,.04Z"/>
        <path d="M198.31,336.09c0-1.55-.06-2.37-.17-2.82q.25.01.8.04c.17,0,.92.13,1.02.15.1.04.14.1.14.18q0,.07-.08.36c-.07.2-.08.49-.11,2.07.35,0,1.39,0,3.12-.01,0-1.6-.04-2.23-.15-2.9.76.04,1.18.08,1.58.15.29.04.38.1.38.22,0,.1-.01.14-.1.36-.04.1-.08.53-.1.98v1.16c1.41-.03,1.95-.04,2.37-.08.06-.01.1-.01.14-.01.07,0,.13.03.15.07.04.08.07.42.07.87,0,.66-.03.73-.24.73t-.34-.03c-.48-.04-.59-.04-2.18-.04-.08,2.1-.36,3.22-1.06,4.34-.6.97-1.39,1.68-2.47,2.28-.38.21-.88.41-1.02.41-.13,0-.14-.01-.43-.32-.31-.34-.5-.48-.94-.74,2.02-.73,3.07-1.55,3.71-2.91.39-.84.56-1.67.62-3.07h-.91c-.13,0-.52,0-1.09.01-.25.01-.63.01-1.13.03q0,1,.03,2.26v.18c0,.2-.04.27-.2.32-.17.04-.6.08-.94.08-.49,0-.56-.04-.56-.29v-.21c.06-1.27.07-1.5.08-2.31-.73.01-2.02.1-2.35.15-.03.01-.06.01-.08.01-.11,0-.18-.06-.21-.18-.07-.24-.14-.91-.17-1.61.71.08,1.12.1,2.28.1h.55Z"/>
        <path d="M220.96,336.8c.07.14.1.24.1.32,0,.14-.06.24-.24.49-.77,1.01-1.6,1.82-2.84,2.79-1.4,1.09-2.59,1.82-4.27,2.62-1.08.5-1.13.53-1.3.69-.11.11-.17.14-.25.14-.13,0-.24-.11-.45-.42-.28-.42-.55-1-.7-1.49,1.41-.32,3.11-1.08,4.75-2.11,2.16-1.36,3.52-2.7,4.57-4.54.15.52.28.8.64,1.51ZM211.63,334.45c.24-.27.34-.34.46-.34.27.01,1.32.69,2.18,1.39.53.43.7.62.7.76,0,.1-.25.48-.59.85-.31.35-.46.48-.57.48q-.1,0-.67-.55c-.36-.35-1.09-.94-1.46-1.16q-.49-.32-.59-.38c-.06-.04-.08-.08-.08-.13,0-.13.27-.52.62-.92Z"/>
        <path d="M230.86,335.85c0,.62-.49,1.11-1.11,1.11s-1.11-.49-1.11-1.11.49-1.11,1.11-1.11,1.11.49,1.11,1.11ZM230.86,341.67c0,.62-.49,1.11-1.11,1.11s-1.11-.49-1.11-1.11.49-1.11,1.11-1.11,1.11.49,1.11,1.11Z"/>
        <path d="M239.61,340.29c-.11,1.69-.29,2.8-.67,3.99l-1.19-.56c.38-1.15.55-2.09.64-3.61l1.22.18ZM237.81,338.26c.2.03.31.04.57.04.1,0,.22,0,.53-.01.43-.52.52-.63.78-.98-.7-.9-.87-1.08-1.83-1.99l.77-1.12c.18.24.25.31.39.46.5-.76.98-1.68,1.11-2.17l1.29.52c-.08.13-.14.22-.28.49-.31.6-.92,1.62-1.26,2.07.27.28.32.35.57.67.91-1.33,1.27-1.93,1.44-2.37l1.25.71c-.13.15-.22.28-.45.62-.77,1.13-1.65,2.33-2.27,3.03q.8-.04,1.54-.11c-.13-.35-.2-.49-.39-.92l1.01-.41c.34.69.7,1.58,1.06,2.63l-1.13.46c-.07-.31-.1-.42-.15-.63-.27.03-.57.06-.95.1v4.24c0,.64.03,1.02.08,1.43h-1.48c.07-.41.08-.76.08-1.44v-4.12c-1.6.13-1.93.15-2.13.18l-.15-1.39ZM243.01,340.03c.29,1.18.5,2.3.66,3.43l-1.23.29c-.08-1.04-.29-2.4-.5-3.45l1.08-.28ZM245.25,335.94c-.46.97-.7,1.34-1.34,2.13-.27-.42-.56-.73-1.06-1.09.67-.77,1.23-1.72,1.58-2.67.25-.67.42-1.26.49-1.7l1.51.27c-.07.17-.07.18-.2.55-.17.59-.21.7-.38,1.13h2.93c.56,0,.83-.01,1.11-.06q-.06.43-.07,2.34c-.01,1.54-.15,3.88-.31,4.99-.21,1.55-.46,2.28-.9,2.63-.32.24-.83.35-1.72.35-.39,0-.69-.01-1.25-.06-.08-.59-.17-.94-.38-1.5.67.11,1.3.17,1.75.17.6,0,.76-.17.92-1,.27-1.32.42-3.73.43-6.49h-3.12ZM245.87,341.55c-.55-1.62-.83-2.26-1.51-3.4l1.16-.64c.78,1.25,1.15,1.99,1.65,3.38l-1.3.67Z"/>
        <path d="M256.62,337.78c.24.01.88.03,1.01.03.99,0,1.53-.57,1.53-1.64,0-.98-.46-1.57-1.26-1.57-.43,0-.77.17-1.02.53-.13.18-.21.38-.38.83l-1.43-.73c.59-1.39,1.5-2.02,2.89-2.02,1.74,0,2.86,1.11,2.86,2.83,0,.76-.22,1.37-.67,1.86-.2.21-.35.32-.71.52.43.18.62.29.84.5.5.49.74,1.16.74,2.07,0,2.02-1.21,3.31-3.11,3.31-.91,0-1.7-.29-2.26-.85-.38-.38-.62-.79-.87-1.5l1.5-.7c.18.57.31.85.49,1.11.28.36.67.56,1.13.56.9,0,1.44-.73,1.44-1.93s-.56-1.85-1.75-1.85c-.13,0-.28,0-.49.01q-.13,0-.48.01v-1.39Z"/>
        <path d="M267.68,342.69c-.46,1.06-1.33,1.62-2.51,1.62-2.14,0-3.1-1.74-3.1-5.65,0-1.61.2-2.93.57-3.78.5-1.15,1.27-1.67,2.51-1.67,1.32,0,2.14.59,2.63,1.89.31.84.48,2.06.48,3.6,0,1.85-.18,3.08-.59,3.98ZM266.25,341.94c.21-.71.31-1.67.31-3.03,0-1.58-.17-2.98-.43-3.6-.21-.48-.52-.7-.95-.7-.48,0-.76.22-.98.77-.25.59-.39,1.78-.39,3.18,0,3.18.36,4.34,1.36,4.34.53,0,.9-.32,1.09-.97Z"/>
        <path d="M270.31,342.32c.66.45,1.05.59,1.62.59.69,0,1.23-.46,1.53-1.32.18-.55.29-1.26.29-1.99-.52.56-1.02.81-1.65.81-.76,0-1.54-.34-2.04-.87-.56-.59-.87-1.53-.87-2.62,0-2.25,1.19-3.71,3.01-3.71,1.11,0,1.86.42,2.42,1.34.5.84.74,2.1.74,3.96,0,3.95-1.12,5.79-3.54,5.79-.84,0-1.53-.2-2.24-.63l.73-1.36ZM273.49,335.78c-.22-.81-.63-1.19-1.26-1.19-.9,0-1.42.83-1.42,2.28,0,.53.1,1.06.25,1.39.22.46.71.77,1.23.77.31,0,.6-.11.87-.32.11-.11.22-.22.32-.34.14-.21.24-.35.24-.36,0-.95-.07-1.61-.24-2.23Z"/>
        <path d="M282.46,343.32c0,.83.01,1.26.07,1.55h-1.67c.06-.43.08-.91.08-1.62v-8.78c0-.57-.01-.92-.06-1.3.43.04.79.06,1.51.06h8.15c.73,0,1.15-.01,1.47-.06-.04.38-.06.74-.06,1.47v8.63c0,.69-.17,1.06-.55,1.26-.25.14-.7.2-1.42.2-.49,0-1.26-.03-1.79-.06-.07-.53-.17-.91-.41-1.46.9.1,1.55.15,2.04.15.52,0,.6-.04.6-.36v-3.29h-8v3.61ZM285.64,334.65h-3.18v3.64h3.18v-3.64ZM290.46,338.29v-3.64h-3.36v3.64h3.36Z"/>
        <path d="M170.98,361.08q-.18.39-.45,1.16c-.39-.62-.56-.94-.73-1.44,0,.11.01.21.01.27.04.52.06.81.06,1.32v3.71c0,.71.01,1.19.07,1.57h-1.5c.07-.43.1-.98.1-1.65v-2.75c0-.41.01-.95.07-1.65-.28,1.05-.67,2.03-1.15,2.83-.21-.53-.43-.9-.78-1.3.46-.66.71-1.11,1.09-2.04.27-.67.5-1.47.66-2.2h-.43c-.34,0-.6.01-.9.07v-1.43c.25.04.52.06.9.06h.53v-1c0-.7-.03-1.05-.08-1.39h1.5c-.06.38-.07.76-.07,1.39v1c.38,0,.56-.01.81-.04v1.42c-.11-.06-.25-.07-.8-.07.31.9.53,1.3,1.09,2.02v-1.48c0-.22-.01-.41-.04-.63.25.01.43.03.7.03h.94c.27-.45.67-1.32.85-1.82h-1.3c-.64,0-1.16.03-1.53.07v-1.42c.38.06.85.08,1.54.08h5.58c.74,0,1.18-.03,1.55-.08v1.42c-.41-.04-.91-.07-1.55-.07h-2.82c-.18.45-.27.62-.45,1.02h.36c.56,0,.77-.01.97-.04q-.03.41-.07,2.07c-.06,1.98-.2,3.49-.38,4.34.73-.6.97-.87,1.4-1.58-.35-.7-.53-1.21-.91-2.46l.99-.62c.25.94.39,1.36.57,1.77.21-.66.31-1.08.42-1.89h-1.13c-.29,0-.45.01-.66.04v-1.32c.27.04.49.06.95.06h.95c.29,0,.55-.01.74-.04l.53.71c-.53,2.41-.66,2.84-1.09,3.74.48.64.64.83,1.44,1.47-.35.38-.55.71-.71,1.2-.64-.57-.99-.94-1.4-1.51-.5.73-.64.88-1.37,1.55-.21-.43-.38-.67-.76-1.06-.15.6-.29.84-.6,1.01-.21.13-.5.17-1.05.17q-.25,0-.88-.04c-.07-.59-.13-.84-.32-1.3.62.11.95.15,1.23.15.41,0,.43-.06.57-1.16.15-1.15.21-2.23.22-4.08h-.76v4.19c0,.22,0,.27.03.6-.28-.01-.46-.03-.66-.03h-1.5c-.29,0-.48.01-.66.04.03-.32.04-.49.04-1.02v-1.91ZM170.38,365.83c.39.06.81.08,1.47.08h6c.69,0,1.16-.03,1.53-.08v1.43c-.42-.04-.9-.07-1.55-.07h-6c-.66,0-1.04.01-1.44.07v-1.43ZM172.03,362.8h.66v-2.83h-.66v2.83Z"/>
        <path d="M185.82,361.81c-.39,0-.73.01-1.04.04.03-.29.04-.62.04-1.12v-3.15c0-.56,0-.7-.04-1.09.35.04.49.04,1.06.04h.42c.22-.5.34-.85.45-1.37l1.5.17c-.27.62-.43,1.01-.52,1.21h1.12c.56,0,.66,0,1.04-.04-.04.35-.04.48-.04,1.11v3.12c0,.59.01.87.04,1.13-.31-.03-.62-.04-1.01-.04h-.83v.88h3.61c.8,0,1.26-.03,1.61-.08v1.46c-.41-.06-.88-.08-1.62-.08h-2.61c.83.63,1.26.9,1.95,1.22.9.41,1.51.62,2.66.87-.35.46-.56.81-.83,1.37-1.27-.39-1.76-.59-2.56-1.05-.94-.55-1.68-1.15-2.25-1.79q0,.15.01.36c0,.06.01.48.01.52v.79c0,.67.01.91.1,1.37h-1.65c.07-.45.1-.8.1-1.39v-.76c0-.27,0-.43.03-.88-.74.8-1.25,1.21-2.04,1.67-.74.45-1.61.83-2.58,1.15-.27-.53-.48-.85-.88-1.3,1.85-.46,3.36-1.2,4.4-2.14h-2.44c-.7,0-1.2.03-1.61.08v-1.46c.36.06.91.08,1.6.08h3.52v-.88h-.71ZM184.64,360.38c-.78.52-1.29.81-2.42,1.36q-.24.13-.55.28l-.52-1.34c.85-.24,1.89-.73,3.14-1.53l.35,1.23ZM182.46,355.94c.74.59,1.28,1.09,2.04,1.95l-.98,1.02c-.69-.85-1.3-1.47-2.04-2.04l.98-.92ZM186.16,358.57h2.33v-.87h-2.33v.87ZM186.16,360.63h2.33v-.94h-2.33v.94ZM190.69,359.2c1.33.67,2.05,1.08,2.87,1.61l-.78,1.16c-1-.73-1.81-1.23-2.83-1.74l.74-1.04ZM193.27,356.88c-1,1.04-1.61,1.61-2.3,2.14l-.92-1c1.01-.78,1.46-1.23,2.13-2.1l1.09.95Z"/>
        <path d="M196.04,358.61c1.13.7,1.47.94,2.4,1.68l-.84,1.22c-.85-.8-1.33-1.16-2.38-1.79l.83-1.11ZM203.03,363.39c-.28.62-.8,1.27-1.43,1.83-.69.62-1.3,1-2.34,1.47-.21-.38-.53-.77-.87-1.05,1.55-.58,2.61-1.32,3.21-2.26h-.87c-.56.55-1,.85-1.88,1.36-.28-.42-.48-.67-.77-.95-.38,1.22-.71,2.1-1.19,3.04-.15.34-.18.39-.31.64l-1.33-1.09c.18-.2.39-.53.66-1.04.45-.85.76-1.69,1.12-3.07l1.26.83-.18.56c1.21-.59,1.99-1.22,2.45-1.96h-.7c-.55,0-.98.03-1.33.07v-1.34c.32.04.56.06,1.26.06h6.46c.64,0,1.06-.03,1.42-.08v1.37c-.36-.04-.83-.07-1.4-.07h-4.26c-.13.22-.18.32-.35.56h4.46c.66,0,.91-.01,1.2-.04q-.01.08-.08,1.48c-.08,1.65-.24,2.65-.49,3.14-.25.48-.67.63-1.68.63-.45,0-.77-.01-1.16-.06-.07-.5-.17-.84-.38-1.29-.73.71-1.13,1.02-2.07,1.54-.41-.52-.53-.64-.99-.99.83-.35,1.51-.8,2.14-1.4.6-.56.98-1.11,1.32-1.89h-.88ZM196.57,355.21c.99.63,1.55,1.05,2.39,1.81l-.92,1.16c-.83-.83-1.37-1.26-2.35-1.88l.88-1.09ZM200.77,359.94c-.53,0-.97.01-1.22.04.03-.41.04-.83.04-1.29v-1.95c0-.57-.01-.78-.06-1.22.38.06.73.07,1.36.07h4.16c.66,0,1.05-.01,1.44-.07-.04.41-.06.67-.06,1.33v1.83c0,.56.01.91.06,1.29-.34-.03-.73-.04-1.22-.04h-4.51ZM200.94,357.31h4.15v-.55h-4.15v.55ZM200.94,358.89h4.15v-.59h-4.15v.59ZM205.24,363.39c-.39,1.11-.84,1.85-1.64,2.66.59.1,1.05.14,1.43.14s.52-.14.63-.71c.1-.6.18-1.37.2-2.09h-.62Z"/>
        <path d="M214.91,366.81h-1.83v-10.91h1.83v4.38h4.41v-4.38h1.83v10.91h-1.83v-4.97h-4.41v4.97Z"/>
        <path d="M226.42,355.89c1.56,0,2.76.42,3.59,1.25.9.91,1.39,2.38,1.39,4.19s-.57,3.43-1.62,4.37c-.81.74-1.91,1.11-3.29,1.11h-3.26v-10.91h3.21ZM224.99,365.29h1.36c1.08,0,1.92-.34,2.44-1,.5-.64.74-1.62.74-3.04,0-2.63-1.02-3.85-3.21-3.85h-1.33v7.89Z"/>
        <path d="M240.27,358.53c0,.62-.49,1.11-1.11,1.11s-1.11-.49-1.11-1.11.49-1.11,1.11-1.11,1.11.49,1.11,1.11ZM240.27,364.34c0,.62-.49,1.11-1.11,1.11s-1.11-.49-1.11-1.11.49-1.11,1.11-1.11,1.11.49,1.11,1.11Z"/>
        <path d="M249.01,362.97c-.11,1.69-.29,2.8-.67,3.99l-1.19-.56c.38-1.15.55-2.09.64-3.61l1.22.18ZM247.22,360.94c.2.03.31.04.57.04.1,0,.22,0,.53-.01.43-.52.52-.63.78-.98-.7-.9-.87-1.08-1.83-1.99l.77-1.12c.18.24.25.31.39.46.5-.76.98-1.68,1.11-2.17l1.29.52c-.08.13-.14.22-.28.49-.31.6-.92,1.62-1.26,2.07.27.28.32.35.57.67.91-1.33,1.27-1.93,1.44-2.37l1.25.71c-.13.15-.22.28-.45.62-.77,1.13-1.65,2.33-2.27,3.03q.8-.04,1.54-.11c-.13-.35-.2-.49-.39-.92l1.01-.41c.34.69.7,1.58,1.06,2.63l-1.13.46c-.07-.31-.1-.42-.15-.63-.27.03-.57.06-.95.1v4.24c0,.64.03,1.02.08,1.43h-1.48c.07-.41.08-.76.08-1.44v-4.12c-1.6.13-1.93.15-2.13.18l-.15-1.39ZM252.42,362.7c.29,1.18.5,2.3.66,3.43l-1.23.29c-.08-1.04-.29-2.4-.5-3.45l1.08-.28ZM254.66,358.61c-.46.97-.7,1.34-1.34,2.13-.27-.42-.56-.73-1.06-1.09.67-.77,1.23-1.72,1.58-2.67.25-.67.42-1.26.49-1.7l1.51.27c-.07.17-.07.18-.2.55-.17.59-.21.7-.38,1.13h2.93c.56,0,.83-.01,1.11-.06q-.06.43-.07,2.34c-.01,1.54-.15,3.88-.31,4.99-.21,1.55-.46,2.28-.9,2.63-.32.24-.83.35-1.72.35-.39,0-.69-.01-1.25-.06-.08-.59-.17-.94-.38-1.5.67.11,1.3.17,1.75.17.6,0,.76-.17.92-.99.27-1.32.42-3.73.43-6.49h-3.12ZM255.28,364.23c-.55-1.62-.83-2.26-1.51-3.4l1.16-.64c.78,1.25,1.15,1.99,1.65,3.38l-1.3.67Z"/>
        <path d="M269.4,363.02h1.16v1.3h-1.16v2.48h-1.42v-2.48h-3.7v-1.13l3.35-7.12h1.76v6.95ZM268.01,360.8c.01-.95.06-1.57.21-3.33h-.14c-.53,1.47-.8,2.16-1.01,2.62l-1.33,2.94h2.24l.03-2.23Z"/>
        <path d="M277.75,363.91c0,1.85-1.26,3.08-3.15,3.08s-3.18-1.18-3.18-2.98c0-.66.14-1.22.42-1.65.29-.48.62-.76,1.34-1.23-.49-.31-.7-.48-.91-.74-.38-.45-.56-1.01-.56-1.71,0-1.65,1.15-2.77,2.89-2.77,1.09,0,2,.48,2.49,1.3.25.41.36.9.36,1.53s-.21,1.23-.57,1.68c-.22.27-.43.43-.94.74,1.26.63,1.81,1.47,1.81,2.76ZM273.47,362.62c-.31.35-.45.76-.45,1.29,0,1.11.57,1.78,1.53,1.78s1.58-.7,1.58-1.78c0-.52-.13-.87-.45-1.22-.2-.22-.38-.38-.66-.53-.11-.07-.5-.28-.5-.28-.58.29-.83.48-1.05.74ZM275.56,359.75c.21-.29.31-.63.31-1.06,0-.9-.5-1.47-1.29-1.47s-1.3.57-1.3,1.51c0,.5.17.91.52,1.19.25.21.81.55.87.52.52-.27.69-.39.9-.69Z"/>
        <path d="M283.68,363.02h1.16v1.3h-1.16v2.48h-1.42v-2.48h-3.7v-1.13l3.35-7.12h1.76v6.95ZM282.29,360.8c.01-.95.06-1.57.21-3.33h-.14c-.53,1.47-.8,2.16-1.01,2.62l-1.33,2.94h2.24l.03-2.23Z"/>
        <path d="M291.87,365.99c0,.83.01,1.26.07,1.55h-1.67c.06-.43.08-.91.08-1.62v-8.78c0-.57-.01-.92-.06-1.3.43.04.79.06,1.51.06h8.15c.73,0,1.15-.01,1.47-.06-.04.38-.06.74-.06,1.47v8.63c0,.69-.17,1.06-.55,1.26-.25.14-.7.2-1.42.2-.49,0-1.26-.03-1.79-.06-.07-.53-.17-.91-.41-1.46.9.1,1.55.15,2.04.15.52,0,.6-.04.6-.36v-3.29h-8v3.61ZM295.05,357.32h-3.18v3.64h3.18v-3.64ZM299.87,360.97v-3.64h-3.36v3.64h3.36Z"/>
      </g>
      <g>
        <path d="M58.1,352.26c-.54,0-1,.42-1.2,1.86h-1.42c.22-2.42,1.42-3.34,2.62-3.34,1.89,0,2.1,1.98,3.13,1.98.51,0,1.06-.31,1.21-1.86h1.44c-.22,2.22-1.26,3.34-2.61,3.34-1.88,0-2.12-1.98-3.18-1.98Z"/>
        <path d="M70.22,348.52l-2.28.38-.04-1.58,4.12-.6-.02,1.02v9.88h-1.78v-9.1Z"/>
        <path d="M75.71,357.64c-.78-.05-1.35-.42-1.35-1.05s.51-1.11,1.17-1.11c.94,0,1.6.76,1.6,1.88s-.81,2.42-1.79,3.15h-1.39c.96-.79,1.86-1.98,1.75-2.86Z"/>
        <path d="M78.23,352.39c0-3.55,1.63-5.67,4.18-5.67s3.97,1.89,3.97,5.37-1.58,5.64-4.15,5.64-4-1.91-4-5.34ZM84.51,352.27c0-2.83-.72-3.96-2.23-3.96-1.38,0-2.19,1.3-2.19,3.92s.79,3.93,2.27,3.93c1.36,0,2.16-1.28,2.16-3.88Z"/>
        <path d="M87.38,352.39c0-3.55,1.63-5.67,4.18-5.67s3.97,1.89,3.97,5.37-1.58,5.64-4.15,5.64-4-1.91-4-5.34ZM93.66,352.27c0-2.83-.72-3.96-2.23-3.96-1.38,0-2.19,1.3-2.19,3.92s.79,3.93,2.27,3.93c1.36,0,2.16-1.28,2.16-3.88Z"/>
        <path d="M96.53,352.39c0-3.55,1.63-5.67,4.18-5.67s3.97,1.89,3.97,5.37-1.58,5.64-4.15,5.64-4-1.91-4-5.34ZM102.81,352.27c0-2.83-.72-3.96-2.23-3.96-1.38,0-2.19,1.3-2.19,3.92s.79,3.93,2.27,3.93c1.36,0,2.16-1.28,2.16-3.88Z"/>
        <path d="M110.52,346.38h11.25v10.44c0,1.11-.4,1.48-1.56,1.48-.67,0-1.54-.04-2.4-.12l-.3-1.53c.74.1,1.61.18,2.18.18.46,0,.58-.13.58-.54v-3.38h-8.25v5.52h-1.5v-12.06ZM115.36,351.61v-3.92h-3.34v3.92h3.34ZM120.27,351.61v-3.92h-3.44v3.92h3.44Z"/>
      </g>
    </g>
  </g>
</svg>