<?xml version="1.0" encoding="UTF-8"?>
<svg id="_レイヤー_2" data-name="レイヤー 2" xmlns="http://www.w3.org/2000/svg" width="332.8" height="406.31" xmlns:xlink="http://www.w3.org/1999/xlink" viewBox="0 0 332.8 406.31">
  <defs>
    <style>
      .cls-1 {
        fill: #68d3f2;
      }

      .cls-2 {
        fill: url(#_名称未設定グラデーション_5);
      }

      .cls-3 {
        fill: #f2f2f2;
      }

      .cls-4 {
        fill: #f28d63;
      }
    </style>
    <linearGradient id="_名称未設定グラデーション_5" data-name="名称未設定グラデーション 5" x1="10.7" y1="387.36" x2="10.7" y2="20.21" gradientUnits="userSpaceOnUse">
      <stop offset="0" stop-color="#96ddf2"/>
      <stop offset=".99" stop-color="#f2a788"/>
    </linearGradient>
  </defs>
  <g id="_レイヤー_1-2" data-name="レイヤー 1">
    <g>
      <path class="cls-2" d="M10.78,387.32l10.6-11.35c.06-.07.01-.18-.08-.18h-5.72V31.77h5.72c.09,0,.14-.11.08-.18l-10.6-11.35s-.11-.04-.15,0L.03,31.59c-.06.07-.02.18.08.18h5.72v344.03H.11c-.09,0-.14.11-.08.18l10.6,11.35s.11.04.15,0Z"/>
      <path class="cls-4" d="M9.79.88c0-.31-.02-.6-.08-.88h1.75c-.04.3-.08.57-.08.88v.18h4.26c.63,0,1.05-.03,1.5-.09v1.47c-.48-.06-.84-.08-1.5-.08H5.72c-.66,0-1,.01-1.48.08V.98c.45.06.88.09,1.56.09h3.99v-.18ZM4.64,7.96c0-.5-.02-.86-.06-1.3.45.04.9.06,1.5.06h9.31c.69,0,1.02-.01,1.42-.06-.04.43-.06.79-.06,1.29v3.67c0,.71-.08.99-.34,1.23-.29.25-.72.34-1.74.34-.3,0-.38,0-.83-.03q-.22,0-.46-.02c-.03-.64-.11-.97-.3-1.44.73.09,1.41.13,1.8.13.27,0,.34-.06.34-.3v-3.58H6.17v3.83c0,.73.02,1.09.08,1.59h-1.7c.06-.32.09-.9.09-1.59v-3.83ZM6.43,3.93c0-.45-.01-.71-.04-1.03.39.03.75.04,1.41.04h5.97c.62,0,.9-.02,1.29-.04-.03.36-.04.58-.04,1.05v1.23c0,.54.01.72.04,1.05-.38-.03-.71-.04-1.37-.04h-5.94c-.6,0-.96.02-1.37.04.03-.29.04-.58.04-1.05v-1.25ZM13.78,10.62c0,.42.02.7.04.97-.25-.03-.82-.04-1.2-.04h-3.63v.72h-1.49c.04-.27.06-.6.06-1.17v-1.67c0-.41-.02-.69-.05-.94.36.03.65.04,1.17.04h3.96c.54,0,.68,0,1.17-.04-.03.28-.04.49-.04.93v1.2ZM7.93,4.98h5.57v-.87h-5.57v.87ZM8.99,10.41h3.4v-.78h-3.4v.78Z"/>
      <path class="cls-1" d="M14.35,399.62c-.54,1.47-.97,2.25-1.83,3.19,1.7.71,2.58,1.12,4.41,2.12l-1.19,1.33c-1.62-1.04-2.8-1.67-4.42-2.37-1.57,1.17-3.27,1.83-6.24,2.42-.22-.6-.43-1.02-.79-1.54,2.44-.3,3.97-.74,5.38-1.54-1.29-.5-1.62-.6-3.85-1.18.85-1.07,1.2-1.56,1.71-2.42h-1.63c-.72,0-1.14.01-1.57.08v-1.62c.43.06.73.07,1.57.07h2.48c.45-.85.72-1.47.85-2.02l1.74.25q-.15.3-.3.62c-.11.21-.29.6-.56,1.15h5.47c.84,0,1.16-.01,1.58-.07v1.62c-.45-.06-.88-.08-1.58-.08h-1.23ZM9.76,394.15c0-.45-.01-.75-.08-1.1h1.75c-.04.3-.06.65-.06,1.08v.25h3.88c.72,0,1.16-.01,1.65-.06-.04.36-.06.69-.06,1.09v1.07c0,.43.01.72.06,1.06h-1.56v-1.72H6.04v1.72h-1.59c.04-.33.08-.64.08-1.06v-1.07c0-.33-.03-.72-.08-1.09.5.04.93.06,1.65.06h3.66v-.24ZM9.32,399.62c-.44.72-.58.97-1.11,1.71,1.41.4,1.71.51,2.79.9.83-.78,1.26-1.46,1.68-2.61h-3.36Z"/>
      <rect class="cls-3" x="29.55" y="19.07" width="119.19" height="68.4"/>
      <rect class="cls-3" x="154.05" y="19.07" width="178.75" height="68.4"/>
      <g>
        <path d="M51.06,48.36l-2.28.38-.04-1.58,4.12-.6-.02,1.02v9.88h-1.78v-9.1Z"/>
        <path d="M55.08,52.23c0-3.55,1.63-5.67,4.18-5.67s3.97,1.89,3.97,5.37-1.58,5.64-4.15,5.64-4-1.91-4-5.34ZM61.36,52.11c0-2.83-.72-3.96-2.23-3.96-1.38,0-2.19,1.3-2.19,3.92s.79,3.93,2.27,3.93c1.36,0,2.16-1.28,2.16-3.88Z"/>
        <path d="M65.7,57.48c-.78-.05-1.35-.42-1.35-1.05s.51-1.11,1.17-1.11c.94,0,1.6.76,1.6,1.88s-.81,2.42-1.79,3.15h-1.39c.96-.79,1.86-1.98,1.75-2.86Z"/>
        <path d="M68.22,52.23c0-3.55,1.63-5.67,4.18-5.67s3.97,1.89,3.97,5.37-1.58,5.64-4.15,5.64-4-1.91-4-5.34ZM74.5,52.11c0-2.83-.72-3.96-2.23-3.96-1.38,0-2.19,1.3-2.19,3.92s.79,3.93,2.27,3.93c1.36,0,2.16-1.28,2.16-3.88Z"/>
        <path d="M77.37,52.23c0-3.55,1.63-5.67,4.18-5.67s3.97,1.89,3.97,5.37-1.58,5.64-4.15,5.64-4-1.91-4-5.34ZM83.65,52.11c0-2.83-.72-3.96-2.23-3.96-1.38,0-2.19,1.3-2.19,3.92s.79,3.93,2.27,3.93c1.36,0,2.16-1.28,2.16-3.88Z"/>
        <path d="M86.52,52.23c0-3.55,1.63-5.67,4.18-5.67s3.97,1.89,3.97,5.37-1.58,5.64-4.15,5.64-4-1.91-4-5.34ZM92.8,52.11c0-2.83-.72-3.96-2.23-3.96-1.38,0-2.19,1.3-2.19,3.92s.79,3.93,2.27,3.93c1.36,0,2.16-1.28,2.16-3.88Z"/>
        <path d="M100.51,46.21h11.25v10.44c0,1.11-.4,1.48-1.56,1.48-.67,0-1.54-.04-2.4-.12l-.3-1.53c.74.1,1.61.18,2.17.18.47,0,.59-.13.59-.54v-3.38h-8.25v5.52h-1.5v-12.06ZM105.36,51.45v-3.92h-3.34v3.92h3.34ZM110.26,51.45v-3.92h-3.44v3.92h3.44Z"/>
        <path d="M120.3,52.09c-.54,0-1,.42-1.2,1.86h-1.42c.22-2.42,1.42-3.34,2.62-3.34,1.89,0,2.1,1.98,3.13,1.98.51,0,1.06-.31,1.21-1.86h1.44c-.22,2.22-1.26,3.34-2.61,3.34-1.88,0-2.12-1.98-3.18-1.98Z"/>
      </g>
      <g>
        <path d="M173.27,44.34c4.44-.02,8.28-.04,12.24-.11l.03,1.53c-3.74,0-7.42.03-12.24.1l-.03-1.53ZM174.81,38.04c3.24.01,4.9,0,8.88-.09l.04,1.5c-4.12.06-5.82.07-8.89.09l-.03-1.5Z"/>
        <path d="M189.32,40.85l1.18-.6c.54.88.99,1.83,1.35,2.76l-1.21.63c-.36-.96-.75-1.8-1.32-2.79ZM191.31,47.18c3.34-1.54,4.83-4,5.35-7.53l1.42.46c-1,4.4-2.43,6.33-5.56,8.08l-1.21-1.02ZM192.3,40.04l1.21-.56c.53.96.81,1.7,1.2,2.88l-1.26.57c-.38-1.21-.66-1.91-1.16-2.89Z"/>
        <path d="M204.81,40.82c-1.1.02-2.08.02-2.97.02l-.02-1.47c.86.01,1.86.01,2.99,0,0-1.1,0-2.21-.02-3.32h1.52c-.02,1.11-.02,2.21-.02,3.32,1.16-.02,2.42-.02,3.75-.05-.01-1.17-.03-2.37-.06-3.49h1.51c-.01,1.14-.01,2.31-.01,3.48,1.03-.01,2.1-.04,3.19-.06v1.48s-3.19.04-3.19.04v.18c0,4.17-1.29,5.89-4.02,7.24l-1.36-.9c2.83-1.38,3.94-2.62,3.94-6.51-1.37.01-2.61.01-3.75.03,0,1.08,0,2.16.02,3.24h-1.52c.02-1.08.02-2.16.02-3.24Z"/>
        <path d="M217.71,38.46l.9-1.29c1.3.67,2.17,1.21,3.51,2.28l-.96,1.32c-1.18-1.02-2.29-1.75-3.45-2.31ZM218.31,45.9c3.96-.99,7.03-3.29,9.07-7.54l1.16,1.47c-2.28,4.12-5.04,6.43-9.41,7.62l-.82-1.54Z"/>
        <path d="M235.98,38.91c0-.66.49-1.21,1.21-1.21s1.21.55,1.21,1.21-.5,1.21-1.21,1.21-1.21-.55-1.21-1.21ZM235.98,44.75c0-.66.49-1.23,1.21-1.23s1.21.57,1.21,1.23-.5,1.2-1.21,1.2-1.21-.54-1.21-1.2Z"/>
        <path d="M247.58,42.53c-.69.08-1.72.15-2.26.18l-.32-1.33,1.37-.04c.33-.38.54-.65.81-.99-.58-.83-1.25-1.61-1.95-2.28l.84-1,.52.57c.53-.71,1.02-1.53,1.49-2.46l1.21.63c-.54.92-1.18,1.75-1.95,2.66l.65.85c.57-.76,1.14-1.6,1.68-2.47l1.21.72c-.93,1.3-1.86,2.43-3.08,3.74.51-.02,1.4-.09,1.88-.14-.15-.45-.25-.69-.48-1.14l1.08-.41c.46.86.9,1.88,1.2,2.88l-1.17.62c-.09-.36-.15-.57-.24-.88-.41.08-.89.15-1.16.17v6.06h-1.33v-5.91ZM245.09,46.88c.38-.99.62-2.18.72-3.53l1.24.18c-.12,1.65-.34,2.91-.69,3.95l-1.28-.6ZM249.3,43.59l1.12-.39c.44.9.75,1.84,1,2.95l-1.32.58c-.18-1.15-.46-2.26-.81-3.15ZM253.52,48.17l-.25-1.53c.58.1,1.23.18,1.79.18.64,0,.83-.15.96-.76.25-1.19.39-3.27.48-7.02h-3.39c-.36.88-.73,1.62-1.23,2.34l-1-1.04c.84-1.41,1.46-3.13,1.75-4.93l1.44.31c-.15.72-.31,1.32-.52,1.95h4.38c-.05,4.84-.23,7.83-.57,9.3-.23.97-.71,1.29-1.96,1.29-.6,0-1.3-.04-1.86-.09ZM252.3,41.45l1.14-.66c.65.79,1.23,1.81,1.73,3.01l-1.28.73c-.39-1.14-.94-2.22-1.59-3.09Z"/>
        <path d="M263.31,47.06l.12-1.61c.88.33,1.83.58,2.73.58,1.68,0,2.29-.76,2.29-1.74,0-1.12-.79-1.7-2.61-1.7-.38,0-.78,0-1.18.03v-1.42c.83-.02,1.29-.03,1.71-.14,1.2-.33,1.72-.82,1.72-1.69,0-.83-.66-1.37-1.89-1.37-.81,0-1.74.34-2.54.93l-.09-1.57c.87-.56,2.04-.83,3.08-.83,2.05,0,3.28.97,3.28,2.54,0,1.18-.72,2.11-1.95,2.53,1.46.24,2.31,1.22,2.31,2.58,0,1.84-1.46,3.36-4.23,3.36-.92,0-1.96-.18-2.76-.5Z"/>
        <path d="M271.47,42.21c0-3.55,1.63-5.67,4.18-5.67s3.97,1.89,3.97,5.37-1.58,5.64-4.15,5.64-4-1.91-4-5.34ZM277.76,42.09c0-2.83-.72-3.96-2.23-3.96-1.38,0-2.19,1.3-2.19,3.92s.79,3.93,2.27,3.93c1.36,0,2.16-1.28,2.16-3.88Z"/>
        <path d="M281.7,46.11c2.67-.18,4.36-1.36,4.74-3.79-.75.93-1.81,1.2-2.73,1.2-1.92,0-3.17-1.25-3.17-3.24,0-2.17,1.54-3.73,3.73-3.73,2.54,0,4.02,1.62,4.02,4.56,0,3.86-2.28,6.09-5.94,6.5l-.66-1.49ZM284.34,42.11c.81,0,1.79-.5,2.16-1.41-.08-1.72-.81-2.73-2.29-2.73-1.1,0-1.88.88-1.88,2.12,0,1.36.73,2.02,2.01,2.02Z"/>
        <path d="M294.32,36.2h11.25v10.44c0,1.11-.4,1.48-1.56,1.48-.67,0-1.54-.04-2.4-.12l-.3-1.53c.74.1,1.61.18,2.17.18.47,0,.59-.13.59-.54v-3.38h-8.25v5.52h-1.5v-12.06ZM299.16,41.43v-3.92h-3.34v3.92h3.34ZM304.07,41.43v-3.92h-3.44v3.92h3.44Z"/>
        <path d="M174.56,64.72c-.46,1.6-.92,2.71-1.47,3.72l-.66-1.51c.87-1.35,1.5-2.9,1.96-4.79h-1.7v-1.32h1.86v-2.94h1.29v2.94h1.45v1.32h-1.45v1.38c.58.54,1,1,1.44,1.54l-.66,1.38c-.3-.54-.46-.79-.78-1.26v5.92h-1.29v-6.39ZM176.85,69.4h9.06v1.29h-9.06v-1.29ZM179.37,68.91l-.2-1.2c.44.12.92.17,1.29.17.35,0,.42-.08.42-.43v-5.43h-1.44c.15-.58.45-1.74.55-2.21h-2.91v-1.21h8.45v1.21h-4.23l-.25,1.12h1.07v6.97c0,.87-.29,1.12-1.23,1.12-.42,0-.99-.04-1.51-.12ZM177.33,62.44h2.99v4.65h-1.85v.81h-1.14v-5.46ZM179.24,65.95v-2.38h-.77v2.38h.77ZM182.19,67.77c.52-.54.96-1.21,1.29-2.1-.45-.58-.71-.88-1.22-1.45l.65-.9c.39.39.52.54,1,1.08.13-.42.22-.93.29-1.51h-1.83v-1.2h2.55l.55.57c-.18,1.32-.39,2.29-.67,3.22.57.73.84,1.14,1.02,1.42l-.72,1.32c-.31-.6-.5-.89-.84-1.4-.36.78-.81,1.44-1.32,2l-.75-1.05Z"/>
        <path d="M193.04,67.51c-1.35,1.54-3,2.67-5,3.43l-.87-1.26c1.94-.56,3.54-1.46,5-2.8h-4.74v-1.25h5.61v-.96h-1.91v-5.43h1.62c.12-.45.27-1.11.32-1.4l1.53.2c-.12.38-.24.69-.48,1.2h2.33v5.43h-1.94v.96h5.71v1.25h-4.72c1.33,1.08,2.92,1.86,5.07,2.49l-.9,1.35c-2.05-.81-3.76-1.91-5.16-3.29v3.67h-1.47v-3.6ZM187.17,64.05c1.12-.56,2.31-1.31,3.29-2.12l.58,1.26c-.78.65-2.02,1.5-3.06,2.1l-.81-1.24ZM187.61,59.61l1.04-.99c.82.55,1.67,1.33,2.28,2.08l-1.06,1.08c-.57-.73-1.44-1.56-2.25-2.17ZM195.15,61.42v-1.11h-2.75v1.11h2.75ZM195.15,63.61v-1.15h-2.75v1.15h2.75ZM196.58,62.77l.92-1c1.06.58,2.13,1.3,3.07,2.05l-1.08,1.14c-.9-.83-1.92-1.59-2.91-2.19ZM196.59,60.76c.75-.63,1.54-1.47,2.16-2.25l1.26.95c-.6.69-1.54,1.57-2.37,2.22l-1.05-.92Z"/>
        <path d="M201.69,62.67l.95-1.08c.7.48,1.45,1.14,2.22,1.95l-.99,1.16c-.6-.72-1.44-1.5-2.17-2.02ZM201.8,69.94c.71-1.11,1.33-2.58,1.94-4.49l1.17.75c-.63,2.12-1.2,3.57-1.91,4.86l-1.2-1.12ZM202.22,59.31l.96-1.08c.9.63,1.64,1.28,2.16,1.91l-.99,1.18c-.62-.73-1.38-1.46-2.13-2.01ZM207.63,70.39c1.44-.86,2.49-2.12,3.12-3.74h-.93c-.77,1.56-1.96,2.87-3.46,3.75l-.96-.96c1.33-.66,2.34-1.58,3.06-2.79h-.99c-.58.75-1.2,1.33-1.92,1.8l-.88-.99c1.14-.72,1.93-1.56,2.5-2.67h-2.13v-1.12h9.79v1.12h-6.29c-.17.36-.3.6-.43.79h6.15c-.08,2.04-.25,3.76-.45,4.45-.22.77-.67,1.05-1.65,1.05-.53,0-1.09-.03-1.5-.09l-.21-1.32c-.54.64-1.11,1.17-1.79,1.63l-1.04-.93ZM206.42,58.33h6.85v4.68h-6.85v-4.68ZM211.91,60.18v-.84h-4.11v.84h4.11ZM211.91,62.04v-.88h-4.11v.88h4.11ZM212.54,69.31c.09-.27.25-1.52.34-2.66h-.79c-.42,1.21-.9,2.13-1.6,2.99.4.12.85.18,1.29.18.51,0,.65-.11.77-.51Z"/>
        <path d="M220.29,59.35h1.82v4.54h5.14v-4.54h1.82v10.77h-1.82v-4.71h-5.14v4.71h-1.82v-10.77Z"/>
        <path d="M231.15,59.35h3.86c3.19,0,4.98,1.88,4.98,5.22s-1.96,5.55-5.14,5.55h-3.69v-10.77ZM232.97,60.84v7.83h1.69c2.25,0,3.44-1.38,3.44-3.99s-1.14-3.84-3.39-3.84h-1.74Z"/>
        <path d="M246.44,61.59c0-.66.49-1.21,1.21-1.21s1.21.55,1.21,1.21-.5,1.21-1.21,1.21-1.21-.55-1.21-1.21ZM246.44,67.42c0-.66.49-1.23,1.21-1.23s1.21.57,1.21,1.23-.5,1.2-1.21,1.2-1.21-.54-1.21-1.2Z"/>
        <path d="M258.03,65.2c-.69.08-1.72.15-2.26.18l-.32-1.33,1.37-.04c.33-.38.54-.65.81-.99-.58-.83-1.25-1.61-1.95-2.28l.84-1,.52.57c.53-.71,1.02-1.53,1.49-2.46l1.21.63c-.54.92-1.18,1.75-1.95,2.66l.65.85c.57-.76,1.14-1.6,1.68-2.47l1.21.72c-.93,1.3-1.86,2.43-3.08,3.73.51-.01,1.4-.09,1.88-.13-.15-.45-.25-.69-.48-1.14l1.08-.41c.46.86.9,1.88,1.2,2.88l-1.17.62c-.09-.36-.15-.57-.24-.88-.41.08-.89.15-1.16.17v6.06h-1.33v-5.91ZM255.54,69.55c.38-.99.62-2.18.72-3.53l1.24.18c-.12,1.65-.34,2.91-.69,3.95l-1.28-.6ZM259.76,66.27l1.12-.39c.44.9.75,1.85,1,2.96l-1.32.58c-.18-1.15-.46-2.26-.81-3.15ZM263.97,70.84l-.25-1.53c.58.1,1.23.18,1.79.18.64,0,.83-.15.96-.76.25-1.19.39-3.27.48-7.02h-3.39c-.36.88-.73,1.62-1.23,2.34l-1-1.04c.84-1.41,1.46-3.13,1.75-4.93l1.44.31c-.15.72-.31,1.32-.52,1.95h4.38c-.05,4.84-.23,7.83-.57,9.3-.23.97-.71,1.29-1.96,1.29-.6,0-1.3-.04-1.86-.09ZM262.76,64.12l1.14-.66c.65.79,1.23,1.81,1.73,3.01l-1.28.73c-.39-1.14-.94-2.22-1.59-3.09Z"/>
        <path d="M278.4,67.65h-5.15v-1.16l5.03-7.24h1.88v6.96h1.72v1.44h-1.71v2.47h-1.77v-2.47ZM278.43,66.21l.04-4.87-3.31,4.87h3.27Z"/>
        <path d="M282.56,67.21c0-1.08.72-2.17,2.25-2.74-1.11-.51-1.77-1.31-1.77-2.45,0-1.51,1.23-2.8,3.58-2.8,2.19,0,3.48,1.12,3.48,2.75,0,1.08-.69,1.98-1.96,2.47,1.56.62,2.29,1.44,2.29,2.71,0,1.67-1.38,3.08-4,3.08-2.45,0-3.87-1.31-3.87-3.02ZM286.68,68.79c1.32,0,1.93-.87,1.93-1.62,0-.9-.54-1.41-2.29-1.98-1.33.27-1.96,1.04-1.96,1.88,0,1.16,1.04,1.72,2.33,1.72ZM286.7,63.88c1.12-.39,1.68-.98,1.68-1.79,0-.88-.72-1.49-1.82-1.49s-1.77.58-1.77,1.37c0,.86.57,1.39,1.9,1.91Z"/>
        <path d="M296.18,67.65h-5.15v-1.16l5.03-7.24h1.88v6.96h1.72v1.44h-1.71v2.47h-1.77v-2.47ZM296.21,66.21l.04-4.87-3.31,4.87h3.27Z"/>
        <path d="M305.24,58.87h11.25v10.44c0,1.11-.4,1.48-1.56,1.48-.67,0-1.54-.04-2.4-.12l-.3-1.53c.74.1,1.61.18,2.18.18.46,0,.58-.13.58-.54v-3.38h-8.25v5.52h-1.5v-12.06ZM310.08,64.11v-3.92h-3.34v3.92h3.34ZM314.99,64.11v-3.92h-3.44v3.92h3.44Z"/>
      </g>
      <rect class="cls-3" x="29.55" y="93.43" width="119.19" height="68.4"/>
      <rect class="cls-3" x="154.05" y="93.43" width="178.75" height="68.4"/>
      <g>
        <path d="M173.27,118.7c4.44-.02,8.28-.04,12.24-.11l.03,1.53c-3.74,0-7.42.03-12.24.1l-.03-1.53ZM174.81,112.4c3.24.01,4.9,0,8.88-.09l.04,1.5c-4.12.06-5.82.07-8.89.09l-.03-1.5Z"/>
        <path d="M189.32,115.21l1.18-.6c.54.88.99,1.83,1.35,2.76l-1.21.63c-.36-.96-.75-1.8-1.32-2.79ZM191.31,121.54c3.34-1.54,4.83-4,5.35-7.53l1.42.46c-1,4.4-2.43,6.33-5.56,8.08l-1.21-1.02ZM192.3,114.4l1.21-.56c.53.96.81,1.7,1.2,2.88l-1.26.57c-.38-1.21-.66-1.91-1.16-2.89Z"/>
        <path d="M204.81,115.18c-1.1.02-2.08.02-2.97.02l-.02-1.47c.86.01,1.86.01,2.99,0,0-1.1,0-2.21-.02-3.32h1.52c-.02,1.11-.02,2.21-.02,3.32,1.16-.02,2.42-.02,3.75-.05-.01-1.17-.03-2.37-.06-3.49h1.51c-.01,1.14-.01,2.31-.01,3.48,1.03-.01,2.1-.04,3.19-.06v1.48s-3.19.04-3.19.04v.18c0,4.17-1.29,5.89-4.02,7.24l-1.36-.9c2.83-1.38,3.94-2.62,3.94-6.51-1.37.01-2.61.01-3.75.03,0,1.08,0,2.16.02,3.24h-1.52c.02-1.08.02-2.16.02-3.24Z"/>
        <path d="M217.71,112.82l.9-1.29c1.3.67,2.17,1.21,3.51,2.28l-.96,1.32c-1.18-1.02-2.29-1.75-3.45-2.31ZM218.31,120.26c3.96-.99,7.03-3.29,9.07-7.54l1.16,1.47c-2.28,4.12-5.04,6.43-9.41,7.62l-.82-1.54Z"/>
        <path d="M235.98,113.27c0-.66.49-1.21,1.21-1.21s1.21.55,1.21,1.21-.5,1.21-1.21,1.21-1.21-.55-1.21-1.21ZM235.98,119.11c0-.66.49-1.23,1.21-1.23s1.21.57,1.21,1.23-.5,1.2-1.21,1.2-1.21-.54-1.21-1.2Z"/>
        <path d="M247.58,116.89c-.69.08-1.72.15-2.26.18l-.32-1.33,1.37-.04c.33-.38.54-.65.81-.99-.58-.83-1.25-1.61-1.95-2.28l.84-1,.52.57c.53-.71,1.02-1.53,1.49-2.46l1.21.63c-.54.92-1.18,1.75-1.95,2.66l.65.85c.57-.76,1.14-1.6,1.68-2.47l1.21.72c-.93,1.3-1.86,2.43-3.08,3.74.51-.02,1.4-.09,1.88-.14-.15-.45-.25-.69-.48-1.14l1.08-.41c.46.86.9,1.88,1.2,2.88l-1.17.62c-.09-.36-.15-.57-.24-.88-.41.08-.89.15-1.16.17v6.06h-1.33v-5.91ZM245.09,121.24c.38-.99.62-2.18.72-3.53l1.24.18c-.12,1.65-.34,2.91-.69,3.95l-1.28-.6ZM249.3,117.95l1.12-.39c.44.9.75,1.84,1,2.95l-1.32.58c-.18-1.15-.46-2.26-.81-3.15ZM253.52,122.53l-.25-1.53c.58.1,1.23.18,1.79.18.64,0,.83-.15.96-.76.25-1.19.39-3.27.48-7.02h-3.39c-.36.88-.73,1.62-1.23,2.34l-1-1.04c.84-1.41,1.46-3.13,1.75-4.93l1.44.31c-.15.72-.31,1.32-.52,1.95h4.38c-.05,4.84-.23,7.83-.57,9.3-.23.97-.71,1.29-1.96,1.29-.6,0-1.3-.04-1.86-.09ZM252.3,115.81l1.14-.66c.65.79,1.23,1.81,1.73,3.01l-1.28.73c-.39-1.14-.94-2.22-1.59-3.09Z"/>
        <path d="M263.31,121.42l.12-1.61c.88.33,1.83.58,2.73.58,1.68,0,2.29-.76,2.29-1.74,0-1.12-.79-1.7-2.61-1.7-.38,0-.78,0-1.18.03v-1.42c.83-.02,1.29-.03,1.71-.14,1.2-.33,1.72-.82,1.72-1.69,0-.83-.66-1.37-1.89-1.37-.81,0-1.74.34-2.54.93l-.09-1.57c.87-.56,2.04-.83,3.08-.83,2.05,0,3.28.97,3.28,2.54,0,1.18-.72,2.11-1.95,2.53,1.46.24,2.31,1.22,2.31,2.58,0,1.84-1.46,3.36-4.23,3.36-.92,0-1.96-.18-2.76-.5Z"/>
        <path d="M271.47,116.57c0-3.55,1.63-5.67,4.18-5.67s3.97,1.89,3.97,5.37-1.58,5.64-4.15,5.64-4-1.91-4-5.34ZM277.76,116.45c0-2.83-.72-3.96-2.23-3.96-1.38,0-2.19,1.3-2.19,3.92s.79,3.93,2.27,3.93c1.36,0,2.16-1.28,2.16-3.88Z"/>
        <path d="M281.7,120.47c2.67-.18,4.36-1.36,4.74-3.79-.75.93-1.81,1.2-2.73,1.2-1.92,0-3.17-1.25-3.17-3.24,0-2.17,1.54-3.73,3.73-3.73,2.54,0,4.02,1.62,4.02,4.56,0,3.86-2.28,6.09-5.94,6.5l-.66-1.49ZM284.34,116.47c.81,0,1.79-.5,2.16-1.41-.08-1.72-.81-2.73-2.29-2.73-1.1,0-1.88.88-1.88,2.12,0,1.36.73,2.02,2.01,2.02Z"/>
        <path d="M294.32,110.56h11.25v10.44c0,1.11-.4,1.48-1.56,1.48-.67,0-1.54-.04-2.4-.12l-.3-1.53c.74.1,1.61.18,2.17.18.47,0,.59-.13.59-.54v-3.38h-8.25v5.52h-1.5v-12.06ZM299.16,115.79v-3.92h-3.34v3.92h3.34ZM304.07,115.79v-3.92h-3.44v3.92h3.44Z"/>
        <path d="M174.56,139.08c-.46,1.6-.92,2.71-1.47,3.72l-.66-1.51c.87-1.35,1.5-2.9,1.96-4.79h-1.7v-1.32h1.86v-2.94h1.29v2.94h1.45v1.32h-1.45v1.38c.58.54,1,1,1.44,1.54l-.66,1.38c-.3-.54-.46-.79-.78-1.26v5.92h-1.29v-6.39ZM176.85,143.76h9.06v1.29h-9.06v-1.29ZM179.37,143.27l-.2-1.2c.44.12.92.17,1.29.17.35,0,.42-.08.42-.43v-5.43h-1.44c.15-.58.45-1.74.55-2.21h-2.91v-1.21h8.45v1.21h-4.23l-.25,1.12h1.07v6.97c0,.87-.29,1.12-1.23,1.12-.42,0-.99-.04-1.51-.12ZM177.33,136.8h2.99v4.65h-1.85v.81h-1.14v-5.46ZM179.24,140.31v-2.38h-.77v2.38h.77ZM182.19,142.13c.52-.54.96-1.21,1.29-2.1-.45-.58-.71-.88-1.22-1.45l.65-.9c.39.39.52.54,1,1.08.13-.42.22-.93.29-1.51h-1.83v-1.2h2.55l.55.57c-.18,1.32-.39,2.29-.67,3.22.57.73.84,1.14,1.02,1.42l-.72,1.32c-.31-.6-.5-.89-.84-1.4-.36.78-.81,1.44-1.32,2l-.75-1.05Z"/>
        <path d="M193.04,141.87c-1.35,1.54-3,2.67-5,3.43l-.87-1.26c1.94-.56,3.54-1.46,5-2.8h-4.74v-1.25h5.61v-.96h-1.91v-5.43h1.62c.12-.45.27-1.11.32-1.4l1.53.2c-.12.38-.24.69-.48,1.2h2.33v5.43h-1.94v.96h5.71v1.25h-4.72c1.33,1.08,2.92,1.86,5.07,2.49l-.9,1.35c-2.05-.81-3.76-1.91-5.16-3.29v3.67h-1.47v-3.6ZM187.17,138.41c1.12-.56,2.31-1.31,3.29-2.12l.58,1.26c-.78.65-2.02,1.5-3.06,2.1l-.81-1.24ZM187.61,133.97l1.04-.99c.82.55,1.67,1.33,2.28,2.08l-1.06,1.08c-.57-.73-1.44-1.56-2.25-2.17ZM195.15,135.78v-1.11h-2.75v1.11h2.75ZM195.15,137.97v-1.15h-2.75v1.15h2.75ZM196.58,137.13l.92-1c1.06.58,2.13,1.3,3.07,2.05l-1.08,1.14c-.9-.83-1.92-1.59-2.91-2.19ZM196.59,135.12c.75-.63,1.54-1.47,2.16-2.25l1.26.95c-.6.69-1.54,1.57-2.37,2.22l-1.05-.92Z"/>
        <path d="M201.69,137.03l.95-1.08c.7.48,1.45,1.14,2.22,1.95l-.99,1.16c-.6-.72-1.44-1.5-2.17-2.02ZM201.8,144.3c.71-1.11,1.33-2.58,1.94-4.49l1.17.75c-.63,2.12-1.2,3.57-1.91,4.86l-1.2-1.12ZM202.22,133.67l.96-1.08c.9.63,1.64,1.28,2.16,1.91l-.99,1.18c-.62-.73-1.38-1.46-2.13-2.01ZM207.63,144.75c1.44-.86,2.49-2.12,3.12-3.74h-.93c-.77,1.56-1.96,2.87-3.46,3.75l-.96-.96c1.33-.66,2.34-1.58,3.06-2.79h-.99c-.58.75-1.2,1.33-1.92,1.8l-.88-.99c1.14-.72,1.93-1.56,2.5-2.67h-2.13v-1.12h9.79v1.12h-6.29c-.17.36-.3.6-.43.79h6.15c-.08,2.04-.25,3.76-.45,4.45-.22.77-.67,1.05-1.65,1.05-.53,0-1.09-.03-1.5-.09l-.21-1.32c-.54.64-1.11,1.17-1.79,1.63l-1.04-.93ZM206.42,132.69h6.85v4.68h-6.85v-4.68ZM211.91,134.54v-.84h-4.11v.84h4.11ZM211.91,136.4v-.88h-4.11v.88h4.11ZM212.54,143.67c.09-.27.25-1.52.34-2.66h-.79c-.42,1.21-.9,2.13-1.6,2.99.4.12.85.18,1.29.18.51,0,.65-.11.77-.51Z"/>
        <path d="M220.29,133.71h1.82v4.54h5.14v-4.54h1.82v10.77h-1.82v-4.71h-5.14v4.71h-1.82v-10.77Z"/>
        <path d="M231.15,133.71h3.86c3.19,0,4.98,1.88,4.98,5.22s-1.96,5.55-5.14,5.55h-3.69v-10.77ZM232.97,135.2v7.83h1.69c2.25,0,3.44-1.38,3.44-3.99s-1.14-3.84-3.39-3.84h-1.74Z"/>
        <path d="M246.44,135.95c0-.66.49-1.21,1.21-1.21s1.21.55,1.21,1.21-.5,1.21-1.21,1.21-1.21-.55-1.21-1.21ZM246.44,141.78c0-.66.49-1.23,1.21-1.23s1.21.57,1.21,1.23-.5,1.2-1.21,1.2-1.21-.54-1.21-1.2Z"/>
        <path d="M258.03,139.56c-.69.08-1.72.15-2.26.18l-.32-1.33,1.37-.04c.33-.38.54-.65.81-.99-.58-.83-1.25-1.61-1.95-2.28l.84-1,.52.57c.53-.71,1.02-1.53,1.49-2.46l1.21.63c-.54.92-1.18,1.75-1.95,2.66l.65.85c.57-.76,1.14-1.6,1.68-2.47l1.21.72c-.93,1.3-1.86,2.43-3.08,3.73.51-.01,1.4-.09,1.88-.13-.15-.45-.25-.69-.48-1.14l1.08-.41c.46.86.9,1.88,1.2,2.88l-1.17.62c-.09-.36-.15-.57-.24-.88-.41.08-.89.15-1.16.17v6.06h-1.33v-5.91ZM255.54,143.91c.38-.99.62-2.18.72-3.53l1.24.18c-.12,1.65-.34,2.91-.69,3.95l-1.28-.6ZM259.76,140.63l1.12-.39c.44.9.75,1.85,1,2.96l-1.32.58c-.18-1.15-.46-2.26-.81-3.15ZM263.97,145.2l-.25-1.53c.58.1,1.23.18,1.79.18.64,0,.83-.15.96-.76.25-1.19.39-3.27.48-7.02h-3.39c-.36.88-.73,1.62-1.23,2.34l-1-1.04c.84-1.41,1.46-3.13,1.75-4.93l1.44.31c-.15.72-.31,1.32-.52,1.95h4.38c-.05,4.84-.23,7.83-.57,9.3-.23.97-.71,1.29-1.96,1.29-.6,0-1.3-.04-1.86-.09ZM262.76,138.48l1.14-.66c.65.79,1.23,1.81,1.73,3.01l-1.28.73c-.39-1.14-.94-2.22-1.59-3.09Z"/>
        <path d="M278.4,142.01h-5.15v-1.16l5.03-7.24h1.88v6.96h1.72v1.44h-1.71v2.47h-1.77v-2.47ZM278.43,140.57l.04-4.87-3.31,4.87h3.27Z"/>
        <path d="M282.56,141.57c0-1.08.72-2.17,2.25-2.74-1.11-.51-1.77-1.31-1.77-2.45,0-1.51,1.23-2.8,3.58-2.8,2.19,0,3.48,1.12,3.48,2.75,0,1.08-.69,1.98-1.96,2.47,1.56.62,2.29,1.44,2.29,2.71,0,1.67-1.38,3.08-4,3.08-2.45,0-3.87-1.31-3.87-3.02ZM286.68,143.15c1.32,0,1.93-.87,1.93-1.62,0-.9-.54-1.41-2.29-1.98-1.33.27-1.96,1.04-1.96,1.88,0,1.16,1.04,1.72,2.33,1.72ZM286.7,138.24c1.12-.39,1.68-.98,1.68-1.79,0-.88-.72-1.49-1.82-1.49s-1.77.58-1.77,1.37c0,.86.57,1.39,1.9,1.91Z"/>
        <path d="M296.18,142.01h-5.15v-1.16l5.03-7.24h1.88v6.96h1.72v1.44h-1.71v2.47h-1.77v-2.47ZM296.21,140.57l.04-4.87-3.31,4.87h3.27Z"/>
        <path d="M305.24,133.23h11.25v10.44c0,1.11-.4,1.48-1.56,1.48-.67,0-1.54-.04-2.4-.12l-.3-1.53c.74.1,1.61.18,2.18.18.46,0,.58-.13.58-.54v-3.38h-8.25v5.52h-1.5v-12.06ZM310.08,138.47v-3.92h-3.34v3.92h3.34ZM314.99,138.47v-3.92h-3.44v3.92h3.44Z"/>
      </g>
      <rect class="cls-3" x="29.55" y="167.8" width="119.19" height="68.4"/>
      <rect class="cls-3" x="154.05" y="167.8" width="178.75" height="68.4"/>
      <g>
        <path d="M178.56,192.91c2.73,0,5.01-.04,6.09-.13.17-.01.27-.01.33-.01.09,0,.14.01.18.03.1.06.13.32.13,1.14,0,.76-.03.84-.29.84t-.25-.02c-.79-.07-1.71-.09-3.64-.09-4.14,0-6.11.04-7.02.18-.15.03-.21.03-.27.03-.34,0-.41-.27-.52-2.07,1.21.07,2.68.1,5.26.1ZM179.03,186.46c2.01,0,3.17-.04,4.02-.15.09-.01.11-.01.17-.01.17,0,.22.04.25.25.02.12.03.64.03,1.06,0,.51-.04.63-.24.63-.06,0-.13,0-.25-.01-.3-.01-2.49-.03-4.23-.03-1.16,0-1.94.02-2.76.08-.2.02-.44.03-.47.03-.18,0-.28-.08-.34-.22-.08-.21-.15-1.1-.15-1.8.91.14,1.87.18,3.97.18Z"/>
        <path d="M191.15,191.61c-.24-.55-.73-1.5-.93-1.79-.3-.43-.34-.51-.34-.6,0-.12.17-.27.57-.5.46-.27.53-.3.62-.29.13.01.33.24.69.81.49.75.94,1.6.94,1.78,0,.11-.1.21-.4.39-.35.21-.83.43-.92.43s-.15-.06-.23-.25ZM199.31,189.06c0,.06-.03.12-.09.2-.15.19-.24.34-.44.76-1.08,2.4-1.79,3.51-2.98,4.72-.89.88-2.28,1.92-2.6,1.92-.09,0-.17-.03-.25-.12-.27-.29-.69-.6-1.17-.87,2.27-1.2,3.53-2.42,4.58-4.36.58-1.11.97-2.28,1.04-3.15,1.25.35,1.92.67,1.92.9ZM195.45,190.38c0,.09-.69.51-1.11.68-.09.03-.15.04-.15.06-.04.01-.08.03-.09.03-.08,0-.15-.08-.2-.23-.21-.63-.63-1.5-1.09-2.26t-.04-.15c0-.11.12-.2.57-.44.55-.3.58-.31.67-.31.08,0,.1.03.21.13.21.29.85,1.42.97,1.75.09.25.15.43.2.5.04.04.06.09.06.1v.09s0,.04,0,.04Z"/>
        <path d="M206.27,187.68c0-1.67-.06-2.54-.18-3.01q.27.01.86.04c.18,0,.99.13,1.09.17.1.04.15.1.15.19q0,.08-.09.39c-.07.21-.09.52-.12,2.22.38,0,1.49,0,3.35-.02,0-1.71-.05-2.38-.17-3.1.81.04,1.26.09,1.69.17.32.04.41.11.41.24,0,.1-.01.15-.11.39-.04.11-.09.57-.1,1.05v1.25c1.51-.03,2.08-.04,2.54-.09.06-.01.1-.01.15-.01.08,0,.13.03.17.07.04.09.08.45.08.93,0,.71-.03.78-.25.78t-.36-.03c-.51-.04-.63-.04-2.34-.04-.09,2.25-.39,3.45-1.14,4.65-.65,1.04-1.49,1.8-2.64,2.45-.41.22-.95.43-1.1.43-.13,0-.15-.01-.46-.34-.33-.36-.54-.51-1-.79,2.16-.78,3.29-1.67,3.97-3.12.42-.9.6-1.79.66-3.29h-.97c-.13,0-.55,0-1.17.02-.27.01-.67.01-1.21.03q0,1.07.03,2.42v.2c0,.21-.04.29-.21.34-.18.04-.64.09-1,.09-.52,0-.6-.04-.6-.31v-.23c.06-1.36.08-1.6.09-2.47-.78.01-2.16.1-2.52.17-.03.01-.06.01-.09.01-.12,0-.2-.06-.23-.19-.08-.26-.15-.98-.18-1.73.76.09,1.2.11,2.44.11h.58Z"/>
        <path d="M230.54,188.44c.08.15.1.25.1.34,0,.15-.06.25-.25.53-.82,1.08-1.71,1.95-3.04,2.98-1.5,1.17-2.77,1.95-4.57,2.81-1.16.54-1.21.57-1.4.73-.12.12-.18.15-.27.15-.13,0-.25-.12-.48-.45-.3-.45-.58-1.06-.75-1.59,1.52-.34,3.33-1.16,5.08-2.26,2.31-1.46,3.76-2.9,4.89-4.86.17.56.3.86.69,1.62ZM220.55,185.92c.25-.29.36-.36.49-.36.29.01,1.41.74,2.34,1.49.57.46.75.66.75.81,0,.11-.27.51-.63.92-.33.38-.49.51-.61.51q-.11,0-.72-.58c-.39-.38-1.17-1-1.56-1.25q-.53-.34-.63-.4c-.06-.04-.09-.09-.09-.14,0-.13.29-.55.66-.99Z"/>
        <path d="M241.14,187.42c0,.66-.53,1.18-1.18,1.18s-1.19-.52-1.19-1.18.53-1.19,1.19-1.19,1.18.53,1.18,1.19ZM241.14,193.65c0,.66-.53,1.18-1.18,1.18s-1.19-.52-1.19-1.18.53-1.19,1.19-1.19,1.18.53,1.18,1.19Z"/>
        <path d="M250.52,192.18c-.12,1.81-.32,3-.72,4.27l-1.27-.6c.41-1.23.58-2.24.69-3.87l1.31.2ZM248.6,190c.21.03.33.04.61.04.11,0,.24,0,.57-.02.46-.55.55-.67.84-1.05-.75-.96-.93-1.16-1.96-2.13l.83-1.2c.2.25.27.33.42.5.54-.81,1.05-1.8,1.18-2.33l1.38.56c-.09.13-.15.24-.3.52-.33.65-.99,1.74-1.35,2.22.29.3.34.38.62.72.97-1.42,1.36-2.07,1.54-2.54l1.33.76c-.14.17-.24.3-.48.66-.83,1.21-1.77,2.49-2.43,3.24q.85-.04,1.65-.12c-.13-.38-.21-.53-.42-.99l1.08-.43c.36.73.75,1.69,1.14,2.82l-1.22.5c-.07-.33-.1-.45-.16-.67-.29.03-.62.06-1.02.11v4.54c0,.69.03,1.1.09,1.53h-1.59c.08-.43.09-.81.09-1.54v-4.41c-1.71.14-2.07.17-2.28.2l-.17-1.48ZM254.16,191.89c.32,1.26.54,2.46.71,3.67l-1.32.31c-.09-1.11-.31-2.56-.54-3.69l1.16-.3ZM256.56,187.51c-.5,1.04-.75,1.44-1.44,2.28-.29-.45-.6-.78-1.14-1.17.72-.82,1.32-1.84,1.69-2.86.27-.72.45-1.35.53-1.82l1.62.29c-.08.18-.08.2-.21.58-.18.63-.23.75-.41,1.21h3.13c.6,0,.88-.01,1.18-.06q-.06.46-.07,2.5c-.02,1.65-.17,4.15-.33,5.34-.23,1.67-.5,2.44-.96,2.82-.34.25-.88.38-1.84.38-.42,0-.74-.01-1.33-.06-.09-.63-.18-1-.41-1.61.72.12,1.39.18,1.88.18.64,0,.81-.18.99-1.07.28-1.41.45-3.99.46-6.94h-3.34ZM257.22,193.53c-.58-1.74-.88-2.42-1.62-3.64l1.24-.69c.84,1.33,1.23,2.13,1.77,3.62l-1.4.72Z"/>
        <path d="M268.74,189.49c.25.02.94.03,1.08.03,1.07,0,1.64-.62,1.64-1.75,0-1.05-.5-1.68-1.35-1.68-.46,0-.83.18-1.09.57-.13.2-.22.41-.41.89l-1.53-.78c.63-1.49,1.6-2.16,3.09-2.16,1.86,0,3.06,1.19,3.06,3.03,0,.81-.24,1.47-.72,2-.21.22-.38.34-.77.55.47.19.66.31.9.54.54.52.79,1.25.79,2.22,0,2.16-1.29,3.54-3.33,3.54-.97,0-1.81-.32-2.42-.92-.4-.41-.66-.84-.93-1.61l1.61-.75c.19.62.33.92.52,1.19.3.39.72.6,1.21.6.96,0,1.54-.78,1.54-2.07s-.6-1.98-1.88-1.98c-.13,0-.3,0-.52.01q-.13,0-.51.02v-1.49Z"/>
        <path d="M280.59,194.74c-.5,1.14-1.42,1.74-2.68,1.74-2.29,0-3.32-1.86-3.32-6.04,0-1.72.21-3.13.62-4.05.54-1.23,1.37-1.79,2.68-1.79,1.41,0,2.29.63,2.82,2.03.33.9.51,2.2.51,3.85,0,1.98-.19,3.3-.63,4.26ZM279.06,193.95c.22-.76.33-1.79.33-3.24,0-1.69-.18-3.19-.46-3.85-.22-.51-.55-.75-1.02-.75-.51,0-.81.24-1.05.83-.27.63-.42,1.9-.42,3.4,0,3.41.39,4.65,1.45,4.65.57,0,.96-.34,1.17-1.04Z"/>
        <path d="M283.41,194.35c.71.48,1.12.63,1.74.63.74,0,1.32-.5,1.63-1.41.2-.58.32-1.35.32-2.13-.55.6-1.09.87-1.77.87-.81,0-1.65-.36-2.19-.93-.6-.63-.93-1.64-.93-2.81,0-2.41,1.27-3.97,3.22-3.97,1.18,0,2,.45,2.59,1.44.54.9.79,2.25.79,4.24,0,4.23-1.2,6.2-3.79,6.2-.9,0-1.63-.21-2.4-.67l.78-1.46ZM286.82,187.35c-.24-.87-.67-1.28-1.35-1.28-.96,0-1.52.89-1.52,2.45,0,.57.11,1.14.27,1.49.24.49.76.82,1.32.82.33,0,.65-.12.93-.34.12-.12.24-.24.34-.36.15-.22.25-.38.25-.39,0-1.02-.08-1.72-.25-2.38Z"/>
        <path d="M296.43,195.42c0,.88.02,1.35.08,1.67h-1.79c.06-.46.09-.97.09-1.74v-9.4c0-.62-.01-.99-.06-1.39.46.04.84.06,1.62.06h8.73c.78,0,1.23-.01,1.58-.06-.04.4-.06.79-.06,1.57v9.24c0,.73-.18,1.14-.58,1.35-.27.15-.75.21-1.51.21-.53,0-1.35-.03-1.92-.06-.08-.57-.18-.98-.43-1.56.96.11,1.66.17,2.19.17.55,0,.64-.04.64-.39v-3.52h-8.56v3.87ZM299.84,186.13h-3.41v3.9h3.41v-3.9ZM305,190.03v-3.9h-3.6v3.9h3.6Z"/>
        <path d="M176.99,212.83q-.2.42-.48,1.25c-.42-.66-.6-1-.78-1.54,0,.12.01.22.01.29.04.55.06.87.06,1.41v3.97c0,.76.01,1.27.07,1.68h-1.6c.08-.46.1-1.05.1-1.77v-2.94c0-.43.02-1.02.08-1.77-.3,1.12-.72,2.17-1.23,3.03-.23-.57-.46-.96-.84-1.39.49-.71.76-1.18,1.17-2.19.28-.72.54-1.57.7-2.35h-.46c-.36,0-.64.01-.96.08v-1.53c.27.04.56.06.96.06h.57v-1.07c0-.75-.03-1.12-.09-1.48h1.6c-.06.4-.07.81-.07,1.48v1.07c.4,0,.6-.02.87-.04v1.51c-.12-.06-.27-.08-.85-.08.33.96.57,1.39,1.17,2.16v-1.59c0-.24-.01-.44-.04-.67.27.01.46.03.75.03h1c.29-.48.72-1.41.92-1.95h-1.4c-.69,0-1.24.03-1.63.07v-1.51c.41.06.92.09,1.65.09h5.97c.79,0,1.26-.03,1.67-.09v1.51c-.44-.04-.98-.07-1.67-.07h-3.01c-.2.48-.29.66-.48,1.09h.39c.6,0,.83-.02,1.04-.04q-.03.43-.08,2.22c-.06,2.12-.21,3.73-.4,4.65.78-.64,1.03-.93,1.5-1.69-.38-.75-.57-1.29-.98-2.64l1.07-.66c.27,1,.42,1.45.61,1.89.23-.71.33-1.16.45-2.03h-1.21c-.31,0-.48.02-.71.04v-1.41c.29.04.53.06,1.02.06h1.02c.32,0,.58-.01.79-.04l.57.76c-.57,2.58-.71,3.04-1.17,4,.51.69.69.89,1.54,1.58-.38.41-.58.76-.76,1.29-.69-.62-1.07-1-1.5-1.62-.54.78-.69.95-1.47,1.67-.22-.46-.4-.72-.81-1.14-.17.64-.32.9-.64,1.08-.23.13-.54.18-1.12.18q-.27,0-.95-.04c-.08-.63-.13-.9-.34-1.4.66.12,1.02.17,1.32.17.44,0,.46-.06.62-1.24.17-1.23.22-2.39.24-4.37h-.81v4.48c0,.24,0,.29.03.65-.3-.02-.5-.03-.71-.03h-1.6c-.32,0-.51.01-.71.04.03-.34.04-.52.04-1.09v-2.04ZM176.34,217.92c.42.06.87.09,1.58.09h6.42c.74,0,1.25-.03,1.63-.09v1.53c-.45-.04-.96-.08-1.67-.08h-6.42c-.7,0-1.11.01-1.54.08v-1.53ZM178.11,214.68h.71v-3.03h-.71v3.03Z"/>
        <path d="M192.89,213.61c-.42,0-.78.01-1.11.04.03-.32.04-.66.04-1.2v-3.38c0-.6,0-.75-.04-1.17.38.04.53.04,1.14.04h.45c.24-.54.36-.92.48-1.47l1.6.18c-.29.66-.46,1.08-.55,1.29h1.2c.6,0,.71,0,1.11-.04-.04.38-.04.51-.04,1.19v3.34c0,.63.02.93.04,1.21-.33-.03-.66-.04-1.08-.04h-.89v.94h3.87c.86,0,1.35-.03,1.72-.09v1.56c-.43-.06-.94-.09-1.74-.09h-2.79c.88.68,1.35.96,2.08,1.31.96.43,1.62.66,2.85.93-.38.5-.6.87-.88,1.47-1.37-.42-1.89-.63-2.75-1.12-1-.58-1.8-1.23-2.42-1.92q0,.17.02.39c0,.06.01.51.01.55v.84c0,.72.01.97.1,1.47h-1.77c.08-.48.11-.85.11-1.48v-.81c0-.29,0-.46.03-.94-.79.85-1.33,1.29-2.19,1.78-.79.48-1.73.89-2.76,1.23-.29-.57-.51-.92-.95-1.4,1.98-.49,3.6-1.29,4.71-2.29h-2.61c-.75,0-1.29.03-1.72.09v-1.56c.39.06.97.09,1.71.09h3.76v-.94h-.76ZM191.63,212.08c-.84.55-1.38.87-2.59,1.46q-.26.13-.58.3l-.56-1.44c.92-.25,2.03-.78,3.36-1.64l.38,1.32ZM189.29,207.33c.79.63,1.36,1.17,2.19,2.08l-1.05,1.09c-.74-.92-1.39-1.57-2.19-2.19l1.05-.99ZM193.25,210.15h2.49v-.93h-2.49v.93ZM193.25,212.35h2.49v-1h-2.49v1ZM198.11,210.82c1.42.72,2.19,1.16,3.08,1.72l-.84,1.25c-1.06-.78-1.93-1.32-3.03-1.86l.79-1.11ZM200.87,208.33c-1.06,1.11-1.72,1.73-2.46,2.29l-.99-1.06c1.08-.84,1.56-1.32,2.28-2.25l1.17,1.02Z"/>
        <path d="M203.84,210.19c1.21.75,1.58,1,2.57,1.8l-.9,1.3c-.92-.85-1.42-1.25-2.55-1.92l.88-1.18ZM211.32,215.31c-.3.66-.86,1.37-1.53,1.96-.74.66-1.39,1.07-2.5,1.58-.22-.41-.57-.83-.93-1.12,1.67-.61,2.79-1.41,3.43-2.42h-.93c-.6.58-1.07.92-2.01,1.46-.3-.45-.51-.72-.82-1.02-.41,1.3-.77,2.25-1.28,3.25-.17.36-.19.42-.33.69l-1.42-1.17c.2-.21.42-.57.71-1.11.48-.92.81-1.82,1.2-3.29l1.35.88-.2.6c1.29-.63,2.13-1.31,2.62-2.1h-.75c-.58,0-1.05.03-1.42.08v-1.44c.34.04.6.06,1.35.06h6.91c.69,0,1.14-.03,1.52-.09v1.47c-.39-.04-.89-.08-1.5-.08h-4.56c-.13.24-.19.35-.38.6h4.77c.71,0,.97-.02,1.29-.04q-.02.09-.09,1.59c-.09,1.77-.25,2.83-.52,3.36-.27.51-.72.67-1.8.67-.48,0-.83-.01-1.25-.06-.08-.54-.18-.9-.41-1.38-.78.76-1.21,1.09-2.22,1.65-.43-.55-.57-.69-1.07-1.06.89-.38,1.62-.86,2.29-1.5.65-.6,1.05-1.18,1.41-2.03h-.94ZM204.41,206.55c1.06.67,1.67,1.12,2.56,1.93l-.99,1.25c-.89-.89-1.47-1.35-2.52-2.01l.95-1.17ZM208.91,211.62c-.57,0-1.04.01-1.31.04.03-.43.05-.88.05-1.38v-2.08c0-.62-.02-.84-.06-1.3.41.06.78.08,1.46.08h4.46c.71,0,1.12-.02,1.54-.08-.04.43-.06.72-.06,1.42v1.96c0,.6.02.97.06,1.38-.36-.03-.78-.04-1.31-.04h-4.83ZM209.09,208.8h4.44v-.58h-4.44v.58ZM209.09,210.49h4.44v-.63h-4.44v.63ZM213.69,215.31c-.42,1.19-.9,1.98-1.75,2.85.63.1,1.12.15,1.53.15s.55-.15.67-.76c.11-.65.2-1.47.21-2.24h-.66Z"/>
        <path d="M224.06,218.97h-1.96v-11.68h1.96v4.7h4.72v-4.7h1.96v11.68h-1.96v-5.32h-4.72v5.32Z"/>
        <path d="M236.39,207.28c1.67,0,2.96.45,3.84,1.33.96.97,1.49,2.55,1.49,4.49s-.62,3.67-1.74,4.68c-.87.79-2.04,1.18-3.52,1.18h-3.5v-11.68h3.43ZM234.86,217.35h1.46c1.16,0,2.06-.36,2.61-1.06.54-.69.79-1.74.79-3.25,0-2.82-1.09-4.12-3.43-4.12h-1.43v8.44Z"/>
        <path d="M251.22,210.1c0,.66-.53,1.18-1.18,1.18s-1.19-.53-1.19-1.18.53-1.19,1.19-1.19,1.18.53,1.18,1.19ZM251.22,216.33c0,.66-.53,1.18-1.18,1.18s-1.19-.52-1.19-1.18.53-1.19,1.19-1.19,1.18.53,1.18,1.19Z"/>
        <path d="M260.6,214.86c-.12,1.81-.32,3-.72,4.27l-1.27-.6c.41-1.23.58-2.24.69-3.87l1.31.2ZM258.68,212.68c.21.03.33.05.61.05.11,0,.24,0,.57-.02.46-.55.55-.67.84-1.05-.75-.96-.93-1.16-1.96-2.13l.83-1.2c.2.25.27.33.42.5.54-.81,1.05-1.8,1.18-2.33l1.38.56c-.09.13-.15.24-.3.52-.33.65-.99,1.74-1.35,2.22.29.3.34.37.62.72.97-1.42,1.36-2.07,1.54-2.54l1.33.76c-.14.17-.24.3-.48.66-.83,1.21-1.77,2.49-2.43,3.24q.85-.04,1.65-.12c-.13-.38-.21-.53-.42-.99l1.08-.43c.36.73.75,1.69,1.14,2.82l-1.22.5c-.07-.33-.1-.45-.16-.67-.29.03-.62.06-1.02.11v4.54c0,.69.03,1.1.09,1.53h-1.59c.08-.43.09-.81.09-1.54v-4.41c-1.71.14-2.07.17-2.28.2l-.17-1.49ZM264.24,214.57c.32,1.26.54,2.46.71,3.67l-1.32.31c-.09-1.11-.31-2.56-.54-3.69l1.16-.3ZM266.64,210.19c-.5,1.04-.75,1.44-1.44,2.28-.29-.45-.6-.78-1.14-1.17.72-.82,1.32-1.84,1.69-2.86.27-.72.45-1.35.53-1.82l1.62.29c-.08.18-.08.2-.21.58-.18.63-.23.75-.41,1.21h3.13c.6,0,.88-.01,1.18-.06q-.06.46-.07,2.5c-.02,1.65-.17,4.15-.33,5.34-.23,1.67-.5,2.44-.96,2.82-.34.25-.88.38-1.84.38-.42,0-.74-.01-1.33-.06-.09-.63-.18-1-.41-1.61.72.12,1.39.18,1.88.18.64,0,.81-.18.99-1.07.28-1.41.45-3.99.46-6.94h-3.34ZM267.3,216.21c-.58-1.74-.88-2.42-1.62-3.64l1.24-.69c.84,1.33,1.23,2.13,1.77,3.62l-1.4.72Z"/>
        <path d="M282.44,214.92h1.25v1.39h-1.25v2.66h-1.51v-2.66h-3.96v-1.21l3.58-7.62h1.89v7.44ZM280.95,212.53c.01-1.02.06-1.68.22-3.57h-.15c-.57,1.58-.85,2.31-1.08,2.81l-1.42,3.15h2.4l.03-2.38Z"/>
        <path d="M291.38,215.86c0,1.98-1.35,3.3-3.38,3.3s-3.4-1.26-3.4-3.2c0-.71.15-1.3.45-1.77.32-.51.66-.81,1.44-1.32-.53-.33-.75-.51-.97-.79-.41-.48-.6-1.08-.6-1.83,0-1.77,1.23-2.97,3.09-2.97,1.17,0,2.15.51,2.67,1.4.27.43.39.96.39,1.63s-.23,1.32-.62,1.8c-.24.29-.46.46-1,.79,1.35.67,1.93,1.58,1.93,2.96ZM286.8,214.48c-.33.38-.48.81-.48,1.38,0,1.18.62,1.9,1.63,1.9s1.7-.75,1.7-1.9c0-.56-.14-.93-.48-1.31-.21-.24-.4-.4-.71-.57-.12-.08-.54-.3-.54-.3-.61.31-.88.51-1.12.79ZM289.04,211.41c.22-.32.33-.67.33-1.14,0-.96-.54-1.58-1.38-1.58s-1.4.62-1.4,1.62c0,.54.18.97.56,1.27.27.23.87.58.93.56.55-.29.74-.42.96-.74Z"/>
        <path d="M297.74,214.92h1.25v1.39h-1.25v2.66h-1.51v-2.66h-3.96v-1.21l3.58-7.62h1.89v7.44ZM296.25,212.53c.01-1.02.06-1.68.22-3.57h-.15c-.57,1.58-.85,2.31-1.08,2.81l-1.43,3.15h2.4l.03-2.38Z"/>
        <path d="M306.51,218.1c0,.88.02,1.35.08,1.67h-1.79c.06-.46.09-.97.09-1.74v-9.4c0-.62-.01-.99-.06-1.39.46.04.84.06,1.62.06h8.73c.78,0,1.23-.01,1.58-.06-.04.4-.06.79-.06,1.57v9.24c0,.73-.18,1.14-.58,1.35-.27.15-.75.21-1.51.21-.53,0-1.35-.03-1.92-.06-.08-.57-.18-.98-.43-1.56.96.11,1.66.17,2.19.17.55,0,.64-.04.64-.39v-3.52h-8.56v3.87ZM309.92,208.81h-3.41v3.9h3.41v-3.9ZM315.08,212.71v-3.9h-3.6v3.9h3.6Z"/>
      </g>
      <g>
        <path d="M53.82,120.24h-5.15v-1.16l5.03-7.24h1.88v6.96h1.72v1.44h-1.71v2.47h-1.77v-2.47ZM53.85,118.8l.04-4.87-3.31,4.87h3.27Z"/>
        <path d="M59.5,122.73c-.78-.05-1.35-.42-1.35-1.05s.51-1.11,1.17-1.11c.94,0,1.6.76,1.6,1.88s-.81,2.42-1.79,3.15h-1.39c.96-.79,1.86-1.98,1.75-2.86Z"/>
        <path d="M62.02,117.48c0-3.55,1.63-5.67,4.18-5.67s3.97,1.89,3.97,5.37-1.58,5.64-4.15,5.64-4-1.91-4-5.34ZM68.31,117.36c0-2.83-.72-3.96-2.23-3.96-1.38,0-2.19,1.3-2.19,3.92s.79,3.93,2.27,3.93c1.36,0,2.16-1.28,2.16-3.88Z"/>
        <path d="M71.17,117.48c0-3.55,1.63-5.67,4.18-5.67s3.97,1.89,3.97,5.37-1.58,5.64-4.15,5.64-4-1.91-4-5.34ZM77.46,117.36c0-2.83-.72-3.96-2.23-3.96-1.38,0-2.19,1.3-2.19,3.92s.79,3.93,2.27,3.93c1.36,0,2.16-1.28,2.16-3.88Z"/>
        <path d="M80.32,117.48c0-3.55,1.63-5.67,4.18-5.67s3.97,1.89,3.97,5.37-1.58,5.64-4.15,5.64-4-1.91-4-5.34ZM86.61,117.36c0-2.83-.72-3.96-2.23-3.96-1.38,0-2.19,1.3-2.19,3.92s.79,3.93,2.27,3.93c1.36,0,2.16-1.28,2.16-3.88Z"/>
        <path d="M94.32,111.46h11.25v10.44c0,1.11-.4,1.48-1.56,1.48-.67,0-1.54-.04-2.4-.12l-.3-1.53c.74.1,1.61.18,2.18.18.46,0,.58-.13.58-.54v-3.38h-8.25v5.52h-1.5v-12.06ZM99.16,116.7v-3.92h-3.34v3.92h3.34ZM104.07,116.7v-3.92h-3.44v3.92h3.44Z"/>
      </g>
      <g>
        <path d="M60.22,138.94c-.54,0-1,.42-1.2,1.86h-1.42c.22-2.42,1.42-3.34,2.62-3.34,1.89,0,2.1,1.98,3.13,1.98.51,0,1.06-.31,1.21-1.86h1.44c-.22,2.22-1.26,3.34-2.61,3.34-1.88,0-2.12-1.98-3.18-1.98Z"/>
        <path d="M72.34,135.21l-2.28.38-.04-1.58,4.12-.6-.02,1.02v9.88h-1.78v-9.1Z"/>
        <path d="M76.36,139.08c0-3.55,1.63-5.67,4.18-5.67s3.97,1.89,3.97,5.37-1.58,5.64-4.15,5.64-4-1.91-4-5.34ZM82.64,138.96c0-2.83-.72-3.96-2.23-3.96-1.38,0-2.19,1.3-2.19,3.92s.79,3.93,2.27,3.93c1.36,0,2.16-1.28,2.16-3.88Z"/>
        <path d="M86.98,144.33c-.78-.05-1.35-.42-1.35-1.05s.51-1.11,1.17-1.11c.94,0,1.6.76,1.6,1.88s-.81,2.42-1.79,3.15h-1.39c.96-.79,1.86-1.98,1.75-2.86Z"/>
        <path d="M89.5,139.08c0-3.55,1.63-5.67,4.18-5.67s3.97,1.89,3.97,5.37-1.58,5.64-4.15,5.64-4-1.91-4-5.34ZM95.78,138.96c0-2.83-.72-3.96-2.23-3.96-1.38,0-2.19,1.3-2.19,3.92s.79,3.93,2.27,3.93c1.36,0,2.16-1.28,2.16-3.88Z"/>
        <path d="M98.65,139.08c0-3.55,1.63-5.67,4.18-5.67s3.97,1.89,3.97,5.37-1.58,5.64-4.15,5.64-4-1.91-4-5.34ZM104.93,138.96c0-2.83-.72-3.96-2.23-3.96-1.38,0-2.19,1.3-2.19,3.92s.79,3.93,2.27,3.93c1.36,0,2.16-1.28,2.16-3.88Z"/>
        <path d="M107.8,139.08c0-3.55,1.63-5.67,4.18-5.67s3.97,1.89,3.97,5.37-1.58,5.64-4.15,5.64-4-1.91-4-5.34ZM114.08,138.96c0-2.83-.72-3.96-2.23-3.96-1.38,0-2.19,1.3-2.19,3.92s.79,3.93,2.27,3.93c1.36,0,2.16-1.28,2.16-3.88Z"/>
        <path d="M121.79,133.06h11.25v10.44c0,1.11-.4,1.48-1.56,1.48-.67,0-1.54-.04-2.4-.12l-.3-1.53c.74.1,1.61.18,2.17.18.47,0,.59-.13.59-.54v-3.38h-8.25v5.52h-1.5v-12.06ZM126.64,138.3v-3.92h-3.34v3.92h3.34ZM131.54,138.3v-3.92h-3.44v3.92h3.44Z"/>
      </g>
      <g>
        <path d="M49.18,194.81c3.48-2.67,5.11-4.42,5.11-6.19,0-1.32-.81-1.89-1.98-1.89-1.04,0-1.96.42-2.75,1.09l-.08-1.67c.79-.58,1.95-1,3.24-1,2.1,0,3.4,1.17,3.4,3.18s-1.45,3.87-4.39,6.21h4.5v1.51h-7.06v-1.25Z"/>
        <path d="M58.98,196.07c-.78-.05-1.35-.42-1.35-1.05s.51-1.11,1.17-1.11c.94,0,1.6.76,1.6,1.88s-.81,2.42-1.79,3.15h-1.39c.96-.79,1.86-1.98,1.75-2.86Z"/>
        <path d="M61.5,190.82c0-3.55,1.63-5.67,4.18-5.67s3.97,1.89,3.97,5.37-1.58,5.64-4.15,5.64-4-1.91-4-5.34ZM67.78,190.7c0-2.83-.72-3.96-2.23-3.96-1.38,0-2.19,1.3-2.19,3.92s.79,3.93,2.27,3.93c1.36,0,2.16-1.28,2.16-3.88Z"/>
        <path d="M70.65,190.82c0-3.55,1.63-5.67,4.18-5.67s3.97,1.89,3.97,5.37-1.58,5.64-4.15,5.64-4-1.91-4-5.34ZM76.93,190.7c0-2.83-.72-3.96-2.23-3.96-1.38,0-2.19,1.3-2.19,3.92s.79,3.93,2.27,3.93c1.36,0,2.16-1.28,2.16-3.88Z"/>
        <path d="M79.8,190.82c0-3.55,1.63-5.67,4.18-5.67s3.97,1.89,3.97,5.37-1.58,5.64-4.15,5.64-4-1.91-4-5.34ZM86.08,190.7c0-2.83-.72-3.96-2.23-3.96-1.38,0-2.19,1.3-2.19,3.92s.79,3.93,2.27,3.93c1.36,0,2.16-1.28,2.16-3.88Z"/>
        <path d="M93.79,184.81h11.25v10.44c0,1.11-.4,1.48-1.56,1.48-.67,0-1.54-.04-2.4-.12l-.3-1.53c.74.1,1.61.18,2.18.18.46,0,.58-.13.58-.54v-3.38h-8.25v5.52h-1.5v-12.06ZM98.64,190.04v-3.92h-3.34v3.92h3.34ZM103.54,190.04v-3.92h-3.44v3.92h3.44Z"/>
      </g>
      <g>
        <path d="M66.41,212.29c-.54,0-1,.42-1.2,1.86h-1.42c.22-2.42,1.42-3.34,2.62-3.34,1.89,0,2.1,1.98,3.13,1.98.51,0,1.06-.31,1.21-1.86h1.44c-.22,2.22-1.26,3.34-2.61,3.34-1.88,0-2.12-1.98-3.18-1.98Z"/>
        <path d="M81.29,215.18h-5.15v-1.16l5.03-7.24h1.88v6.96h1.72v1.44h-1.71v2.47h-1.77v-2.47ZM81.32,213.74l.04-4.87-3.31,4.87h3.27Z"/>
        <path d="M86.98,217.67c-.78-.05-1.35-.42-1.35-1.05s.51-1.11,1.17-1.11c.94,0,1.6.76,1.6,1.88s-.81,2.42-1.79,3.15h-1.39c.96-.79,1.86-1.98,1.75-2.86Z"/>
        <path d="M89.5,212.42c0-3.55,1.63-5.67,4.18-5.67s3.97,1.89,3.97,5.37-1.58,5.64-4.15,5.64-4-1.91-4-5.34ZM95.78,212.3c0-2.83-.72-3.96-2.23-3.96-1.38,0-2.19,1.3-2.19,3.92s.79,3.93,2.27,3.93c1.36,0,2.16-1.28,2.16-3.88Z"/>
        <path d="M98.65,212.42c0-3.55,1.63-5.67,4.18-5.67s3.97,1.89,3.97,5.37-1.58,5.64-4.15,5.64-4-1.91-4-5.34ZM104.93,212.3c0-2.83-.72-3.96-2.23-3.96-1.38,0-2.19,1.3-2.19,3.92s.79,3.93,2.27,3.93c1.36,0,2.16-1.28,2.16-3.88Z"/>
        <path d="M107.8,212.42c0-3.55,1.63-5.67,4.18-5.67s3.97,1.89,3.97,5.37-1.58,5.64-4.15,5.64-4-1.91-4-5.34ZM114.08,212.3c0-2.83-.72-3.96-2.23-3.96-1.38,0-2.19,1.3-2.19,3.92s.79,3.93,2.27,3.93c1.36,0,2.16-1.28,2.16-3.88Z"/>
        <path d="M121.79,206.41h11.25v10.44c0,1.11-.4,1.48-1.56,1.48-.67,0-1.54-.04-2.4-.12l-.3-1.53c.74.1,1.61.18,2.18.18.46,0,.58-.13.58-.54v-3.38h-8.25v5.52h-1.5v-12.06ZM126.64,211.64v-3.92h-3.34v3.92h3.34ZM131.54,211.64v-3.92h-3.44v3.92h3.44Z"/>
      </g>
      <rect class="cls-3" x="29.55" y="242.16" width="119.19" height="68.4"/>
      <rect class="cls-3" x="154.05" y="242.16" width="178.75" height="68.4"/>
      <g>
        <path d="M178.56,267.28c2.73,0,5.01-.04,6.09-.13.17-.01.27-.01.33-.01.09,0,.14.01.18.03.1.06.13.32.13,1.14,0,.76-.03.84-.29.84t-.25-.02c-.79-.07-1.71-.09-3.64-.09-4.14,0-6.11.04-7.02.18-.15.03-.21.03-.27.03-.34,0-.41-.27-.52-2.07,1.21.07,2.68.1,5.26.1ZM179.03,260.83c2.01,0,3.17-.04,4.02-.15.09-.01.11-.01.17-.01.17,0,.22.04.25.25.02.12.03.64.03,1.06,0,.51-.04.63-.24.63-.06,0-.13,0-.25-.01-.3-.01-2.49-.03-4.23-.03-1.16,0-1.94.02-2.76.08-.2.02-.44.03-.47.03-.18,0-.28-.08-.34-.22-.08-.21-.15-1.1-.15-1.8.91.14,1.87.18,3.97.18Z"/>
        <path d="M191.15,265.97c-.24-.55-.73-1.5-.93-1.79-.3-.43-.34-.51-.34-.6,0-.12.17-.27.57-.5.46-.27.53-.3.62-.29.13.01.33.24.69.81.49.75.94,1.6.94,1.78,0,.11-.1.21-.4.39-.35.21-.83.43-.92.43s-.15-.06-.23-.25ZM199.31,263.42c0,.06-.03.12-.09.2-.15.19-.24.34-.44.76-1.08,2.4-1.79,3.51-2.98,4.72-.89.88-2.28,1.92-2.6,1.92-.09,0-.17-.03-.25-.12-.27-.29-.69-.6-1.17-.87,2.27-1.2,3.53-2.42,4.58-4.36.58-1.11.97-2.28,1.04-3.15,1.25.35,1.92.67,1.92.9ZM195.45,264.74c0,.09-.69.51-1.11.68-.09.03-.15.04-.15.06-.04.01-.08.03-.09.03-.08,0-.15-.08-.2-.23-.21-.63-.63-1.5-1.09-2.26t-.04-.15c0-.11.12-.2.57-.44.55-.3.58-.31.67-.31.08,0,.1.03.21.13.21.29.85,1.42.97,1.75.09.25.15.43.2.5.04.04.06.09.06.1v.09s0,.04,0,.04Z"/>
        <path d="M206.27,262.04c0-1.67-.06-2.54-.18-3.01q.27.01.86.04c.18,0,.99.13,1.09.17.1.04.15.1.15.19q0,.08-.09.39c-.07.21-.09.52-.12,2.22.38,0,1.49,0,3.35-.02,0-1.71-.05-2.38-.17-3.1.81.04,1.26.09,1.69.17.32.04.41.11.41.24,0,.1-.01.15-.11.39-.04.11-.09.57-.1,1.05v1.25c1.51-.03,2.08-.04,2.54-.09.06-.01.1-.01.15-.01.08,0,.13.03.17.07.04.09.08.45.08.93,0,.71-.03.78-.25.78t-.36-.03c-.51-.04-.63-.04-2.34-.04-.09,2.25-.39,3.45-1.14,4.65-.65,1.04-1.49,1.8-2.64,2.45-.41.22-.95.43-1.1.43-.13,0-.15-.01-.46-.34-.33-.36-.54-.51-1-.79,2.16-.78,3.29-1.67,3.97-3.12.42-.9.6-1.79.66-3.29h-.97c-.13,0-.55,0-1.17.02-.27.01-.67.01-1.21.03q0,1.07.03,2.42v.2c0,.21-.04.29-.21.34-.18.04-.64.09-1,.09-.52,0-.6-.04-.6-.31v-.23c.06-1.36.08-1.6.09-2.47-.78.01-2.16.1-2.52.17-.03.01-.06.01-.09.01-.12,0-.2-.06-.23-.19-.08-.26-.15-.98-.18-1.73.76.09,1.2.11,2.44.11h.58Z"/>
        <path d="M230.54,262.81c.08.15.1.25.1.34,0,.15-.06.25-.25.53-.82,1.08-1.71,1.95-3.04,2.98-1.5,1.17-2.77,1.95-4.57,2.81-1.16.54-1.21.57-1.4.73-.12.12-.18.15-.27.15-.13,0-.25-.12-.48-.45-.3-.45-.58-1.06-.75-1.59,1.52-.34,3.33-1.16,5.08-2.26,2.31-1.46,3.76-2.9,4.89-4.86.17.56.3.86.69,1.62ZM220.55,260.29c.25-.29.36-.36.49-.36.29.01,1.41.74,2.34,1.49.57.46.75.66.75.81,0,.11-.27.51-.63.92-.33.38-.49.51-.61.51q-.11,0-.72-.58c-.39-.38-1.17-1-1.56-1.25q-.53-.34-.63-.4c-.06-.04-.09-.09-.09-.14,0-.13.29-.55.66-.99Z"/>
        <path d="M241.14,261.79c0,.66-.53,1.18-1.18,1.18s-1.19-.52-1.19-1.18.53-1.19,1.19-1.19,1.18.53,1.18,1.19ZM241.14,268.01c0,.66-.53,1.18-1.18,1.18s-1.19-.52-1.19-1.18.53-1.19,1.19-1.19,1.18.53,1.18,1.19Z"/>
        <path d="M250.52,266.54c-.12,1.81-.32,3-.72,4.27l-1.27-.6c.41-1.23.58-2.24.69-3.87l1.31.2ZM248.6,264.37c.21.03.33.04.61.04.11,0,.24,0,.57-.02.46-.55.55-.67.84-1.05-.75-.96-.93-1.16-1.96-2.13l.83-1.2c.2.25.27.33.42.5.54-.81,1.05-1.8,1.18-2.33l1.38.56c-.09.13-.15.24-.3.52-.33.65-.99,1.74-1.35,2.22.29.3.34.38.62.72.97-1.42,1.36-2.07,1.54-2.54l1.33.76c-.14.17-.24.3-.48.66-.83,1.21-1.77,2.49-2.43,3.24q.85-.04,1.65-.12c-.13-.38-.21-.53-.42-.99l1.08-.43c.36.73.75,1.69,1.14,2.82l-1.22.5c-.07-.33-.1-.45-.16-.67-.29.03-.62.06-1.02.11v4.54c0,.69.03,1.1.09,1.53h-1.59c.08-.43.09-.81.09-1.54v-4.41c-1.71.14-2.07.17-2.28.2l-.17-1.48ZM254.16,266.26c.32,1.26.54,2.46.71,3.67l-1.32.31c-.09-1.11-.31-2.56-.54-3.69l1.16-.3ZM256.56,261.88c-.5,1.04-.75,1.44-1.44,2.28-.29-.45-.6-.78-1.14-1.17.72-.82,1.32-1.84,1.69-2.86.27-.72.45-1.35.53-1.82l1.62.29c-.08.18-.08.2-.21.58-.18.63-.23.75-.41,1.21h3.13c.6,0,.88-.01,1.18-.06q-.06.46-.07,2.5c-.02,1.65-.17,4.15-.33,5.34-.23,1.67-.5,2.44-.96,2.82-.34.25-.88.38-1.84.38-.42,0-.74-.01-1.33-.06-.09-.63-.18-1-.41-1.61.72.12,1.39.18,1.88.18.64,0,.81-.18.99-1.07.28-1.41.45-3.99.46-6.94h-3.34ZM257.22,267.89c-.58-1.74-.88-2.42-1.62-3.64l1.24-.69c.84,1.33,1.23,2.13,1.77,3.62l-1.4.72Z"/>
        <path d="M268.74,263.86c.25.02.94.03,1.08.03,1.07,0,1.64-.62,1.64-1.75,0-1.05-.5-1.68-1.35-1.68-.46,0-.83.18-1.09.57-.13.2-.22.41-.41.89l-1.53-.78c.63-1.49,1.6-2.16,3.09-2.16,1.86,0,3.06,1.19,3.06,3.03,0,.81-.24,1.47-.72,2-.21.22-.38.34-.77.55.47.19.66.31.9.54.54.52.79,1.25.79,2.22,0,2.16-1.29,3.54-3.33,3.54-.97,0-1.81-.32-2.42-.92-.4-.41-.66-.84-.93-1.61l1.61-.75c.19.62.33.92.52,1.19.3.39.72.6,1.21.6.96,0,1.54-.78,1.54-2.07s-.6-1.98-1.88-1.98c-.13,0-.3,0-.52.01q-.13,0-.51.02v-1.49Z"/>
        <path d="M280.59,269.11c-.5,1.14-1.42,1.74-2.68,1.74-2.29,0-3.32-1.86-3.32-6.04,0-1.72.21-3.13.62-4.05.54-1.23,1.37-1.79,2.68-1.79,1.41,0,2.29.63,2.82,2.03.33.9.51,2.2.51,3.85,0,1.98-.19,3.3-.63,4.26ZM279.06,268.31c.22-.76.33-1.79.33-3.24,0-1.69-.18-3.19-.46-3.85-.22-.51-.55-.75-1.02-.75-.51,0-.81.24-1.05.83-.27.63-.42,1.9-.42,3.4,0,3.41.39,4.65,1.45,4.65.57,0,.96-.34,1.17-1.04Z"/>
        <path d="M283.41,268.72c.71.48,1.12.63,1.74.63.74,0,1.32-.5,1.63-1.41.2-.58.32-1.35.32-2.13-.55.6-1.09.87-1.77.87-.81,0-1.65-.36-2.19-.93-.6-.63-.93-1.64-.93-2.81,0-2.41,1.27-3.97,3.22-3.97,1.18,0,2,.45,2.59,1.44.54.9.79,2.25.79,4.24,0,4.23-1.2,6.2-3.79,6.2-.9,0-1.63-.21-2.4-.67l.78-1.46ZM286.82,261.71c-.24-.87-.67-1.28-1.35-1.28-.96,0-1.52.89-1.52,2.45,0,.57.11,1.14.27,1.49.24.49.76.82,1.32.82.33,0,.65-.12.93-.34.12-.12.24-.24.34-.36.15-.22.25-.38.25-.39,0-1.02-.08-1.72-.25-2.38Z"/>
        <path d="M296.43,269.78c0,.88.02,1.35.08,1.67h-1.79c.06-.46.09-.97.09-1.74v-9.4c0-.62-.01-.99-.06-1.39.46.04.84.06,1.62.06h8.73c.78,0,1.23-.01,1.58-.06-.04.4-.06.79-.06,1.57v9.24c0,.73-.18,1.14-.58,1.35-.27.15-.75.21-1.51.21-.53,0-1.35-.03-1.92-.06-.08-.57-.18-.98-.43-1.56.96.11,1.66.17,2.19.17.55,0,.64-.04.64-.39v-3.52h-8.56v3.87ZM299.84,260.5h-3.41v3.9h3.41v-3.9ZM305,264.4v-3.9h-3.6v3.9h3.6Z"/>
        <path d="M176.99,287.19q-.2.42-.48,1.25c-.42-.66-.6-1-.78-1.54,0,.12.01.22.01.29.04.55.06.87.06,1.41v3.97c0,.76.01,1.27.07,1.68h-1.6c.08-.46.1-1.05.1-1.77v-2.94c0-.43.02-1.02.08-1.77-.3,1.12-.72,2.17-1.23,3.03-.23-.57-.46-.96-.84-1.39.49-.71.76-1.18,1.17-2.19.28-.72.54-1.57.7-2.35h-.46c-.36,0-.64.01-.96.08v-1.53c.27.04.56.06.96.06h.57v-1.07c0-.75-.03-1.12-.09-1.48h1.6c-.06.4-.07.81-.07,1.48v1.07c.4,0,.6-.02.87-.04v1.51c-.12-.06-.27-.08-.85-.08.33.96.57,1.39,1.17,2.16v-1.59c0-.24-.01-.44-.04-.67.27.01.46.03.75.03h1c.29-.48.72-1.41.92-1.95h-1.4c-.69,0-1.24.03-1.63.07v-1.51c.41.06.92.09,1.65.09h5.97c.79,0,1.26-.03,1.67-.09v1.51c-.44-.04-.98-.07-1.67-.07h-3.01c-.2.48-.29.66-.48,1.09h.39c.6,0,.83-.02,1.04-.04q-.03.43-.08,2.22c-.06,2.12-.21,3.73-.4,4.65.78-.64,1.03-.93,1.5-1.69-.38-.75-.57-1.29-.98-2.64l1.07-.66c.27,1,.42,1.45.61,1.89.23-.71.33-1.16.45-2.03h-1.21c-.31,0-.48.02-.71.04v-1.41c.29.04.53.06,1.02.06h1.02c.32,0,.58-.01.79-.04l.57.76c-.57,2.58-.71,3.04-1.17,4,.51.69.69.89,1.54,1.58-.38.41-.58.76-.76,1.29-.69-.62-1.07-1-1.5-1.62-.54.78-.69.95-1.47,1.67-.22-.46-.4-.72-.81-1.14-.17.64-.32.9-.64,1.08-.23.13-.54.18-1.12.18q-.27,0-.95-.04c-.08-.63-.13-.9-.34-1.4.66.12,1.02.17,1.32.17.44,0,.46-.06.62-1.24.17-1.23.22-2.39.24-4.37h-.81v4.48c0,.24,0,.29.03.65-.3-.02-.5-.03-.71-.03h-1.6c-.32,0-.51.01-.71.04.03-.34.04-.52.04-1.09v-2.04ZM176.34,292.28c.42.06.87.09,1.58.09h6.42c.74,0,1.25-.03,1.63-.09v1.53c-.45-.04-.96-.08-1.67-.08h-6.42c-.7,0-1.11.01-1.54.08v-1.53ZM178.11,289.04h.71v-3.03h-.71v3.03Z"/>
        <path d="M192.89,287.97c-.42,0-.78.01-1.11.04.03-.32.04-.66.04-1.2v-3.38c0-.6,0-.75-.04-1.17.38.04.53.04,1.14.04h.45c.24-.54.36-.92.48-1.47l1.6.18c-.29.66-.46,1.08-.55,1.29h1.2c.6,0,.71,0,1.11-.04-.04.38-.04.51-.04,1.19v3.34c0,.63.02.93.04,1.21-.33-.03-.66-.04-1.08-.04h-.89v.94h3.87c.86,0,1.35-.03,1.72-.09v1.56c-.43-.06-.94-.09-1.74-.09h-2.79c.88.68,1.35.96,2.08,1.31.96.43,1.62.66,2.85.93-.38.5-.6.87-.88,1.47-1.37-.42-1.89-.63-2.75-1.12-1-.58-1.8-1.23-2.42-1.92q0,.17.02.39c0,.06.01.51.01.55v.84c0,.72.01.97.1,1.47h-1.77c.08-.48.11-.85.11-1.48v-.81c0-.29,0-.46.03-.94-.79.85-1.33,1.29-2.19,1.78-.79.48-1.73.89-2.76,1.23-.29-.57-.51-.92-.95-1.4,1.98-.49,3.6-1.29,4.71-2.29h-2.61c-.75,0-1.29.03-1.72.09v-1.56c.39.06.97.09,1.71.09h3.76v-.94h-.76ZM191.63,286.44c-.84.55-1.38.87-2.59,1.46q-.26.13-.58.3l-.56-1.44c.92-.25,2.03-.78,3.36-1.64l.38,1.32ZM189.29,281.69c.79.63,1.36,1.17,2.19,2.08l-1.05,1.09c-.74-.92-1.39-1.57-2.19-2.19l1.05-.99ZM193.25,284.51h2.49v-.93h-2.49v.93ZM193.25,286.71h2.49v-1h-2.49v1ZM198.11,285.18c1.42.72,2.19,1.16,3.08,1.72l-.84,1.25c-1.06-.78-1.93-1.32-3.03-1.86l.79-1.11ZM200.87,282.69c-1.06,1.11-1.72,1.73-2.46,2.29l-.99-1.06c1.08-.84,1.56-1.32,2.28-2.25l1.17,1.02Z"/>
        <path d="M203.84,284.55c1.21.75,1.58,1,2.57,1.8l-.9,1.3c-.92-.85-1.42-1.25-2.55-1.92l.88-1.18ZM211.32,289.67c-.3.66-.86,1.37-1.53,1.96-.74.66-1.39,1.07-2.5,1.58-.22-.41-.57-.83-.93-1.12,1.67-.61,2.79-1.41,3.43-2.42h-.93c-.6.58-1.07.92-2.01,1.46-.3-.45-.51-.72-.82-1.02-.41,1.3-.77,2.25-1.28,3.25-.17.36-.19.42-.33.69l-1.42-1.17c.2-.21.42-.57.71-1.11.48-.92.81-1.82,1.2-3.29l1.35.88-.2.6c1.29-.63,2.13-1.31,2.62-2.1h-.75c-.58,0-1.05.03-1.42.08v-1.44c.34.04.6.06,1.35.06h6.91c.69,0,1.14-.03,1.52-.09v1.47c-.39-.04-.89-.08-1.5-.08h-4.56c-.13.24-.19.35-.38.6h4.77c.71,0,.97-.02,1.29-.04q-.02.09-.09,1.59c-.09,1.77-.25,2.83-.52,3.36-.27.51-.72.67-1.8.67-.48,0-.83-.01-1.25-.06-.08-.54-.18-.9-.41-1.38-.78.76-1.21,1.09-2.22,1.65-.43-.55-.57-.69-1.07-1.06.89-.38,1.62-.86,2.29-1.5.65-.6,1.05-1.18,1.41-2.03h-.94ZM204.41,280.91c1.06.67,1.67,1.12,2.56,1.93l-.99,1.25c-.89-.89-1.47-1.35-2.52-2.01l.95-1.17ZM208.91,285.98c-.57,0-1.04.01-1.31.04.03-.43.05-.88.05-1.38v-2.08c0-.62-.02-.84-.06-1.3.41.06.78.08,1.46.08h4.46c.71,0,1.12-.02,1.54-.08-.04.43-.06.72-.06,1.42v1.96c0,.6.02.97.06,1.38-.36-.03-.78-.04-1.31-.04h-4.83ZM209.09,283.16h4.44v-.58h-4.44v.58ZM209.09,284.85h4.44v-.63h-4.44v.63ZM213.69,289.67c-.42,1.19-.9,1.98-1.75,2.85.63.1,1.12.15,1.53.15s.55-.15.67-.76c.11-.65.2-1.47.21-2.24h-.66Z"/>
        <path d="M224.06,293.33h-1.96v-11.68h1.96v4.7h4.72v-4.7h1.96v11.68h-1.96v-5.32h-4.72v5.32Z"/>
        <path d="M236.39,281.64c1.67,0,2.96.45,3.84,1.33.96.97,1.49,2.55,1.49,4.49s-.62,3.67-1.74,4.68c-.87.79-2.04,1.18-3.52,1.18h-3.5v-11.68h3.43ZM234.86,291.71h1.46c1.16,0,2.06-.36,2.61-1.06.54-.69.79-1.74.79-3.25,0-2.82-1.09-4.12-3.43-4.12h-1.43v8.44Z"/>
        <path d="M251.22,284.46c0,.66-.53,1.18-1.18,1.18s-1.19-.53-1.19-1.18.53-1.19,1.19-1.19,1.18.53,1.18,1.19ZM251.22,290.69c0,.66-.53,1.18-1.18,1.18s-1.19-.52-1.19-1.18.53-1.19,1.19-1.19,1.18.53,1.18,1.19Z"/>
        <path d="M260.6,289.22c-.12,1.81-.32,3-.72,4.27l-1.27-.6c.41-1.23.58-2.24.69-3.87l1.31.2ZM258.68,287.04c.21.03.33.05.61.05.11,0,.24,0,.57-.02.46-.55.55-.67.84-1.05-.75-.96-.93-1.16-1.96-2.13l.83-1.2c.2.25.27.33.42.5.54-.81,1.05-1.8,1.18-2.33l1.38.56c-.09.13-.15.24-.3.52-.33.65-.99,1.74-1.35,2.22.29.3.34.37.62.72.97-1.42,1.36-2.07,1.54-2.54l1.33.76c-.14.17-.24.3-.48.66-.83,1.21-1.77,2.49-2.43,3.24q.85-.04,1.65-.12c-.13-.38-.21-.53-.42-.99l1.08-.43c.36.73.75,1.69,1.14,2.82l-1.22.5c-.07-.33-.1-.45-.16-.67-.29.03-.62.06-1.02.11v4.54c0,.69.03,1.1.09,1.53h-1.59c.08-.43.09-.81.09-1.54v-4.41c-1.71.14-2.07.17-2.28.2l-.17-1.49ZM264.24,288.93c.32,1.26.54,2.46.71,3.67l-1.32.31c-.09-1.11-.31-2.56-.54-3.69l1.16-.3ZM266.64,284.55c-.5,1.04-.75,1.44-1.44,2.28-.29-.45-.6-.78-1.14-1.17.72-.82,1.32-1.84,1.69-2.86.27-.72.45-1.35.53-1.82l1.62.29c-.08.18-.08.2-.21.58-.18.63-.23.75-.41,1.21h3.13c.6,0,.88-.01,1.18-.06q-.06.46-.07,2.5c-.02,1.65-.17,4.15-.33,5.34-.23,1.67-.5,2.44-.96,2.82-.34.25-.88.38-1.84.38-.42,0-.74-.01-1.33-.06-.09-.63-.18-1-.41-1.61.72.12,1.39.18,1.88.18.64,0,.81-.18.99-1.07.28-1.41.45-3.99.46-6.94h-3.34ZM267.3,290.57c-.58-1.74-.88-2.42-1.62-3.64l1.24-.69c.84,1.33,1.23,2.13,1.77,3.62l-1.4.72Z"/>
        <path d="M282.44,289.28h1.25v1.39h-1.25v2.66h-1.51v-2.66h-3.96v-1.21l3.58-7.62h1.89v7.44ZM280.95,286.89c.01-1.02.06-1.68.22-3.57h-.15c-.57,1.58-.85,2.31-1.08,2.81l-1.42,3.15h2.4l.03-2.38Z"/>
        <path d="M291.38,290.22c0,1.98-1.35,3.3-3.38,3.3s-3.4-1.26-3.4-3.2c0-.71.15-1.3.45-1.77.32-.51.66-.81,1.44-1.32-.53-.33-.75-.51-.97-.79-.41-.48-.6-1.08-.6-1.83,0-1.77,1.23-2.97,3.09-2.97,1.17,0,2.15.51,2.67,1.4.27.43.39.96.39,1.63s-.23,1.32-.62,1.8c-.24.29-.46.46-1,.79,1.35.67,1.93,1.58,1.93,2.96ZM286.8,288.84c-.33.38-.48.81-.48,1.38,0,1.18.62,1.9,1.63,1.9s1.7-.75,1.7-1.9c0-.56-.14-.93-.48-1.31-.21-.24-.4-.4-.71-.57-.12-.08-.54-.3-.54-.3-.61.31-.88.51-1.12.79ZM289.04,285.77c.22-.32.33-.67.33-1.14,0-.96-.54-1.58-1.38-1.58s-1.4.62-1.4,1.62c0,.54.18.97.56,1.27.27.23.87.58.93.56.55-.29.74-.42.96-.74Z"/>
        <path d="M297.74,289.28h1.25v1.39h-1.25v2.66h-1.51v-2.66h-3.96v-1.21l3.58-7.62h1.89v7.44ZM296.25,286.89c.01-1.02.06-1.68.22-3.57h-.15c-.57,1.58-.85,2.31-1.08,2.81l-1.43,3.15h2.4l.03-2.38Z"/>
        <path d="M306.51,292.46c0,.88.02,1.35.08,1.67h-1.79c.06-.46.09-.97.09-1.74v-9.4c0-.62-.01-.99-.06-1.39.46.04.84.06,1.62.06h8.73c.78,0,1.23-.01,1.58-.06-.04.4-.06.79-.06,1.57v9.24c0,.73-.18,1.14-.58,1.35-.27.15-.75.21-1.51.21-.53,0-1.35-.03-1.92-.06-.08-.57-.18-.98-.43-1.56.96.11,1.66.17,2.19.17.55,0,.64-.04.64-.39v-3.52h-8.56v3.87ZM309.92,283.17h-3.41v3.9h3.41v-3.9ZM315.08,287.07v-3.9h-3.6v3.9h3.6Z"/>
      </g>
      <g>
        <path d="M51.06,261.31l-2.28.38-.04-1.58,4.12-.6-.02,1.02v9.88h-1.78v-9.1Z"/>
        <path d="M56.55,270.43c-.78-.05-1.35-.42-1.35-1.05s.51-1.11,1.17-1.11c.94,0,1.6.76,1.6,1.88s-.81,2.42-1.79,3.15h-1.39c.96-.79,1.86-1.98,1.75-2.86Z"/>
        <path d="M59.07,265.18c0-3.55,1.63-5.67,4.18-5.67s3.97,1.89,3.97,5.37-1.58,5.64-4.15,5.64-4-1.91-4-5.34ZM65.35,265.06c0-2.83-.72-3.96-2.23-3.96-1.38,0-2.19,1.3-2.19,3.92s.79,3.93,2.27,3.93c1.36,0,2.16-1.28,2.16-3.88Z"/>
        <path d="M68.22,265.18c0-3.55,1.63-5.67,4.18-5.67s3.97,1.89,3.97,5.37-1.58,5.64-4.15,5.64-4-1.91-4-5.34ZM74.5,265.06c0-2.83-.72-3.96-2.23-3.96-1.38,0-2.19,1.3-2.19,3.92s.79,3.93,2.27,3.93c1.36,0,2.16-1.28,2.16-3.88Z"/>
        <path d="M77.37,265.18c0-3.55,1.63-5.67,4.18-5.67s3.97,1.89,3.97,5.37-1.58,5.64-4.15,5.64-4-1.91-4-5.34ZM83.65,265.06c0-2.83-.72-3.96-2.23-3.96-1.38,0-2.19,1.3-2.19,3.92s.79,3.93,2.27,3.93c1.36,0,2.16-1.28,2.16-3.88Z"/>
        <path d="M91.36,259.17h11.25v10.44c0,1.11-.4,1.48-1.56,1.48-.67,0-1.54-.04-2.4-.12l-.3-1.53c.74.1,1.61.18,2.18.18.46,0,.58-.13.58-.54v-3.38h-8.25v5.52h-1.5v-12.06ZM96.21,264.4v-3.92h-3.34v3.92h3.34ZM101.11,264.4v-3.92h-3.44v3.92h3.44Z"/>
      </g>
      <g>
        <path d="M66.41,286.65c-.54,0-1,.42-1.2,1.86h-1.42c.22-2.42,1.42-3.34,2.62-3.34,1.89,0,2.1,1.98,3.13,1.98.51,0,1.06-.31,1.21-1.86h1.44c-.22,2.22-1.26,3.34-2.61,3.34-1.88,0-2.12-1.98-3.18-1.98Z"/>
        <path d="M76.66,290.77c3.48-2.67,5.11-4.42,5.11-6.19,0-1.32-.81-1.89-1.98-1.89-1.04,0-1.96.42-2.75,1.09l-.08-1.67c.79-.58,1.95-1,3.24-1,2.1,0,3.4,1.17,3.4,3.18s-1.45,3.87-4.39,6.21h4.5v1.51h-7.06v-1.25Z"/>
        <path d="M86.45,292.03c-.78-.05-1.35-.42-1.35-1.05s.51-1.11,1.17-1.11c.94,0,1.6.76,1.6,1.88s-.81,2.42-1.79,3.15h-1.39c.96-.79,1.86-1.98,1.75-2.86Z"/>
        <path d="M88.97,286.78c0-3.55,1.63-5.67,4.18-5.67s3.97,1.89,3.97,5.37-1.58,5.64-4.15,5.64-4-1.91-4-5.34ZM95.26,286.66c0-2.83-.72-3.96-2.23-3.96-1.38,0-2.19,1.3-2.19,3.92s.79,3.93,2.27,3.93c1.36,0,2.16-1.28,2.16-3.88Z"/>
        <path d="M98.12,286.78c0-3.55,1.63-5.67,4.18-5.67s3.97,1.89,3.97,5.37-1.58,5.64-4.15,5.64-4-1.91-4-5.34ZM104.41,286.66c0-2.83-.72-3.96-2.23-3.96-1.38,0-2.19,1.3-2.19,3.92s.79,3.93,2.27,3.93c1.36,0,2.16-1.28,2.16-3.88Z"/>
        <path d="M107.27,286.78c0-3.55,1.63-5.67,4.18-5.67s3.97,1.89,3.97,5.37-1.58,5.64-4.15,5.64-4-1.91-4-5.34ZM113.56,286.66c0-2.83-.72-3.96-2.23-3.96-1.38,0-2.19,1.3-2.19,3.92s.79,3.93,2.27,3.93c1.36,0,2.16-1.28,2.16-3.88Z"/>
        <path d="M121.27,280.77h11.25v10.44c0,1.11-.4,1.48-1.56,1.48-.67,0-1.54-.04-2.4-.12l-.3-1.53c.74.1,1.61.18,2.18.18.46,0,.58-.13.58-.54v-3.38h-8.25v5.52h-1.5v-12.06ZM126.11,286v-3.92h-3.34v3.92h3.34ZM131.02,286v-3.92h-3.44v3.92h3.44Z"/>
      </g>
      <rect class="cls-3" x="29.55" y="316.52" width="119.19" height="68.4"/>
      <rect class="cls-3" x="154.05" y="316.52" width="178.75" height="68.4"/>
      <g>
        <path d="M178.56,341.64c2.73,0,5.01-.04,6.09-.13.17-.01.27-.01.33-.01.09,0,.14.01.18.03.1.06.13.32.13,1.14,0,.76-.03.84-.29.84t-.25-.02c-.79-.07-1.71-.09-3.64-.09-4.14,0-6.11.04-7.02.18-.15.03-.21.03-.27.03-.34,0-.41-.27-.52-2.07,1.21.07,2.68.1,5.26.1ZM179.03,335.19c2.01,0,3.17-.04,4.02-.15.09-.01.11-.01.17-.01.17,0,.22.04.25.25.02.12.03.64.03,1.06,0,.51-.04.63-.24.63-.06,0-.13,0-.25-.01-.3-.01-2.49-.03-4.23-.03-1.16,0-1.94.02-2.76.08-.2.02-.44.03-.47.03-.18,0-.28-.08-.34-.22-.08-.21-.15-1.1-.15-1.8.91.14,1.87.18,3.97.18Z"/>
        <path d="M191.15,340.33c-.24-.55-.73-1.5-.93-1.79-.3-.43-.34-.51-.34-.6,0-.12.17-.27.57-.5.46-.27.53-.3.62-.29.13.01.33.24.69.81.49.75.94,1.6.94,1.78,0,.11-.1.21-.4.39-.35.21-.83.43-.92.43s-.15-.06-.23-.25ZM199.31,337.78c0,.06-.03.12-.09.2-.15.19-.24.34-.44.76-1.08,2.4-1.79,3.51-2.98,4.72-.89.88-2.28,1.92-2.6,1.92-.09,0-.17-.03-.25-.12-.27-.29-.69-.6-1.17-.87,2.27-1.2,3.53-2.42,4.58-4.36.58-1.11.97-2.28,1.04-3.15,1.25.35,1.92.67,1.92.9ZM195.45,339.1c0,.09-.69.51-1.11.68-.09.03-.15.04-.15.06-.04.01-.08.03-.09.03-.08,0-.15-.08-.2-.23-.21-.63-.63-1.5-1.09-2.26t-.04-.15c0-.11.12-.2.57-.44.55-.3.58-.31.67-.31.08,0,.1.03.21.13.21.29.85,1.42.97,1.75.09.25.15.43.2.5.04.04.06.09.06.1v.09s0,.04,0,.04Z"/>
        <path d="M206.27,336.4c0-1.67-.06-2.54-.18-3.01q.27.01.86.04c.18,0,.99.13,1.09.17.1.04.15.1.15.19q0,.08-.09.39c-.07.21-.09.52-.12,2.22.38,0,1.49,0,3.35-.02,0-1.71-.05-2.38-.17-3.1.81.04,1.26.09,1.69.17.32.04.41.11.41.24,0,.1-.01.15-.11.39-.04.11-.09.57-.1,1.05v1.25c1.51-.03,2.08-.04,2.54-.09.06-.01.1-.01.15-.01.08,0,.13.03.17.07.04.09.08.45.08.93,0,.71-.03.78-.25.78t-.36-.03c-.51-.04-.63-.04-2.34-.04-.09,2.25-.39,3.45-1.14,4.65-.65,1.04-1.49,1.8-2.64,2.45-.41.22-.95.43-1.1.43-.13,0-.15-.01-.46-.34-.33-.36-.54-.51-1-.79,2.16-.78,3.29-1.67,3.97-3.12.42-.9.6-1.79.66-3.29h-.97c-.13,0-.55,0-1.17.02-.27.01-.67.01-1.21.03q0,1.07.03,2.42v.2c0,.21-.04.29-.21.34-.18.04-.64.09-1,.09-.52,0-.6-.04-.6-.31v-.23c.06-1.36.08-1.6.09-2.47-.78.01-2.16.1-2.52.17-.03.01-.06.01-.09.01-.12,0-.2-.06-.23-.19-.08-.26-.15-.98-.18-1.73.76.09,1.2.11,2.44.11h.58Z"/>
        <path d="M230.54,337.17c.08.15.1.25.1.34,0,.15-.06.25-.25.53-.82,1.08-1.71,1.95-3.04,2.98-1.5,1.17-2.77,1.95-4.57,2.81-1.16.54-1.21.57-1.4.73-.12.12-.18.15-.27.15-.13,0-.25-.12-.48-.45-.3-.45-.58-1.06-.75-1.59,1.52-.34,3.33-1.16,5.08-2.26,2.31-1.46,3.76-2.9,4.89-4.86.17.56.3.86.69,1.62ZM220.55,334.65c.25-.29.36-.36.49-.36.29.01,1.41.74,2.34,1.49.57.46.75.66.75.81,0,.11-.27.51-.63.92-.33.38-.49.51-.61.51q-.11,0-.72-.58c-.39-.38-1.17-1-1.56-1.25q-.53-.34-.63-.4c-.06-.04-.09-.09-.09-.14,0-.13.29-.55.66-.99Z"/>
        <path d="M241.14,336.15c0,.66-.53,1.18-1.18,1.18s-1.19-.52-1.19-1.18.53-1.19,1.19-1.19,1.18.53,1.18,1.19ZM241.14,342.37c0,.66-.53,1.18-1.18,1.18s-1.19-.52-1.19-1.18.53-1.19,1.19-1.19,1.18.53,1.18,1.19Z"/>
        <path d="M250.52,340.9c-.12,1.81-.32,3-.72,4.27l-1.27-.6c.41-1.23.58-2.24.69-3.87l1.31.2ZM248.6,338.73c.21.03.33.04.61.04.11,0,.24,0,.57-.02.46-.55.55-.67.84-1.05-.75-.96-.93-1.16-1.96-2.13l.83-1.2c.2.25.27.33.42.5.54-.81,1.05-1.8,1.18-2.33l1.38.56c-.09.13-.15.24-.3.52-.33.65-.99,1.74-1.35,2.22.29.3.34.38.62.72.97-1.42,1.36-2.07,1.54-2.54l1.33.76c-.14.17-.24.3-.48.66-.83,1.21-1.77,2.49-2.43,3.24q.85-.04,1.65-.12c-.13-.38-.21-.53-.42-.99l1.08-.43c.36.73.75,1.69,1.14,2.82l-1.22.5c-.07-.33-.1-.45-.16-.67-.29.03-.62.06-1.02.11v4.54c0,.69.03,1.1.09,1.53h-1.59c.08-.43.09-.81.09-1.54v-4.41c-1.71.14-2.07.17-2.28.2l-.17-1.48ZM254.16,340.62c.32,1.26.54,2.46.71,3.67l-1.32.31c-.09-1.11-.31-2.56-.54-3.69l1.16-.3ZM256.56,336.24c-.5,1.04-.75,1.44-1.44,2.28-.29-.45-.6-.78-1.14-1.17.72-.82,1.32-1.84,1.69-2.86.27-.72.45-1.35.53-1.82l1.62.29c-.08.18-.08.2-.21.58-.18.63-.23.75-.41,1.21h3.13c.6,0,.88-.01,1.18-.06q-.06.46-.07,2.5c-.02,1.65-.17,4.15-.33,5.34-.23,1.67-.5,2.44-.96,2.82-.34.25-.88.38-1.84.38-.42,0-.74-.01-1.33-.06-.09-.63-.18-1-.41-1.61.72.12,1.39.18,1.88.18.64,0,.81-.18.99-1.07.28-1.41.45-3.99.46-6.94h-3.34ZM257.22,342.25c-.58-1.74-.88-2.42-1.62-3.64l1.24-.69c.84,1.33,1.23,2.13,1.77,3.62l-1.4.72Z"/>
        <path d="M268.74,338.22c.25.02.94.03,1.08.03,1.07,0,1.64-.62,1.64-1.75,0-1.05-.5-1.68-1.35-1.68-.46,0-.83.18-1.09.57-.13.2-.22.41-.41.89l-1.53-.78c.63-1.49,1.6-2.16,3.09-2.16,1.86,0,3.06,1.19,3.06,3.03,0,.81-.24,1.47-.72,2-.21.22-.38.34-.77.55.47.19.66.31.9.54.54.52.79,1.25.79,2.22,0,2.16-1.29,3.54-3.33,3.54-.97,0-1.81-.32-2.42-.92-.4-.41-.66-.84-.93-1.61l1.61-.75c.19.62.33.92.52,1.19.3.39.72.6,1.21.6.96,0,1.54-.78,1.54-2.07s-.6-1.98-1.88-1.98c-.13,0-.3,0-.52.01q-.13,0-.51.02v-1.49Z"/>
        <path d="M280.59,343.47c-.5,1.14-1.42,1.74-2.68,1.74-2.29,0-3.32-1.86-3.32-6.04,0-1.72.21-3.13.62-4.05.54-1.23,1.37-1.79,2.68-1.79,1.41,0,2.29.63,2.82,2.03.33.9.51,2.2.51,3.85,0,1.98-.19,3.3-.63,4.26ZM279.06,342.67c.22-.76.33-1.79.33-3.24,0-1.69-.18-3.19-.46-3.85-.22-.51-.55-.75-1.02-.75-.51,0-.81.24-1.05.83-.27.63-.42,1.9-.42,3.4,0,3.41.39,4.65,1.45,4.65.57,0,.96-.34,1.17-1.04Z"/>
        <path d="M283.41,343.08c.71.48,1.12.63,1.74.63.74,0,1.32-.5,1.63-1.41.2-.58.32-1.35.32-2.13-.55.6-1.09.87-1.77.87-.81,0-1.65-.36-2.19-.93-.6-.63-.93-1.64-.93-2.81,0-2.41,1.27-3.97,3.22-3.97,1.18,0,2,.45,2.59,1.44.54.9.79,2.25.79,4.24,0,4.23-1.2,6.2-3.79,6.2-.9,0-1.63-.21-2.4-.67l.78-1.46ZM286.82,336.07c-.24-.87-.67-1.28-1.35-1.28-.96,0-1.52.89-1.52,2.45,0,.57.11,1.14.27,1.49.24.49.76.82,1.32.82.33,0,.65-.12.93-.34.12-.12.24-.24.34-.36.15-.22.25-.38.25-.39,0-1.02-.08-1.72-.25-2.38Z"/>
        <path d="M296.43,344.14c0,.88.02,1.35.08,1.67h-1.79c.06-.46.09-.97.09-1.74v-9.4c0-.62-.01-.99-.06-1.39.46.04.84.06,1.62.06h8.73c.78,0,1.23-.01,1.58-.06-.04.4-.06.79-.06,1.57v9.24c0,.73-.18,1.14-.58,1.35-.27.15-.75.21-1.51.21-.53,0-1.35-.03-1.92-.06-.08-.57-.18-.98-.43-1.56.96.11,1.66.17,2.19.17.55,0,.64-.04.64-.39v-3.52h-8.56v3.87ZM299.84,334.86h-3.41v3.9h3.41v-3.9ZM305,338.76v-3.9h-3.6v3.9h3.6Z"/>
        <path d="M176.99,361.55q-.2.42-.48,1.25c-.42-.66-.6-1-.78-1.54,0,.12.01.22.01.29.04.55.06.87.06,1.41v3.97c0,.76.01,1.27.07,1.68h-1.6c.08-.46.1-1.05.1-1.77v-2.94c0-.43.02-1.02.08-1.77-.3,1.12-.72,2.17-1.23,3.03-.23-.57-.46-.96-.84-1.39.49-.71.76-1.18,1.17-2.19.28-.72.54-1.57.7-2.35h-.46c-.36,0-.64.01-.96.08v-1.53c.27.04.56.06.96.06h.57v-1.07c0-.75-.03-1.12-.09-1.48h1.6c-.06.4-.07.81-.07,1.48v1.07c.4,0,.6-.02.87-.04v1.51c-.12-.06-.27-.08-.85-.08.33.96.57,1.39,1.17,2.16v-1.59c0-.24-.01-.44-.04-.67.27.01.46.03.75.03h1c.29-.48.72-1.41.92-1.95h-1.4c-.69,0-1.24.03-1.63.07v-1.51c.41.06.92.09,1.65.09h5.97c.79,0,1.26-.03,1.67-.09v1.51c-.44-.04-.98-.07-1.67-.07h-3.01c-.2.48-.29.66-.48,1.09h.39c.6,0,.83-.02,1.04-.04q-.03.43-.08,2.22c-.06,2.12-.21,3.73-.4,4.65.78-.64,1.03-.93,1.5-1.69-.38-.75-.57-1.29-.98-2.64l1.07-.66c.27,1,.42,1.45.61,1.89.23-.71.33-1.16.45-2.03h-1.21c-.31,0-.48.02-.71.04v-1.41c.29.04.53.06,1.02.06h1.02c.32,0,.58-.01.79-.04l.57.76c-.57,2.58-.71,3.04-1.17,4,.51.69.69.89,1.54,1.58-.38.41-.58.76-.76,1.29-.69-.62-1.07-1-1.5-1.62-.54.78-.69.95-1.47,1.67-.22-.46-.4-.72-.81-1.14-.17.64-.32.9-.64,1.08-.23.13-.54.18-1.12.18q-.27,0-.95-.04c-.08-.63-.13-.9-.34-1.4.66.12,1.02.17,1.32.17.44,0,.46-.06.62-1.24.17-1.23.22-2.39.24-4.37h-.81v4.48c0,.24,0,.29.03.65-.3-.02-.5-.03-.71-.03h-1.6c-.32,0-.51.01-.71.04.03-.34.04-.52.04-1.09v-2.04ZM176.34,366.64c.42.06.87.09,1.58.09h6.42c.74,0,1.25-.03,1.63-.09v1.53c-.45-.04-.96-.08-1.67-.08h-6.42c-.7,0-1.11.01-1.54.08v-1.53ZM178.11,363.4h.71v-3.03h-.71v3.03Z"/>
        <path d="M192.89,362.33c-.42,0-.78.01-1.11.04.03-.32.04-.66.04-1.2v-3.38c0-.6,0-.75-.04-1.17.38.04.53.04,1.14.04h.45c.24-.54.36-.92.48-1.47l1.6.18c-.29.66-.46,1.08-.55,1.29h1.2c.6,0,.71,0,1.11-.04-.04.38-.04.51-.04,1.19v3.34c0,.63.02.93.04,1.21-.33-.03-.66-.04-1.08-.04h-.89v.94h3.87c.86,0,1.35-.03,1.72-.09v1.56c-.43-.06-.94-.09-1.74-.09h-2.79c.88.68,1.35.96,2.08,1.31.96.43,1.62.66,2.85.93-.38.5-.6.87-.88,1.47-1.37-.42-1.89-.63-2.75-1.12-1-.58-1.8-1.23-2.42-1.92q0,.17.02.39c0,.06.01.51.01.55v.84c0,.72.01.97.1,1.47h-1.77c.08-.48.11-.85.11-1.48v-.81c0-.29,0-.46.03-.94-.79.85-1.33,1.29-2.19,1.78-.79.48-1.73.89-2.76,1.23-.29-.57-.51-.92-.95-1.4,1.98-.49,3.6-1.29,4.71-2.29h-2.61c-.75,0-1.29.03-1.72.09v-1.56c.39.06.97.09,1.71.09h3.76v-.94h-.76ZM191.63,360.8c-.84.55-1.38.87-2.59,1.46q-.26.13-.58.3l-.56-1.44c.92-.25,2.03-.78,3.36-1.64l.38,1.32ZM189.29,356.05c.79.63,1.36,1.17,2.19,2.08l-1.05,1.09c-.74-.92-1.39-1.57-2.19-2.19l1.05-.99ZM193.25,358.87h2.49v-.93h-2.49v.93ZM193.25,361.08h2.49v-1h-2.49v1ZM198.11,359.54c1.42.72,2.19,1.16,3.08,1.72l-.84,1.25c-1.06-.78-1.93-1.32-3.03-1.86l.79-1.11ZM200.87,357.05c-1.06,1.11-1.72,1.73-2.46,2.29l-.99-1.06c1.08-.84,1.56-1.32,2.28-2.25l1.17,1.02Z"/>
        <path d="M203.84,358.92c1.21.75,1.58,1,2.57,1.8l-.9,1.3c-.92-.85-1.42-1.25-2.55-1.92l.88-1.18ZM211.32,364.03c-.3.66-.86,1.37-1.53,1.96-.74.66-1.39,1.07-2.5,1.58-.22-.41-.57-.83-.93-1.12,1.67-.61,2.79-1.41,3.43-2.42h-.93c-.6.58-1.07.92-2.01,1.46-.3-.45-.51-.72-.82-1.02-.41,1.3-.77,2.25-1.28,3.25-.17.36-.19.42-.33.69l-1.42-1.17c.2-.21.42-.57.71-1.11.48-.92.81-1.82,1.2-3.29l1.35.88-.2.6c1.29-.63,2.13-1.31,2.62-2.1h-.75c-.58,0-1.05.03-1.42.08v-1.44c.34.04.6.06,1.35.06h6.91c.69,0,1.14-.03,1.52-.09v1.47c-.39-.04-.89-.08-1.5-.08h-4.56c-.13.24-.19.35-.38.6h4.77c.71,0,.97-.02,1.29-.04q-.02.09-.09,1.59c-.09,1.77-.25,2.83-.52,3.36-.27.51-.72.67-1.8.67-.48,0-.83-.01-1.25-.06-.08-.54-.18-.9-.41-1.38-.78.76-1.21,1.09-2.22,1.65-.43-.55-.57-.69-1.07-1.06.89-.38,1.62-.86,2.29-1.5.65-.6,1.05-1.18,1.41-2.03h-.94ZM204.41,355.27c1.06.67,1.67,1.12,2.56,1.93l-.99,1.25c-.89-.89-1.47-1.35-2.52-2.01l.95-1.17ZM208.91,360.34c-.57,0-1.04.01-1.31.04.03-.43.05-.88.05-1.38v-2.08c0-.62-.02-.84-.06-1.3.41.06.78.08,1.46.08h4.46c.71,0,1.12-.02,1.54-.08-.04.43-.06.72-.06,1.42v1.96c0,.6.02.97.06,1.38-.36-.03-.78-.04-1.31-.04h-4.83ZM209.09,357.52h4.44v-.58h-4.44v.58ZM209.09,359.21h4.44v-.63h-4.44v.63ZM213.69,364.03c-.42,1.19-.9,1.98-1.75,2.85.63.1,1.12.15,1.53.15s.55-.15.67-.76c.11-.65.2-1.47.21-2.24h-.66Z"/>
        <path d="M224.06,367.69h-1.96v-11.68h1.96v4.7h4.72v-4.7h1.96v11.68h-1.96v-5.32h-4.72v5.32Z"/>
        <path d="M236.39,356c1.67,0,2.96.45,3.84,1.33.96.97,1.49,2.55,1.49,4.49s-.62,3.67-1.74,4.68c-.87.79-2.04,1.18-3.52,1.18h-3.5v-11.68h3.43ZM234.86,366.07h1.46c1.16,0,2.06-.36,2.61-1.06.54-.69.79-1.74.79-3.25,0-2.82-1.09-4.12-3.43-4.12h-1.43v8.44Z"/>
        <path d="M251.22,358.83c0,.66-.53,1.18-1.18,1.18s-1.19-.53-1.19-1.18.53-1.19,1.19-1.19,1.18.53,1.18,1.19ZM251.22,365.05c0,.66-.53,1.18-1.18,1.18s-1.19-.52-1.19-1.18.53-1.19,1.19-1.19,1.18.53,1.18,1.19Z"/>
        <path d="M260.6,363.58c-.12,1.81-.32,3-.72,4.27l-1.27-.6c.41-1.23.58-2.24.69-3.87l1.31.2ZM258.68,361.4c.21.03.33.05.61.05.11,0,.24,0,.57-.02.46-.55.55-.67.84-1.05-.75-.96-.93-1.16-1.96-2.13l.83-1.2c.2.25.27.33.42.5.54-.81,1.05-1.8,1.18-2.33l1.38.56c-.09.13-.15.24-.3.52-.33.65-.99,1.74-1.35,2.22.29.3.34.37.62.72.97-1.42,1.36-2.07,1.54-2.54l1.33.76c-.14.17-.24.3-.48.66-.83,1.21-1.77,2.49-2.43,3.24q.85-.04,1.65-.12c-.13-.38-.21-.53-.42-.99l1.08-.43c.36.73.75,1.69,1.14,2.82l-1.22.5c-.07-.33-.1-.45-.16-.67-.29.03-.62.06-1.02.11v4.54c0,.69.03,1.1.09,1.53h-1.59c.08-.43.09-.81.09-1.54v-4.41c-1.71.14-2.07.17-2.28.2l-.17-1.49ZM264.24,363.29c.32,1.26.54,2.46.71,3.67l-1.32.31c-.09-1.11-.31-2.56-.54-3.69l1.16-.3ZM266.64,358.92c-.5,1.04-.75,1.44-1.44,2.28-.29-.45-.6-.78-1.14-1.17.72-.82,1.32-1.84,1.69-2.86.27-.72.45-1.35.53-1.82l1.62.29c-.08.18-.08.2-.21.58-.18.63-.23.75-.41,1.21h3.13c.6,0,.88-.01,1.18-.06q-.06.46-.07,2.5c-.02,1.65-.17,4.15-.33,5.34-.23,1.67-.5,2.44-.96,2.82-.34.25-.88.38-1.84.38-.42,0-.74-.01-1.33-.06-.09-.63-.18-1-.41-1.61.72.12,1.39.18,1.88.18.64,0,.81-.18.99-1.07.28-1.41.45-3.99.46-6.94h-3.34ZM267.3,364.93c-.58-1.74-.88-2.42-1.62-3.64l1.24-.69c.84,1.33,1.23,2.13,1.77,3.62l-1.4.72Z"/>
        <path d="M282.44,363.64h1.25v1.39h-1.25v2.66h-1.51v-2.66h-3.96v-1.21l3.58-7.62h1.89v7.44ZM280.95,361.25c.01-1.02.06-1.68.22-3.57h-.15c-.57,1.58-.85,2.31-1.08,2.81l-1.42,3.15h2.4l.03-2.38Z"/>
        <path d="M291.38,364.58c0,1.98-1.35,3.3-3.38,3.3s-3.4-1.26-3.4-3.2c0-.71.15-1.3.45-1.77.32-.51.66-.81,1.44-1.32-.53-.33-.75-.51-.97-.79-.41-.48-.6-1.08-.6-1.83,0-1.77,1.23-2.97,3.09-2.97,1.17,0,2.15.51,2.67,1.4.27.43.39.96.39,1.63s-.23,1.32-.62,1.8c-.24.29-.46.46-1,.79,1.35.67,1.93,1.58,1.93,2.96ZM286.8,363.21c-.33.38-.48.81-.48,1.38,0,1.18.62,1.9,1.63,1.9s1.7-.75,1.7-1.9c0-.56-.14-.93-.48-1.31-.21-.24-.4-.4-.71-.57-.12-.08-.54-.3-.54-.3-.61.31-.88.51-1.12.79ZM289.04,360.13c.22-.32.33-.67.33-1.14,0-.96-.54-1.58-1.38-1.58s-1.4.62-1.4,1.62c0,.54.18.97.56,1.27.27.23.87.58.93.56.55-.29.74-.42.96-.74Z"/>
        <path d="M297.74,363.64h1.25v1.39h-1.25v2.66h-1.51v-2.66h-3.96v-1.21l3.58-7.62h1.89v7.44ZM296.25,361.25c.01-1.02.06-1.68.22-3.57h-.15c-.57,1.58-.85,2.31-1.08,2.81l-1.43,3.15h2.4l.03-2.38Z"/>
        <path d="M306.51,366.82c0,.88.02,1.35.08,1.67h-1.79c.06-.46.09-.97.09-1.74v-9.4c0-.62-.01-.99-.06-1.39.46.04.84.06,1.62.06h8.73c.78,0,1.23-.01,1.58-.06-.04.4-.06.79-.06,1.57v9.24c0,.73-.18,1.14-.58,1.35-.27.15-.75.21-1.51.21-.53,0-1.35-.03-1.92-.06-.08-.57-.18-.98-.43-1.56.96.11,1.66.17,2.19.17.55,0,.64-.04.64-.39v-3.52h-8.56v3.87ZM309.92,357.54h-3.41v3.9h3.41v-3.9ZM315.08,361.43v-3.9h-3.6v3.9h3.6Z"/>
      </g>
      <g>
        <path d="M58.1,352.26c-.54,0-1,.42-1.2,1.86h-1.42c.22-2.42,1.42-3.34,2.62-3.34,1.89,0,2.1,1.98,3.13,1.98.51,0,1.06-.31,1.21-1.86h1.44c-.22,2.22-1.26,3.34-2.61,3.34-1.88,0-2.12-1.98-3.18-1.98Z"/>
        <path d="M70.22,348.52l-2.28.38-.04-1.58,4.12-.6-.02,1.02v9.88h-1.78v-9.1Z"/>
        <path d="M75.71,357.64c-.78-.05-1.35-.42-1.35-1.05s.51-1.11,1.17-1.11c.94,0,1.6.76,1.6,1.88s-.81,2.42-1.79,3.15h-1.39c.96-.79,1.86-1.98,1.75-2.86Z"/>
        <path d="M78.23,352.39c0-3.55,1.63-5.67,4.18-5.67s3.97,1.89,3.97,5.37-1.58,5.64-4.15,5.64-4-1.91-4-5.34ZM84.51,352.27c0-2.83-.72-3.96-2.23-3.96-1.38,0-2.19,1.3-2.19,3.92s.79,3.93,2.27,3.93c1.36,0,2.16-1.28,2.16-3.88Z"/>
        <path d="M87.38,352.39c0-3.55,1.63-5.67,4.18-5.67s3.97,1.89,3.97,5.37-1.58,5.64-4.15,5.64-4-1.91-4-5.34ZM93.66,352.27c0-2.83-.72-3.96-2.23-3.96-1.38,0-2.19,1.3-2.19,3.92s.79,3.93,2.27,3.93c1.36,0,2.16-1.28,2.16-3.88Z"/>
        <path d="M96.53,352.39c0-3.55,1.63-5.67,4.18-5.67s3.97,1.89,3.97,5.37-1.58,5.64-4.15,5.64-4-1.91-4-5.34ZM102.81,352.27c0-2.83-.72-3.96-2.23-3.96-1.38,0-2.19,1.3-2.19,3.92s.79,3.93,2.27,3.93c1.36,0,2.16-1.28,2.16-3.88Z"/>
        <path d="M110.52,346.38h11.25v10.44c0,1.11-.4,1.48-1.56,1.48-.67,0-1.54-.04-2.4-.12l-.3-1.53c.74.1,1.61.18,2.18.18.46,0,.58-.13.58-.54v-3.38h-8.25v5.52h-1.5v-12.06ZM115.36,351.61v-3.92h-3.34v3.92h3.34ZM120.27,351.61v-3.92h-3.44v3.92h3.44Z"/>
      </g>
    </g>
  </g>
</svg>