<?xml version="1.0" encoding="UTF-8"?>
<svg id="_レイヤー_2" data-name="レイヤー 2" xmlns="http://www.w3.org/2000/svg" width="339.66" height="283.65" viewBox="0 0 339.66 283.65">
  <defs>
    <style>
      .cls-1 {
        fill: #211815;
      }

      .cls-2 {
        fill: #f5f19b;
      }

      .cls-3 {
        fill: #ecbb6e;
      }

      .cls-4 {
        fill: #93c9ce;
      }

      .cls-5 {
        fill: #5c948d;
      }

      .cls-6, .cls-7 {
        fill: #fff;
      }

      .cls-8 {
        fill: #de8a4c;
      }

      .cls-9 {
        fill: #fffb99;
      }

      .cls-10 {
        fill: #ceeaeb;
      }

      .cls-11 {
        fill: #f2d496;
      }

      .cls-7 {
        stroke: #ceeaeb;
        stroke-miterlimit: 10;
        stroke-width: 2.83px;
      }
    </style>
  </defs>
  <g id="_レイヤー_1-2" data-name="レイヤー 1">
    <g>
      <path class="cls-7" d="M329.77,1.42H90.4c-4.68,0-8.47,3.79-8.47,8.47v125.14s-9.69,9.69-9.69,9.69h9.69v.5c0,4.68,3.79,8.47,8.47,8.47h239.38c4.68,0,8.47-3.79,8.47-8.47V9.89c0-4.68-3.79-8.47-8.47-8.47Z"/>
      <circle class="cls-10" cx="308.24" cy="253.65" r="30"/>
      <path class="cls-9" d="M310.42,271.08c1.36-.08,2.67-.26,3.94-.54,9.94-2.19,10.3-7.26,10.17-11.48-.13-4.22-1.05-19.35-13.24-20.18-12.19-.82-15.33,8.87-17.69,12.02-2.36,3.15-10.95,12.98,5.17,18.47,1.57.54,3.13.95,4.67,1.23"/>
      <path class="cls-3" d="M312.08,264.87c-.68-1.85-3.68-3.84-5.2-3.62s-4.74,2.07-5.75,2.02-1.7-.74-1.81,1.6,1.71,3.54,4.16,2.68c3.4,1.94,9.76.49,8.6-2.68Z"/>
      <path class="cls-3" d="M312.08,267.27c-.76,3.71-4.97,5.89-6.25,5.34-1.27-.55-2.88-1.43-1.48-4.66,2.52.54,6.97-.12,7.09-1.65.12-1.53.64.97.64.97Z"/>
      <path class="cls-8" d="M305.6,268.28c-.73,1.36-.38,3.09,1.85,2.01s2.23-2.31,2.23-2.31c0,0,1.46-.73-.49,0-1.95.73-3.58.3-3.58.3Z"/>
      <polygon class="cls-5" points="322.53 235.29 316.36 234.71 319.11 240.26 325.4 240.94 322.53 235.29"/>
      <rect class="cls-5" x="315.77" y="238.42" width="6.72" height="2.92" transform="translate(218.4 -146.44) rotate(38.45)"/>
      <path class="cls-11" d="M289.91,256.8c5.1.33,8.05,5.73,6.16,11.51-4.98-2.71-7.76-5.46-6.16-11.51Z"/>
      <path class="cls-11" d="M324.02,258.96c-5.89-.81-10.4,4.26-9.48,10.84,6.25-1.75,10.01-4.04,9.48-10.84Z"/>
      <ellipse class="cls-1" cx="302.07" cy="259.14" rx="1.85" ry="1.71" transform="translate(-.91 517.22) rotate(-81.05)"/>
      <ellipse class="cls-1" cx="312.29" cy="260.2" rx="1.71" ry="1.85" transform="translate(-12.75 16.11) rotate(-2.9)"/>
      <path class="cls-1" d="M301.9,249.38c1.67-.68,3.18-.04,3.88,1.27.17.3-.14.57-.47.4-1.05-.53-2.08-.79-3.21-1.01-.38-.07-.52-.54-.2-.67Z"/>
      <path class="cls-1" d="M315.18,251.93c-1.24-1.31-2.87-1.35-4.06-.46-.28.21-.11.58.26.56,1.18-.05,2.22.15,3.34.42.37.09.69-.27.46-.52Z"/>
      <path class="cls-1" d="M310.42,271.71c-.33,0-.61-.26-.63-.59-.02-.35.25-.65.59-.67,1.31-.08,2.6-.25,3.84-.53,9.95-2.2,9.78-7.4,9.68-10.85-.13-4.34-.82-8.09-2.05-11.15-2.11-5.25-5.67-8.08-10.6-8.42-9.76-.66-13.4,5.55-15.82,9.66-.49.83-.91,1.55-1.33,2.11-.12.16-.25.33-.39.51-1.68,2.19-4.81,6.26-3.62,10.16.85,2.81,3.84,5.1,8.88,6.82,1.52.52,3.06.93,4.58,1.21.34.06.57.39.5.74-.06.34-.39.57-.74.5-1.58-.3-3.17-.72-4.75-1.26-5.45-1.86-8.71-4.43-9.68-7.65-1.37-4.52,2.14-9.1,3.83-11.3.14-.18.27-.35.38-.5.37-.5.78-1.19,1.25-1.99,2.41-4.11,6.45-10.99,16.99-10.28,5.45.37,9.38,3.47,11.68,9.21,1.28,3.2,2,7.09,2.14,11.58.15,4.69-.55,9.88-10.67,12.12-1.3.29-2.66.47-4.04.55-.01,0-.02,0-.04,0Z"/>
      <path class="cls-1" d="M301.13,258.52c-.07,0-.14-.02-.2-.07-.77-.61-1.16-1.23-1.45-2.3-.05-.17.05-.34.22-.39.17-.05.34.05.39.22.29,1.07.66,1.52,1.24,1.97.14.11.16.31.05.44-.06.08-.15.12-.25.12Z"/>
      <path class="cls-1" d="M300.94,259.12c-.81,0-1.69-.47-2.38-1.28-.11-.13-.1-.33.04-.44.13-.11.33-.1.44.04.61.72,1.4,1.12,2.06,1.05.17-.02.33.11.35.28.02.17-.11.33-.28.35-.08,0-.15.01-.23.01Z"/>
      <path class="cls-1" d="M313.49,259.71c-.16,0-.29-.11-.31-.27-.02-.17.1-.33.27-.35.66-.09,1.43-.66,1.86-1.39.09-.15.28-.2.43-.11.15.09.2.28.11.43-.53.9-1.46,1.58-2.32,1.7-.01,0-.03,0-.04,0Z"/>
      <path class="cls-1" d="M314.58,260.97c-.38,0-.76-.07-1.14-.24-.16-.07-.23-.26-.16-.42.07-.16.26-.23.42-.16.86.39,1.82.08,2.49-.24.16-.08.35-.01.42.14.08.16.01.35-.14.42-.51.25-1.18.49-1.89.49Z"/>
      <path class="cls-1" d="M307.12,269.05c-1.07,0-2.22-.33-3.41-.99-2.32.66-3.62.03-4.3-.62-.86-.83-1.19-2.15-.85-3.44.35-1.32.96-1.43,1.86-1.46.65-.01,1.63-.04,3.23-.88,3.58-1.88,5.67-.8,7.72,1.4.21.22.19.57-.03.78-.22.21-.57.19-.78-.03-1.84-1.98-3.4-2.75-6.39-1.17-1.83.96-3.01.99-3.72,1q-.65.01-.82.63c-.24.9-.02,1.83.54,2.37.7.67,1.9.78,3.44.29.15-.05.31-.03.44.05,1.93,1.13,4.68,1.81,6.87-1.38.15-.21.42-.3.66-.2,0,0,.72.29,1.36.43.3.07.49.36.42.66-.07.3-.36.49-.66.42-.41-.09-.83-.23-1.13-.33-1.24,1.64-2.76,2.47-4.47,2.47Z"/>
      <path class="cls-1" d="M306.42,273.22c-.61,0-1.2-.14-1.74-.43-.87-.47-1.42-1.13-1.64-1.97-.44-1.65.61-3.36.66-3.43.16-.26.5-.34.76-.18.26.16.34.5.18.76,0,.01-.84,1.38-.53,2.57.14.54.5.96,1.1,1.28.85.46,1.91.39,2.98-.19,1.52-.82,3.14-2.8,3.35-5.36.02-.3.29-.53.6-.5.3.02.53.29.5.6-.21,2.62-1.75,5.07-3.92,6.24-.77.42-1.55.63-2.29.63Z"/>
      <path class="cls-1" d="M320.88,244.2c-.14,0-.27-.04-.39-.14-.27-.22-.32-.61-.1-.89l2.27-2.88c.13-.17.35-.26.56-.24l1.1.12-2.18-4.3-4.7-.44.66,1.33c.11.21.08.47-.06.66l-1.82,2.42c-.21.28-.61.33-.88.12-.28-.21-.33-.6-.12-.88l1.59-2.11-.99-1.99c-.1-.2-.08-.45.05-.64.13-.19.35-.29.58-.27l6.18.58c.22.02.41.15.5.34l2.87,5.65c.1.21.09.45-.04.64-.13.19-.36.29-.59.27l-1.91-.2-2.05,2.6c-.12.16-.31.24-.5.24Z"/>
      <path class="cls-7" d="M9.89,193.16h239.38c4.68,0,8.47,3.79,8.47,8.47v43.9s9.69,9.69,9.69,9.69h-9.69s0,.5,0,.5c0,4.68-3.79,8.47-8.47,8.47H9.89c-4.68,0-8.47-3.79-8.47-8.47v-54.09c0-4.68,3.79-8.47,8.47-8.47Z"/>
      <g>
        <path d="M104.5,26.63h2.13c.68,0,1.1-.03,1.54-.09v1.63c-.48-.04-.93-.07-1.56-.07h-1.62c.86,1.5,2.1,2.74,3.58,3.58-.48.48-.69.78-.99,1.5-.61-.43-1.05-.85-1.62-1.5-.74-.85-1.05-1.32-1.53-2.22.03.54.04,1,.04,1.44v1.81c0,.67.03,1.2.09,1.67h-1.67c.06-.46.09-1,.09-1.68v-1.71c0-.4.02-.88.04-1.48-.91,1.65-1.93,2.76-3.39,3.73-.38-.71-.58-1-.9-1.36,1.54-.89,2.8-2.17,3.67-3.78h-.95c-.64,0-1.11.03-1.58.09v-.6c-.25.36-.43.69-.61,1.22-.38-.59-.6-1.05-.89-1.8.03.47.06,1.27.06,1.91v3.69c0,.77.03,1.32.09,1.77h-1.67c.06-.46.09-1.02.09-1.77v-3.1c0-.57.02-.93.11-1.86-.44,1.46-.87,2.43-1.51,3.41-.18-.68-.38-1.11-.68-1.6.72-.92,1.47-2.61,1.92-4.35h-.57c-.44,0-.69.02-.96.06v-1.53c.24.04.51.06.96.06h.72v-1.16c0-.76-.01-1.14-.08-1.5h1.65c-.06.39-.08.8-.08,1.5v1.16h.43c.36,0,.54-.02.78-.06v1.42c.57-1.02,1.05-2.52,1.09-3.49l1.46.38c-.06.17-.1.34-.21.79-.08.27-.1.4-.18.69h1.15v-.99c0-.61-.03-.99-.09-1.36h1.68c-.06.36-.09.77-.09,1.36v.99h1.7c.72,0,1.14-.03,1.54-.09v1.58c-.42-.04-.9-.08-1.54-.08h-1.7v1.81ZM101.37,24.81c-.25.62-.39.9-.81,1.6q-.36-.38-1.17-.94c.12-.17.17-.24.24-.35-.2-.03-.44-.04-.71-.04h-.38c.34.79.71,1.4,1.36,2.28v-.82c.45.06.87.09,1.56.09h1.53v-1.81h-1.63Z"/>
        <path d="M115.95,29.67c-1.48.87-1.91,1.31-1.91,1.96,0,.27.11.45.33.58.33.2,1.07.3,2.01.3.81,0,1.93-.08,2.7-.18.32-.04.5-.09,1.09-.24h.08c.11,0,.18.07.23.18.09.31.15.77.15,1.31,0,.23-.08.31-.27.36-.36.08-2.03.17-3.12.17-1.83,0-2.8-.12-3.52-.42-.87-.36-1.31-1.04-1.31-1.98,0-.87.41-1.63,1.21-2.28.65-.51.79-.62,2.17-1.4-.12-.5-.34-.71-.81-.71-.62,0-1.26.24-1.96.71-.43.3-.95.72-1.26,1.03-.45.47-.5.5-.62.5-.15,0-.46-.34-.78-.87-.15-.25-.24-.45-.24-.55,0-.14.03-.17.39-.39,1.23-.82,2.25-1.88,2.87-2.95-1.07.07-1.62.09-2.21.09-.23,0-.27-.04-.34-.3-.05-.2-.12-.99-.14-1.4.51.07.81.09,1.53.09.58,0,1.23-.02,1.91-.04.31-.85.42-1.4.43-2.1,1.33.23,1.95.45,1.95.71,0,.06-.02.09-.06.18-.1.19-.22.43-.42.9q-.03.06-.04.1c.86-.12,1.61-.27,2.13-.39.33-.09.41-.1.48-.1.12,0,.18.04.21.14.06.27.15.96.15,1.17,0,.17-.06.24-.25.28-.48.14-2.13.39-3.51.52-.45.83-.76,1.31-1.23,1.81.67-.31,1.18-.43,1.78-.43.68,0,1.12.39,1.43,1.23,1.48-.81,2.28-1.24,2.37-1.3.69-.4.98-.63,1.31-1,.61.63,1.27,1.57,1.27,1.83,0,.09-.06.15-.25.2-.74.19-2.1.78-4.38,1.89.01.27.04.96.04,1.44v.72c0,.18-.03.27-.1.31-.08.08-.48.12-.93.12-.51,0-.6-.04-.6-.29v-.06c.03-.44.04-1,.04-1.36v-.08Z"/>
        <path d="M126.91,31.94c-.6,0-1.05.01-1.54.06.04-.41.06-.9.06-1.7v-3.31c0-.71-.02-1.19-.06-1.62.45.03.77.04,1.5.04h7.3c.84,0,1.17-.02,1.59-.04-.04.46-.06.87-.06,1.63v3.35c0,.79.01,1.32.06,1.65-.46-.05-.92-.06-1.53-.06h-1.07c1.02.57,2.37.93,4.12,1.12-.33.43-.51.75-.78,1.41-1.29-.19-1.92-.36-2.83-.72-.87-.36-1.35-.6-2.11-1.11l.85-.71h-4.03l.9.71c-.71.52-1.16.78-1.96,1.11-.92.38-1.54.55-2.64.76-.18-.51-.41-.84-.87-1.32,1.84-.29,3.13-.71,3.94-1.26h-.84ZM136.57,23.75c0,.54.01.81.06,1.16-.36-.03-.72-.05-1.48-.05h-9.2c-.72,0-1.18.02-1.5.05.05-.36.06-.62.06-1.16v-1.12c0-.55-.01-.81-.06-1.21.41.04.81.06,1.62.06h8.94c.81,0,1.22-.02,1.62-.06-.04.39-.06.66-.06,1.21v1.12ZM127.99,22.7h-2v.93h2v-.93ZM126.99,27.24h7.16v-.63h-7.16v.63ZM126.99,28.95h7.16v-.62h-7.16v.62ZM126.99,30.72h7.16v-.68h-7.16v.68ZM131.44,22.7h-2v.93h2v-.93ZM135.04,23.63v-.93h-2.14v.93h2.14Z"/>
        <path d="M143.19,25.16c.97-.25,1.62-.35,2.33-.35,2.13,0,3.36,1.26,3.36,3.42,0,1.88-.81,3.39-2.45,4.59-.87.65-2.19,1.29-2.62,1.29-.2,0-.24-.04-.56-.5-.22-.34-.45-.55-.82-.82,1.72-.58,2.44-.96,3.22-1.64.9-.79,1.35-1.75,1.35-2.89,0-1.22-.57-1.91-1.58-1.91-.81,0-1.86.31-3.22.98-.2.09-.3.17-.55.35-.06.03-.12.06-.18.06-.29,0-.77-.84-1.1-1.96.56-.04.84-.12,2.82-.61ZM144.19,21.5c.54.17,1.35.32,2.08.41.3.03.41.04,1.17.07.22,0,.29.06.29.23,0,.5-.11,1.31-.2,1.46-.03.09-.1.12-.21.12-.34,0-1.56-.17-2.26-.31-1.19-.24-2.22-.54-2.43-.71-.05-.04-.08-.1-.08-.17,0-.12.31-.93.46-1.21.08-.12.12-.15.21-.15q.08,0,.96.27Z"/>
        <path d="M157.42,26.07c-.19-.66-.25-1.06-.43-2.91-.06-.72-.12-1.08-.27-1.59.91.02,1.5.06,1.9.17.23.06.33.17.33.33,0,.06-.01.13-.04.25-.1.36-.15.63-.15,1.02,0,.73.15,1.94.32,2.46.09.28.18.39.34.39.36,0,1.68-.69,2.4-1.24.19-.15.22-.17.3-.17.13,0,.27.1.5.39.38.51.67,1.06.67,1.27,0,.17-.11.27-.36.34-.93.25-2.46.85-3.49,1.35-1.83.9-2.66,1.73-2.66,2.65s.76,1.29,2.7,1.29c1.12,0,2.14-.1,3.52-.33.06-.02.17-.03.2-.03.12,0,.19.06.25.18.04.15.15,1.06.15,1.43,0,.21-.06.28-.26.34-.33.08-2.14.18-3.28.18-1.92,0-3.2-.25-3.99-.79-.67-.47-1.04-1.2-1.04-2.1,0-.69.2-1.31.6-1.9.52-.78,1.09-1.27,2.35-2.02-.31-.29-.43-.5-.57-.96Z"/>
        <path d="M167.73,30.5c.27-.24.34-.3.45-.3.19,0,1.09.66,1.75,1.29.75.69,1.59,1.69,1.59,1.9,0,.14-.03.17-.46.56-.57.52-.69.62-.79.62-.09,0-.18-.06-.25-.21-.53-.93-1.73-2.16-2.79-2.85-.12-.09-.18-.15-.18-.24,0-.1.03-.15.69-.76Z"/>
        <path d="M183.54,22.85c-.61,0-1.18.03-1.56.06v-1.53c.46.06.99.09,1.58.09h3.52c.62,0,1.12-.03,1.62-.09v1.53c-.41-.04-.95-.06-1.46-.06h-.46v1.19h.2c.76,0,1.06-.02,1.5-.04-.03.4-.04.94-.04,1.57v6.92c0,.72.02,1.12.06,1.59h-1.4v-.54h-3.4v.79h-1.44c.06-.54.09-1.11.09-1.96v-6.66c0-.72-.02-1.23-.06-1.71.42.03.74.04,1.47.04h.3v-1.19h-.51ZM183.69,29.81h3.42v-1.11h-.41c-.93,0-1.08-.09-1.08-.64v-2.81h-.41v.17c0,.85-.12,2-.28,2.7-.14.57-.25.87-.63,1.53-.18-.44-.32-.68-.62-1.05v1.22ZM183.69,28.43c.41-.81.52-1.52.57-3.18h-.57v3.18ZM183.69,32.18h3.42v-1.12h-3.42v1.12ZM185.22,24.03h.41v-1.19h-.41v1.19ZM186.57,27.24c0,.23.03.24.54.25v-2.25h-.54v2ZM194.46,26.06c0,.6.01.98.06,1.41-.5-.05-.79-.06-1.44-.06h-2.33v4.71c0,.26.03.35.12.39.12.08.51.12,1.02.12,1.07,0,1.35-.09,1.49-.45.11-.3.17-1.05.17-2.13.6.33.97.48,1.51.6-.09,1.69-.22,2.43-.52,2.82-.36.45-1.07.61-2.73.61-2.25,0-2.58-.19-2.58-1.5v-5.27c0-.69-.01-1-.06-1.42.43.04.83.06,1.44.06h2.32v-3.03h-2.29c-.73,0-1.14.01-1.58.07v-1.62c.47.06.95.09,1.59.09h2.38c.63,0,1.06-.02,1.48-.06-.04.54-.06.77-.06,1.46v3.19Z"/>
        <path d="M202.06,22.44c0-.6-.03-1.02-.09-1.43h1.8c-.06.36-.09.81-.09,1.43v3.85h3.66c.48,0,.76-.01,1.16-.07-.04.39-.06.71-.06,1.21v5.31c0,.73.03,1.18.09,1.65h-1.67v-.71h-8.33c-.67-.02-1.17.02-1.56.07v-1.63c.42.06.78.08,1.5.08h8.4v-1.53h-7.96c-.63,0-1,.02-1.38.06v-1.6c.34.04.67.06,1.4.06h7.95v-1.4h-8.31c-.63,0-1.02.02-1.47.06v-1.63c.46.06.84.07,1.48.07h3.48v-3.85ZM198.52,21.69c1.08,1.4,1.65,2.31,2.25,3.54l-1.42.83c-.65-1.41-1.25-2.37-2.21-3.57l1.38-.79ZM208.6,22.37c-.85,1.75-1.32,2.5-2.25,3.71l-1.33-.83c.95-1.19,1.44-2.04,2.06-3.6l1.53.72Z"/>
        <path d="M220.39,23.39c2.03,0,3.3,1.21,3.3,3.17s-1.41,3.09-3.75,3.09c-.51,0-1.04-.06-1.23-.14-.12-.04-.18-.12-.21-.25-.1-.5-.3-.98-.66-1.57.93.22,1.5.31,2.13.31,1.21,0,1.94-.56,1.94-1.52,0-.38-.11-.75-.25-.96-.27-.38-.86-.61-1.53-.61-.86,0-2.04.38-4.51,1.44q.94,2.35,1.47,3.79c.63,1.7,1.16,3.23,1.16,3.36,0,.12-.09.2-.39.33-.43.2-.99.38-1.18.38-.15,0-.17-.03-.32-.58-.69-2.52-1.3-4.35-2.22-6.58-1.14.52-1.68.82-2,1.12-.09.07-.18.12-.28.12-.2,0-.38-.15-.66-.55-.3-.42-.42-.65-.67-1.12.96-.27,1.57-.48,2.98-1.06-.78-1.79-.88-2-1.47-2.75.96-.38,1.5-.54,1.84-.54.32,0,.39.09.43.5.05.42.08.57.26.99.01.03.15.34.46,1.15,1.32-.54,1.78-.72,2.77-1.04-.06-.03-.08-.04-.12-.1-.51-.66-.82-.99-1.48-1.54-.03-.06-.04-.09-.04-.13q0-.09.51-.54c.2-.18.5-.36.58-.36.08,0,.15.03.24.09.92.69,1.54,1.32,1.54,1.57,0,.12-.45.62-.81.89.83-.23,1.54-.33,2.17-.33Z"/>
        <path d="M226.41,28.37c0-.68,0-.9.03-1.46-.24.52-.39.73-.92,1.47-.23-.7-.44-1.17-.74-1.65.74-.85,1.32-1.81,1.83-3.01.43-1.08.66-1.8.83-2.83l1.5.56q-.11.28-.24.76c-.24.79-.48,1.43-.85,2.23v8.23c0,.63.03,1.12.07,1.67h-1.6c.08-.58.09-1,.09-1.69v-4.27ZM236.67,30.84c-.09.08-.11.09-.29.29-.58.6-.9.88-1.47,1.26.96.27,1.88.38,3.72.44-.27.5-.42.9-.54,1.41-2.43-.29-3.33-.5-4.6-1.08-1.33.57-2.69.88-4.7,1.08-.08-.42-.25-.83-.52-1.26,1.42-.01,2.53-.18,3.85-.6-.46-.32-.67-.5-1.04-.83-.71.46-1.08.65-2.02.93-.2-.39-.41-.66-.74-.98.96-.27,1.38-.45,1.93-.78.58-.36.95-.65,1.35-1.08-.35-.12-.42-.25-.42-.71v-.57c0-.26-.02-.42-.04-.62h1.26c-.03.17-.04.38-.04.58v.12c0,.25.17.3,1.09.3q1.37,0,1.5-.84c.36.17.54.24.87.31l.69-.45c.25.22.29.25.5.45v-.76h-3.08c.26.19.36.28.6.51l-.77.66c-.4-.47-.55-.6-1.03-.96l.29-.21h-3.14v.91c.14-.18.18-.27.33-.52l.98.5c-.58.94-.92,1.35-1.65,2l-.87-.8c.46-.34.62-.48.88-.78h-1.02q.01-.21.03-.98v-.49c0-.42-.02-.63-.03-.95.41.04.54.04,1.3.06v-2.5c0-.4-.01-.69-.04-1,.44.04.78.06,1.44.06h1.11c.06-.14.09-.19.17-.36h-1.86c-.67,0-1.21.03-1.59.07v-1.23c.38.04.85.08,1.59.08h5.97c.76,0,1.25-.03,1.62-.08v1.23c-.41-.04-.9-.07-1.61-.07h-2.59q-.12.27-.17.36h1.75c.66,0,.97-.02,1.41-.06-.03.31-.04.54-.04.98v2.53c.72-.02.94-.02,1.39-.06-.03.31-.04.54-.04.93v.38c0,.4.01.71.06.98h-.96c.39.39.51.52.85.94l-.93.81c-.45-.63-.87-1.12-1.35-1.62q-.31.96-3,.96l-.33.38h2.1c.54,0,.84-.02,1.05-.06l.83.79ZM235.6,24.24v-.36h-4.36v.36h4.36ZM235.6,25.35v-.39h-4.36v.39h4.36ZM235.6,26.42v-.33h-4.36v.33h4.36ZM232.27,31.16c.39.3.7.5,1.15.71.33-.17.38-.19,1.16-.71h-2.31Z"/>
        <path d="M241.14,29.87q0-.47.03-1.56c-.39.5-.46.57-1.08,1.06-.22-.71-.39-1.05-.69-1.54.99-.71,1.62-1.33,2.42-2.4.36-.45.63-.92.79-1.31l1.29.89c-.11.12-.23.31-.41.58-.27.42-.46.7-.86,1.18v5.85c0,.78.02,1.29.08,1.68h-1.67c.06-.42.09-.93.09-1.71v-2.73ZM243.82,21.78q-.12.15-.39.46c-1,1.2-1.89,1.97-3.1,2.73-.22-.57-.46-.96-.79-1.36,1.44-.83,2.5-1.8,3.03-2.76l1.26.93ZM245.55,23.88c-.69,0-.99.01-1.44.06v-1.53c.43.06.81.09,1.48.09h1.62v-.41c0-.4-.01-.71-.08-1.11h1.71c-.06.36-.08.67-.08,1.12v.39h1.86c.66,0,1.04-.02,1.47-.09v1.53c-.43-.05-.75-.06-1.46-.06h-1.88v1.44h2.42c.65,0,1.1-.03,1.53-.08v1.53c-.38-.06-.79-.07-1.51-.07h-.33v1.26h.34c.66,0,1.07-.01,1.5-.07v1.56c-.39-.04-.86-.07-1.47-.07h-.38v3.34c0,.65-.11.93-.45,1.17-.32.23-.76.3-1.68.3-.35,0-.66-.02-1.35-.06-.07-.65-.18-1.05-.39-1.58.75.12,1.25.17,1.74.17s.61-.07.61-.36v-2.98h-4.33c-.63,0-1.04.02-1.49.07v-1.56c.41.06.79.07,1.41.07h4.41v-1.26h-4.12c-.68,0-.98.02-1.41.07v-1.53c.43.06.75.08,1.41.08h1.98v-1.44h-1.67ZM246.42,32.75c-.76-1.23-1.08-1.62-1.93-2.46l1.18-.85c.83.79,1.17,1.2,2.01,2.34l-1.26.98Z"/>
        <path d="M255.54,26.96c-.12.03-.18.06-.27.1-.08.04-.12.06-.18.06-.33,0-.57-.57-.75-1.68h.29c.63,0,2.24-.19,3.2-.39.31-1.31.48-2.31.48-3.02,0-.06,0-.15-.01-.25.64.06,1.26.19,1.68.38.24.09.36.21.36.36,0,.08-.02.14-.09.26q-.23.39-.69,2.04c.36-.04.76-.07,1.02-.07.62,0,1.1.12,1.44.36.6.44.9,1.32.9,2.69,0,2.23-.41,4.15-1.1,5.1-.48.66-1.11.98-2,.98-.54,0-1.05-.08-1.2-.17q-.12-.08-.17-.63c-.04-.41-.13-.77-.32-1.19.78.27.98.31,1.46.31.72,0,1.02-.35,1.35-1.56.23-.79.35-1.81.35-2.92,0-1.17-.29-1.59-1.08-1.59-.27,0-.71.04-1.05.09-.04.18-.06.19-.12.39-.42,1.54-1.19,3.55-1.95,5.17-.79,1.63-.99,1.96-1.18,1.96-.12,0-.53-.21-.96-.5-.35-.21-.44-.3-.44-.42q0-.07.62-1.05c.83-1.27,1.91-3.77,2.28-5.25-1.11.25-1.73.39-1.86.44ZM264.96,23.88c-.24.18-.41.25-.48.25-.04,0-.09-.03-.13-.1-.32-.51-.84-1.1-1.28-1.47-.03-.03-.04-.06-.04-.09,0-.06.11-.17.36-.36.25-.18.33-.23.43-.23.24,0,1.56,1.33,1.56,1.58,0,.09-.12.19-.42.42ZM263.37,25.47c0-.1.13-.24.57-.58.3-.23.45-.31.57-.31.2,0,.87.72,1.5,1.6.52.75,1.09,1.81,1.09,2.07,0,.15-.04.19-.52.58-.3.24-.65.44-.77.44-.1,0-.15-.04-.25-.3-.29-.72-.54-1.21-.95-1.86-.4-.65-.43-.67-1.15-1.45-.06-.08-.09-.12-.09-.18ZM265.33,20.87c.25,0,1.53,1.27,1.53,1.53,0,.07-.09.16-.39.38-.27.21-.41.28-.46.28q-.08,0-.38-.42c-.25-.34-.74-.85-1-1.08-.04-.04-.08-.07-.08-.12,0-.12.62-.57.78-.57Z"/>
        <path d="M272.79,24.72c-.69.04-1.33.06-1.91.06-.63,0-.67,0-.71-.09-.04-.09-.09-.72-.09-1.16v-.28c.71.03,1,.04,1.38.04s.95-.02,1.4-.03c.08-.87.09-1.17.09-1.47,0-.14,0-.23-.01-.44.72.02,1.27.06,1.71.17.12.03.18.09.18.19,0,.08-.02.14-.09.31-.12.29-.21.68-.27,1.14.96-.08,2.12-.23,2.58-.33.45-.1.76-.17.84-.17.32-.03.54-.09.63-.17.02-.01.03-.01.03-.01.03,0,.04.01.08.01.06,0,.1.06.13.17.03.23.08.75.08,1.08,0,.23-.04.29-.2.31-.88.18-2.71.4-4.29.54-.01.06-.01.09-.01.24-.03.29-.03.32-.04,1.07.66-.15,1.25-.23,1.98-.23.11-.48.12-.6.15-.95,1.16.24,1.72.45,1.72.63,0,.06-.01.1-.13.3-.04.06-.08.1-.11.21,1.94.45,3.17,1.88,3.17,3.72,0,1.64-.88,2.94-2.58,3.84-.63.33-1.51.63-1.84.63-.17,0-.29-.06-.38-.18-.31-.45-.51-.66-.99-1.06,1.56-.29,2.32-.6,3.07-1.21.69-.58,1.02-1.26,1.02-2.1,0-1.2-.71-2.1-1.91-2.44-.9,2.07-1.5,3.04-2.58,4.15.08.25.13.4.27.72.06.12.07.17.07.21,0,.15-.06.2-.4.38-.38.2-.81.35-.96.35-.13,0-.17-.04-.33-.51-.87.61-1.8.94-2.71.94-1.02,0-1.71-.83-1.71-2.02,0-1.88,1.37-3.71,3.63-4.83.01-.78.03-1.44.04-1.74ZM270.67,31.02c0,.38.23.6.6.6.51,0,1.18-.29,1.86-.78-.21-1.02-.3-1.71-.38-2.83-1.32.98-2.08,2.1-2.08,3.02ZM275.92,26.88c-.67.06-1.04.12-1.65.33.03,1.06.06,1.52.18,2.28.63-.8,1.05-1.54,1.47-2.61Z"/>
        <path d="M291.18,26.33c2.12,0,3.62,1.44,3.62,3.48,0,1.39-.74,2.65-1.96,3.39-.86.51-1.91.77-3.09.77-1.91,0-3.02-.77-3.02-2.07,0-1.19.99-2.02,2.4-2.02,1.27,0,2.19.64,2.8,1.96.76-.56,1.08-1.14,1.08-1.95,0-1.29-.92-2.13-2.36-2.13s-3.04.73-4.35,2.04c-.24.24-.46.5-.73.84-.11.15-.18.21-.27.21-.27,0-1.33-1.05-1.33-1.32,0-.13.06-.21.39-.45.34-.27.84-.7,1.47-1.3,1.46-1.38,2.52-2.54,4.09-4.46-1.88.24-3.13.45-3.6.62-.08.02-.12.03-.17.03-.12,0-.2-.07-.29-.3-.18-.45-.27-.94-.32-1.6.41.06.69.08,1.02.08.72,0,1.93-.1,3.51-.29.55-.06.73-.1,1.16-.27.13-.06.21-.08.3-.08.21,0,.42.18.81.78.29.39.38.58.38.71,0,.19-.04.25-.38.46-.27.17-.43.3-.78.63-.75.72-.76.72-1.69,1.67-.66.67-.74.75-1.33,1.35.97-.54,1.74-.77,2.64-.77ZM289.74,31.52c-.23-.15-.48-.23-.77-.23-.46,0-.76.23-.76.58,0,.44.46.71,1.18.71.33,0,.62-.03.99-.14-.18-.5-.33-.72-.64-.93Z"/>
        <path d="M301.11,26.6c1.89-.52,3.25-.77,4.27-.77,2.12,0,3.42,1.16,3.42,3.03,0,1.12-.46,2.12-1.35,2.87-.58.49-1.46.92-2.61,1.26-.64.18-1.33.31-1.63.31-.18,0-.27-.04-.33-.19-.21-.52-.45-.9-.76-1.21,3.3-.35,4.98-1.4,4.98-3.1,0-.87-.72-1.54-1.65-1.54-1.62,0-3.39.54-5.25,1.57-.15.08-.24.12-.3.12-.25,0-.67-.75-1.02-1.83.74-.1.99-.17,2.24-.51Z"/>
        <path d="M314.58,25.17c-.39.09-.53.13-1.07.33-.19.08-.3.1-.39.1-.33,0-.63-.61-.9-1.9.96-.04,1.31-.09,2.97-.34,1.8-.27,4.08-.62,5.28-.77,1.35-.18,2.43-.36,3-.48.1-.03.15-.03.22-.03.2,0,.27.09.41.46.12.31.21.76.21.97,0,.18-.06.24-.27.24-.32,0-.6.03-.89.08-2.53.42-4.56,2.64-4.56,4.98,0,1.75,1.38,2.91,3.72,3.12.21.01.29.09.29.27,0,.38-.15,1.09-.29,1.42-.08.17-.19.24-.39.24s-.65-.09-1.11-.22c-2.55-.75-3.88-2.37-3.88-4.67,0-1.25.41-2.4,1.19-3.39.42-.54.78-.84,1.63-1.43-1.96.33-4.04.72-5.17,1.01Z"/>
        <path d="M98.13,58.01q0-1.63.01-2.34c-.75.82-1.26,1.48-1.51,1.95-.08.15-.18.24-.27.24-.15,0-.51-.31-.99-.85-.19-.24-.28-.38-.28-.44q0-.1.76-.85c.64-.65,1.51-1.67,2.33-2.74,0-.09,0-.44.01-1.04-.74.13-1.68.39-1.93.52-.15.08-.18.09-.25.09-.26,0-.47-.58-.66-1.75.79-.01,1.79-.12,2.88-.3,0-.54.01-1.31.01-1.73,0-.45-.03-.81-.09-1.11.95.06,1.41.12,1.83.23.22.06.31.15.31.31,0,.08-.03.15-.09.3-.15.3-.17.41-.29,1.59.36.22.71.6.71.79q0,.13-.46.7c-.04.06-.18.26-.41.54q-.01.48-.01.58c1.47-1.24,2.71-1.77,4.18-1.77,2.34,0,3.81,1.48,3.81,3.87,0,1.83-.84,3.19-2.57,4.12-.66.38-1.79.78-2.12.78-.09,0-.19-.03-.24-.09t-.23-.3c-.25-.36-.54-.65-.84-.85,2.99-.81,4.17-1.86,4.17-3.7,0-1.44-.85-2.37-2.21-2.37-.88,0-1.69.29-2.65.92q-.48.31-1.33,1.04.01.12.01.31c0,1.6,0,1.74.09,4.89.02.17.02.29.02.31,0,.29-.21.35-1.31.35-.39,0-.42-.04-.42-.47l.02-1.74Z"/>
        <path d="M111.15,52.88c-.12.03-.18.06-.27.1-.08.04-.12.06-.2.06-.32,0-.55-.58-.74-1.69.12.02.23.02.29.02.63,0,2.24-.2,3.2-.39.31-1.32.48-2.31.48-3.03,0-.06,0-.14-.01-.25.64.07,1.26.21,1.68.38.24.09.36.22.36.38,0,.07-.02.12-.09.24q-.23.4-.69,2.05c.36-.04.76-.07,1.02-.07.62,0,1.1.12,1.44.36.6.44.9,1.32.9,2.69,0,2.23-.41,4.14-1.1,5.08-.48.66-1.11.98-1.99.98-.54,0-1.05-.07-1.2-.17q-.12-.07-.17-.63c-.04-.4-.13-.75-.32-1.17.78.25.98.3,1.46.3.72,0,1.02-.34,1.35-1.54.23-.79.35-1.83.35-2.92,0-1.17-.29-1.59-1.08-1.59-.27,0-.71.03-1.05.09-.04.17-.06.18-.12.39-.42,1.53-1.19,3.55-1.95,5.17-.79,1.63-.99,1.96-1.18,1.96-.12,0-.53-.21-.96-.5-.35-.21-.44-.3-.44-.42q0-.07.62-1.05c.83-1.27,1.91-3.78,2.28-5.25-1.11.24-1.73.39-1.86.44ZM118.8,51.2c0-.1.14-.24.57-.58.3-.23.45-.31.55-.31.09,0,.17.04.36.24.88.85,1.71,2,2.19,2.98.15.33.24.54.24.63,0,.15-.04.2-.52.58-.3.24-.65.44-.77.44-.1,0-.15-.04-.25-.3-.3-.73-.58-1.31-.94-1.86-.39-.6-.47-.69-1.35-1.64-.06-.09-.08-.13-.08-.18Z"/>
        <path d="M127.59,52.85c1.89-.52,3.25-.77,4.27-.77,2.12,0,3.42,1.16,3.42,3.03,0,1.12-.46,2.12-1.35,2.87-.58.49-1.46.92-2.61,1.26-.64.18-1.33.31-1.63.31-.18,0-.27-.04-.33-.19-.21-.52-.45-.9-.76-1.21,3.3-.35,4.98-1.4,4.98-3.1,0-.87-.72-1.54-1.65-1.54-1.62,0-3.39.54-5.25,1.57-.15.08-.24.12-.3.12-.25,0-.67-.75-1.02-1.83.74-.1.99-.17,2.24-.51Z"/>
        <path d="M139.56,52.13h-.09c-.08.02-.14.02-.17.02-.13,0-.21-.06-.25-.25-.09-.38-.15-.84-.18-1.41.21.02.38.02.48.02.81,0,1.75-.06,2.55-.17.15-.99.22-1.75.22-2.37v-.35c1.74.23,2.07.33,2.06.6,0,.07-.03.12-.09.25-.18.34-.19.39-.43,1.57.58-.1,1.33-.3,1.63-.4.06-.03.08-.03.12-.03.13,0,.17.06.29.58.06.3.12.72.12.84,0,.1-.04.17-.18.19q-.27.09-2.32.45c-.69,3.04-1.41,5.29-2.57,7.99-.08.19-.15.27-.24.27-.2,0-.72-.21-1.23-.5-.25-.13-.33-.21-.33-.29,0-.06.04-.16.12-.31,1.14-2.16,1.96-4.45,2.54-6.93-.66.09-1.12.14-2.04.21ZM145.96,57.83c.44.29,1.07.42,1.95.42.97,0,1.82-.09,2.29-.24.12-.03.15-.04.21-.04.13,0,.2.04.24.18.1.31.18.93.18,1.39,0,.2-.06.27-.25.32-.5.1-1.33.16-2.22.16-1.88,0-2.92-.3-3.62-1.02-.25-.27-.46-.62-.58-.99-.09-.21-.15-.46-.15-.56,0-.25.45-.52,1.23-.78.17.63.34.9.72,1.15ZM150.18,53.46c-.3-.04-.93-.07-1.46-.07-1.11,0-1.57.04-2.89.27-.03.01-.08.01-.1.01-.09,0-.14-.03-.17-.12-.04-.1-.11-.84-.11-1.16,0-.19.03-.28.15-.33.06-.03.15-.04.46-.1,1.02-.18,1.88-.25,2.92-.25.87,0,1.32.03,1.42.1.08.06.09.18.09.68,0,.43-.03.82-.06.91-.02.05-.08.08-.15.08-.03,0-.08,0-.12-.02Z"/>
        <path d="M154.8,48.26v-.21c.94.17,1.42.3,1.81.5.11.04.13.1.13.21,0,.06-.03.13-.09.24-.13.24-.18.42-.41,1.41-.28,1.29-.43,2.73-.43,4.3,0,.84.03,1.31.12,2.1l.79-1.6c.09.31.21.57.39.78.12.15.14.19.14.31s0,.12-.29.75c-.32.67-.5,1.26-.66,2.02-.04.24-.09.31-.17.35-.12.06-.63.13-.93.13-.21,0-.29-.04-.33-.18-.36-1.02-.66-3.12-.66-4.62,0-1.29.17-3.07.43-4.95.09-.62.14-1.06.14-1.38v-.17ZM159.91,52.5c-.84,0-1.08-.03-1.16-.13-.1-.14-.19-.75-.19-1.31v-.22c.6.06,1.08.09,1.84.09.58,0,.92-.02,1.51-.06-.04-1.56-.13-2.49-.31-2.97h.4c.53,0,1.17.04,1.5.12.15.03.23.12.23.24,0,.06-.02.12-.04.23-.08.21-.12.54-.12.93,0,.23.01.93.01,1.11v.15c.75-.12,1.11-.2,1.74-.41.06-.01.12-.03.18-.03.09,0,.13.04.17.13.06.17.12.75.12,1.08,0,.24-.04.35-.17.39-.2.07-1.11.25-2,.38.02.42.02.65.02.88,0,2.21-.27,3.78-.87,4.96-.54,1.06-1.71,2.31-2.19,2.31-.13,0-.19-.03-.36-.18-.5-.44-.58-.51-1.17-.78,1.05-.58,1.72-1.22,2.19-2.07.5-.91.76-2.17.76-3.55,0-.1,0-.36-.01-.72-.01-.15-.01-.38-.03-.68-.54.04-1.75.1-2.05.1Z"/>
        <path d="M171.88,52.32c-.19-.66-.25-1.06-.43-2.91-.06-.72-.12-1.08-.27-1.59.91.02,1.5.06,1.9.17.23.06.33.17.33.33,0,.06-.01.13-.04.25-.1.36-.15.63-.15,1.02,0,.73.15,1.94.32,2.46.09.28.18.39.34.39.36,0,1.68-.69,2.4-1.24.19-.15.22-.17.3-.17.13,0,.27.1.5.39.38.51.67,1.06.67,1.27,0,.17-.11.27-.36.34-.93.25-2.46.85-3.49,1.35-1.83.9-2.66,1.73-2.66,2.65s.76,1.29,2.7,1.29c1.12,0,2.14-.1,3.52-.33.06-.02.17-.03.2-.03.12,0,.19.06.25.18.04.15.15,1.06.15,1.43,0,.21-.06.28-.26.34-.33.08-2.14.18-3.28.18-1.92,0-3.2-.25-3.99-.79-.67-.47-1.04-1.2-1.04-2.1,0-.69.2-1.31.6-1.9.52-.78,1.09-1.27,2.35-2.02-.31-.29-.43-.5-.57-.96ZM177.33,48.96c.12-.09.2-.12.29-.12.21,0,1.51,1.38,1.51,1.6,0,.09-.12.23-.41.46-.3.25-.33.27-.4.27-.09,0-.11,0-.39-.42-.3-.42-.72-.9-1.04-1.17-.04-.04-.07-.09-.07-.14,0-.07.13-.21.51-.49ZM180.58,49.37c0,.09-.04.15-.22.3-.21.18-.5.38-.56.38-.09,0-.12-.04-.3-.28-.34-.5-.55-.73-1.09-1.23-.06-.06-.08-.09-.08-.14,0-.13.57-.57.75-.57.25,0,1.5,1.27,1.5,1.54Z"/>
        <path d="M182.19,56.75c.27-.24.34-.3.45-.3.19,0,1.09.66,1.75,1.29.75.69,1.59,1.69,1.59,1.9,0,.14-.03.17-.46.56-.57.52-.69.62-.79.62-.09,0-.18-.06-.25-.21-.53-.93-1.73-2.16-2.79-2.85-.12-.09-.18-.15-.18-.24,0-.1.03-.15.69-.76Z"/>
        <path d="M199.23,52.01c-.96.6-1.29.78-2.31,1.24-.25-.58-.48-.97-.84-1.48,1.53-.6,2.54-1.15,3.62-2,.96-.73,1.68-1.51,2.28-2.43h1.7c.76,1.06,1.35,1.63,2.45,2.4,1.21.87,2.4,1.48,3.7,1.95-.4.62-.6,1.02-.81,1.62-.9-.39-1.46-.69-2.45-1.32v1.12c-.39-.04-.75-.06-1.29-.06h-4.82c-.41,0-.84.02-1.23.06v-1.11ZM198.43,55.71c-.75,0-1.23.03-1.7.09v-1.66c.45.04,1.02.07,1.7.07h8.95c.72,0,1.21-.03,1.7-.07v1.66c-.48-.06-.96-.09-1.7-.09h-4.93c-.48,1.1-.93,1.94-1.5,2.79q2.49-.14,4.56-.36c-.46-.51-.72-.78-1.51-1.59l1.42-.63c1.54,1.56,2.17,2.29,3.33,3.82l-1.39.92c-.41-.61-.53-.79-.86-1.24-1.2.15-2.05.25-2.59.3-1.5.15-4.23.4-4.84.45-.81.04-1.53.12-1.86.19l-.22-1.75c.43.03.62.04.81.04.12,0,.56-.02,1.29-.06.71-1.08,1.16-1.94,1.53-2.88h-2.17ZM205.26,51.56c.2,0,.33,0,.63-.02-1.3-.87-2.14-1.65-3.01-2.8-.75,1.02-1.62,1.84-2.98,2.8.24.02.36.02.58.02h4.78Z"/>
        <path d="M214.42,59.12c0,.68.02,1.05.09,1.47h-1.74c.06-.44.09-.83.09-1.5v-3.61c-.58.52-.88.75-1.6,1.23-.18-.56-.44-1.08-.74-1.5,1-.58,1.69-1.12,2.47-1.95.67-.71,1.09-1.3,1.56-2.22h-2.34c-.51,0-.85.02-1.2.06v-1.6c.38.04.66.06,1.12.06h.73v-1.2c0-.39-.03-.76-.09-1.09h1.72c-.06.31-.07.66-.07,1.11v1.19h.6c.43,0,.6-.02.83-.04l.69.75c-.12.19-.21.37-.31.61-.48,1.05-.74,1.48-1.44,2.46.67.77,1.33,1.29,2.28,1.81-.33.46-.54.85-.78,1.42-.76-.48-1.21-.88-1.88-1.62v4.17ZM220.54,58.43h1.72c.72,0,1.21-.03,1.65-.07v1.72c-.51-.06-1.07-.09-1.65-.09h-4.92c-.6,0-1.12.03-1.62.09v-1.72c.45.04.96.07,1.63.07h1.58v-5.62h-1.08c-.48,0-.96.03-1.41.07v-1.63c.41.06.81.08,1.41.08h1.08v-2.54c0-.6-.03-.94-.09-1.5h1.79c-.08.57-.09.85-.09,1.5v2.54h1.51c.66,0,1.04-.02,1.42-.08v1.63c-.46-.04-.92-.07-1.42-.07h-1.51v5.62Z"/>
        <path d="M231.03,56.93c-.72,1.25-1.71,1.94-2.73,1.94-1.56,0-2.67-1.53-2.67-3.66,0-2.37,1.2-4.41,3.25-5.49,1-.54,2.08-.78,3.51-.78,3.14,0,5.46,2.22,5.46,5.19,0,2.62-1.29,4.51-3.78,5.58-.5.21-.89.33-1.08.33-.18,0-.25-.06-.45-.34-.25-.39-.54-.68-.95-.95,3.09-.79,4.49-2.25,4.49-4.68,0-1.25-.53-2.29-1.46-2.96-.53-.36-.95-.51-1.77-.64-.42,3.16-.92,4.89-1.83,6.46ZM228.87,51.62c-1,.88-1.58,2.15-1.58,3.55,0,1.16.38,1.83,1,1.83.75,0,1.52-1.04,2.08-2.82.36-1.12.54-1.98.77-3.65-1.07.23-1.59.48-2.28,1.08Z"/>
        <path d="M252.69,54.63c-.64-.07-1.33-.1-2.19-.1h-8.52c-.79,0-1.59.04-2.21.1v-1.92c.64.08,1.26.1,2.21.1h8.52c.97,0,1.65-.03,2.19-.1v1.92Z"/>
        <path d="M260.31,52.58c.62,0,.98-.02,1.25-.06v1.56c-.33-.04-.69-.06-1.17-.06h-4.83c-.72,0-1,.02-1.44.08v-1.59c.39.06.72.08,1.46.08h2.83c.36-.81.57-1.47.75-2.35l1.5.38c-.21.71-.42,1.26-.77,1.98h.42ZM260.1,48.69c.63,0,.99-.02,1.31-.06v1.53c-.3-.04-.58-.06-1.2-.06h-4.6c-.53,0-.86.02-1.17.06v-1.54c.33.06.68.08,1.35.08h1.47v-.41c0-.42-.03-.73-.08-1.02h1.71c-.04.29-.08.6-.08,1.01v.42h1.29ZM256.48,60.51h-1.56c.04-.4.06-.75.06-1.35v-3.12c0-.6-.02-.87-.04-1.19.36.03.61.04,1.15.04h3.71c.58,0,.81-.01,1.05-.04-.03.24-.04.46-.04,1.06v3.51c0,.5.02.77.06,1.08h-1.58v-.82h-2.8v.82ZM256.71,50.1c.33.69.53,1.22.75,2.02l-1.42.42c-.2-.84-.38-1.33-.67-2.01l1.35-.44ZM256.48,58.31h2.8v-2.02h-2.8v2.02ZM267.45,48.62c-.1.21-.17.33-.28.65-.45,1.19-.96,2.28-1.54,3.42.78.9,1.09,1.36,1.38,2.08.24.61.39,1.35.39,1.98,0,.92-.38,1.59-1.02,1.81-.38.13-.74.18-1.46.18-.29,0-.42,0-.74-.03-.03-.73-.1-1.08-.33-1.56.38.06.67.08,1.07.08.72,0,.96-.15.96-.62,0-.6-.15-1.23-.45-1.84-.33-.66-.66-1.08-1.5-1.88.83-1.53,1.26-2.56,1.59-3.76h-2.01v9.79c0,.79.03,1.26.09,1.68h-1.68c.04-.46.08-1.02.08-1.63v-10.11c0-.45-.02-.84-.04-1.2.39.03.69.04,1.17.04h2.49c.55,0,.87-.01,1.14-.06l.7.98Z"/>
        <path d="M274.41,56.93c-.72,1.25-1.71,1.94-2.73,1.94-1.56,0-2.67-1.53-2.67-3.66,0-2.37,1.2-4.41,3.25-5.49,1-.54,2.08-.78,3.51-.78,3.14,0,5.46,2.22,5.46,5.19,0,2.62-1.29,4.51-3.78,5.58-.5.21-.89.33-1.08.33-.18,0-.25-.06-.45-.34-.25-.39-.54-.68-.95-.95,3.09-.79,4.49-2.25,4.49-4.68,0-1.25-.53-2.29-1.46-2.96-.53-.36-.95-.51-1.77-.64-.42,3.16-.92,4.89-1.83,6.46ZM272.25,51.62c-1,.88-1.58,2.15-1.58,3.55,0,1.16.38,1.83,1,1.83.75,0,1.52-1.04,2.08-2.82.36-1.12.54-1.98.77-3.65-1.07.23-1.59.48-2.28,1.08Z"/>
        <path d="M284.89,48.77c0-.75-.01-1.11-.07-1.5h1.62c-.04.36-.07.83-.07,1.49v1.05h.15c.41,0,.66-.02.89-.06v1.52c-.26-.03-.47-.04-.77-.04h-.2c.26.76.77,1.48,1.52,2.17-.34.39-.39.46-.78,1.18-.52-.7-.58-.81-.87-1.39.04.52.06.99.06,1.93v3.75c0,.71.03,1.35.09,1.77h-1.63c.06-.46.09-1.04.09-1.77v-2.98c.01-.36.01-.6.01-.71q0-.3.06-1.08c-.44,1.27-.89,2.2-1.49,3.09-.29-.65-.53-1.04-.84-1.41.95-1.27,1.54-2.58,2.08-4.56h-.63c-.42,0-.72.01-.96.06v-1.53c.25.04.51.06.96.06h.78v-1.04ZM288.96,51.83c-.55,0-.81.02-1.21.08v-1.49c.24.05.48.06.79.08-.34-.38-.41-.42-.99-.81.81-.69,1.32-1.46,1.65-2.47l1.45.34c-.18.38-.24.5-.42.81h3.93c.76,0,1.17-.02,1.63-.09v1.51c-.46-.06-.87-.07-1.65-.07h-2.1q-.18.52-.27.78h2.82c.69,0,1.18-.03,1.54-.08v1.49c-.33-.05-.88-.08-1.49-.08h-3.52c-.25.44-.42.71-.64,1.04h1.6c.21-.35.33-.6.48-.99l1.29.44c-.18.31-.22.4-.31.56h1.11c.53,0,.96-.03,1.29-.08v1.4c-.4-.04-.78-.06-1.27-.06h-1.56v.78h1.37c.58,0,.86-.01,1.12-.06v1.26c-.31-.04-.58-.06-1.12-.06h-1.37v.77h1.37c.6,0,.84-.02,1.12-.06v1.26c-.3-.04-.57-.06-1.12-.06h-1.37v.81h1.41c.75,0,1.16-.02,1.59-.08v1.43c-.46-.06-.99-.09-1.6-.09h-4.83v.58h-1.53c.08-.46.09-.81.09-1.59v-2.85c0-.24,0-.48.01-.71-.22.23-.32.3-.6.56-.32-.51-.48-.72-.86-1.05,1.12-.84,2.04-1.86,2.78-3.13h-.62ZM290.25,50.49c.12-.27.12-.29.29-.78h-1.14c-.13.17-.36.43-.69.78h1.54ZM291.75,54.12h-2.07v.78h2.07v-.78ZM291.75,56.04h-2.07v.77h2.07v-.77ZM289.68,57.95v.81h2.07v-.81h-2.07Z"/>
        <path d="M300.37,49.71c-.84.17-1.18.22-2.1.36-.12-.5-.26-.84-.53-1.38,2.37-.24,4.63-.81,5.54-1.38l.96,1.32c-.87.3-1.7.55-2.36.73v1.86h1.16c.52,0,.87-.01,1.21-.07v1.56c-.36-.04-.71-.06-1.25-.06h-1.06c.58,1.05,1.26,1.83,2.32,2.69-.28.38-.58.93-.76,1.41-.84-.87-1.17-1.32-1.7-2.31.04.51.08,1.08.08,1.83v2.5c0,.9.02,1.27.09,1.81h-1.71c.06-.52.09-1,.09-1.81v-2.42c0-.6.03-1.25.07-1.73-.42,1.06-.61,1.46-.99,2.02-.39.63-.71,1.02-1.23,1.59-.29-.68-.51-1.1-.81-1.52.63-.57,1.06-1.12,1.56-1.92.38-.6.95-1.68,1.12-2.16h-1.04c-.55,0-.93.03-1.32.08v-1.57c.36.06.69.07,1.35.07h1.29v-1.51ZM306.72,48.35c-.06.46-.08.92-.08,1.75v5.43c0,.92.02,1.29.08,1.73h-1.7c.06-.4.08-.73.08-1.68v-5.48c0-.84-.01-1.26-.08-1.75h1.7ZM310.14,47.48c-.06.57-.09,1.12-.09,1.95v9.27c0,.77-.18,1.17-.65,1.42-.36.18-.84.24-2,.24-.34,0-.57,0-1.06-.03-.12-.63-.22-.97-.48-1.59.78.09,1.37.12,1.92.12.6,0,.71-.06.71-.44v-9c0-.72-.03-1.31-.09-1.95h1.74Z"/>
        <path d="M318.39,55.92c-1.48.87-1.91,1.31-1.91,1.96,0,.27.11.45.33.58.33.2,1.07.3,2.01.3.81,0,1.93-.08,2.7-.18.32-.04.5-.09,1.09-.24h.08c.11,0,.18.07.23.18.09.31.15.77.15,1.31,0,.23-.08.31-.27.36-.36.08-2.03.17-3.12.17-1.83,0-2.8-.12-3.52-.42-.87-.36-1.31-1.04-1.31-1.98,0-.87.41-1.63,1.21-2.28.65-.51.79-.62,2.18-1.4-.12-.5-.35-.71-.81-.71-.62,0-1.26.24-1.96.71-.43.3-.95.72-1.26,1.03-.45.47-.5.5-.62.5-.15,0-.46-.34-.78-.87-.15-.25-.24-.45-.24-.55,0-.14.03-.17.39-.39,1.23-.82,2.25-1.88,2.87-2.95-1.07.07-1.62.09-2.21.09-.23,0-.27-.04-.34-.3-.05-.2-.12-.99-.14-1.4.51.07.81.09,1.53.09.58,0,1.23-.02,1.91-.04.31-.85.42-1.4.43-2.1,1.33.23,1.95.45,1.95.71,0,.06-.02.09-.06.18-.1.19-.22.43-.42.9q-.03.06-.04.1c.86-.12,1.61-.27,2.13-.39.33-.09.41-.1.48-.1.12,0,.18.04.21.14.06.27.15.96.15,1.17,0,.17-.06.24-.25.28-.48.14-2.13.39-3.51.52-.45.83-.76,1.31-1.23,1.81.67-.31,1.18-.43,1.78-.43.68,0,1.12.39,1.43,1.23,1.48-.81,2.28-1.24,2.37-1.3.69-.4.98-.63,1.31-1,.61.63,1.27,1.57,1.27,1.83,0,.09-.06.15-.25.2-.74.19-2.1.78-4.38,1.89.01.27.04.96.04,1.44v.72c0,.18-.03.27-.1.31-.08.08-.48.12-.93.12-.51,0-.6-.04-.6-.29v-.06c.03-.44.04-1,.04-1.36v-.08Z"/>
        <path d="M96.52,81.6c0-.57.01-.99.03-1.54-.39.48-.62.69-1.12,1.08-.2-.62-.36-.99-.67-1.52,1.05-.72,1.8-1.47,2.58-2.58.24-.36.46-.74.66-1.17l1.28.9c-.12.18-.17.24-.29.43-.33.54-.41.65-.93,1.32v5.91c0,.78.01,1.19.08,1.63h-1.7c.08-.44.09-.82.09-1.53v-2.94ZM99.18,73.58c-.77,1-.86,1.09-1.23,1.5-.66.66-1.38,1.25-2.21,1.77-.25-.58-.46-.88-.84-1.32,1.46-.83,2.45-1.77,3-2.88l1.28.93ZM99.97,82.07c-.6,0-.93.02-1.37.06v-1.45c.39.04.76.06,1.38.06h4.79v-.72h-4.63c-.56,0-.98.02-1.35.06v-1.41c.38.04.6.06,1.37.06h6.43c.67,0,1.04-.02,1.4-.07v1.42c-.38-.04-.78-.06-1.37-.06h-.32v.72h.38c.6,0,1.04-.01,1.41-.06v1.45c-.34-.04-.76-.06-1.36-.06h-.42v2.52c0,1.06-.42,1.35-1.93,1.35-.29,0-.84-.02-1.5-.04-.06-.6-.13-.9-.33-1.44l-.75.67c-.6-1.02-1-1.52-1.86-2.31l1.04-.75h-.99ZM101.13,78.09c-.58,0-1.08.02-1.33.04.03-.4.05-.78.05-1.41v-2.16c0-.6-.02-.93-.05-1.33.41.04.77.06,1.46.06h4.44c.72,0,1.11-.02,1.48-.06-.04.46-.06.81-.06,1.42v2.07c0,.63.01.99.06,1.41-.31-.03-.82-.04-1.32-.04h-4.73ZM101.29,82.07c.62.57.95.93,1.74,1.95l-.36.31c.74.1,1.23.15,1.56.15.43,0,.54-.06.54-.36v-2.06h-3.48ZM101.32,75.14h4.26v-.63h-4.26v.63ZM101.32,76.94h4.26v-.68h-4.26v.68Z"/>
        <path d="M117.96,78.42c2.05,0,3.39,1.21,3.39,3.06s-1.12,3.02-3.37,3.73c-.81.26-2.15.5-2.75.5-.32,0-.39-.08-.6-.51-.16-.35-.34-.56-.79-.87,3.77-.3,5.62-1.26,5.62-2.9,0-.92-.64-1.46-1.72-1.46-1.37,0-2.78.71-3.93,1.95-.21.21-.41.46-.54.69s-.23.3-.36.3c-.22,0-.75-.22-1.11-.49-.18-.14-.24-.24-.24-.48q0-.12.04-.48s0-.15.01-.31c.08-.96.12-1.37.3-2.72q.03-.16.14-.87s.04-.33.12-.89c.01-.13.03-.25.03-.49.72.1,1.4.27,1.68.43.12.06.18.14.17.23,0,.06-.03.1-.07.2-.17.25-.21.39-.35.96-.13.57-.34,1.89-.38,2.38,1.53-1.41,2.87-1.96,4.71-1.96ZM117.69,74.15c.58.34.76.51.76.67,0,.14-.24.58-.5.96-.24.35-.33.42-.45.42-.07,0-.12-.03-.3-.17-1-.76-1.8-1.2-2.92-1.59-.22-.09-.27-.12-.27-.24,0-.15.12-.41.39-.79.24-.36.34-.45.51-.45.36,0,1.83.63,2.78,1.19Z"/>
        <path d="M126.91,77.36c-.67.13-1.32.3-1.74.45-.11.04-.2.06-.27.06-.13,0-.21-.07-.3-.33-.1-.33-.21-.85-.27-1.38.22.02.33.03.46.03.57,0,1.18-.08,2.13-.26l.03-.9c.02-.21.02-.36.02-.4,0-.65-.02-1.04-.08-1.44.79.03,1.29.09,1.77.21.2.04.29.13.29.27,0,.06-.01.1-.09.27-.13.28-.15.46-.25,1.71.33.23.62.54.62.69,0,.09-.04.17-.18.33-.22.24-.3.34-.58.76q-.03.39-.03.5c.5-.44.82-.72,1.33-1.09.57-.44,1.2-.84,1.65-1.06.58-.32.99-.42,1.53-.42.79,0,1.37.3,1.68.87.18.36.25.71.25,1.29,0,.51-.03.99-.12,2.08-.12,1.29-.18,2.25-.18,2.83s.13.76.55.76c.6,0,1.33-.44,1.98-1.17.01.58.06.77.25,1.37.04.12.06.19.06.25,0,.17-.08.3-.33.5-.61.49-1.5.81-2.29.81-1.32,0-1.92-.69-1.92-2.2,0-.69.04-1.58.2-3.67.04-.5.06-.92.06-1.12,0-.62-.21-.9-.66-.9s-1.33.48-2.52,1.39c-.6.45-.94.77-1.57,1.41v.69c0,1.12.07,3.72.13,4.63v.18c0,.12-.02.17-.04.21-.08.09-.51.15-1.2.15-.43,0-.53-.06-.53-.31,0-.09,0-.24.02-.4v-.35q.01-.52.08-3.38-.86,1.11-1.37,1.94c-.13.21-.23.29-.34.29s-.39-.24-.86-.75c-.29-.33-.39-.47-.39-.56,0-.07.03-.13.13-.24.95-.98,1.74-1.91,2.87-3.31l.03-1.27Z"/>
        <path d="M146.58,78.09c2.12,0,3.62,1.44,3.62,3.48,0,1.39-.74,2.65-1.96,3.39-.86.51-1.91.77-3.09.77-1.91,0-3.02-.77-3.02-2.07,0-1.19.99-2.02,2.4-2.02,1.27,0,2.19.64,2.8,1.96.76-.56,1.08-1.14,1.08-1.95,0-1.29-.92-2.13-2.36-2.13s-3.04.73-4.35,2.04c-.24.24-.46.5-.73.84-.11.15-.18.21-.27.21-.27,0-1.33-1.05-1.33-1.32,0-.13.06-.21.39-.45.34-.27.84-.7,1.47-1.3,1.46-1.38,2.52-2.54,4.09-4.46-1.88.24-3.13.45-3.6.62-.08.02-.12.03-.17.03-.12,0-.2-.07-.29-.3-.18-.45-.27-.94-.32-1.6.41.06.69.08,1.02.08.72,0,1.93-.1,3.51-.29.55-.06.73-.1,1.15-.27.14-.06.21-.08.3-.08.21,0,.42.18.81.78.29.39.38.58.38.71,0,.19-.04.25-.38.46-.27.17-.43.3-.78.63-.75.72-.76.72-1.69,1.67-.66.67-.74.75-1.33,1.35.97-.54,1.74-.77,2.64-.77ZM145.14,83.28c-.23-.15-.48-.23-.77-.23-.46,0-.76.23-.76.58,0,.44.46.71,1.18.71.33,0,.62-.03.99-.14-.18-.5-.33-.72-.64-.93Z"/>
        <path d="M156.51,78.36c1.89-.52,3.25-.77,4.27-.77,2.12,0,3.42,1.16,3.42,3.03,0,1.12-.46,2.12-1.35,2.87-.58.49-1.46.92-2.61,1.26-.64.18-1.33.31-1.63.31-.18,0-.27-.04-.33-.19-.21-.52-.45-.9-.76-1.21,3.3-.35,4.98-1.4,4.98-3.1,0-.87-.72-1.54-1.65-1.54-1.62,0-3.39.54-5.25,1.57-.15.08-.24.12-.3.12-.25,0-.67-.75-1.02-1.83.74-.1.99-.17,2.24-.51Z"/>
        <path d="M169.98,76.94c-.39.09-.53.13-1.07.33-.19.08-.3.1-.39.1-.33,0-.63-.61-.9-1.9.96-.04,1.31-.09,2.97-.34,1.8-.27,4.08-.62,5.28-.77,1.35-.18,2.43-.36,3-.48.1-.03.15-.03.22-.03.2,0,.27.09.41.46.12.31.21.76.21.97,0,.18-.06.24-.27.24-.32,0-.6.03-.89.08-2.53.42-4.56,2.64-4.56,4.98,0,1.75,1.38,2.91,3.72,3.12.21.01.29.09.29.27,0,.38-.15,1.09-.29,1.42-.08.17-.19.24-.39.24s-.65-.09-1.11-.22c-2.55-.75-3.88-2.37-3.88-4.67,0-1.25.41-2.4,1.19-3.39.42-.54.78-.84,1.63-1.43-1.96.33-4.04.72-5.17,1.01Z"/>
        <path d="M188.94,83.16c1.23,0,2.59-.18,3.94-.52.08-.03.12-.03.17-.03.09,0,.13.06.17.2.04.33.08.81.08,1.3,0,.3-.03.39-.17.45-.45.24-2.47.46-4.21.46-2.26,0-3.55-.38-4.59-1.35-.5-.46-.99-1.27-.99-1.6,0-.22.13-.31,1.37-1.02.54,1.49,1.79,2.12,4.25,2.12ZM189.07,74.54c.87,0,1.38-.03,2.4-.18h.11c.12,0,.17.04.2.13.03.18.06.63.06,1.17,0,.35-.03.47-.12.53-.12.07-1.42.17-2.43.17-1.33,0-2.45-.11-3.69-.35-.85-.17-.9-.21-.9-.73,0-.35.03-.92.08-1.33,1.3.4,2.73.6,4.3.6Z"/>
        <path d="M200.8,77.84c-.19-.66-.25-1.06-.43-2.91-.06-.72-.12-1.08-.27-1.59.91.02,1.5.06,1.9.17.23.06.33.17.33.33,0,.06-.01.13-.04.25-.1.36-.15.63-.15,1.02,0,.73.15,1.94.32,2.46.09.28.18.39.34.39.36,0,1.68-.69,2.4-1.24.19-.15.22-.17.3-.17.13,0,.27.1.5.39.38.51.67,1.06.67,1.27,0,.17-.11.27-.36.34-.93.25-2.46.85-3.49,1.35-1.83.9-2.66,1.73-2.66,2.65s.76,1.29,2.7,1.29c1.12,0,2.14-.1,3.52-.33.06-.02.17-.03.2-.03.12,0,.19.06.25.18.04.15.15,1.06.15,1.43,0,.21-.06.28-.26.34-.33.08-2.14.18-3.28.18-1.92,0-3.2-.25-3.99-.79-.67-.47-1.04-1.2-1.04-2.1,0-.69.2-1.31.6-1.9.52-.78,1.09-1.27,2.35-2.02-.31-.29-.43-.5-.57-.96Z"/>
        <path d="M214.75,82.01c.04.06.06.11.06.17q0,.09-.25.78c-.32.92-.51,1.67-.57,2.25-.01.19-.08.27-.27.31-.21.06-.61.09-1,.09-.15,0-.22-.03-.27-.12-.13-.28-.38-1.32-.5-2.16-.1-.71-.15-1.44-.15-2.21,0-1.73.2-3.36.74-6.3.09-.48.12-.71.17-1.17.69.09,1.17.23,1.6.44.23.12.32.23.32.36,0,.09-.03.17-.11.29-.61,1.05-1.18,4.29-1.18,6.69,0,.36.01.93.06,1.65.36-.93.52-1.35.85-2.07.11.41.21.6.51,1ZM217.27,78.06c-.72,0-.87-.03-.92-.19-.04-.13-.09-.61-.09-.96,0-.12,0-.24.01-.51.41.03.64.04,1.14.04.81,0,1.32-.02,2.1-.08-.02-1.9-.03-2.15-.18-2.85.74.01,1.29.07,1.77.19.22.06.31.14.31.29,0,.06-.01.1-.06.22-.15.35-.23.93-.25,1.98.55-.07,1.03-.18,1.93-.39.08-.03.1-.03.15-.03.09,0,.13.04.17.15.03.14.07.71.07,1.02,0,.38-.01.44-.17.5-.24.12-.9.23-2.17.39,0,1.03.09,2.74.2,3.72.95.4,1.59.75,2.25,1.21.42.3.51.41.51.51,0,.17-.27.67-.58,1.11-.18.25-.27.33-.38.33s-.1,0-.45-.33c-.33-.33-.67-.58-1.33-1.02v.12c0,1.32-1.09,2.19-2.76,2.19s-2.8-.9-2.8-2.25,1.14-2.35,2.66-2.35c.55,0,.84.02,1.24.08q-.06-1.17-.1-3.18c-.65.04-1.67.09-2.26.09ZM218.5,82.47c-.75,0-1.25.34-1.25.87,0,.48.46.78,1.19.78.79,0,1.21-.36,1.21-1.05,0-.21-.02-.38-.02-.38-.39-.15-.73-.23-1.14-.23Z"/>
        <path d="M225.57,82.26c.27-.24.34-.3.45-.3.19,0,1.09.66,1.75,1.29.75.69,1.59,1.69,1.59,1.9,0,.14-.03.17-.46.56-.57.52-.69.62-.79.62-.09,0-.18-.06-.25-.21-.53-.93-1.73-2.16-2.79-2.85-.12-.09-.18-.15-.18-.24,0-.1.03-.15.69-.76Z"/>
        <path d="M241.17,80.21c0-.36,0-.51.03-1.59-.34.6-.67,1.05-1.2,1.65-.19-.6-.36-.98-.75-1.69,1.05-1.05,1.94-2.42,2.55-3.98.3-.73.5-1.42.57-1.95l1.62.5c-.12.36-.17.48-.29.81-.33.99-.53,1.45-1,2.38v8.02c0,.66.03,1.2.08,1.74h-1.7c.08-.51.09-.98.09-1.75v-4.14ZM245.98,78.62v5.04c0,.28.07.38.39.45.36.08.79.1,1.77.1,1.68,0,2.29-.06,2.61-.27.17-.1.29-.36.34-.66.04-.29.06-.45.11-1.14.63.25.87.33,1.57.45-.18,1.65-.38,2.22-.82,2.55-.53.4-1.52.52-4.09.52-2.73,0-3.41-.29-3.41-1.44v-5.11l-.29.1c-.42.13-.58.19-.84.31l-.12-1.63c.33-.05.75-.15,1.25-.29v-1.69c0-.69-.01-1.08-.08-1.53h1.68c-.06.47-.07.77-.07,1.47v1.27l1.48-.48v-2.34c0-.57-.03-.96-.09-1.44h1.68c-.06.45-.09.81-.09,1.41v1.91l2.1-.68c.57-.18.89-.3,1.17-.44-.01.23-.01.45-.01.78-.03,1.72-.13,3.69-.25,4.63-.13,1.09-.5,1.4-1.62,1.4-.25,0-.42,0-.78-.03-.06-.57-.15-.88-.4-1.47.38.07.76.12.99.12.32,0,.38-.09.47-.78.06-.55.1-1.47.12-2.65l-1.77.57v3.75c0,.58.01.96.08,1.44h-1.65c.06-.44.08-.83.08-1.48v-3.21l-1.48.48Z"/>
        <path d="M258.22,81.72c.04.07.06.13.06.21,0,.1-.02.12-.15.45-.3.69-.66,1.77-.84,2.58-.04.17-.09.25-.15.29-.08.03-.59.1-.75.1h-.06c-.08,0-.18-.02-.3-.02-.2,0-.24-.04-.3-.23-.29-.97-.51-2.98-.51-4.5,0-1.65.1-2.67.52-4.92.15-.81.22-1.26.29-1.75.63.12,1.17.27,1.62.48.25.1.33.18.33.33,0,.1-.02.15-.18.39-.5.79-1.05,3.98-1.05,6.12,0,.34.02.81.06,1.56.42-.94.57-1.23.92-1.96.13.31.22.46.49.87ZM261.48,82.79c.48.25,1.05.34,2.06.34s1.53-.07,2.46-.34c.09-.03.16-.04.21-.04.1,0,.18.06.19.21.08.51.13,1.11.13,1.41,0,.15-.04.2-.25.26-.81.21-1.63.31-2.64.31-1.38,0-2.23-.17-2.94-.58-.66-.41-1.35-1.23-1.35-1.64,0-.21.32-.49,1.12-.99.27.54.53.81,1,1.06ZM260.43,75.14c.33.08,1.29.14,2.03.14.99,0,1.98-.08,2.91-.24q.08-.01.14-.01c.1,0,.15.04.18.16.03.15.08.81.08,1.22,0,.22-.04.3-.21.33-.62.12-1.63.19-2.71.19-1.29,0-2.45-.08-2.59-.17-.08-.04-.11-.15-.11-.42,0-.41.04-1,.08-1.12.01-.06.06-.09.15-.09.02,0,.04,0,.08.01Z"/>
        <path d="M272.74,77.57c-1.07-.21-1.88-.52-2.43-.92-.27-.18-.33-.25-.33-.39,0-.17.12-.46.54-1.3.73.46,1.56.79,2.5.99.21-1.05.3-1.92.31-2.9.77.14,1.44.36,1.82.57.17.09.22.18.21.3,0,.06-.03.12-.11.27-.22.46-.24.51-.55,1.98.15.02.34.02.46.02h.11c.36-.02.63-.02.76-.02h.04c.13,0,.18.06.18.25,0,.66-.04,1.2-.1,1.31-.04.07-.24.1-.87.1-.29,0-.51-.02-.93-.03q-.32,1.54-.45,2.35c.51.04.62.04.87.04h.84c.15-.01.22.02.27.09.06.09.11.57.11,1.11,0,.27-.02.34-.11.39-.08.03-.4.05-.97.05-.27,0-.67-.02-1.2-.05-.01.27-.01.45-.01.57,0,1.38.64,2.01,2.05,2.01,1.58,0,2.52-.77,2.52-2.05,0-.47-.1-.89-.34-1.35-.3-.57-.58-.9-1.3-1.47h.13c.24,0,.75-.07,1.2-.16.24-.05.33-.06.41-.06.22,0,.38.1.67.48.69.84,1.04,1.72,1.04,2.65,0,2.11-1.71,3.51-4.31,3.51-2.43,0-3.64-1.21-3.64-3.67,0-.21,0-.38.03-.63-1.49-.31-2.29-1.05-2.29-2.12,0-.55.17-.96.58-1.38.04-.06.1-.07.17-.07.09,0,.19.07.54.36.27.23.31.27.31.35q0,.06-.09.19c-.06.1-.12.27-.12.36,0,.19.12.36.35.46.21.1.27.12.75.23l.39-2.43Z"/>
        <path d="M286.2,84.24c0,.78.03,1.32.08,1.84h-1.7c.06-.57.09-1.09.09-1.86v-4.02c0-.69.01-1.06.04-1.6-.33.57-.66,1.02-1.14,1.59-.27-.72-.48-1.11-.81-1.6,1.01-1.08,1.74-2.19,2.34-3.56.38-.87.66-1.75.76-2.43l1.58.57c-.6,1.75-.65,1.85-1.25,3.19v7.88ZM289.18,75.02c-.75,0-1.26.01-1.68.07v-1.59c.48.06.99.09,1.65.09h5.43c.61,0,1.12-.03,1.63-.09v1.57c-.39-.04-.55-.04-1.07-.06v9.3c0,.71-.21,1.12-.64,1.29-.38.15-.98.21-1.89.21-.09,0-.32,0-.65-.02h-.52c-.09-.84-.15-1.09-.39-1.62.63.09,1.21.13,1.75.13.67,0,.81-.06.81-.39v-8.91h-4.44ZM292.32,81.06c0,.57.02.81.04,1.12-.3-.03-.52-.04-1.11-.04h-2.16v1.04h-1.5c.04-.35.06-.72.06-1.12v-4.44c0-.48-.02-.83-.06-1.14.3.03.65.04,1.16.04h2.5c.58,0,.84-.01,1.11-.04-.03.3-.04.56-.04,1.12v3.46ZM289.09,80.78h1.82v-2.91h-1.82v2.91Z"/>
        <path d="M299.13,78.39c-.12.03-.18.06-.27.1-.08.04-.12.06-.2.06-.32,0-.55-.58-.74-1.69.12.02.23.02.29.02.63,0,2.24-.2,3.2-.39.31-1.32.48-2.31.48-3.03,0-.06,0-.14-.01-.25.64.07,1.26.21,1.68.38.24.09.36.22.36.38,0,.07-.02.12-.09.24q-.23.4-.69,2.05c.36-.04.76-.07,1.02-.07.62,0,1.1.12,1.44.36.6.44.9,1.32.9,2.69,0,2.23-.41,4.14-1.1,5.08-.48.66-1.11.98-1.99.98-.54,0-1.05-.07-1.2-.17q-.12-.07-.17-.63c-.04-.4-.13-.75-.32-1.17.78.25.98.3,1.46.3.72,0,1.02-.34,1.35-1.54.23-.79.35-1.83.35-2.92,0-1.17-.29-1.59-1.08-1.59-.27,0-.71.03-1.05.09-.04.17-.06.18-.12.39-.42,1.53-1.19,3.55-1.95,5.17-.79,1.63-.99,1.96-1.18,1.96-.12,0-.53-.21-.96-.5-.35-.21-.44-.3-.44-.42q0-.07.62-1.05c.83-1.27,1.91-3.78,2.28-5.25-1.11.24-1.73.39-1.86.44ZM306.78,76.71c0-.1.14-.24.57-.58.3-.23.45-.31.55-.31.09,0,.17.04.36.24.88.85,1.71,2,2.19,2.98.15.33.24.54.24.63,0,.15-.04.2-.52.58-.3.24-.65.44-.77.44-.1,0-.15-.04-.25-.3-.3-.73-.58-1.31-.94-1.86-.39-.6-.47-.69-1.35-1.64-.06-.09-.08-.13-.08-.18Z"/>
        <path d="M314.58,76.94c-.39.09-.53.13-1.07.33-.19.08-.3.1-.39.1-.33,0-.63-.61-.9-1.9.96-.04,1.31-.09,2.97-.34,1.8-.27,4.08-.62,5.28-.77,1.35-.18,2.43-.36,3-.48.1-.03.15-.03.22-.03.2,0,.27.09.41.46.12.31.21.76.21.97,0,.18-.06.24-.27.24-.32,0-.6.03-.89.08-2.53.42-4.56,2.64-4.56,4.98,0,1.75,1.38,2.91,3.72,3.12.21.01.29.09.29.27,0,.38-.15,1.09-.29,1.42-.08.17-.19.24-.39.24s-.65-.09-1.11-.22c-2.55-.75-3.88-2.37-3.88-4.67,0-1.25.41-2.4,1.19-3.39.42-.54.78-.84,1.63-1.43-1.96.33-4.04.72-5.17,1.01ZM322.26,77.33c.21,0,1.48,1.43,1.48,1.65,0,.08-.09.17-.36.41-.29.24-.3.24-.42.28q-.08.03-.11.03c-.06,0-.08-.02-.34-.44-.24-.38-.5-.71-.97-1.2-.03-.03-.08-.1-.08-.12.03-.08.04-.12.06-.12.04-.06.3-.27.36-.31.15-.08.24-.14.25-.15.01-.03.04-.03.04-.03h.08ZM324.82,78.36c-.22.17-.36.25-.43.25-.06,0-.09-.03-.17-.15-.45-.67-.67-.96-1.16-1.42-.03-.05-.06-.09-.06-.12,0-.08.09-.17.3-.31s.39-.24.46-.24c.11,0,.29.14.6.45.44.45.84,1,.84,1.14,0,.09-.11.2-.39.41Z"/>
        <path d="M100.83,101.86c-1.29.22-2.62.38-3.43.38-.24,0-.34-.05-.38-.18-.06-.23-.12-.67-.15-1.23,1.22,0,2.15-.08,3.48-.29q-.08-.22-.27-.78c-.13-.36-.25-.66-.42-.98.65-.13,1.23-.21,1.77-.21.13,0,.21.09.21.24v.21c0,.27.06.63.21,1.21,1.12-.25,2.08-.57,2.85-.9.12-.04.15-.06.2-.06.07,0,.12.08.25.39.13.34.27.73.27.81s-.03.1-.12.15c-.88.38-1.29.51-3.03.94.21.52.27.66.52,1.2.83-.22,1.23-.36,1.53-.51l1.41-.71s.04-.03.04-.03c.01,0,.04.01.06.01.06,0,.12.09.25.38.18.36.33.77.33.85q0,.1-.31.27c-.83.45-1.47.71-2.55,1,.6.89,1.46,1.85,1.96,2.21s.52.39.52.54c0,.13-.15.45-.43.94-.25.44-.38.56-.54.56-.09,0-.11,0-.33-.17-.76-.58-2.31-.99-3.79-.99-1.29,0-2.1.45-2.1,1.2,0,.46.36.84,1,1.08.58.21,1.88.34,3.27.34.33,0,.62-.01,1.2-.04-.27.39-.41.66-.58,1.29-.09.31-.2.38-.66.38-1.6,0-3.03-.18-3.99-.52-1.28-.45-1.95-1.29-1.95-2.42,0-1.6,1.32-2.58,3.51-2.58,1.35,0,2.21.15,3.15.57-.84-.79-1.29-1.33-1.72-2.04-.72.15-1.08.21-1.56.29-.86.12-2.42.24-3.04.24-.48,0-.5-.02-.63-1.42.33.02.58.02.73.02.96,0,2.79-.2,3.79-.41-.18-.38-.38-.81-.54-1.24Z"/>
        <path d="M117.66,103.6c2.12,0,3.62,1.44,3.62,3.48,0,1.39-.74,2.65-1.96,3.39-.86.51-1.91.77-3.09.77-1.91,0-3.02-.77-3.02-2.07,0-1.19.99-2.02,2.4-2.02,1.27,0,2.19.64,2.8,1.96.76-.56,1.08-1.14,1.08-1.95,0-1.29-.92-2.13-2.36-2.13s-3.04.73-4.35,2.04c-.24.24-.46.5-.73.84-.11.15-.18.21-.27.21-.27,0-1.33-1.05-1.33-1.32,0-.13.06-.21.39-.45.34-.27.84-.7,1.47-1.3,1.46-1.38,2.52-2.54,4.09-4.46-1.88.24-3.13.45-3.6.62-.08.02-.12.03-.17.03-.12,0-.2-.07-.29-.3-.18-.45-.27-.94-.32-1.6.41.06.69.08,1.02.08.72,0,1.93-.1,3.51-.29.55-.06.73-.1,1.15-.27.14-.06.21-.08.3-.08.21,0,.42.18.81.78.29.39.38.58.38.71,0,.19-.04.25-.38.46-.27.17-.43.3-.78.63-.75.72-.76.72-1.69,1.67-.66.67-.74.75-1.33,1.35.97-.54,1.74-.77,2.64-.77ZM116.22,108.79c-.23-.15-.48-.23-.77-.23-.46,0-.76.23-.76.58,0,.44.46.71,1.18.71.33,0,.62-.03.99-.14-.18-.5-.33-.72-.64-.93Z"/>
        <path d="M131.1,108.67c1.23,0,2.59-.18,3.94-.52.08-.03.12-.03.17-.03.09,0,.13.06.17.2.04.33.08.81.08,1.3,0,.3-.03.39-.17.45-.45.24-2.47.46-4.21.46-2.26,0-3.55-.38-4.59-1.35-.5-.46-.99-1.27-.99-1.6,0-.22.13-.31,1.37-1.02.54,1.49,1.79,2.12,4.25,2.12ZM131.23,100.05c.87,0,1.38-.03,2.4-.18h.11c.12,0,.17.04.2.13.03.18.06.63.06,1.17,0,.35-.03.47-.12.53-.12.07-1.42.17-2.43.17-1.33,0-2.45-.11-3.69-.35-.85-.17-.9-.21-.9-.73,0-.35.03-.92.08-1.33,1.3.4,2.73.6,4.3.6Z"/>
        <path d="M142.96,103.35c-.19-.66-.25-1.06-.43-2.91-.06-.72-.12-1.08-.27-1.59.91.02,1.5.06,1.9.17.23.06.33.17.33.33,0,.06-.01.13-.04.25-.1.36-.15.63-.15,1.02,0,.73.15,1.94.32,2.46.09.28.18.39.34.39.36,0,1.68-.69,2.4-1.24.19-.15.22-.17.3-.17.13,0,.27.1.5.39.38.51.67,1.06.67,1.27,0,.17-.11.27-.36.34-.93.25-2.46.85-3.49,1.35-1.83.9-2.66,1.73-2.66,2.65s.76,1.29,2.7,1.29c1.12,0,2.14-.1,3.52-.33.06-.02.17-.03.2-.03.12,0,.19.06.25.18.04.15.15,1.06.15,1.43,0,.21-.06.28-.26.34-.33.08-2.14.18-3.28.18-1.92,0-3.2-.25-3.99-.79-.67-.47-1.04-1.2-1.04-2.1,0-.69.2-1.31.6-1.9.52-.78,1.09-1.27,2.35-2.02-.31-.29-.43-.5-.57-.96Z"/>
        <path d="M154.32,104.23c-.12.03-.18.06-.27.1-.08.04-.12.06-.18.06-.33,0-.57-.57-.75-1.68h.29c.63,0,2.24-.19,3.2-.39.31-1.31.48-2.31.48-3.02,0-.06,0-.15-.01-.25.64.06,1.26.19,1.68.38.24.09.36.21.36.36,0,.08-.02.14-.09.26q-.23.39-.69,2.04c.36-.04.76-.07,1.02-.07.62,0,1.1.12,1.44.36.6.44.9,1.32.9,2.69,0,2.23-.41,4.15-1.1,5.1-.48.66-1.11.98-2,.98-.54,0-1.05-.08-1.2-.17q-.12-.08-.17-.63c-.04-.41-.13-.77-.32-1.19.78.27.98.31,1.46.31.72,0,1.02-.35,1.35-1.56.23-.79.35-1.81.35-2.92,0-1.17-.29-1.59-1.08-1.59-.27,0-.71.04-1.05.09-.04.18-.06.19-.12.39-.42,1.54-1.19,3.55-1.95,5.17-.79,1.63-.99,1.96-1.18,1.96-.12,0-.53-.21-.96-.5-.35-.21-.44-.3-.44-.42q0-.07.62-1.05c.83-1.27,1.91-3.77,2.28-5.25-1.11.25-1.73.39-1.86.44ZM163.74,101.16c-.24.18-.41.25-.48.25-.04,0-.09-.03-.13-.1-.32-.51-.84-1.1-1.28-1.47-.03-.03-.04-.06-.04-.09,0-.06.11-.17.36-.36.25-.18.33-.23.43-.23.24,0,1.56,1.33,1.56,1.58,0,.09-.12.19-.42.42ZM162.15,102.75c0-.1.13-.24.57-.58.3-.23.45-.31.57-.31.2,0,.87.72,1.5,1.6.52.75,1.09,1.81,1.09,2.07,0,.15-.04.19-.52.58-.3.24-.65.44-.77.44-.1,0-.15-.04-.25-.3-.29-.72-.54-1.21-.95-1.86-.4-.65-.43-.67-1.15-1.45-.06-.08-.09-.12-.09-.18ZM164.11,98.14c.25,0,1.53,1.27,1.53,1.53,0,.07-.09.16-.39.38-.27.21-.41.28-.46.28q-.08,0-.38-.42c-.25-.34-.74-.85-1-1.08-.04-.04-.08-.07-.08-.12,0-.12.62-.57.78-.57Z"/>
        <path d="M171.57,102c-.69.04-1.33.06-1.91.06-.63,0-.67,0-.71-.09-.04-.09-.09-.72-.09-1.16v-.28c.71.03,1,.04,1.38.04s.95-.02,1.4-.03c.07-.87.09-1.17.09-1.47,0-.14,0-.23-.02-.44.72.02,1.28.06,1.71.17.12.03.18.09.18.19,0,.08-.02.14-.09.31-.12.29-.21.68-.27,1.14.96-.08,2.12-.23,2.58-.33.45-.1.76-.17.84-.17.32-.03.54-.09.63-.17.02-.01.03-.01.03-.01.03,0,.04.01.08.01.06,0,.1.06.13.17.03.23.08.75.08,1.08,0,.23-.04.29-.2.31-.88.18-2.71.4-4.29.54-.01.06-.01.09-.01.24-.03.29-.03.32-.04,1.07.66-.15,1.25-.23,1.98-.23.11-.48.12-.6.15-.95,1.16.24,1.72.45,1.72.63,0,.06-.01.1-.13.3-.04.06-.08.1-.11.21,1.94.45,3.17,1.88,3.17,3.72,0,1.64-.88,2.94-2.58,3.84-.63.33-1.51.63-1.84.63-.17,0-.29-.06-.38-.18-.31-.45-.51-.66-.99-1.06,1.56-.29,2.32-.6,3.07-1.21.69-.58,1.02-1.26,1.02-2.1,0-1.2-.71-2.1-1.91-2.44-.9,2.07-1.5,3.04-2.58,4.15.08.25.13.4.27.72.06.12.07.17.07.21,0,.15-.06.2-.4.38-.38.2-.81.35-.96.35-.13,0-.17-.04-.33-.51-.87.61-1.8.94-2.71.94-1.02,0-1.71-.83-1.71-2.02,0-1.88,1.37-3.71,3.63-4.83.01-.78.03-1.44.04-1.74ZM169.45,108.3c0,.38.23.6.6.6.51,0,1.18-.29,1.86-.78-.21-1.02-.3-1.71-.38-2.83-1.32.98-2.08,2.1-2.08,3.02ZM174.7,104.16c-.67.06-1.04.12-1.65.33.03,1.06.06,1.52.18,2.28.63-.8,1.05-1.54,1.47-2.61Z"/>
        <path d="M189.96,103.6c2.12,0,3.62,1.44,3.62,3.48,0,1.39-.74,2.65-1.96,3.39-.86.51-1.91.77-3.09.77-1.91,0-3.02-.77-3.02-2.07,0-1.19.99-2.02,2.4-2.02,1.27,0,2.19.64,2.8,1.96.76-.56,1.08-1.14,1.08-1.95,0-1.29-.92-2.13-2.36-2.13s-3.04.73-4.35,2.04c-.24.24-.46.5-.73.84-.11.15-.18.21-.27.21-.27,0-1.33-1.05-1.33-1.32,0-.13.06-.21.39-.45.34-.27.84-.7,1.47-1.3,1.46-1.38,2.52-2.54,4.09-4.46-1.88.24-3.13.45-3.6.62-.08.02-.12.03-.17.03-.12,0-.2-.07-.29-.3-.18-.45-.27-.94-.32-1.6.41.06.69.08,1.02.08.72,0,1.93-.1,3.51-.29.55-.06.73-.1,1.16-.27.13-.06.21-.08.3-.08.21,0,.42.18.81.78.29.39.38.58.38.71,0,.19-.04.25-.38.46-.27.17-.43.3-.78.63-.75.72-.76.72-1.69,1.67-.66.67-.74.75-1.33,1.35.97-.54,1.74-.77,2.64-.77ZM188.52,108.79c-.23-.15-.48-.23-.77-.23-.46,0-.76.23-.76.58,0,.44.46.71,1.18.71.33,0,.62-.03.99-.14-.18-.5-.33-.72-.64-.93Z"/>
        <path d="M202.11,107.95c-.72,1.25-1.71,1.94-2.73,1.94-1.56,0-2.67-1.53-2.67-3.66,0-2.37,1.2-4.41,3.25-5.49,1-.54,2.08-.78,3.51-.78,3.14,0,5.46,2.22,5.46,5.19,0,2.62-1.29,4.51-3.78,5.58-.5.21-.89.33-1.08.33-.18,0-.25-.06-.45-.34-.25-.39-.54-.68-.95-.95,3.09-.79,4.49-2.25,4.49-4.68,0-1.25-.53-2.29-1.46-2.96-.53-.36-.95-.51-1.77-.64-.42,3.16-.92,4.89-1.83,6.46ZM199.95,102.64c-1,.88-1.58,2.15-1.58,3.55,0,1.16.38,1.83,1,1.83.75,0,1.52-1.04,2.08-2.82.36-1.12.54-1.98.77-3.65-1.07.23-1.59.48-2.28,1.08Z"/>
        <path d="M213.49,101.32c.34-.9.67-1.38,1.25-1.86.69-.57,1.51-.84,2.56-.84,2.25,0,3.69,1.23,3.69,3.15,0,.65-.18,1.26-.53,1.75-.27.39-.39.51-1.23,1.27-1.17,1.05-1.42,1.46-1.42,2.25v.79h-1.53v-.84c0-.67.13-1.27.41-1.75.21-.38.43-.63,1.03-1.23.63-.61.83-.84.99-1.11.21-.3.33-.72.33-1.12,0-1-.67-1.63-1.74-1.63s-1.69.55-2.14,1.86l-1.67-.69ZM218.28,110.07c0,.66-.53,1.18-1.19,1.18s-1.18-.52-1.18-1.18.52-1.19,1.18-1.19,1.19.52,1.19,1.19Z"/>
        <path d="M239.1,103.9h2.13c.68,0,1.1-.03,1.54-.09v1.63c-.48-.04-.93-.07-1.56-.07h-1.62c.86,1.5,2.1,2.74,3.58,3.58-.48.48-.69.78-.99,1.5-.61-.43-1.05-.85-1.62-1.5-.74-.85-1.05-1.32-1.53-2.22.03.54.04,1,.04,1.44v1.81c0,.67.03,1.2.09,1.67h-1.67c.06-.46.09-1,.09-1.68v-1.71c0-.4.02-.88.04-1.48-.91,1.65-1.93,2.76-3.39,3.73-.38-.71-.58-1-.9-1.36,1.54-.89,2.8-2.17,3.67-3.78h-.95c-.64,0-1.11.03-1.58.09v-.6c-.25.36-.43.69-.61,1.22-.38-.59-.6-1.05-.89-1.8.03.47.06,1.27.06,1.91v3.69c0,.77.03,1.32.09,1.77h-1.67c.06-.46.09-1.02.09-1.77v-3.1c0-.57.02-.93.11-1.86-.44,1.46-.87,2.43-1.52,3.41-.18-.68-.37-1.11-.67-1.6.72-.92,1.47-2.61,1.92-4.35h-.57c-.44,0-.69.02-.96.06v-1.53c.24.04.51.06.96.06h.72v-1.16c0-.76-.01-1.14-.08-1.5h1.65c-.06.39-.08.8-.08,1.5v1.16h.43c.36,0,.54-.02.78-.06v1.42c.57-1.02,1.05-2.52,1.09-3.49l1.46.38c-.06.17-.1.34-.21.79-.08.27-.1.4-.18.69h1.15v-.99c0-.61-.03-.99-.09-1.36h1.68c-.06.36-.09.77-.09,1.36v.99h1.7c.72,0,1.14-.03,1.54-.09v1.58c-.42-.04-.9-.08-1.54-.08h-1.7v1.81ZM235.96,102.09c-.25.62-.39.9-.81,1.6q-.36-.38-1.17-.94c.12-.17.17-.24.24-.35-.2-.03-.44-.04-.71-.04h-.38c.34.79.71,1.4,1.36,2.28v-.82c.45.06.87.09,1.56.09h1.53v-1.81h-1.63Z"/>
        <path d="M246.51,102.54c-.96,0-1.38.02-1.75.06v-1.65c.5.07.93.09,1.73.09h8.32c.75,0,1.23-.03,1.75-.09v1.65c-.5-.04-.92-.06-1.75-.06h-3.36v2.5h2.77c.63,0,1.08-.02,1.54-.08v1.64c-.48-.06-.78-.08-1.5-.08h-2.82v2.98h3.84c.75,0,1.27-.03,1.9-.09v1.71c-.63-.08-1.11-.1-1.88-.1h-9.16c-.86,0-1.32.03-1.95.1v-1.71c.5.06,1.08.09,1.91.09h3.66v-2.98h-2.58c-.77,0-1.14.02-1.64.08v-1.64c.44.06.77.08,1.52.08h2.7v-2.5h-3.25ZM249.15,98.14c1.48.51,1.98.71,3.73,1.54l-1.08,1.29c-1.46-.82-2.53-1.29-3.82-1.67l1.17-1.17Z"/>
        <path d="M262.18,103.87c1.89-.52,3.25-.77,4.27-.77,2.12,0,3.42,1.16,3.42,3.03,0,1.12-.46,2.12-1.35,2.87-.58.49-1.46.92-2.61,1.26-.64.18-1.33.31-1.63.31-.18,0-.27-.04-.33-.19-.21-.52-.45-.9-.76-1.21,3.3-.35,4.98-1.4,4.98-3.1,0-.87-.72-1.54-1.65-1.54-1.62,0-3.39.54-5.25,1.57-.15.08-.24.12-.3.12-.25,0-.67-.75-1.02-1.83.74-.1.99-.17,2.24-.51Z"/>
        <path d="M275.65,102.45c-.39.09-.53.13-1.07.33-.19.08-.3.1-.39.1-.33,0-.63-.61-.9-1.9.96-.04,1.31-.09,2.97-.34,1.8-.27,4.08-.62,5.28-.77,1.35-.18,2.43-.36,3-.48.1-.03.15-.03.22-.03.2,0,.27.09.41.46.12.31.21.76.21.97,0,.18-.06.24-.27.24-.32,0-.6.03-.89.08-2.53.42-4.56,2.64-4.56,4.98,0,1.75,1.38,2.91,3.72,3.12.21.01.29.09.29.27,0,.38-.15,1.09-.29,1.42-.08.17-.19.24-.39.24s-.65-.09-1.11-.22c-2.55-.75-3.88-2.37-3.88-4.67,0-1.25.41-2.4,1.19-3.39.42-.54.78-.84,1.63-1.43-1.96.33-4.04.72-5.17,1.01Z"/>
        <path d="M287.86,107.77c.27-.24.34-.3.45-.3.19,0,1.09.66,1.75,1.29.75.69,1.59,1.69,1.59,1.9,0,.14-.03.17-.46.56-.57.52-.69.62-.79.62-.09,0-.18-.06-.25-.21-.53-.93-1.73-2.16-2.79-2.85-.12-.09-.18-.15-.18-.24,0-.1.03-.15.69-.76Z"/>
        <path d="M307.86,106.17c.34-.1.6-.15.85-.15,1.04,0,1.51.61,1.71,2.16.1.89.15,1.05.36,1.23.18.18.46.24.99.24.71,0,1.05-.06,2.28-.39.04-.02.08-.02.1-.02.09,0,.14.03.2.14.11.24.23,1.03.23,1.47,0,.14-.03.19-.17.23-.41.1-1.83.23-2.7.23-1.3,0-2-.24-2.4-.85-.25-.41-.38-.85-.46-1.79-.1-1.15-.29-1.44-.88-1.44-.54,0-.96.27-1.84,1.15-.86.85-1.59,1.76-2.08,2.54-.09.15-.2.24-.29.24-.1,0-.21-.09-.67-.58-.45-.49-.62-.69-.62-.78,0-.1.03-.13.3-.38q.36-.3,5.94-6.24c-2.42.44-3.95.75-4.31.88-.16.06-.22.08-.3.08-.13,0-.17-.04-.25-.34-.15-.5-.22-.89-.29-1.49.32.02.42.02.53.02.66,0,2.5-.18,4.17-.42,1.26-.17,1.46-.21,1.79-.38.09-.04.18-.08.24-.08.38,0,1.23.98,1.23,1.41,0,.18-.06.25-.25.36-.23.09-.54.3-.81.52-.15.12-.6.54-.81.74l-1.77,1.69ZM306.07,98.67c.06-.18.1-.25.18-.24s.12.02.15.03c.61.21,1.18.35,1.83.47.93.18,1.07.19,2.67.27.18.01.2.06.2.42,0,.45-.06,1-.13,1.12-.04.09-.11.13-.18.13s-1.7-.18-1.94-.21c-1.08-.17-2.02-.39-2.86-.69-.14-.06-.18-.1-.18-.21,0-.14.11-.58.27-1.1Z"/>
        <path d="M324.85,103.93c2.05,0,3.39,1.21,3.39,3.06s-1.12,3.02-3.37,3.73c-.81.26-2.15.5-2.75.5-.32,0-.39-.08-.6-.51-.16-.35-.34-.56-.79-.87,3.77-.3,5.62-1.26,5.62-2.9,0-.92-.64-1.46-1.72-1.46-1.37,0-2.78.71-3.93,1.95-.21.21-.41.46-.54.69s-.23.3-.36.3c-.22,0-.75-.22-1.11-.49-.18-.14-.24-.24-.24-.48q0-.12.04-.48s0-.15.01-.31c.08-.96.12-1.37.3-2.72q.03-.16.14-.87s.04-.33.12-.89c.01-.13.03-.25.03-.49.72.1,1.4.27,1.68.43.12.06.18.14.16.23,0,.06-.03.1-.07.2-.17.25-.21.39-.35.96-.13.57-.34,1.89-.38,2.38,1.53-1.41,2.87-1.96,4.71-1.96ZM324.58,99.66c.58.34.76.51.76.67,0,.14-.24.58-.5.96-.24.35-.33.42-.45.42-.07,0-.12-.03-.3-.17-1-.76-1.8-1.2-2.92-1.59-.22-.09-.27-.12-.27-.24,0-.15.12-.41.39-.79.24-.36.34-.45.51-.45.36,0,1.83.63,2.78,1.19Z"/>
        <path d="M96.04,127.01c0-.44-.02-1.02-.04-1.35.69.07,1.2.18,1.6.33.36.14.48.23.48.39q0,.09-.06.24c-.2.51-.25,1.08-.25,2.44,0,1.92.12,3.12.42,4.03.22.71.57,1.11.97,1.11.62,0,1.12-.72,1.68-2.38.28.77.39.99.81,1.53.08.1.12.21.12.31,0,.24-.22.75-.53,1.19-.58.85-1.33,1.32-2.13,1.32-1.15,0-2.02-.93-2.56-2.77-.34-1.2-.51-2.71-.51-4.81v-1.58ZM104.97,127.26c.09,0,.17.04.29.15.75.72,1.53,1.92,2.03,3.09.33.79.64,1.86.64,2.17,0,.15-.08.23-.39.39-.34.18-1.05.42-1.23.42-.13,0-.19-.08-.24-.34-.2-1.16-.46-2-.93-2.97-.42-.87-.45-.92-1.47-2.17.63-.46,1.12-.73,1.3-.73Z"/>
        <path d="M117,124.02c-.04.24-.09.94-.09,1.48,0,2.34.38,3.84,1.41,5.68.6,1.06,1.25,1.83,2.26,2.73.86.73,1.29,1.05,2.22,1.54-.54.57-.78.92-1.11,1.6-1.74-1.21-2.64-2.06-3.66-3.39-.88-1.17-1.42-2.29-1.91-3.94-.28,1.16-.54,1.81-1.14,2.91-.57,1.05-1.2,1.83-2.21,2.76-.76.69-1.23,1.05-2.23,1.67-.33-.67-.62-1.04-1.12-1.48,1.48-.79,2.25-1.37,3.15-2.42,1.86-2.13,2.64-4.48,2.64-7.93,0-.56-.01-.83-.07-1.21h1.86Z"/>
        <path d="M125.74,128.29c-.27.02-.43.03-.61.05-.14.01-.15.01-.17.01-.12,0-.18-.04-.23-.19-.08-.24-.18-1.04-.19-1.48.17.01.6.03,1.14.03.17,0,1.35-.07,1.88-.12.25-1.21.34-1.84.34-2.65,1.54.21,2.1.39,2.1.68,0,.1-.01.13-.24.48-.12.18-.17.34-.42,1.27.7-.12,1.12-.23,1.68-.41.1-.03.15-.04.22-.04.11,0,.13.08.23.51.07.38.12.69.12.85,0,.18-.04.21-.43.3-.51.12-1.38.27-2.31.39-.56,1.68-.93,2.58-1.62,3.99-.53,1.05-.83,1.6-1.23,2.23-.12.18-.19.24-.3.24-.15,0-.57-.22-1.09-.61-.24-.17-.3-.24-.3-.35s.06-.19.25-.46c.43-.54,1-1.47,1.5-2.46.42-.82.57-1.17,1-2.35-.58.04-.63.06-1.32.1ZM130.68,136.93c-1.64,0-2.75-.9-2.75-2.23s1.15-2.41,2.7-2.41c.36,0,.53.01,1.14.1-.06-.72-.06-1.01-.12-2.4,0-.29-.03-.68-.06-1.16.77.08,1.35.17,1.64.29.12.04.18.12.18.24,0,.08-.01.14-.03.24-.08.31-.09.54-.09.94,0,.56.04,1.5.09,2.23,1.07.48,1.5.72,2.25,1.31.33.25.45.39.45.51,0,.15-.08.29-.5.96-.18.3-.31.44-.42.44q-.09,0-.51-.39c-.33-.33-.71-.58-1.23-.9,0,1.4-1.02,2.23-2.74,2.23ZM130.65,133.72c-.72,0-1.21.34-1.21.87,0,.5.45.81,1.12.81.79,0,1.21-.4,1.21-1.2,0-.12,0-.24-.02-.24-.3-.15-.7-.24-1.11-.24ZM136.26,129.46c-.18.26-.27.33-.38.33-.08,0-.13-.03-.24-.13-.38-.36-.9-.75-1.46-1.1q-.36-.22-1.02-.52c-.21-.09-.29-.15-.29-.27,0-.1.08-.24.3-.58.36-.52.45-.61.58-.61.28,0,1.39.57,2.19,1.11.65.44.84.61.84.78,0,.12-.24.57-.54,1Z"/>
        <path d="M144.27,133.46c-.72,1.25-1.71,1.94-2.73,1.94-1.56,0-2.67-1.53-2.67-3.66,0-2.37,1.2-4.41,3.25-5.49,1-.54,2.08-.78,3.51-.78,3.14,0,5.46,2.22,5.46,5.19,0,2.62-1.29,4.51-3.78,5.58-.5.21-.89.33-1.08.33-.18,0-.25-.06-.45-.34-.25-.39-.54-.68-.95-.95,3.09-.79,4.49-2.25,4.49-4.68,0-1.25-.53-2.29-1.46-2.96-.53-.36-.95-.51-1.77-.64-.42,3.16-.92,4.89-1.83,6.46ZM142.11,128.15c-1,.88-1.58,2.15-1.58,3.55,0,1.16.38,1.83,1,1.83.75,0,1.52-1.04,2.08-2.82.36-1.12.54-1.98.77-3.65-1.07.23-1.59.48-2.28,1.08Z"/>
        <path d="M154.53,129.41c-.12.03-.18.06-.27.1-.08.04-.12.06-.2.06-.32,0-.55-.58-.74-1.69.12.02.23.02.29.02.63,0,2.24-.2,3.2-.39.31-1.32.48-2.31.48-3.03,0-.06,0-.14-.01-.25.64.07,1.26.21,1.68.38.24.09.36.22.36.38,0,.07-.02.12-.09.24q-.23.4-.69,2.05c.36-.04.76-.07,1.02-.07.62,0,1.1.12,1.44.36.6.44.9,1.32.9,2.69,0,2.23-.41,4.14-1.1,5.08-.48.66-1.11.98-1.99.98-.54,0-1.05-.07-1.2-.17q-.12-.07-.17-.63c-.04-.4-.13-.75-.32-1.17.78.25.98.3,1.46.3.72,0,1.02-.34,1.35-1.54.23-.79.35-1.83.35-2.92,0-1.17-.29-1.59-1.08-1.59-.27,0-.71.03-1.05.09-.04.17-.06.18-.12.39-.42,1.53-1.19,3.55-1.95,5.17-.79,1.63-.99,1.96-1.18,1.96-.12,0-.53-.21-.96-.5-.35-.21-.44-.3-.44-.42q0-.07.62-1.05c.83-1.27,1.91-3.78,2.28-5.25-1.11.24-1.73.39-1.86.44ZM162.18,127.73c0-.1.14-.24.57-.58.3-.23.45-.31.55-.31.09,0,.17.04.36.24.88.85,1.71,2,2.19,2.98.15.33.24.54.24.63,0,.15-.04.2-.52.58-.3.24-.65.44-.77.44-.1,0-.15-.04-.25-.3-.3-.73-.58-1.31-.94-1.86-.39-.6-.47-.69-1.35-1.64-.06-.09-.08-.13-.08-.18Z"/>
        <path d="M169.12,128.29c-.27.02-.43.03-.61.05-.14.01-.15.01-.17.01-.12,0-.18-.04-.23-.19-.08-.24-.18-1.04-.19-1.48.17.01.6.03,1.14.03.17,0,1.35-.07,1.88-.12.25-1.21.34-1.84.34-2.65,1.54.21,2.1.39,2.1.68,0,.1-.01.13-.24.48-.12.18-.17.34-.42,1.27.7-.12,1.12-.23,1.68-.41.1-.03.15-.04.22-.04.11,0,.13.08.23.51.07.38.12.69.12.85,0,.18-.04.21-.43.3-.51.12-1.38.27-2.31.39-.56,1.68-.93,2.58-1.62,3.99-.53,1.05-.83,1.6-1.23,2.23-.12.18-.19.24-.3.24-.15,0-.57-.22-1.09-.61-.24-.17-.3-.24-.3-.35s.06-.19.25-.46c.43-.54,1-1.47,1.5-2.46.42-.82.57-1.17,1-2.35-.58.04-.63.06-1.32.1ZM174.06,136.93c-1.64,0-2.75-.9-2.75-2.23s1.15-2.41,2.7-2.41c.36,0,.53.01,1.14.1-.06-.72-.06-1.01-.12-2.4,0-.29-.03-.68-.06-1.16.77.08,1.35.17,1.64.29.12.04.18.12.18.24,0,.08-.01.14-.03.24-.08.31-.09.54-.09.94,0,.56.04,1.5.09,2.23,1.07.48,1.5.72,2.25,1.31.33.25.45.39.45.51,0,.15-.08.29-.5.96-.18.3-.31.44-.42.44q-.09,0-.51-.39c-.33-.33-.71-.58-1.23-.9,0,1.4-1.02,2.23-2.74,2.23ZM174.03,133.72c-.72,0-1.21.34-1.21.87,0,.5.45.81,1.12.81.79,0,1.21-.4,1.21-1.2,0-.12,0-.24-.02-.24-.3-.15-.7-.24-1.11-.24ZM179.64,129.46c-.18.26-.27.33-.38.33-.08,0-.13-.03-.24-.13-.38-.36-.9-.75-1.46-1.1q-.36-.22-1.02-.52c-.21-.09-.29-.15-.29-.27,0-.1.08-.24.3-.58.36-.52.45-.61.58-.61.28,0,1.39.57,2.19,1.11.65.44.84.61.84.78,0,.12-.24.57-.54,1Z"/>
        <path d="M184.57,126.84c.34-.9.67-1.38,1.25-1.86.69-.57,1.51-.84,2.56-.84,2.25,0,3.69,1.23,3.69,3.15,0,.65-.18,1.26-.53,1.75-.27.39-.39.51-1.23,1.27-1.17,1.05-1.42,1.46-1.42,2.25v.79h-1.53v-.84c0-.67.13-1.27.41-1.75.21-.38.43-.63,1.03-1.23.63-.61.83-.84.99-1.11.21-.3.33-.72.33-1.12,0-1-.67-1.63-1.74-1.63s-1.69.55-2.14,1.86l-1.67-.69ZM189.36,135.58c0,.66-.53,1.18-1.19,1.18s-1.18-.52-1.18-1.18.52-1.19,1.18-1.19,1.19.52,1.19,1.19Z"/>
      </g>
      <circle class="cls-10" cx="31.42" cy="142.13" r="30"/>
      <g>
        <path class="cls-6" d="M45.85,144.94c.89-16.94-18.18-22.1-26.31-12.35-2.84,3.4-4.8,9.28-3.36,15.99-3.15,3.41-2.38,8.06,2.89,10.38,3.18,1.39,6.31,1.92,13.47,1.6,6.65-.3,14.21-3.45,16.18-7.69,1.1-2.37.52-5.78-2.87-7.94Z"/>
        <path class="cls-2" d="M34.67,127.73c-.79-4.18-4.45-6.35-4.37-.27"/>
        <path class="cls-2" d="M23,129.33c-.7-4.19,1.99-7.5,4.01-1.77"/>
        <path class="cls-6" d="M38.56,129.85c5.79-5.1,10.49-4.89,11.53-3.3.96,1.47.22,9.42-8.91,5.4"/>
        <path class="cls-6" d="M18.67,132.59c-6.85-3.54-11.36-2.19-11.99-.39-.57,1.66,2.8,9.74,10.68,3.62"/>
        <ellipse class="cls-1" cx="35.03" cy="147.38" rx="1.45" ry="1.57" transform="translate(-28.71 9.96) rotate(-11.51)"/>
        <path class="cls-4" d="M15.56,136.56c-2.32-3.61-7.18-2.47-8.28-1.89,2.12,3.55,4.7,4.58,8.28,1.89Z"/>
        <path class="cls-4" d="M42.93,132.25c1.99-3.8,6.4-3.27,7.55-2.79-1.8,3.72-3.74,5.15-7.55,2.79Z"/>
        <path class="cls-4" d="M28.18,127.54c1.57,7.43-1.68,14.59-11.91,15.05-.51-11.46,11.91-15.05,11.91-15.05Z"/>
        <path class="cls-4" d="M30.44,127.45c.38,8.43,7.4,12.45,14.47,12.66-.51-11.46-14.47-12.66-14.47-12.66Z"/>
        <path class="cls-4" d="M15.38,155.12c13.57-7.03,25.36-4.76,33.34-2.23-2.8,7.73-28.87,11.5-33.34,2.23Z"/>
        <path class="cls-1" d="M18.68,159.53c-2.75-1.21-4.52-3.12-4.99-5.38-.41-1.97.19-3.99,1.69-5.73-1.42-7.1.89-13.01,3.55-16.21,4.05-4.85,11.01-6.45,17.31-3.97,3.08,1.21,5.64,3.27,7.4,5.97,1.93,2.94,2.83,6.45,2.68,10.42,3.51,2.42,3.92,6.07,2.79,8.5-2.16,4.66-10.19,7.75-16.7,8.04-1.34.06-2.53.09-3.61.09-5.08,0-7.62-.64-10.13-1.74ZM19.86,132.99c-2.52,3.02-4.69,8.67-3.24,15.48.04.19-.01.39-.15.53-1.38,1.49-1.95,3.23-1.6,4.9.39,1.87,1.92,3.48,4.3,4.53,2.87,1.26,5.83,1.88,13.2,1.55,6.9-.31,13.93-3.6,15.66-7.34,1.35-2.91-.42-5.76-2.64-7.18-.18-.12-.29-.32-.28-.54.38-7.3-3.09-13.12-9.3-15.56-1.84-.72-3.73-1.07-5.58-1.07-4.02,0-7.82,1.64-10.37,4.69Z"/>
        <ellipse class="cls-1" cx="35.03" cy="147.38" rx="1.45" ry="1.57" transform="translate(-28.71 9.96) rotate(-11.51)"/>
        <ellipse class="cls-1" cx="27.35" cy="148.09" rx="1.57" ry="1.45" transform="translate(-120.89 174.58) rotate(-89.67)"/>
        <path class="cls-1" d="M45.69,133.69c1.99,0,3.23-.82,3.99-1.72,1.53-1.81,1.62-4.69.93-5.74-.42-.65-1.23-1.08-2.29-1.22-2.8-.38-6.6,1.26-10.15,4.4-.25.22-.27.6-.05.85.22.25.6.27.85.05,4.89-4.3,8.27-4.23,9.19-4.11.69.09,1.21.34,1.44.69.35.54.4,2.84-.84,4.31-1.39,1.64-3.92,1.71-7.33.21-.3-.13-.66,0-.79.31-.13.3,0,.66.31.79,1.93.85,3.49,1.18,4.75,1.18Z"/>
        <path class="cls-1" d="M12,138.69c1.54,0,3.44-.61,5.73-2.4.26-.2.31-.58.11-.85-.2-.26-.58-.31-.85-.11-2.93,2.28-5.52,2.74-7.48,1.33-1.82-1.3-2.45-3.73-2.26-4.28.14-.39.58-.76,1.23-1.02.86-.34,4.13-1.24,9.92,1.75.3.15.66.04.81-.26.15-.3.04-.66-.26-.81-4.21-2.17-8.29-2.84-10.91-1.79-.98.39-1.67,1.01-1.92,1.74-.42,1.2.53,4.1,2.7,5.65.79.57,1.85,1.04,3.19,1.04Z"/>
        <path class="cls-1" d="M34.67,128.33s.08,0,.11-.01c.33-.06.54-.38.48-.7-.5-2.64-2.12-4.67-3.61-4.52-.75.08-2.01.74-1.96,4.36,0,.33.27.59.6.59,0,0,0,0,0,0,.33,0,.6-.28.59-.61-.03-2.1.43-3.11.87-3.15.64-.07,1.88,1.32,2.3,3.55.05.29.31.49.59.49Z"/>
        <path class="cls-1" d="M23,129.93s.07,0,.1,0c.33-.05.55-.36.5-.69-.37-2.24.32-3.96.94-4.12.43-.11,1.21.67,1.91,2.66.11.31.45.48.77.37.31-.11.48-.45.37-.77-1.2-3.41-2.61-3.61-3.34-3.42-1.45.37-2.27,2.83-1.83,5.49.05.29.3.5.59.5Z"/>
        <path class="cls-1" d="M35.92,139.3c-1.1.64-2.05.31-2.46-.56-.1-.2.11-.42.32-.33.66.28,1.32.38,2.04.43.24.02.31.34.11.46Z"/>
        <path class="cls-1" d="M25.4,140.73c1.24.28,2.05-.31,2.19-1.26.03-.22-.23-.37-.4-.22-.55.47-1.14.75-1.82,1.01-.22.09-.2.42.04.47Z"/>
        <circle class="cls-1" cx="32.93" cy="153.45" r=".57"/>
        <circle class="cls-1" cx="31.15" cy="153.53" r=".57"/>
        <path class="cls-1" d="M29.42,157.64c.11,0,.23-.03.33-.1,1.68-1.09,3.08-1.24,4.55-.49.3.15.66.03.81-.26.15-.3.03-.66-.26-.81-1.86-.95-3.69-.78-5.75.55-.28.18-.36.55-.18.83.12.18.31.28.51.28Z"/>
      </g>
      <g>
        <path d="M24.05,214.38c-.69,0-1.79.22-2.54.51-1.59.62-2.64,1.74-2.64,2.84,0,.69.45,1.15,1.35,1.38.41.11,1.11.18,1.6.17h.15c.25,0,.34.09.34.28,0,.5-.09,1.18-.17,1.38-.06.12-.13.17-.29.17-.91,0-2.07-.24-2.85-.6-1.15-.51-1.79-1.4-1.79-2.5,0-.71.27-1.43.78-2.07.29-.34.51-.55,1.05-.93-2.73.83-4.09,1.35-5.01,1.95-.12.08-.19.11-.27.11-.17,0-.3-.13-.51-.51-.21-.35-.36-.77-.36-.99,0-.13.06-.18.42-.29.34-.1.58-.25,1.16-.66.69-.51,1.77-1.44,2.7-2.32.77-.73,1.2-1.19,2.1-2.23-.87.1-3.23.51-3.57.6-.21.06-.22.06-.27.06-.14,0-.2-.06-.25-.21-.12-.33-.23-.88-.3-1.51.21.01.32.01.45.01.67,0,2.13-.12,3.93-.34.67-.08,1.07-.17,1.33-.3.18-.09.21-.11.32-.11.18,0,.42.2.84.71.3.35.39.51.39.68s-.06.24-.25.38q-.27.16-1.53,1.33c-1.04.96-2.27,2.01-3.65,3.11,2.12-.63,3.22-.93,5.52-1.44.51-.1,1.01-.24,1.58-.42.08-.03.13-.04.18-.04.12,0,.18.06.25.19.17.35.36,1.08.36,1.35,0,.21-.06.3-.22.3h-.34Z"/>
        <path d="M32.63,217.7c-.72,1.25-1.71,1.94-2.73,1.94-1.56,0-2.67-1.53-2.67-3.66,0-2.37,1.2-4.41,3.25-5.49,1-.54,2.08-.78,3.51-.78,3.14,0,5.46,2.22,5.46,5.19,0,2.62-1.29,4.52-3.78,5.58-.5.21-.89.33-1.08.33-.18,0-.25-.06-.45-.34-.25-.39-.54-.67-.95-.95,3.09-.79,4.49-2.25,4.49-4.68,0-1.25-.53-2.29-1.46-2.96-.53-.36-.95-.51-1.77-.64-.42,3.17-.92,4.89-1.83,6.46ZM30.47,212.39c-1,.88-1.58,2.14-1.58,3.55,0,1.15.38,1.83,1,1.83.75,0,1.52-1.04,2.08-2.82.36-1.12.54-1.98.77-3.64-1.07.22-1.59.48-2.28,1.08Z"/>
        <path d="M41.21,213.5c.38.06.6.08,1.09.08h.99c.42,0,.76-.01,1.09-.06-.04.4-.06.78-.06,1.56v3.08c.24.42.39.6.7.81.27.18.51.32.72.36.66.19,1.54.27,2.85.27,2.35,0,3.12-.04,6.03-.38-.18.53-.31,1.09-.42,1.72-1.86.08-3.34.11-5.73.11-1.48,0-2.64-.12-3.27-.36-.71-.25-1.08-.52-1.67-1.23l-.22.22c-.33.35-.39.39-.95.88q-.12.11-.32.24c-.1.09-.18.15-.33.27l-.78-1.57c.54-.26,1.21-.75,1.9-1.39v-3.06h-.73c-.36,0-.6.02-.92.08v-1.62ZM42.31,208.22c1.04.9,1.79,1.68,2.49,2.59l-1.2,1.17c-.83-1.14-1.44-1.82-2.45-2.68l1.16-1.08ZM48.08,211.14q-.82-.55-1.2-.75l1.12-.64h-1.38c-.72,0-1.07.02-1.49.08v-1.47c.45.07.88.09,1.71.09h4.67c.92,0,1.38-.03,1.62-.09l.75.87c-.23.15-.33.21-.72.56-.6.5-1.27.99-1.88,1.36h1.17c.74,0,1.1-.01,1.46-.06-.03.38-.04.85-.04,1.65v4.44c0,.81-.06,1.09-.27,1.31-.25.25-.62.34-1.5.34-.13,0-.38,0-.65-.01-.06-.57-.13-.93-.34-1.37.38.06.72.09.96.09.3,0,.33-.03.33-.39v-.57h-2.16v.6c0,.78.02,1.14.08,1.59h-1.59c.06-.42.09-.84.09-1.59v-.6h-1.95v.74c0,.84.02,1.23.08,1.56h-1.62c.06-.39.09-.85.09-1.56v-4.56c0-.82-.01-1.17-.07-1.67.45.05.87.06,1.6.06h1.14ZM46.87,212.36v.95h1.95v-.95h-1.95ZM46.87,215.42h1.95v-.96h-1.95v.96ZM48.11,209.75q.51.33,1.51,1.08c.87-.62,1.07-.75,1.44-1.08h-2.96ZM50.24,213.3h2.16v-.95h-2.16v.95ZM52.4,214.46h-2.16v.96h2.16v-.96Z"/>
        <path d="M60.34,213.71q.07-.12.73-1.23c.09.25.18.42.36.66.1.16.15.25.15.34s-.03.17-.39.75c-.25.45-.69,1.38-.87,1.83-.15.42-.21.45-.71.45s-.88-.06-.94-.15c-.09-.12-.15-.93-.15-2.04,0-1.47.11-2.5.5-5.11.04-.3.06-.45.06-.78,1.17.21,1.94.56,1.94.84,0,.08-.02.12-.12.26-.2.29-.32.67-.46,1.47-.18,1-.32,2.33-.32,3.12q.13-.24.23-.41ZM65.78,209.33v.25c.01.06.01.18.03.34q.01.24.04.62,0,.17.03.72c.04.72.07,1.44.07,1.8,0,2.82-.73,5.01-2.29,6.86-.6.71-1.12,1.11-1.42,1.11-.18,0-.19,0-.51-.24-.29-.22-.67-.42-1.06-.52,1.05-.75,1.62-1.27,2.17-2.07.93-1.34,1.38-2.93,1.38-4.86,0-2.05-.14-3.32-.48-4.23.63-.08,1.09-.11,1.53-.11s.51.03.51.29v.04Z"/>
        <path d="M77.95,219.81c0,.66-.52,1.19-1.18,1.19s-1.19-.53-1.19-1.19.53-1.18,1.19-1.18,1.18.52,1.18,1.18ZM77.42,217.59h-1.33l-.41-8.98h2.16l-.42,8.98Z"/>
        <path d="M94.09,213.65h2.13c.68,0,1.1-.03,1.54-.09v1.63c-.48-.04-.93-.08-1.56-.08h-1.62c.86,1.5,2.1,2.75,3.58,3.58-.48.48-.69.78-.99,1.5-.61-.44-1.05-.86-1.62-1.5-.74-.86-1.05-1.32-1.53-2.22.03.54.04,1.01.04,1.44v1.82c0,.67.03,1.2.09,1.66h-1.67c.06-.46.09-1,.09-1.68v-1.71c0-.41.02-.88.04-1.49-.91,1.65-1.93,2.76-3.39,3.74-.38-.71-.58-1-.9-1.36,1.54-.89,2.8-2.18,3.67-3.78h-.95c-.64,0-1.11.03-1.58.09v-.6c-.25.36-.43.69-.61,1.22-.38-.58-.6-1.05-.89-1.8.03.46.06,1.27.06,1.9v3.69c0,.77.03,1.32.09,1.77h-1.67c.06-.46.09-1.02.09-1.77v-3.1c0-.57.02-.93.11-1.86-.44,1.46-.87,2.43-1.51,3.41-.18-.68-.38-1.11-.68-1.61.72-.92,1.47-2.61,1.92-4.35h-.57c-.44,0-.69.01-.96.06v-1.53c.24.04.51.06.96.06h.72v-1.16c0-.76-.01-1.14-.08-1.5h1.65c-.06.39-.08.8-.08,1.5v1.16h.43c.36,0,.54-.02.78-.06v1.43c.57-1.02,1.05-2.52,1.09-3.5l1.46.38c-.06.17-.1.34-.21.79-.08.27-.1.41-.18.69h1.15v-.99c0-.62-.03-.99-.09-1.37h1.68c-.06.36-.09.77-.09,1.37v.99h1.7c.72,0,1.14-.03,1.54-.09v1.58c-.42-.04-.9-.08-1.54-.08h-1.7v1.82ZM90.95,211.83c-.25.62-.39.9-.81,1.6q-.36-.38-1.17-.94c.12-.17.17-.24.24-.34-.2-.03-.44-.04-.71-.04h-.38c.34.79.71,1.39,1.36,2.28v-.82c.45.06.87.09,1.56.09h1.53v-1.82h-1.63Z"/>
        <path d="M101.5,212.28c-.96,0-1.38.02-1.75.06v-1.65c.5.07.93.09,1.73.09h8.32c.75,0,1.23-.03,1.75-.09v1.65c-.5-.04-.92-.06-1.75-.06h-3.36v2.5h2.77c.63,0,1.08-.01,1.54-.08v1.63c-.48-.06-.78-.07-1.5-.07h-2.82v2.98h3.84c.75,0,1.27-.03,1.9-.09v1.71c-.63-.08-1.11-.1-1.88-.1h-9.16c-.86,0-1.32.03-1.95.1v-1.71c.5.06,1.08.09,1.91.09h3.66v-2.98h-2.58c-.77,0-1.14.01-1.64.07v-1.63c.44.06.77.08,1.52.08h2.7v-2.5h-3.25ZM104.14,207.89c1.48.51,1.98.71,3.73,1.54l-1.08,1.29c-1.46-.82-2.53-1.29-3.82-1.66l1.17-1.17Z"/>
        <path d="M114.98,213.98c-.12.03-.18.06-.27.1-.08.04-.12.06-.18.06-.33,0-.57-.57-.75-1.68h.29c.63,0,2.24-.2,3.2-.39.31-1.31.48-2.31.48-3.01,0-.06,0-.15-.01-.26.64.06,1.26.2,1.68.38.24.09.36.21.36.36,0,.08-.02.14-.09.25q-.23.39-.69,2.04c.36-.04.76-.08,1.02-.08.62,0,1.1.12,1.44.36.6.43.9,1.32.9,2.68,0,2.24-.41,4.16-1.1,5.1-.48.66-1.11.98-2,.98-.54,0-1.05-.08-1.2-.17q-.12-.08-.17-.63c-.04-.41-.13-.76-.32-1.18.78.27.98.31,1.46.31.72,0,1.02-.35,1.35-1.56.23-.79.35-1.81.35-2.92,0-1.17-.29-1.59-1.08-1.59-.27,0-.71.04-1.05.09-.04.18-.06.19-.12.39-.42,1.54-1.19,3.55-1.95,5.17-.79,1.63-.99,1.96-1.18,1.96-.12,0-.53-.21-.96-.5-.35-.21-.44-.3-.44-.42q0-.08.62-1.05c.83-1.28,1.91-3.77,2.28-5.25-1.11.25-1.73.39-1.86.44ZM124.4,210.9c-.24.18-.41.25-.48.25-.04,0-.09-.03-.13-.11-.32-.51-.84-1.09-1.28-1.47-.03-.03-.04-.06-.04-.09,0-.06.11-.17.36-.36.25-.18.33-.22.43-.22.24,0,1.56,1.33,1.56,1.58,0,.09-.12.19-.42.42ZM122.81,212.49c0-.1.13-.24.57-.58.3-.22.45-.31.57-.31.2,0,.87.72,1.5,1.6.52.75,1.09,1.82,1.09,2.07,0,.15-.04.2-.52.59-.3.24-.65.43-.77.43-.1,0-.15-.04-.25-.3-.29-.72-.54-1.21-.95-1.86-.4-.65-.43-.67-1.15-1.45-.06-.08-.09-.12-.09-.18ZM124.78,207.89c.25,0,1.53,1.27,1.53,1.53,0,.08-.09.17-.39.38-.27.21-.41.29-.46.29q-.08,0-.38-.42c-.25-.34-.74-.86-1-1.08-.04-.04-.08-.07-.08-.12,0-.12.62-.57.78-.57Z"/>
        <path d="M139.46,215.06h.23c.6,0,.96-.02,1.41-.08v1.54c-.43-.06-.82-.09-1.41-.09h-.23v3.46c0,1.02-.51,1.37-2.04,1.37-.33,0-.72-.01-1.35-.04-.08-.63-.2-1.04-.42-1.54.66.12,1.17.17,1.65.17s.6-.08.6-.39v-3.02h-3.63c-.71,0-1.11.02-1.62.08v-1.28c-.51.24-.93.42-1.25.54v4.1c0,1.14-.39,1.42-1.92,1.42-.27,0-.48-.01-.96-.04-.04-.6-.12-.92-.31-1.47.51.06.88.09,1.21.09.36,0,.46-.09.46-.45v-3.09c-.65.23-.66.23-1,.34-.17.04-.41.13-.57.21l-.22-1.59c.34-.04.79-.15,1.8-.48v-2.66h-.66c-.39,0-.67.01-1.04.06v-1.53c.36.06.63.07,1.07.07h.63v-1.18c0-.67-.02-.99-.09-1.47h1.68c-.06.45-.08.79-.08,1.46v1.2h.45c.38,0,.54-.01.81-.04v1.49c-.27-.03-.48-.04-.79-.04h-.46v2.15c.46-.17.6-.21,1.19-.46h-.06v-1.49c.36.05.97.08,1.61.08h1.75v-1.43h-1.32c-.67,0-1.02.02-1.46.06v-1.52c.41.06.81.09,1.46.09h1.32v-.43c0-.42-.03-.72-.09-1.08h1.7c-.06.36-.08.61-.08,1.08v.43h1.68c.66,0,1.06-.03,1.47-.09v1.52c-.42-.04-.78-.06-1.46-.06h-1.7v1.43h2.08c.65,0,1.21-.03,1.62-.09v1.51c-.38-.04-.92-.07-1.67-.07v1.28ZM134.15,213.78c-.45,0-1.17.03-1.49.04v1.15c.46.06.89.08,1.61.08h3.63v-1.28h-3.75ZM134.53,216.63c.72.77,1.08,1.23,1.69,2.18l-1.24.94c-.6-1.04-.83-1.35-1.68-2.29l1.23-.83Z"/>
        <path d="M145.48,211.37c2.49-.71,3.78-.93,5.19-.93,1.51,0,2.7.41,3.5,1.19.66.68,1.02,1.61,1.02,2.7,0,1.92-1.03,3.54-2.83,4.47-.96.48-1.93.81-3.27,1.06-.58.12-.88.17-1.11.17-.18,0-.27-.06-.36-.23-.34-.69-.48-.9-.93-1.36,2.23-.27,3.45-.57,4.62-1.16,1.28-.63,1.98-1.66,1.98-2.92,0-1.41-.96-2.33-2.43-2.33-1.78,0-3.76.51-6.04,1.56-.41.18-.62.29-.77.38-.27.15-.34.18-.43.18-.29,0-.79-.91-1.14-2.07.69-.09,1.38-.25,3.01-.71Z"/>
        <path d="M158.8,209.54c0-.75-.01-1.11-.07-1.5h1.62c-.05.36-.08.83-.08,1.49v1.05h.15c.41,0,.66-.01.88-.06v1.51c-.25-.03-.46-.04-.76-.04h-.19c.25.76.76,1.49,1.51,2.17-.34.39-.39.46-.78,1.18-.52-.7-.58-.81-.87-1.39.04.52.06.99.06,1.93v3.75c0,.71.03,1.35.09,1.77h-1.63c.06-.46.09-1.04.09-1.77v-2.98c.01-.36.01-.6.01-.71q0-.3.06-1.08c-.44,1.28-.89,2.21-1.49,3.09-.29-.64-.53-1.04-.84-1.41.95-1.28,1.54-2.58,2.08-4.56h-.63c-.42,0-.72.01-.96.06v-1.53c.25.04.51.06.96.06h.78v-1.04ZM162.86,212.6c-.55,0-.81.02-1.21.08v-1.49c.24.05.48.06.79.08-.34-.38-.41-.42-.99-.81.81-.69,1.32-1.46,1.65-2.47l1.45.34c-.18.38-.24.5-.42.81h3.93c.76,0,1.17-.01,1.63-.09v1.52c-.46-.06-.87-.08-1.65-.08h-2.1q-.18.52-.27.78h2.82c.69,0,1.18-.03,1.54-.08v1.49c-.33-.05-.88-.08-1.49-.08h-3.52c-.25.44-.42.71-.64,1.04h1.6c.21-.34.33-.6.48-.99l1.29.44c-.18.31-.22.4-.31.55h1.11c.53,0,.96-.03,1.29-.07v1.39c-.4-.04-.78-.06-1.27-.06h-1.56v.78h1.37c.58,0,.86-.01,1.12-.06v1.26c-.31-.04-.58-.06-1.12-.06h-1.37v.77h1.37c.6,0,.84-.02,1.12-.06v1.26c-.3-.04-.57-.06-1.12-.06h-1.37v.81h1.41c.75,0,1.16-.01,1.59-.07v1.42c-.46-.06-.99-.09-1.6-.09h-4.83v.59h-1.53c.08-.46.09-.81.09-1.59v-2.85c0-.24,0-.48.01-.71-.22.22-.32.3-.6.55-.32-.51-.48-.72-.86-1.05,1.12-.84,2.04-1.86,2.78-3.13h-.62ZM164.15,211.26c.12-.27.12-.29.29-.78h-1.14c-.13.17-.36.43-.69.78h1.54ZM165.65,214.89h-2.07v.78h2.07v-.78ZM165.65,216.81h-2.07v.77h2.07v-.77ZM163.58,218.72v.81h2.07v-.81h-2.07Z"/>
        <path d="M174.28,210.48c-.84.17-1.18.22-2.1.36-.12-.5-.25-.84-.53-1.38,2.37-.24,4.63-.81,5.54-1.38l.96,1.32c-.87.3-1.7.55-2.36.74v1.86h1.16c.52,0,.87-.01,1.21-.07v1.56c-.36-.04-.71-.06-1.25-.06h-1.06c.58,1.05,1.26,1.83,2.32,2.68-.28.38-.58.93-.76,1.41-.84-.87-1.17-1.32-1.7-2.31.05.51.08,1.08.08,1.83v2.5c0,.9.02,1.28.09,1.81h-1.71c.06-.52.09-1,.09-1.81v-2.42c0-.6.03-1.25.07-1.73-.42,1.07-.61,1.46-.99,2.03-.39.63-.71,1.02-1.23,1.59-.29-.67-.51-1.09-.81-1.51.63-.57,1.06-1.12,1.56-1.92.38-.6.95-1.68,1.12-2.16h-1.04c-.55,0-.93.03-1.32.08v-1.57c.36.06.69.07,1.35.07h1.29v-1.51ZM180.62,209.12c-.06.46-.08.92-.08,1.75v5.43c0,.92.01,1.29.08,1.72h-1.7c.06-.4.08-.73.08-1.68v-5.47c0-.84-.01-1.26-.08-1.75h1.7ZM184.04,208.25c-.06.57-.09,1.12-.09,1.95v9.27c0,.76-.18,1.17-.65,1.42-.36.18-.84.24-2,.24-.34,0-.57,0-1.06-.03-.12-.63-.22-.97-.48-1.59.78.09,1.37.12,1.92.12.6,0,.71-.06.71-.44v-9c0-.72-.03-1.31-.09-1.95h1.74Z"/>
        <path d="M189.97,216.98c.04.07.06.13.06.21,0,.11-.02.12-.15.45-.3.69-.66,1.77-.84,2.58-.04.17-.09.25-.15.29-.08.03-.59.1-.75.1h-.06c-.08,0-.18-.01-.3-.01-.2,0-.24-.04-.3-.23-.29-.97-.51-2.98-.51-4.5,0-1.65.1-2.67.52-4.92.15-.81.22-1.26.29-1.75.63.12,1.17.27,1.62.48.25.1.33.18.33.33,0,.1-.02.15-.18.39-.5.79-1.05,3.98-1.05,6.12,0,.34.02.81.06,1.56.42-.94.57-1.23.92-1.96.13.32.22.46.49.87ZM193.22,218.04c.48.25,1.05.34,2.06.34s1.53-.08,2.46-.34c.09-.03.16-.04.21-.04.1,0,.18.06.19.21.08.51.13,1.11.13,1.41,0,.15-.04.2-.25.26-.81.21-1.63.31-2.64.31-1.38,0-2.23-.16-2.94-.58-.66-.41-1.35-1.23-1.35-1.64,0-.21.32-.5,1.12-.99.27.54.53.81,1,1.06ZM192.17,210.39c.33.08,1.29.14,2.03.14.99,0,1.98-.08,2.91-.24q.08-.01.14-.01c.1,0,.15.04.18.16.03.15.08.81.08,1.22,0,.22-.04.3-.21.33-.62.12-1.63.19-2.71.19-1.29,0-2.45-.07-2.59-.16-.08-.04-.11-.15-.11-.42,0-.41.04-1.01.08-1.12.01-.06.06-.09.15-.09.02,0,.04,0,.08.01Z"/>
        <path d="M203.32,211.37c2.49-.71,3.78-.93,5.19-.93,1.51,0,2.7.41,3.5,1.19.66.68,1.02,1.61,1.02,2.7,0,1.92-1.03,3.54-2.83,4.47-.96.48-1.93.81-3.27,1.06-.58.12-.88.17-1.11.17-.18,0-.27-.06-.36-.23-.34-.69-.48-.9-.93-1.36,2.23-.27,3.45-.57,4.62-1.16,1.28-.63,1.98-1.66,1.98-2.92,0-1.41-.96-2.33-2.43-2.33-1.78,0-3.76.51-6.04,1.56-.41.18-.62.29-.77.38-.27.15-.34.18-.43.18-.29,0-.79-.91-1.14-2.07.69-.09,1.38-.25,3.01-.71Z"/>
        <path d="M215.77,211.25c0-.44-.02-1.02-.04-1.35.69.07,1.2.18,1.6.33.36.13.48.22.48.39q0,.09-.06.24c-.2.51-.25,1.08-.25,2.44,0,1.92.12,3.12.42,4.04.22.71.57,1.11.97,1.11.62,0,1.12-.72,1.68-2.38.28.77.39.99.81,1.53.08.1.12.21.12.32,0,.24-.22.75-.53,1.18-.58.85-1.33,1.32-2.13,1.32-1.15,0-2.02-.93-2.56-2.77-.34-1.2-.51-2.71-.51-4.81v-1.58ZM224.69,211.49c.09,0,.17.04.29.15.75.72,1.53,1.92,2.03,3.09.33.79.64,1.86.64,2.17,0,.15-.08.23-.39.39-.34.18-1.05.42-1.23.42-.13,0-.19-.08-.24-.34-.2-1.16-.46-2-.93-2.97-.42-.87-.45-.92-1.47-2.18.63-.46,1.12-.73,1.3-.73Z"/>
        <path d="M14.96,238.44c-.39.09-.53.13-1.07.33-.19.07-.3.1-.39.1-.33,0-.63-.61-.9-1.91.96-.04,1.31-.09,2.97-.34,1.8-.27,4.08-.62,5.28-.77,1.35-.18,2.43-.36,3-.48.1-.03.15-.03.22-.03.2,0,.27.09.41.46.12.31.21.76.21.97,0,.18-.06.24-.27.24-.32,0-.6.03-.89.08-2.53.42-4.56,2.64-4.56,4.98,0,1.75,1.38,2.91,3.72,3.12.21.01.29.09.29.27,0,.38-.15,1.09-.29,1.42-.08.17-.19.24-.39.24s-.65-.09-1.11-.22c-2.55-.75-3.88-2.37-3.88-4.67,0-1.25.41-2.4,1.19-3.39.42-.54.78-.84,1.63-1.43-1.96.33-4.04.72-5.17,1.01Z"/>
        <path d="M27.17,243.77c.27-.24.34-.3.45-.3.19,0,1.09.66,1.75,1.29.75.69,1.59,1.7,1.59,1.9,0,.14-.03.17-.46.56-.57.52-.69.62-.79.62-.09,0-.18-.06-.25-.21-.53-.93-1.73-2.16-2.79-2.85-.12-.09-.18-.15-.18-.24,0-.11.03-.15.69-.77Z"/>
        <path d="M45.43,239.07c-1.07-.21-1.88-.52-2.43-.92-.27-.18-.33-.25-.33-.39,0-.16.12-.46.54-1.3.73.46,1.56.79,2.5.99.21-1.05.3-1.92.31-2.89.77.13,1.44.36,1.82.57.17.09.22.18.21.3,0,.06-.03.12-.11.27-.22.46-.24.51-.55,1.98.15.02.34.02.46.02h.11c.36-.02.63-.02.76-.02h.04c.13,0,.18.06.18.26,0,.66-.04,1.2-.1,1.3-.04.07-.24.11-.87.11-.29,0-.51-.02-.93-.03q-.32,1.54-.45,2.36c.51.04.62.04.87.04h.84c.15-.01.22.02.27.09.06.09.11.57.11,1.11,0,.27-.02.34-.11.39-.07.03-.4.04-.97.04-.27,0-.67-.01-1.2-.04-.01.27-.01.45-.01.57,0,1.38.64,2.01,2.05,2.01,1.58,0,2.52-.77,2.52-2.05,0-.46-.1-.88-.34-1.35-.3-.57-.58-.9-1.3-1.47h.13c.24,0,.75-.07,1.2-.16.24-.05.33-.06.41-.06.22,0,.38.11.67.48.69.84,1.04,1.72,1.04,2.65,0,2.12-1.71,3.51-4.31,3.51-2.43,0-3.64-1.21-3.64-3.67,0-.21,0-.38.03-.63-1.49-.31-2.29-1.05-2.29-2.12,0-.55.17-.96.58-1.38.04-.06.1-.08.17-.08.09,0,.19.08.54.36.27.23.31.27.31.34q0,.06-.09.2c-.06.11-.12.27-.12.36,0,.2.12.36.35.46.21.11.27.12.75.23l.39-2.43Z"/>
        <path d="M59.33,239.87c1.89-.52,3.25-.76,4.27-.76,2.12,0,3.42,1.15,3.42,3.03,0,1.12-.46,2.12-1.35,2.87-.58.49-1.46.92-2.61,1.26-.64.18-1.33.31-1.63.31-.18,0-.27-.04-.33-.19-.21-.52-.45-.9-.76-1.21,3.3-.34,4.98-1.4,4.98-3.1,0-.87-.72-1.54-1.65-1.54-1.62,0-3.39.54-5.25,1.57-.15.08-.24.12-.3.12-.25,0-.67-.75-1.02-1.83.74-.1.99-.17,2.24-.51Z"/>
        <path d="M74.71,239.34c-.19-.66-.25-1.07-.43-2.91-.06-.72-.12-1.08-.27-1.59.91.01,1.5.06,1.9.16.23.06.33.17.33.33,0,.06-.01.13-.04.26-.1.36-.15.63-.15,1.02,0,.73.15,1.94.32,2.46.09.28.18.39.34.39.36,0,1.68-.69,2.4-1.24.19-.15.22-.17.3-.17.13,0,.27.11.5.39.38.51.67,1.06.67,1.28,0,.16-.11.27-.36.34-.93.26-2.46.86-3.49,1.35-1.83.9-2.66,1.73-2.66,2.66s.76,1.29,2.7,1.29c1.12,0,2.14-.1,3.52-.33.06-.01.17-.03.2-.03.12,0,.19.06.25.18.04.15.15,1.06.15,1.43,0,.21-.06.28-.26.34-.33.08-2.14.18-3.28.18-1.92,0-3.2-.25-3.99-.79-.67-.47-1.04-1.2-1.04-2.1,0-.69.2-1.3.6-1.9.52-.78,1.09-1.28,2.35-2.03-.31-.29-.43-.49-.57-.96Z"/>
        <path d="M84.68,236.72c.33.06.62.07,1.16.07h2.89c.58,0,.84-.01,1.16-.06v1.47c-.29-.03-.46-.04-1.1-.04h-2.95c-.53,0-.79.02-1.16.06v-1.5ZM85.07,247.64c.04-.42.08-.92.08-1.4v-2.13c0-.45-.01-.78-.06-1.14.36.03.67.04,1.09.04h2.47c.56,0,.69,0,.96-.04-.03.32-.03.5-.03,1.05v2.31c0,.42.01.75.06,1.11h-1.42v-.48h-1.65v.67h-1.5ZM85.15,234.71c.38.04.62.06,1.2.06h2.04c.58,0,.83-.01,1.2-.06v1.41c-.32-.03-.66-.04-1.2-.04h-2.04c-.53,0-.87.01-1.2.04v-1.41ZM85.19,238.94c.33.04.46.04.95.04h2.55c.51,0,.6,0,.93-.04v1.32c-.33-.04-.48-.04-.93-.04h-2.55c-.45,0-.62,0-.95.04v-1.32ZM85.19,240.95c.33.04.45.04.95.04h2.55c.5,0,.66,0,.93-.04v1.32c-.29-.03-.5-.04-.94-.04h-2.55c-.45,0-.63.02-.93.04v-1.32ZM86.53,245.7h1.7v-1.44h-1.7v1.44ZM94.1,237.11c.5-.85.92-1.8,1.26-2.81l1.54.56c-.67,1.36-.84,1.67-1.21,2.25h.63c.67,0,.93-.01,1.3-.08v1.54c-.38-.04-.71-.06-1.42-.06h-1.71v1.44h1.41c.66,0,1.05-.01,1.37-.06v1.47c-.32-.04-.72-.06-1.35-.06h-1.42v1.62h1.88c.58,0,1.04-.01,1.49-.07v1.59c-.44-.06-.86-.09-1.46-.09h-1.91v1.51c0,.69.03,1.19.09,1.73h-1.74c.06-.43.09-1.05.09-1.71v-1.53h-1.35c-.67,0-1.08.01-1.5.07v-1.57c.42.06.84.07,1.52.07h1.33v-1.62h-1.1c-.64,0-.97.01-1.32.06v-1.47c.38.04.72.06,1.3.06h1.11v-1.44h-1.37c-.69,0-.99.02-1.38.06v-1.54c.38.06.6.08,1.25.08h2.67ZM91.81,237.08c-.32-.86-.62-1.44-1.08-2.16l1.32-.62c.48.72.71,1.12,1.14,2.13l-1.38.64Z"/>
        <path d="M104.05,234.99c.38.1.48.18.48.34,0,.11-.01.15-.09.36-.17.43-.29,1.2-.34,2.25-.12,2.42-.18,4.29-.18,5.77,0,.48.04.84.12,1.08.17.5.69.75,1.53.75,1.35,0,2.62-.55,3.79-1.65.54-.51.87-.91,1.42-1.74.09.48.21.79.54,1.47.04.12.08.21.08.35,0,.27-.29.63-1.04,1.3-1.49,1.33-3.13,2.02-4.86,2.02-1.14,0-1.98-.28-2.52-.83-.57-.6-.79-1.38-.79-2.86,0-1.17.01-2.07.13-5.57.02-.52.03-.84.03-.97,0-1.28-.01-1.65-.11-2.29.77.03,1.35.09,1.8.21Z"/>
        <path d="M122.81,235.8c0,.14-.06.18-.32.33-.1.06-.24.18-.38.35-.93,1.08-2.26,2.54-3.45,3.73-.25.26-.36.45-.36.63,0,.16.12.34.41.6.88.81,2.32,2.28,3.39,3.49.75.84.94,1.11.94,1.26,0,.17-.25.42-.87.9-.29.22-.47.33-.56.33-.13,0-.19-.06-.34-.3-.64-1.02-2.22-2.92-3.42-4.14-.67-.68-.81-.83-1.02-1.12-.25-.36-.36-.66-.36-1.01,0-.3.09-.61.27-.91q.17-.27,1.08-1.25c.87-.9,1.8-2.04,2.38-2.88.39-.55.58-.92.78-1.42,1.17.64,1.82,1.14,1.82,1.41Z"/>
        <path d="M131.35,243.35c-.67,0-1.2.02-1.56.04.04-.42.08-.88.08-1.53v-5.25c0-.78-.03-1.42-.08-1.79.42.04.87.06,1.52.06h6.64c.63,0,1.09-.02,1.51-.06-.04.31-.08.97-.08,1.79v5.25c0,.72.02,1.11.08,1.53-.38-.03-.96-.04-1.53-.04h-1.24v2.22c0,.4.12.45,1.29.45,1.08,0,1.36-.06,1.53-.3.15-.21.23-.78.25-1.84.6.31.96.46,1.5.6-.15,1.61-.29,2.14-.66,2.49-.4.36-1.02.48-2.62.48-2.42,0-2.85-.2-2.85-1.28v-2.82h-1.29c-.17,1.1-.63,2-1.36,2.67-.92.84-2,1.37-3.65,1.74-.24-.6-.42-.9-.84-1.42,1.37-.24,2.12-.5,2.82-.96.76-.5,1.18-1.12,1.36-2.03h-.82ZM131.38,237.27h6.5v-.95h-6.5v.95ZM131.38,239.57h6.5v-.95h-6.5v.95ZM131.38,241.95h6.5v-1.04h-6.5v1.04Z"/>
        <path d="M145.1,238.44c-.39.09-.53.13-1.07.33-.19.07-.3.1-.39.1-.33,0-.63-.61-.9-1.91.96-.04,1.31-.09,2.97-.34,1.8-.27,4.08-.62,5.28-.77,1.35-.18,2.43-.36,3-.48.1-.03.15-.03.22-.03.2,0,.27.09.41.46.12.31.21.76.21.97,0,.18-.06.24-.27.24-.32,0-.6.03-.89.08-2.53.42-4.56,2.64-4.56,4.98,0,1.75,1.38,2.91,3.72,3.12.21.01.29.09.29.27,0,.38-.15,1.09-.29,1.42-.08.17-.19.24-.39.24s-.65-.09-1.11-.22c-2.55-.75-3.88-2.37-3.88-4.67,0-1.25.41-2.4,1.19-3.39.42-.54.78-.84,1.63-1.43-1.96.33-4.04.72-5.17,1.01Z"/>
        <path d="M160.27,243.35c-.67,0-1.2.02-1.56.04.04-.42.08-.88.08-1.53v-5.25c0-.78-.03-1.42-.08-1.79.42.04.87.06,1.52.06h6.64c.63,0,1.09-.02,1.51-.06-.04.31-.08.97-.08,1.79v5.25c0,.72.02,1.11.08,1.53-.38-.03-.96-.04-1.53-.04h-1.24v2.22c0,.4.12.45,1.29.45,1.08,0,1.36-.06,1.53-.3.15-.21.23-.78.25-1.84.6.31.96.46,1.5.6-.15,1.61-.29,2.14-.66,2.49-.4.36-1.02.48-2.62.48-2.42,0-2.85-.2-2.85-1.28v-2.82h-1.29c-.17,1.1-.63,2-1.36,2.67-.92.84-2,1.37-3.65,1.74-.24-.6-.42-.9-.84-1.42,1.37-.24,2.12-.5,2.82-.96.76-.5,1.18-1.12,1.36-2.03h-.82ZM160.3,237.27h6.5v-.95h-6.5v.95ZM160.3,239.57h6.5v-.95h-6.5v.95ZM160.3,241.95h6.5v-1.04h-6.5v1.04Z"/>
        <path d="M177.22,239.91q-.03-.74-.04-1.67c-.13.02-.27.02-.33.02-.99,0-2.26-.11-2.79-.24-.15-.04-.18-.08-.18-.22,0-.33.04-.74.15-1.32.84.16,1.88.27,2.77.27.08,0,.21,0,.38-.01v-.99c0-.52-.01-.76-.04-1.29.75.04,1.26.09,1.62.18.3.06.39.13.39.3,0,.07-.01.1-.12.34-.1.25-.12.32-.18,1.35.9-.11,1.62-.26,2.33-.47.04-.01.06-.01.08-.01.1,0,.1.01.27.49.11.32.21.71.21.83,0,.1-.04.16-.19.21-.5.17-1.79.39-2.73.5,0,1.06,0,1.11.01,1.63,1.05-.14,1.62-.29,2.81-.72.07-.03.1-.04.15-.04.09,0,.12.04.27.41.15.38.29.79.29.94,0,.08-.06.13-.17.18-.83.3-2.33.66-3.27.76.03.57.06.88.15,2.05.84.26,1.18.39,1.83.74.72.36,1.11.61,1.75,1.12.12.09.17.17.17.29,0,.1-.14.36-.42.81-.33.5-.5.69-.6.69-.04,0-.09-.01-.13-.06-.9-.86-1.49-1.28-2.49-1.77-.06.72-.22,1.12-.63,1.5-.51.5-1.36.76-2.43.76-1.84,0-2.98-.81-2.98-2.12,0-.57.24-1.12.64-1.5.58-.54,1.47-.82,2.59-.82.36,0,.67.03,1.05.07-.07-.97-.1-1.32-.12-1.63-.34.02-.54.02-.72.02-1.04,0-2.29-.17-3-.38-.15-.04-.21-.12-.21-.24,0-.22.09-.71.23-1.32.93.23,2.11.36,3.22.36h.43ZM176.18,244.49c-.96,0-1.49.29-1.49.79,0,.45.43.69,1.28.69.97,0,1.42-.34,1.42-1.09v-.25c-.39-.11-.69-.13-1.21-.13Z"/>
        <path d="M190.81,234.99c.38.1.48.18.48.34,0,.11-.01.15-.09.36-.17.43-.29,1.2-.34,2.25-.12,2.42-.18,4.29-.18,5.77,0,.48.04.84.12,1.08.17.5.69.75,1.53.75,1.35,0,2.62-.55,3.79-1.65.54-.51.87-.91,1.42-1.74.09.48.21.79.54,1.47.04.12.08.21.08.35,0,.27-.29.63-1.04,1.3-1.49,1.33-3.13,2.02-4.86,2.02-1.14,0-1.98-.28-2.52-.83-.57-.6-.79-1.38-.79-2.86,0-1.17.01-2.07.13-5.57.02-.52.03-.84.03-.97,0-1.28-.01-1.65-.11-2.29.77.03,1.35.09,1.8.21Z"/>
        <path d="M207.55,243.71c1.08.36,1.54.55,2.31.99.99.57,1.16.72,1.16,1.01,0,.13-.2.45-.51.85-.22.29-.32.36-.43.36q-.09,0-.58-.45c-.54-.5-1.12-.85-1.89-1.16,0,1.23-.93,1.91-2.64,1.91-1.53,0-2.45-.67-2.45-1.79s1.05-1.98,2.52-1.98c.27,0,.48.01,1.04.06-.11-1.8-.15-3.04-.17-4.51,0-.88-.03-1.15-.14-1.63.63.02,1.31.07,1.61.13.21.06.27.12.27.27,0,.08,0,.09-.09.27-.1.25-.17.85-.18,1.86.94-.04,1.46-.13,2.61-.45.03-.01.06-.01.08-.01.04,0,.09.01.11.04.1.13.3.99.3,1.32,0,.14-.04.17-.58.29-.9.18-1.61.27-2.49.29.02.74.04,1.16.17,2.34ZM204.95,244.73c-.72,0-1.09.21-1.09.63,0,.36.33.53,1,.53s1.02-.17,1.15-.54c.05-.12.06-.19.06-.46-.32-.1-.62-.15-1.12-.15Z"/>
        <path d="M219.53,238.43c.97-.25,1.62-.34,2.33-.34,2.13,0,3.36,1.26,3.36,3.42,0,1.88-.81,3.39-2.45,4.59-.87.65-2.19,1.29-2.62,1.29-.2,0-.24-.04-.56-.5-.22-.34-.45-.55-.82-.83,1.72-.58,2.44-.96,3.22-1.63.9-.79,1.35-1.75,1.35-2.89,0-1.21-.57-1.91-1.58-1.91-.81,0-1.86.32-3.22.98-.2.09-.3.16-.55.34-.06.03-.12.06-.18.06-.29,0-.77-.84-1.1-1.96.56-.04.84-.12,2.82-.62ZM220.54,234.77c.54.17,1.35.32,2.08.41.3.03.41.04,1.17.07.22,0,.29.06.29.22,0,.5-.11,1.31-.2,1.46-.03.09-.1.12-.21.12-.34,0-1.56-.17-2.26-.32-1.19-.24-2.22-.54-2.43-.71-.05-.04-.08-.1-.08-.17,0-.12.31-.93.46-1.21.08-.12.12-.15.21-.15q.08,0,.96.27Z"/>
        <path d="M237.01,246.06c0,.66-.52,1.19-1.18,1.19s-1.19-.53-1.19-1.19.53-1.18,1.19-1.18,1.18.52,1.18,1.18ZM236.48,243.84h-1.33l-.41-8.98h2.16l-.42,8.98Z"/>
      </g>
    </g>
  </g>
</svg>