<?xml version="1.0" encoding="UTF-8"?>
<svg id="_レイヤー_2" data-name="レイヤー 2" xmlns="http://www.w3.org/2000/svg" width="374" height="77.36" viewBox="0 0 374 77.36">
  <defs>
    <style>
      .cls-1 {
        fill: #fff;
      }

      .cls-2 {
        fill: #b2d5d9;
      }

      .cls-3 {
        fill: #739b9e;
      }
    </style>
  </defs>
  <g id="_レイヤー_1-2" data-name="レイヤー 1">
    <g>
      <rect class="cls-2" x="0" y="0" width="374" height="77.36"/>
      <rect class="cls-1" x="7.58" y="14.39" width="358.85" height="51.32" rx="25.57" ry="25.57"/>
      <g>
        <path class="cls-3" d="M124.06,39.25h2.27c.72,0,1.17-.03,1.65-.1v1.74c-.51-.05-.99-.08-1.67-.08h-1.73c.91,1.6,2.24,2.93,3.83,3.83-.51.51-.74.83-1.06,1.6-.66-.46-1.12-.91-1.73-1.6-.78-.91-1.12-1.41-1.63-2.37.03.58.05,1.07.05,1.54v1.94c0,.72.03,1.28.1,1.78h-1.78c.06-.5.1-1.07.1-1.79v-1.82c0-.43.02-.94.05-1.58-.98,1.76-2.06,2.95-3.62,3.99-.4-.75-.62-1.07-.96-1.46,1.65-.94,2.99-2.32,3.92-4.03h-1.01c-.69,0-1.18.03-1.68.1v-.64c-.27.38-.46.74-.66,1.3-.4-.62-.64-1.12-.94-1.92.03.5.06,1.36.06,2.03v3.94c0,.82.03,1.41.1,1.89h-1.78c.06-.5.1-1.09.1-1.89v-3.31c0-.61.02-.99.11-1.98-.46,1.55-.93,2.59-1.62,3.63-.19-.72-.4-1.18-.72-1.71.77-.98,1.57-2.79,2.05-4.64h-.61c-.46,0-.74.02-1.02.06v-1.63c.26.05.54.06,1.02.06h.77v-1.23c0-.82-.02-1.22-.08-1.6h1.76c-.06.42-.08.85-.08,1.6v1.23h.46c.38,0,.58-.02.83-.06v1.52c.61-1.09,1.12-2.69,1.17-3.73l1.55.4c-.06.18-.11.37-.22.85-.08.29-.11.43-.19.74h1.23v-1.06c0-.66-.03-1.06-.1-1.46h1.79c-.06.38-.1.82-.1,1.46v1.06h1.81c.77,0,1.22-.03,1.65-.1v1.68c-.45-.05-.96-.08-1.65-.08h-1.81v1.94ZM120.72,37.32c-.27.66-.42.96-.87,1.71q-.38-.4-1.25-1.01c.13-.18.18-.26.26-.37-.21-.03-.46-.05-.75-.05h-.4c.37.85.75,1.49,1.46,2.43v-.88c.48.06.93.1,1.66.1h1.63v-1.94h-1.74Z"/>
        <path class="cls-3" d="M132.94,37.8c-1.02,0-1.47.02-1.87.06v-1.76c.53.08.99.1,1.84.1h8.88c.8,0,1.31-.03,1.87-.1v1.76c-.53-.05-.98-.06-1.87-.06h-3.58v2.67h2.96c.67,0,1.15-.02,1.65-.08v1.74c-.51-.06-.83-.08-1.6-.08h-3.01v3.19h4.1c.8,0,1.36-.03,2.03-.1v1.82c-.67-.08-1.18-.11-2-.11h-9.78c-.91,0-1.41.03-2.08.11v-1.82c.53.06,1.15.1,2.03.1h3.91v-3.19h-2.75c-.82,0-1.22.02-1.75.08v-1.74c.46.06.82.08,1.62.08h2.88v-2.67h-3.47ZM135.76,33.11c1.58.54,2.11.75,3.99,1.65l-1.15,1.38c-1.55-.88-2.71-1.38-4.08-1.78l1.25-1.25Z"/>
        <path class="cls-3" d="M150.64,39.22c2.02-.56,3.47-.82,4.56-.82,2.26,0,3.65,1.23,3.65,3.23,0,1.2-.5,2.26-1.44,3.06-.62.53-1.55.98-2.79,1.34-.69.19-1.42.34-1.74.34-.19,0-.29-.05-.35-.21-.22-.56-.48-.96-.82-1.3,3.52-.37,5.31-1.49,5.31-3.31,0-.93-.77-1.65-1.76-1.65-1.73,0-3.62.58-5.6,1.68-.16.08-.26.13-.32.13-.27,0-.72-.8-1.09-1.95.78-.11,1.06-.18,2.38-.54Z"/>
        <path class="cls-3" d="M165.98,37.7c-.42.1-.56.14-1.14.35-.21.08-.32.11-.42.11-.35,0-.67-.66-.96-2.03,1.02-.05,1.39-.1,3.17-.37,1.92-.29,4.35-.66,5.63-.82,1.44-.19,2.59-.38,3.2-.51.11-.03.16-.03.24-.03.21,0,.29.1.43.5.13.34.22.82.22,1.04,0,.19-.06.26-.29.26-.34,0-.64.03-.94.08-2.71.45-4.87,2.82-4.87,5.31,0,1.87,1.47,3.11,3.97,3.33.22.02.3.1.3.29,0,.4-.16,1.17-.3,1.52-.08.18-.21.26-.42.26s-.69-.1-1.18-.24c-2.72-.8-4.15-2.53-4.15-4.98,0-1.33.43-2.56,1.26-3.62.45-.58.83-.9,1.74-1.52-2.1.35-4.31.77-5.52,1.07Z"/>
        <path class="cls-3" d="M185.89,41.67c.37-.11.64-.16.91-.16,1.1,0,1.62.66,1.82,2.31.11.94.16,1.12.38,1.31.19.19.5.26,1.06.26.75,0,1.12-.06,2.43-.42.05-.02.08-.02.11-.02.1,0,.14.03.21.14.11.26.24,1.1.24,1.57,0,.14-.03.21-.18.24-.43.11-1.95.24-2.88.24-1.39,0-2.13-.26-2.56-.91-.27-.43-.4-.91-.5-1.9-.11-1.23-.3-1.54-.94-1.54-.58,0-1.02.29-1.97,1.23-.91.91-1.7,1.87-2.22,2.71-.1.16-.21.26-.3.26-.11,0-.22-.1-.72-.62-.48-.53-.66-.74-.66-.83,0-.11.03-.14.32-.4q.38-.32,6.34-6.66c-2.58.46-4.21.8-4.59.94-.18.06-.24.08-.32.08-.14,0-.18-.05-.27-.37-.16-.53-.24-.94-.3-1.58.34.02.45.02.56.02.7,0,2.67-.19,4.45-.45,1.34-.18,1.55-.22,1.9-.4.1-.05.19-.08.26-.08.4,0,1.31,1.04,1.31,1.5,0,.19-.06.27-.27.38-.24.1-.58.32-.86.56-.16.13-.64.58-.86.78l-1.89,1.81ZM183.98,33.67c.06-.19.11-.27.19-.26s.13.02.16.03c.66.22,1.26.37,1.95.5.99.19,1.14.21,2.85.29.19.02.21.06.21.45,0,.48-.06,1.07-.14,1.2-.05.1-.11.14-.19.14s-1.81-.19-2.07-.22c-1.15-.18-2.16-.42-3.06-.74-.14-.06-.19-.11-.19-.22,0-.14.11-.62.29-1.17Z"/>
        <path class="cls-3" d="M204.99,39.29c2.19,0,3.62,1.3,3.62,3.27s-1.2,3.22-3.6,3.99c-.86.27-2.29.53-2.93.53-.34,0-.42-.08-.64-.54-.18-.37-.37-.59-.85-.93,4.02-.32,6-1.34,6-3.09,0-.98-.69-1.55-1.84-1.55-1.46,0-2.96.75-4.19,2.08-.22.22-.43.5-.58.74-.14.24-.24.32-.38.32-.24,0-.8-.24-1.18-.53-.19-.14-.26-.26-.26-.51q0-.13.05-.51s0-.16.02-.34c.08-1.02.13-1.46.32-2.9q.03-.18.14-.93s.05-.35.13-.94c.02-.14.03-.27.03-.53.77.11,1.49.29,1.79.46.13.06.19.14.18.24,0,.06-.03.11-.08.21-.18.27-.22.42-.37,1.02-.14.61-.37,2.02-.4,2.54,1.63-1.5,3.06-2.1,5.03-2.1ZM204.7,34.72c.62.37.82.54.82.72,0,.14-.26.62-.53,1.02-.26.37-.35.45-.48.45-.08,0-.13-.03-.32-.18-1.07-.82-1.92-1.28-3.12-1.7-.24-.1-.29-.13-.29-.26,0-.16.13-.43.42-.85.26-.38.37-.48.54-.48.38,0,1.95.67,2.96,1.26Z"/>
        <path class="cls-3" d="M213.44,36.69c0-.46-.02-1.09-.05-1.44.74.08,1.28.19,1.71.35.38.14.51.24.51.42q0,.1-.06.26c-.21.54-.27,1.15-.27,2.61,0,2.05.13,3.33.45,4.31.24.75.61,1.18,1.04,1.18.66,0,1.2-.77,1.79-2.54.3.82.42,1.06.86,1.63.08.11.13.22.13.34,0,.26-.24.8-.56,1.26-.62.91-1.42,1.41-2.27,1.41-1.23,0-2.16-.99-2.74-2.96-.37-1.28-.54-2.9-.54-5.14v-1.68ZM222.96,36.95c.1,0,.18.05.3.16.8.77,1.63,2.05,2.16,3.3.35.85.69,1.98.69,2.32,0,.16-.08.24-.42.42-.37.19-1.12.45-1.31.45-.14,0-.21-.08-.26-.37-.21-1.23-.5-2.13-.99-3.17-.45-.93-.48-.98-1.57-2.32.67-.5,1.2-.78,1.39-.78Z"/>
        <path class="cls-3" d="M235.01,43.58c-.77,1.33-1.83,2.06-2.91,2.06-1.67,0-2.85-1.63-2.85-3.91,0-2.53,1.28-4.71,3.47-5.86,1.07-.58,2.22-.83,3.75-.83,3.34,0,5.83,2.37,5.83,5.54,0,2.8-1.38,4.82-4.03,5.95-.53.22-.94.35-1.15.35-.19,0-.27-.06-.48-.37-.27-.42-.58-.72-1.01-1.01,3.3-.85,4.79-2.4,4.79-4.99,0-1.33-.56-2.45-1.55-3.15-.56-.38-1.01-.54-1.89-.69-.45,3.38-.98,5.22-1.95,6.9ZM232.7,37.91c-1.07.94-1.68,2.29-1.68,3.79,0,1.23.4,1.95,1.07,1.95.8,0,1.62-1.1,2.22-3.01.38-1.2.58-2.11.82-3.89-1.14.24-1.7.51-2.43,1.15Z"/>
        <path class="cls-3" d="M248.13,36.5c.37-.96.72-1.47,1.33-1.98.74-.61,1.62-.9,2.74-.9,2.4,0,3.94,1.31,3.94,3.36,0,.69-.19,1.34-.56,1.87-.29.42-.42.54-1.31,1.36-1.25,1.12-1.52,1.55-1.52,2.4v.85h-1.63v-.9c0-.72.14-1.36.43-1.87.22-.4.46-.67,1.1-1.31.67-.66.88-.9,1.06-1.18.22-.32.35-.77.35-1.2,0-1.07-.72-1.74-1.86-1.74s-1.81.59-2.29,1.98l-1.78-.74ZM253.23,45.83c0,.7-.56,1.26-1.26,1.26s-1.26-.56-1.26-1.26.56-1.26,1.26-1.26,1.26.56,1.26,1.26Z"/>
      </g>
      <g>
        <g>
          <path class="cls-3" d="M43.15,35.58c.02-1.97.63-3.49,1.83-4.55,1.13-1.05,2.47-1.58,4.03-1.58s2.98.53,4.11,1.58c1.15,1.06,1.74,2.58,1.77,4.56v9.42c-.04,1.96-.63,3.48-1.77,4.54-1.13,1.05-2.5,1.59-4.11,1.61-1.56-.02-2.91-.56-4.03-1.61-1.2-1.06-1.81-2.57-1.83-4.53v-9.44ZM51.94,35.77c-.06-2.14-1.03-3.23-2.92-3.27-1.9.04-2.87,1.13-2.91,3.27v9.07c.04,2.16,1.01,3.25,2.91,3.27,1.89-.02,2.87-1.11,2.92-3.27v-9.07Z"/>
          <path class="cls-3" d="M58.06,29.63h11.03v3.05h-8.25v4.87c.97-.78,2.07-1.17,3.32-1.17.8.02,1.53.17,2.19.44.63.3,1.13.67,1.52,1.11.58.59.99,1.26,1.24,2.04.13.42.23.93.28,1.54.06.61.08,1.37.08,2.27,0,1.39-.09,2.45-.28,3.19-.2.73-.53,1.38-.99,1.95-.41.55-1,1.06-1.77,1.52-.76.48-1.66.72-2.7.74-1.4,0-2.68-.43-3.85-1.29-1.18-.88-1.92-2.29-2.2-4.25h2.97c.32,1.64,1.31,2.48,2.97,2.5.71,0,1.28-.15,1.71-.44.41-.28.69-.66.85-1.12.17-.46.28-.96.31-1.5.02-.53.03-1.04.03-1.54.02-1.22-.17-2.22-.56-2.98-.21-.36-.52-.65-.93-.87-.41-.18-.92-.26-1.53-.26-.54,0-1.04.13-1.48.38-.45.26-.85.72-1.2,1.38h-2.78v-11.54Z"/>
        </g>
        <path class="cls-3" d="M33.72,42.84c-.76.79-1.8,1.41-3.01,1.81-.17-.32-.31-.52-.56-.82,1.2-.29,2.21-.79,2.94-1.47h-1.5c-.05.18-.06.22-.13.43l-1.01-.02c.24-.56.38-1.02.49-1.58.08-.39.14-.77.14-.95.17.02.4.03.82.03h1.78l-.02-.58h-1.93c-.34,0-.56,0-.8.04v-.83c-.1.08-.13.12-.26.23-.17-.29-.35-.5-.56-.69.74-.57,1.16-1.12,1.35-1.76l.93.17c-.11.23-.14.29-.25.47h1.11c.41,0,.64-.02.85-.04v.7c.34-.4.55-.78.7-1.3l.92.16q-.07.17-.22.49h1.65c.46,0,.67,0,.95-.05v.9c-.26-.04-.52-.05-.9-.05h-.68c.23.33.23.35.38.59l-.71.2h.41c.43,0,.59,0,.81-.03-.03.16-.04.3-.04.61v.91c0,.31,0,.45.04.63-.2-.02-.47-.03-.81-.03h-1.99v.57h2.47c.33,0,.52,0,.74-.03-.02.11-.02.17-.03.26t-.03.26s-.02.22-.05.55c-.09.86-.14,1.07-.31,1.27-.17.2-.43.26-1.02.26-.25,0-.43,0-.8-.03-.05-.36-.11-.56-.22-.85.33.04.74.08.95.08.47,0,.49-.05.55-1.01h-2.22l.02,1.45c0,.46.02.68.06.95h-1.02c.04-.25.05-.4.05-.75v-.22l-.02-.96ZM32.48,38.94c-.11-.29-.22-.5-.39-.8h-.48c-.21.29-.4.5-.68.77.21.03.38.04.79.04h.75ZM33.69,41.04h-1.77c-.03.19-.04.21-.12.57h1.9v-.57ZM34.18,38.94c-.13-.16-.31-.33-.56-.51.15-.12.2-.15.32-.27-.15,0-.32-.02-.49-.02h-.48c.11.17.17.26.34.58l-.71.22h1.58ZM36.01,38.94c-.1-.22-.26-.51-.44-.79h-.53c-.23.33-.42.55-.69.79h1.67ZM34.59,40.28h1.87v-.58h-1.88v.58Z"/>
        <path class="cls-3" d="M79.8,44.74v-.47h-5.38v.47h-1.01c.04-.28.05-.64.05-1.12v-5.46c0-.42-.02-.69-.05-1.04.32.04.59.05,1.02.05h5.36c.42,0,.7,0,1.02-.05-.04.32-.04.6-.04,1.04v5.47c0,.47.02.89.04,1.11h-1ZM74.42,43.42h5.38v-5.39h-5.38v5.39ZM78.02,39.01c.38,0,.6,0,.83-.03-.02.21-.03.41-.03.68v2.06c0,.29,0,.47.03.68-.26-.02-.47-.03-.83-.03h-1.85c-.43,0-.57,0-.84.03.03-.23.04-.42.04-.68v-2.06c0-.25,0-.45-.04-.68.22.02.46.03.84.03h1.85ZM76.28,41.58h1.63v-1.76h-1.63v1.76Z"/>
      </g>
      <rect class="cls-2" x="95.06" y="32.52" width="1.42" height="15.06"/>
    </g>
  </g>
</svg>